<?xml version="1.0" encoding="utf-8"?>
<!-- Generator: Adobe Illustrator 16.0.0, SVG Export Plug-In . SVG Version: 6.00 Build 0)  -->
<!DOCTYPE svg PUBLIC "-//W3C//DTD SVG 1.1//EN" "http://www.w3.org/Graphics/SVG/1.1/DTD/svg11.dtd">
<svg version="1.1" id="Layer_1" xmlns="http://www.w3.org/2000/svg" xmlns:xlink="http://www.w3.org/1999/xlink" x="0px" y="0px"
	 width="136.051px" height="99.824px" viewBox="0 0 136.051 99.824" enable-background="new 0 0 136.051 99.824"
	 xml:space="preserve">
<path fill="#FFFFFF" d="M17.589,44.393c-1.111,0.452-1.621,1.662-1.139,2.703c0.482,1.04,1.773,1.517,2.883,1.066
	c1.111-0.451,1.62-1.661,1.138-2.702C19.99,44.419,18.699,43.941,17.589,44.393 M16.029,39.759
	c-1.147,0.326-1.795,1.462-1.446,2.536c0.348,1.076,1.56,1.682,2.707,1.355s1.794-1.462,1.445-2.537
	C18.388,40.039,17.175,39.433,16.029,39.759 M15.766,38.771c1.059-0.188,1.755-1.146,1.554-2.14
	c-0.201-0.993-1.222-1.646-2.282-1.457s-1.757,1.145-1.555,2.139C13.683,38.308,14.706,38.96,15.766,38.771 M14.832,33.764
	c0.956-0.072,1.668-0.858,1.591-1.754c-0.078-0.896-0.916-1.563-1.872-1.49c-0.955,0.073-1.667,0.858-1.59,1.754
	C13.038,33.17,13.877,33.837,14.832,33.764 M14.498,28.69c0.839,0.019,1.535-0.604,1.555-1.391c0.02-0.786-0.645-1.439-1.484-1.457
	c-0.838-0.019-1.535,0.604-1.554,1.39C12.995,28.019,13.66,28.672,14.498,28.69 M14.757,23.612c0.713,0.087,1.367-0.386,1.459-1.055
	c0.092-0.668-0.411-1.279-1.124-1.366c-0.714-0.087-1.367,0.385-1.459,1.053C13.541,22.914,14.044,23.524,14.757,23.612
	 M15.605,18.592c0.582,0.131,1.169-0.204,1.31-0.751c0.14-0.546-0.218-1.095-0.801-1.228c-0.582-0.132-1.169,0.204-1.309,0.749
	C14.664,17.909,15.022,18.459,15.605,18.592 M17.067,13.695c0.45,0.155,0.949-0.062,1.114-0.483s-0.066-0.89-0.516-1.044
	c-0.45-0.155-0.949,0.062-1.114,0.483S16.617,13.542,17.067,13.695 M19.116,8.987c0.323,0.148,0.713,0.022,0.871-0.279
	c0.157-0.304,0.023-0.669-0.3-0.816c-0.323-0.148-0.714-0.023-0.871,0.28C18.659,8.475,18.793,8.841,19.116,8.987 M21.705,4.521
	c0.202,0.121,0.471,0.068,0.6-0.122c0.13-0.188,0.072-0.44-0.129-0.562c-0.202-0.121-0.471-0.067-0.6,0.121
	C21.446,4.147,21.504,4.399,21.705,4.521 M25.131,0.33c0.073-0.09,0.057-0.218-0.037-0.286c-0.095-0.069-0.231-0.055-0.305,0.033
	c-0.074,0.089-0.058,0.217,0.036,0.286C24.92,0.433,25.056,0.418,25.131,0.33 M18.882,51.654c0.598,0.986,1.936,1.33,2.989,0.77
	c1.052-0.562,1.419-1.815,0.821-2.801c-0.599-0.986-1.937-1.33-2.989-0.77C18.65,49.414,18.283,50.669,18.882,51.654 M21.829,55.934
	c0.7,0.912,2.056,1.119,3.029,0.463c0.972-0.657,1.193-1.927,0.493-2.84c-0.7-0.91-2.057-1.117-3.029-0.461
	C21.349,53.752,21.129,55.023,21.829,55.934 M25.389,59.779c0.723,0.75,1.957,0.811,2.759,0.133
	c0.801-0.678,0.864-1.835,0.142-2.586c-0.723-0.75-1.957-0.81-2.759-0.133C24.73,57.871,24.667,59.028,25.389,59.779 M29.359,63.218
	c0.715,0.599,1.813,0.541,2.451-0.129c0.639-0.67,0.577-1.699-0.138-2.298c-0.715-0.599-1.813-0.541-2.452,0.129
	C28.582,61.591,28.644,62.619,29.359,63.218 M33.675,66.226c0.681,0.459,1.631,0.315,2.121-0.323
	c0.49-0.639,0.336-1.527-0.345-1.987c-0.681-0.459-1.63-0.315-2.12,0.322C32.84,64.876,32.995,65.765,33.675,66.226 M38.292,68.774
	c0.624,0.333,1.42,0.13,1.776-0.456s0.138-1.331-0.487-1.665c-0.624-0.334-1.42-0.13-1.775,0.456
	C37.45,67.695,37.668,68.439,38.292,68.774 M43.158,70.836c0.55,0.223,1.189-0.015,1.427-0.529c0.238-0.516-0.014-1.114-0.564-1.337
	c-0.55-0.224-1.189,0.012-1.427,0.528C42.356,70.014,42.608,70.611,43.158,70.836 M48.212,72.385
	c0.459,0.132,0.945-0.109,1.086-0.539c0.14-0.429-0.117-0.884-0.576-1.018c-0.458-0.131-0.944,0.11-1.085,0.539
	C47.496,71.798,47.754,72.253,48.212,72.385 M53.396,73.407c0.353,0.063,0.693-0.155,0.758-0.487
	c0.066-0.331-0.168-0.65-0.522-0.711c-0.354-0.062-0.693,0.157-0.758,0.488C52.808,73.029,53.042,73.348,53.396,73.407
	 M58.64,73.882c0.239,0.017,0.447-0.151,0.465-0.376c0.018-0.225-0.162-0.418-0.401-0.437c-0.239-0.017-0.447,0.152-0.465,0.377
	C58.221,73.67,58.401,73.864,58.64,73.882 M63.881,73.828c0.122-0.003,0.216-0.097,0.213-0.209
	c-0.003-0.111-0.102-0.201-0.223-0.197c-0.12,0.003-0.214,0.096-0.211,0.208C63.662,73.741,63.762,73.831,63.881,73.828
	 M28.506,67.549c-1.098-0.846-2.718-0.696-3.62,0.333c-0.902,1.028-0.742,2.548,0.355,3.392c1.098,0.846,2.718,0.696,3.62-0.333
	C29.762,69.913,29.603,68.394,28.506,67.549 M24.155,67.251c1.007-0.919,1.028-2.432,0.047-3.375
	c-0.981-0.944-2.594-0.963-3.6-0.043c-1.007,0.919-1.029,2.431-0.048,3.374C21.536,68.15,23.148,68.171,24.155,67.251
	 M19.757,62.938c0.994-0.735,1.165-2.085,0.382-3.016c-0.784-0.934-2.224-1.092-3.218-0.359c-0.994,0.736-1.165,2.085-0.382,3.018
	C17.323,63.513,18.763,63.672,19.757,62.938 M13.081,57.602c0.599,0.892,1.857,1.161,2.809,0.599
	c0.953-0.561,1.239-1.739,0.64-2.633c-0.599-0.892-1.857-1.161-2.809-0.6C12.768,55.53,12.482,56.709,13.081,57.602 M13.428,50.855
	c-0.432-0.828-1.5-1.173-2.384-0.767c-0.885,0.403-1.252,1.403-0.819,2.233c0.431,0.829,1.499,1.174,2.384,0.768
	C13.493,52.685,13.86,51.685,13.428,50.855 M9.96,47.668c0.794-0.27,1.206-1.09,0.92-1.834c-0.286-0.744-1.162-1.131-1.956-0.861
	c-0.794,0.268-1.206,1.088-0.92,1.832C8.291,47.55,9.166,47.936,9.96,47.668 M8.922,40.56c-0.163-0.641-0.849-1.037-1.534-0.883
	c-0.684,0.153-1.107,0.796-0.944,1.437c0.164,0.643,0.851,1.038,1.535,0.885C8.663,41.845,9.086,41.201,8.922,40.56 M6.453,34.258
	c-0.558,0.067-0.951,0.547-0.878,1.07s0.584,0.892,1.142,0.822c0.558-0.067,0.951-0.547,0.878-1.069
	C7.522,34.558,7.011,34.189,6.453,34.258 M6.14,30.212c0.421-0.01,0.757-0.336,0.748-0.731c-0.008-0.395-0.357-0.709-0.779-0.702
	c-0.422,0.009-0.757,0.336-0.748,0.731C5.369,29.904,5.718,30.22,6.14,30.212 M6.27,24.247c0.281,0.02,0.526-0.178,0.546-0.44
	c0.022-0.262-0.189-0.491-0.469-0.512c-0.281-0.02-0.525,0.178-0.546,0.44S5.99,24.228,6.27,24.247 M7.106,18.334
	c0.139,0.023,0.271-0.063,0.295-0.193c0.025-0.13-0.067-0.253-0.206-0.277c-0.138-0.022-0.271,0.063-0.295,0.194
	C6.875,18.188,6.968,18.311,7.106,18.334 M33.203,70.767c-1.191-0.726-2.784-0.409-3.558,0.707
	c-0.774,1.116-0.437,2.609,0.754,3.334c1.19,0.726,2.783,0.41,3.558-0.707C34.731,72.984,34.393,71.491,33.203,70.767
	 M38.236,73.529c-1.254-0.596-2.787-0.129-3.424,1.046c-0.638,1.176-0.139,2.613,1.115,3.209c1.253,0.599,2.786,0.131,3.424-1.045
	C39.988,75.564,39.489,74.128,38.236,73.529 M41.842,80.002c1.184,0.42,2.507-0.14,2.955-1.248c0.448-1.11-0.148-2.35-1.332-2.77
	c-1.183-0.42-2.506,0.139-2.954,1.248C40.063,78.343,40.659,79.581,41.842,80.002 M47.961,81.591c1.091,0.262,2.2-0.355,2.479-1.376
	c0.279-1.022-0.378-2.062-1.469-2.323c-1.089-0.262-2.199,0.355-2.478,1.375C46.214,80.289,46.871,81.328,47.961,81.591
	 M54.194,82.534c0.974,0.133,1.879-0.5,2.021-1.412c0.141-0.914-0.533-1.762-1.507-1.895c-0.974-0.133-1.88,0.499-2.021,1.413
	C52.545,81.554,53.22,82.401,54.194,82.534 M60.472,82.846c0.842,0.03,1.553-0.585,1.586-1.375c0.033-0.79-0.624-1.456-1.466-1.486
	c-0.844-0.032-1.554,0.584-1.587,1.375C58.972,82.148,59.629,82.814,60.472,82.846 M66.723,82.537
	c0.702-0.045,1.234-0.613,1.187-1.271c-0.047-0.658-0.653-1.156-1.354-1.112c-0.702,0.043-1.234,0.612-1.187,1.271
	C65.415,82.081,66.021,82.58,66.723,82.537 M72.887,81.618c0.554-0.093,0.922-0.588,0.822-1.107
	c-0.099-0.52-0.628-0.864-1.182-0.773c-0.555,0.095-0.922,0.589-0.823,1.109C71.803,81.365,72.332,81.712,72.887,81.618
	 M78.867,80.054c0.405-0.111,0.639-0.509,0.52-0.887c-0.117-0.382-0.541-0.6-0.947-0.488c-0.404,0.11-0.639,0.508-0.521,0.888
	C78.038,79.945,78.463,80.166,78.867,80.054 M84.616,77.924c0.261-0.101,0.385-0.379,0.278-0.622
	c-0.106-0.245-0.403-0.362-0.664-0.261c-0.262,0.1-0.385,0.379-0.279,0.622C84.059,77.906,84.356,78.024,84.616,77.924
	 M90.049,75.209c0.123-0.062,0.172-0.206,0.105-0.323s-0.221-0.161-0.346-0.099c-0.123,0.062-0.17,0.206-0.104,0.322
	C89.77,75.227,89.926,75.271,90.049,75.209 M52.147,88.53c0.341-1.494-0.675-2.964-2.271-3.282c-1.593-0.32-3.162,0.632-3.503,2.126
	c-0.341,1.493,0.675,2.965,2.269,3.284C50.236,90.978,51.806,90.025,52.147,88.53 M43.414,83.64
	c-1.533-0.475-3.187,0.305-3.693,1.741s0.325,2.986,1.858,3.462c1.533,0.474,3.186-0.305,3.692-1.742
	C45.778,85.665,44.946,84.114,43.414,83.64 M37.054,81.622c-1.324-0.563-2.883-0.017-3.485,1.224
	c-0.601,1.239-0.017,2.701,1.306,3.264c1.323,0.565,2.882,0.019,3.484-1.222C38.96,83.647,38.376,82.186,37.054,81.622
	 M30.93,78.961c-1.112-0.615-2.546-0.271-3.203,0.771c-0.657,1.043-0.288,2.385,0.824,3.002c1.112,0.615,2.545,0.271,3.202-0.772
	C32.41,80.921,32.042,79.575,30.93,78.961 M25.122,75.68c-0.906-0.633-2.188-0.458-2.863,0.391c-0.676,0.85-0.489,2.052,0.417,2.685
	c0.906,0.633,2.188,0.458,2.863-0.392C26.215,77.515,26.028,76.312,25.122,75.68 M17.222,71.9c-0.658,0.666-0.617,1.706,0.094,2.323
	c0.71,0.617,1.82,0.577,2.478-0.087c0.659-0.668,0.617-1.707-0.094-2.324C18.99,71.195,17.88,71.234,17.222,71.9 M14.73,67.407
	c-0.528-0.572-1.452-0.635-2.062-0.14c-0.611,0.495-0.678,1.36-0.149,1.933c0.528,0.571,1.451,0.635,2.061,0.14
	C15.191,68.844,15.258,67.979,14.73,67.407 M8.666,62.206c-0.531,0.345-0.663,1.027-0.295,1.525
	c0.368,0.496,1.096,0.621,1.627,0.276c0.531-0.345,0.663-1.028,0.295-1.525C9.925,61.984,9.197,61.86,8.666,62.206 M5.214,56.801
	c-0.425,0.218-0.582,0.717-0.35,1.115c0.231,0.398,0.764,0.546,1.189,0.328s0.582-0.717,0.35-1.114
	C6.171,56.73,5.639,56.584,5.214,56.801 M2.389,51.085C2.09,51.199,1.947,51.52,2.07,51.8s0.464,0.414,0.762,0.299
	c0.299-0.115,0.442-0.434,0.319-0.715C3.029,51.104,2.687,50.97,2.389,51.085 M0.212,45.124c-0.155,0.042-0.245,0.193-0.201,0.34
	c0.045,0.145,0.207,0.229,0.362,0.187c0.155-0.041,0.245-0.192,0.201-0.339C0.529,45.167,0.367,45.083,0.212,45.124 M59.119,89.238
	c0.16-1.52-1.024-2.875-2.646-3.024c-1.623-0.152-3.069,0.959-3.229,2.479c-0.161,1.521,1.024,2.875,2.646,3.027
	C57.512,91.869,58.958,90.76,59.119,89.238 M66.102,89.247c-0.014-1.514-1.335-2.729-2.949-2.715
	c-1.615,0.015-2.911,1.252-2.896,2.766c0.015,1.512,1.336,2.728,2.949,2.714C64.821,91.997,66.117,90.76,66.102,89.247
	 M72.788,88.602c-0.168-1.353-1.474-2.321-2.918-2.163c-1.443,0.157-2.476,1.381-2.309,2.734c0.169,1.352,1.475,2.32,2.917,2.164
	C71.922,91.179,72.956,89.955,72.788,88.602 M79.367,87.32c-0.285-1.181-1.538-1.92-2.797-1.652
	c-1.26,0.269-2.049,1.441-1.764,2.622s1.539,1.921,2.797,1.651C78.863,89.675,79.653,88.501,79.367,87.32 M83.172,84.217
	c-1.068,0.344-1.639,1.434-1.271,2.436c0.365,1.001,1.529,1.536,2.598,1.192c1.069-0.342,1.639-1.434,1.271-2.436
	C85.404,84.407,84.24,83.874,83.172,84.217 M91.082,85.069c0.877-0.384,1.256-1.362,0.846-2.185s-1.455-1.177-2.332-0.792
	c-0.877,0.384-1.256,1.363-0.845,2.185C89.161,85.101,90.204,85.455,91.082,85.069 M97.282,81.656
	c0.69-0.393,0.909-1.235,0.489-1.882s-1.318-0.852-2.008-0.459c-0.69,0.394-0.908,1.236-0.489,1.882
	C95.694,81.845,96.594,82.049,97.282,81.656 M103.032,77.653c0.512-0.37,0.606-1.058,0.212-1.537
	c-0.396-0.479-1.13-0.568-1.643-0.198c-0.512,0.37-0.605,1.059-0.211,1.539C101.786,77.936,102.52,78.024,103.032,77.653
	 M108.258,73.115c0.352-0.313,0.363-0.835,0.03-1.163c-0.335-0.327-0.89-0.341-1.239-0.027c-0.353,0.312-0.365,0.834-0.031,1.163
	C107.352,73.416,107.907,73.429,108.258,73.115 M112.024,67.381c-0.212,0.229-0.185,0.575,0.06,0.772
	c0.244,0.199,0.614,0.174,0.825-0.056s0.185-0.575-0.06-0.773C112.605,67.127,112.235,67.152,112.024,67.381 M116.543,62.73
	c0.135,0.086,0.315,0.054,0.407-0.071c0.091-0.124,0.058-0.295-0.076-0.38c-0.134-0.086-0.315-0.054-0.407,0.07
	C116.376,62.475,116.41,62.646,116.543,62.73 M81.307,91.665c-1.774,0.457-2.818,2.176-2.332,3.839
	c0.488,1.662,2.32,2.642,4.095,2.185c1.774-0.455,2.819-2.173,2.333-3.837C84.914,92.188,83.081,91.21,81.307,91.665 M73.943,93.2
	c-1.801,0.269-3.027,1.854-2.74,3.54c0.287,1.687,1.979,2.836,3.777,2.567c1.8-0.268,3.025-1.854,2.738-3.54
	C77.434,94.082,75.742,92.933,73.943,93.2 M66.453,94.263c-1.637,0.074-2.901,1.38-2.821,2.915c0.079,1.534,1.472,2.719,3.109,2.644
	c1.638-0.074,2.901-1.38,2.823-2.915C69.483,95.372,68.091,94.188,66.453,94.263 M58.836,94.563
	c-1.456-0.077-2.702,0.966-2.784,2.331c-0.082,1.363,1.03,2.531,2.486,2.608c1.456,0.078,2.702-0.965,2.784-2.33
	C61.404,95.809,60.291,94.64,58.836,94.563 M51.195,94.1c-1.259-0.193-2.447,0.607-2.653,1.787
	c-0.206,1.179,0.647,2.292,1.906,2.485s2.447-0.607,2.653-1.787C53.306,95.406,52.453,94.293,51.195,94.1 M43.617,92.865
	c-1.053-0.271-2.143,0.308-2.435,1.295c-0.29,0.988,0.329,2.011,1.382,2.283c1.054,0.272,2.144-0.307,2.436-1.295
	C45.29,94.16,44.671,93.139,43.617,92.865 M36.193,90.874c-0.847-0.315-1.807,0.071-2.143,0.864
	c-0.337,0.794,0.076,1.694,0.923,2.011c0.847,0.314,1.806-0.072,2.143-0.866C37.453,92.09,37.039,91.189,36.193,90.874
	 M29.028,88.089c-0.643-0.322-1.443-0.093-1.786,0.51c-0.342,0.603-0.098,1.353,0.545,1.673c0.643,0.322,1.443,0.093,1.785-0.51
	C29.915,89.158,29.671,88.409,29.028,88.089 M22.173,84.599c-0.453-0.287-1.069-0.176-1.375,0.248
	c-0.307,0.425-0.188,1.001,0.265,1.289c0.452,0.287,1.067,0.176,1.374-0.249C22.743,85.464,22.626,84.886,22.173,84.599
	 M15.739,80.415c-0.276-0.223-0.694-0.192-0.931,0.066c-0.237,0.26-0.204,0.65,0.073,0.872c0.276,0.223,0.693,0.192,0.93-0.066
	C16.049,81.026,16.016,80.637,15.739,80.415 M9.328,75.565c-0.132,0.118-0.137,0.313-0.011,0.438s0.335,0.128,0.467,0.01
	c0.131-0.117,0.136-0.313,0.01-0.438C9.668,75.451,9.459,75.447,9.328,75.565 M88.477,89.433c-1.713,0.631-2.558,2.442-1.885,4.048
	c0.672,1.606,2.604,2.397,4.317,1.768c1.713-0.631,2.558-2.442,1.885-4.048C92.124,89.595,90.189,88.803,88.477,89.433
	 M95.35,86.525c-1.613,0.797-2.231,2.667-1.383,4.177c0.851,1.512,2.846,2.092,4.459,1.295c1.61-0.796,2.229-2.665,1.379-4.178
	C98.956,86.31,96.96,85.73,95.35,86.525 M102.01,83.167c-1.355,0.863-1.707,2.595-0.785,3.865c0.922,1.271,2.769,1.602,4.125,0.736
	c1.355-0.863,1.707-2.595,0.785-3.865S103.366,82.303,102.01,83.167 M108.292,79.118c-1.112,0.884-1.251,2.444-0.309,3.487
	c0.942,1.042,2.606,1.171,3.72,0.29c1.112-0.883,1.25-2.444,0.309-3.487S109.405,78.236,108.292,79.118 M114.106,74.445
	c-0.882,0.864-0.849,2.234,0.073,3.061c0.922,0.827,2.383,0.796,3.266-0.068c0.882-0.863,0.849-2.234-0.073-3.06
	C116.45,73.552,114.988,73.582,114.106,74.445 M122.154,68.857c-0.866-0.625-2.11-0.475-2.777,0.336
	c-0.668,0.812-0.507,1.977,0.358,2.604c0.864,0.626,2.108,0.475,2.776-0.337S123.02,69.483,122.154,68.857 M126.301,62.905
	c-0.775-0.444-1.791-0.215-2.267,0.513s-0.229,1.68,0.547,2.126c0.777,0.444,1.792,0.216,2.267-0.513
	C127.324,64.303,127.079,63.352,126.301,62.905 M129.774,56.584c-0.66-0.289-1.446-0.023-1.755,0.596
	c-0.31,0.619-0.025,1.355,0.637,1.645c0.66,0.29,1.445,0.023,1.754-0.597C130.719,57.609,130.434,56.874,129.774,56.584
	 M132.521,49.956c-0.518-0.168-1.081,0.087-1.26,0.57c-0.181,0.484,0.092,1.014,0.608,1.182c0.517,0.169,1.081-0.089,1.261-0.571
	C133.311,50.652,133.037,50.124,132.521,49.956 M134.535,43.1c-0.355-0.078-0.711,0.129-0.794,0.461
	c-0.083,0.333,0.138,0.666,0.492,0.744c0.356,0.078,0.71-0.129,0.794-0.462C135.109,43.511,134.889,43.177,134.535,43.1
	 M136.049,36.43c-0.023,0.169-0.189,0.289-0.371,0.267c-0.181-0.021-0.308-0.178-0.283-0.347c0.022-0.169,0.188-0.288,0.369-0.267
	C135.945,36.104,136.072,36.261,136.049,36.43"/>
</svg>
