<?xml version="1.0" encoding="UTF-8"?><svg id="a" xmlns="http://www.w3.org/2000/svg" viewBox="0 0 58 42.3"><defs><style>.b{fill:#483092;}</style></defs><polygon class="b" points="35.5 21.8 44.7 0 58 0 46.4 15.2 57.9 15.1 32.6 40.9 41.2 21.8 35.5 21.8"/><g><path class="b" d="M31.7,37.2c-.6-1-1.7-1.7-3-1.7-1.9,0-3.4,1.5-3.4,3.4s1.5,3.4,3.4,3.4c.2,0,.5,0,.7-.1l1-2.3,1.3-2.7Z"/><path class="b" d="M34,32.2l2.3-5.1c-5.9-3.2-13.5-2.4-18.5,2.6l-2,2,3.9,3.9,2-2c3.3-3.3,8.4-3.8,12.3-1.4Z"/><path class="b" d="M34,19.5l2.1-5.1c-8.4-2.7-18-.7-24.6,6l-3.4,3.4,3.9,3.9,3.4-3.4c5-5.1,12.2-6.7,18.6-4.8Z"/><path class="b" d="M38.4,9l2.1-5.1C27.8-.4,13.1,2.5,3,12.6L0,15.6l3.9,3.9,3-3c8.5-8.5,20.8-11,31.5-7.5Z"/></g></svg>