<?xml version="1.0" encoding="utf-8"?>
<!-- Generator: Adobe Illustrator 16.0.0, SVG Export Plug-In . SVG Version: 6.00 Build 0)  -->
<!DOCTYPE svg PUBLIC "-//W3C//DTD SVG 1.1//EN" "http://www.w3.org/Graphics/SVG/1.1/DTD/svg11.dtd">
<svg version="1.1" id="Layer_1" xmlns="http://www.w3.org/2000/svg" xmlns:xlink="http://www.w3.org/1999/xlink" x="0px" y="0px"
	 width="538.248px" height="8.003px" viewBox="0 0 538.248 8.003" enable-background="new 0 0 538.248 8.003" xml:space="preserve">
<g>
	<defs>
		<path id="SVGID_1_" d="M0,4.001c0,0.775,0.628,1.404,1.402,1.404s1.402-0.629,1.402-1.404c0-0.774-0.628-1.402-1.402-1.402
			S0,3.227,0,4.001 M7.426,4.001c0,0.775,0.627,1.404,1.402,1.404s1.403-0.629,1.403-1.404c0-0.774-0.628-1.402-1.403-1.402
			S7.426,3.227,7.426,4.001 M14.852,4.001c0,0.775,0.628,1.404,1.402,1.404s1.403-0.629,1.403-1.404
			c0-0.774-0.629-1.402-1.403-1.402S14.852,3.227,14.852,4.001 M22.277,4.001c0,0.775,0.628,1.404,1.402,1.404
			s1.402-0.629,1.402-1.404c0-0.774-0.628-1.402-1.402-1.402S22.277,3.227,22.277,4.001 M29.703,4.001
			c0,0.775,0.628,1.404,1.403,1.404c0.773,0,1.401-0.629,1.401-1.404c0-0.774-0.628-1.402-1.401-1.402
			C30.331,2.599,29.703,3.227,29.703,4.001 M37.129,4.001c0,0.775,0.628,1.404,1.403,1.404c0.773,0,1.401-0.629,1.401-1.404
			c0-0.774-0.628-1.402-1.401-1.402C37.757,2.599,37.129,3.227,37.129,4.001 M44.555,4.001c0,0.775,0.628,1.404,1.403,1.404
			c0.774,0,1.402-0.629,1.402-1.404c0-0.774-0.628-1.402-1.402-1.402C45.183,2.599,44.555,3.227,44.555,4.001 M51.981,4.001
			c0,0.775,0.628,1.404,1.401,1.404c0.775,0,1.403-0.629,1.403-1.404c0-0.774-0.628-1.402-1.403-1.402
			C52.609,2.599,51.981,3.227,51.981,4.001 M59.407,4.001c0,0.775,0.628,1.404,1.401,1.404c0.775,0,1.402-0.629,1.402-1.404
			c0-0.774-0.627-1.402-1.402-1.402C60.035,2.599,59.407,3.227,59.407,4.001 M66.832,4.001c0,0.775,0.629,1.404,1.403,1.404
			s1.401-0.629,1.401-1.404c0-0.774-0.627-1.402-1.401-1.402S66.832,3.227,66.832,4.001 M74.258,4.001
			c0,0.775,0.629,1.404,1.403,1.404s1.402-0.629,1.402-1.404c0-0.774-0.628-1.402-1.402-1.402S74.258,3.227,74.258,4.001
			 M81.684,4.001c0,0.775,0.629,1.404,1.403,1.404c0.773,0,1.402-0.629,1.402-1.404c0-0.774-0.629-1.402-1.402-1.402
			C82.312,2.599,81.684,3.227,81.684,4.001 M89.11,4.001c0,0.775,0.628,1.404,1.401,1.404c0.774,0,1.403-0.629,1.403-1.404
			c0-0.774-0.629-1.402-1.403-1.402C89.738,2.599,89.11,3.227,89.11,4.001 M96.535,4.001c0,0.775,0.628,1.404,1.403,1.404
			c0.773,0,1.401-0.629,1.401-1.404c0-0.774-0.628-1.402-1.401-1.402C97.163,2.599,96.535,3.227,96.535,4.001 M103.961,4.001
			c0,0.775,0.628,1.404,1.403,1.404c0.773,0,1.401-0.629,1.401-1.404c0-0.774-0.628-1.402-1.401-1.402
			C104.589,2.599,103.961,3.227,103.961,4.001 M111.387,4.001c0,0.775,0.628,1.404,1.403,1.404c0.774,0,1.401-0.629,1.401-1.404
			c0-0.774-0.627-1.402-1.401-1.402C112.015,2.599,111.387,3.227,111.387,4.001 M118.813,4.001c0,0.775,0.628,1.404,1.401,1.404
			c0.775,0,1.402-0.629,1.402-1.404c0-0.774-0.627-1.402-1.402-1.402C119.441,2.599,118.813,3.227,118.813,4.001 M126.239,4.001
			c0,0.775,0.628,1.404,1.401,1.404c0.775,0,1.402-0.629,1.402-1.404c0-0.774-0.627-1.402-1.402-1.402
			C126.867,2.599,126.239,3.227,126.239,4.001 M133.665,4.001c0,0.775,0.627,1.404,1.402,1.404c0.774,0,1.401-0.629,1.401-1.404
			c0-0.774-0.627-1.402-1.401-1.402C134.292,2.599,133.665,3.227,133.665,4.001 M141.091,4.001c0,0.775,0.627,1.404,1.402,1.404
			c0.774,0,1.401-0.629,1.401-1.404c0-0.774-0.627-1.402-1.401-1.402C141.718,2.599,141.091,3.227,141.091,4.001 M148.516,4.001
			c0,0.775,0.629,1.404,1.403,1.404s1.402-0.629,1.402-1.404c0-0.774-0.628-1.402-1.402-1.402S148.516,3.227,148.516,4.001
			 M155.941,4.001c0,0.775,0.629,1.404,1.403,1.404s1.402-0.629,1.402-1.404c0-0.774-0.628-1.402-1.402-1.402
			S155.941,3.227,155.941,4.001 M163.367,4.001c0,0.775,0.629,1.404,1.402,1.404c0.775,0,1.403-0.629,1.403-1.404
			c0-0.774-0.628-1.402-1.403-1.402C163.996,2.599,163.367,3.227,163.367,4.001 M170.793,4.001c0,0.775,0.628,1.404,1.403,1.404
			c0.773,0,1.402-0.629,1.402-1.404c0-0.774-0.629-1.402-1.402-1.402C171.421,2.599,170.793,3.227,170.793,4.001 M178.219,4.001
			c0,0.775,0.628,1.404,1.402,1.404c0.775,0,1.403-0.629,1.403-1.404c0-0.774-0.628-1.402-1.403-1.402
			C178.847,2.599,178.219,3.227,178.219,4.001 M185.645,4.001c0,0.775,0.629,1.404,1.402,1.404c0.775,0,1.402-0.629,1.402-1.404
			c0-0.774-0.627-1.402-1.402-1.402C186.273,2.599,185.645,3.227,185.645,4.001 M193.071,4.001c0,0.775,0.627,1.404,1.401,1.404
			c0.775,0,1.402-0.629,1.402-1.404c0-0.774-0.627-1.402-1.402-1.402C193.698,2.599,193.071,3.227,193.071,4.001 M200.497,4.001
			c0,0.775,0.627,1.404,1.402,1.404c0.773,0,1.401-0.629,1.401-1.404c0-0.774-0.628-1.402-1.401-1.402
			C201.124,2.599,200.497,3.227,200.497,4.001 M207.922,4.001c0,0.775,0.628,1.404,1.403,1.404c0.773,0,1.401-0.629,1.401-1.404
			c0-0.774-0.628-1.402-1.401-1.402C208.55,2.599,207.922,3.227,207.922,4.001 M215.349,4.001c0,0.775,0.628,1.404,1.402,1.404
			s1.402-0.629,1.402-1.404c0-0.774-0.628-1.402-1.402-1.402S215.349,3.227,215.349,4.001 M222.774,4.001
			c0,0.775,0.628,1.404,1.402,1.404s1.402-0.629,1.402-1.404c0-0.774-0.628-1.402-1.402-1.402S222.774,3.227,222.774,4.001
			 M230.2,4.001c0,0.775,0.628,1.404,1.401,1.404c0.775,0,1.403-0.629,1.403-1.404c0-0.774-0.628-1.402-1.403-1.402
			C230.828,2.599,230.2,3.227,230.2,4.001 M237.626,4.001c0,0.775,0.628,1.404,1.403,1.404c0.773,0,1.401-0.629,1.401-1.404
			c0-0.774-0.628-1.402-1.401-1.402C238.254,2.599,237.626,3.227,237.626,4.001 M245.051,4.001c0,0.775,0.629,1.404,1.403,1.404
			s1.402-0.629,1.402-1.404c0-0.774-0.628-1.402-1.402-1.402S245.051,3.227,245.051,4.001 M252.477,4.001
			c0,0.775,0.629,1.404,1.402,1.404c0.775,0,1.403-0.629,1.403-1.404c0-0.774-0.628-1.402-1.403-1.402
			C253.105,2.599,252.477,3.227,252.477,4.001 M259.903,4.001c0,0.775,0.627,1.404,1.401,1.404s1.403-0.629,1.403-1.404
			c0-0.774-0.629-1.402-1.403-1.402S259.903,3.227,259.903,4.001 M267.329,4.001c0,0.775,0.627,1.404,1.402,1.404
			c0.773,0,1.401-0.629,1.401-1.404c0-0.774-0.628-1.402-1.401-1.402C267.956,2.599,267.329,3.227,267.329,4.001 M274.755,4.001
			c0,0.775,0.627,1.404,1.402,1.404c0.773,0,1.401-0.629,1.401-1.404c0-0.774-0.628-1.402-1.401-1.402
			C275.382,2.599,274.755,3.227,274.755,4.001 M282.18,4.001c0,0.775,0.628,1.404,1.403,1.404c0.774,0,1.402-0.629,1.402-1.404
			c0-0.774-0.628-1.402-1.402-1.402C282.808,2.599,282.18,3.227,282.18,4.001 M289.606,4.001c0,0.775,0.628,1.404,1.402,1.404
			s1.402-0.629,1.402-1.404c0-0.774-0.628-1.402-1.402-1.402S289.606,3.227,289.606,4.001 M297.032,4.001
			c0,0.775,0.628,1.404,1.403,1.404c0.773,0,1.401-0.629,1.401-1.404c0-0.774-0.628-1.402-1.401-1.402
			C297.66,2.599,297.032,3.227,297.032,4.001 M304.458,4.001c0,0.775,0.628,1.404,1.402,1.404s1.402-0.629,1.402-1.404
			c0-0.774-0.628-1.402-1.402-1.402S304.458,3.227,304.458,4.001 M311.884,4.001c0,0.775,0.628,1.404,1.402,1.404
			s1.402-0.629,1.402-1.404c0-0.774-0.628-1.402-1.402-1.402S311.884,3.227,311.884,4.001 M319.309,4.001
			c0,0.775,0.629,1.404,1.403,1.404c0.775,0,1.402-0.629,1.402-1.404c0-0.774-0.627-1.402-1.402-1.402
			C319.938,2.599,319.309,3.227,319.309,4.001 M326.735,4.001c0,0.775,0.628,1.404,1.402,1.404s1.402-0.629,1.402-1.404
			c0-0.774-0.628-1.402-1.402-1.402S326.735,3.227,326.735,4.001 M334.16,4.001c0,0.775,0.629,1.404,1.403,1.404
			c0.773,0,1.402-0.629,1.402-1.404c0-0.774-0.629-1.402-1.402-1.402C334.789,2.599,334.16,3.227,334.16,4.001 M341.586,4.001
			c0,0.775,0.628,1.404,1.403,1.404c0.773,0,1.402-0.629,1.402-1.404c0-0.774-0.629-1.402-1.402-1.402
			C342.214,2.599,341.586,3.227,341.586,4.001 M349.012,4.001c0,0.775,0.628,1.404,1.403,1.404c0.774,0,1.403-0.629,1.403-1.404
			c0-0.774-0.629-1.402-1.403-1.402C349.64,2.599,349.012,3.227,349.012,4.001 M356.438,4.001c0,0.775,0.628,1.404,1.402,1.404
			s1.402-0.629,1.402-1.404c0-0.774-0.628-1.402-1.402-1.402S356.438,3.227,356.438,4.001 M363.864,4.001
			c0,0.775,0.628,1.404,1.401,1.404c0.775,0,1.403-0.629,1.403-1.404c0-0.774-0.628-1.402-1.403-1.402
			C364.492,2.599,363.864,3.227,363.864,4.001 M371.29,4.001c0,0.775,0.628,1.404,1.402,1.404s1.401-0.629,1.401-1.404
			c0-0.774-0.627-1.402-1.401-1.402S371.29,3.227,371.29,4.001 M378.633,4.001c0,0.775,0.628,1.404,1.403,1.404
			c0.774,0,1.402-0.629,1.402-1.404c0-0.774-0.628-1.402-1.402-1.402C379.261,2.599,378.633,3.227,378.633,4.001 M385.837,4.001
			c0,0.852,0.69,1.543,1.542,1.543c0.853,0,1.543-0.691,1.543-1.543s-0.69-1.542-1.543-1.542
			C386.527,2.459,385.837,3.149,385.837,4.001 M393.18,4.001c0,0.852,0.691,1.543,1.542,1.543c0.854,0,1.543-0.691,1.543-1.543
			s-0.689-1.542-1.543-1.542C393.871,2.459,393.18,3.149,393.18,4.001 M400.369,4.001c0,0.937,0.759,1.697,1.696,1.697
			s1.697-0.76,1.697-1.697s-0.76-1.697-1.697-1.697S400.369,3.064,400.369,4.001 M407.712,4.001c0,0.937,0.76,1.697,1.697,1.697
			c0.937,0,1.697-0.76,1.697-1.697s-0.761-1.697-1.697-1.697C408.472,2.304,407.712,3.064,407.712,4.001 M414.886,4.001
			c0,1.031,0.836,1.867,1.867,1.867c1.03,0,1.866-0.836,1.866-1.867s-0.836-1.866-1.866-1.866
			C415.722,2.135,414.886,2.97,414.886,4.001 M422.229,4.001c0,1.031,0.836,1.867,1.866,1.867c1.031,0,1.866-0.836,1.866-1.867
			s-0.835-1.866-1.866-1.866C423.065,2.135,422.229,2.97,422.229,4.001 M429.386,4.001c0,1.134,0.92,2.053,2.055,2.053
			c1.134,0,2.053-0.919,2.053-2.053c0-1.134-0.919-2.053-2.053-2.053C430.306,1.948,429.386,2.867,429.386,4.001 M436.73,4.001
			c0,1.134,0.919,2.053,2.053,2.053s2.054-0.919,2.054-2.053c0-1.134-0.92-2.053-2.054-2.053S436.73,2.867,436.73,4.001
			 M443.868,4.001c0,1.248,1.01,2.258,2.258,2.258c1.247,0,2.259-1.011,2.259-2.258c0-1.247-1.012-2.259-2.259-2.259
			C444.878,1.742,443.868,2.754,443.868,4.001 M451.211,4.001c0,1.248,1.011,2.258,2.259,2.258c1.247,0,2.259-1.011,2.259-2.258
			c0-1.247-1.012-2.259-2.259-2.259C452.222,1.742,451.211,2.754,451.211,4.001 M458.328,4.001c0,1.373,1.112,2.484,2.484,2.484
			c1.373,0,2.484-1.111,2.484-2.484c0-1.372-1.111-2.484-2.484-2.484C459.44,1.517,458.328,2.629,458.328,4.001 M465.672,4.001
			c0,1.373,1.112,2.484,2.484,2.484c1.373,0,2.484-1.111,2.484-2.484c0-1.372-1.111-2.484-2.484-2.484
			C466.784,1.517,465.672,2.629,465.672,4.001 M472.768,4.001c0,1.51,1.224,2.734,2.732,2.734s2.732-1.224,2.732-2.734
			c0-1.509-1.224-2.733-2.732-2.733S472.768,2.492,472.768,4.001 M480.11,4.001c0,1.51,1.224,2.734,2.732,2.734
			s2.733-1.224,2.733-2.734c0-1.509-1.225-2.733-2.733-2.733S480.11,2.492,480.11,4.001 M487.18,4.001
			c0,1.662,1.347,3.006,3.006,3.006c1.661,0,3.008-1.345,3.008-3.006c0-1.66-1.347-3.006-3.008-3.006
			C488.526,0.995,487.18,2.341,487.18,4.001 M494.523,4.001c0,1.662,1.347,3.006,3.006,3.006c1.661,0,3.007-1.345,3.007-3.006
			c0-1.66-1.346-3.006-3.007-3.006C495.87,0.995,494.523,2.341,494.523,4.001 M501.567,4.001c0,1.826,1.479,3.307,3.306,3.307
			s3.307-1.481,3.307-3.307s-1.48-3.306-3.307-3.306S501.567,2.175,501.567,4.001 M508.91,4.001c0,1.826,1.479,3.307,3.306,3.307
			s3.308-1.481,3.308-3.307s-1.481-3.306-3.308-3.306S508.91,2.175,508.91,4.001 M515.923,4.001c0,2.009,1.629,3.637,3.638,3.637
			s3.637-1.628,3.637-3.637c0-2.008-1.628-3.637-3.637-3.637S515.923,1.993,515.923,4.001 M530.387,2.959
			c-0.447-1.501-1.837-2.595-3.482-2.595c-2.01,0-3.639,1.629-3.639,3.637c0,2.009,1.629,3.637,3.639,3.637
			c1.646,0,3.035-1.094,3.482-2.594c0.459,1.702,2.012,2.959,3.86,2.959c2.21,0,4.001-1.792,4.001-4.002
			c0-2.209-1.791-4.001-4.001-4.001C532.398,0,530.846,1.256,530.387,2.959"/>
	</defs>
	<clipPath id="SVGID_2_">
		<use xlink:href="#SVGID_1_"  overflow="visible"/>
	</clipPath>
	
		<linearGradient id="SVGID_3_" gradientUnits="userSpaceOnUse" x1="-306.1982" y1="328.3989" x2="-305.1982" y2="328.3989" gradientTransform="matrix(609.2161 0 0 -609.2161 186434.125 200070.125)">
		<stop  offset="0" style="stop-color:#C8DA33"/>
		<stop  offset="0.3333" style="stop-color:#3DB54A"/>
		<stop  offset="0.6667" style="stop-color:#019C86"/>
		<stop  offset="1" style="stop-color:#493391"/>
	</linearGradient>
	<rect y="0" clip-path="url(#SVGID_2_)" fill="url(#SVGID_3_)" width="538.248" height="8.003"/>
</g>
</svg>
