<?xml version="1.0" encoding="utf-8"?>
<!-- Generator: Adobe Illustrator 16.0.0, SVG Export Plug-In . SVG Version: 6.00 Build 0)  -->
<!DOCTYPE svg PUBLIC "-//W3C//DTD SVG 1.1//EN" "http://www.w3.org/Graphics/SVG/1.1/DTD/svg11.dtd">
<svg version="1.1" id="Layer_1" xmlns="http://www.w3.org/2000/svg" xmlns:xlink="http://www.w3.org/1999/xlink" x="0px" y="0px"
	 width="119.748px" height="116.84px" viewBox="0 0 119.748 116.84" enable-background="new 0 0 119.748 116.84"
	 xml:space="preserve">
<g>
	<defs>
		<path id="SVGID_1_" d="M79.049,115.789c-0.278,0.104-0.422,0.414-0.319,0.695c0.103,0.282,0.417,0.428,0.701,0.32
			c0.283-0.106,0.424-0.422,0.315-0.701c-0.084-0.217-0.291-0.35-0.508-0.35C79.175,115.754,79.11,115.765,79.049,115.789
			 M89.691,109.955c-0.449,0.29-0.586,0.893-0.3,1.356c0.285,0.464,0.901,0.605,1.369,0.304c0.467-0.301,0.595-0.919,0.291-1.371
			c-0.194-0.289-0.511-0.444-0.831-0.444C90.039,109.8,89.854,109.85,89.691,109.955 M53.771,107.735
			c-0.072,0.623,0.389,1.188,1.032,1.243c0.643,0.057,1.194-0.422,1.229-1.047c0.036-0.626-0.428-1.162-1.034-1.214
			c-0.032-0.003-0.064-0.005-0.095-0.005C54.334,106.713,53.839,107.146,53.771,107.735 M64.457,106.169
			c-0.783,0.101-1.361,0.823-1.289,1.641c0.074,0.818,0.822,1.419,1.668,1.312c0.847-0.108,1.418-0.879,1.283-1.689
			c-0.125-0.747-0.765-1.273-1.478-1.273C64.58,106.158,64.52,106.162,64.457,106.169 M44.587,105.735
			c-0.137,0.41,0.092,0.855,0.513,0.986c0.422,0.13,0.862-0.106,0.982-0.521c0.12-0.416-0.113-0.849-0.518-0.974
			c-0.076-0.023-0.153-0.035-0.229-0.035C45.007,105.191,44.698,105.401,44.587,105.735 M73.519,103.655
			c-0.459,0.161-0.812,0.495-1.017,0.911c-0.207,0.415-0.267,0.914-0.117,1.4c0.15,0.485,0.484,0.864,0.913,1.075
			c0.428,0.214,0.948,0.258,1.446,0.082c0.5-0.177,0.877-0.538,1.076-0.974c0.2-0.433,0.221-0.937,0.033-1.408
			c-0.189-0.473-0.549-0.823-0.969-1.019c-0.243-0.11-0.506-0.171-0.773-0.171C73.914,103.553,73.715,103.586,73.519,103.655
			 M36.009,101.895c-0.119,0.206-0.047,0.472,0.163,0.589c0.209,0.118,0.473,0.042,0.587-0.166c0.115-0.208,0.04-0.469-0.164-0.585
			c-0.066-0.036-0.138-0.055-0.21-0.055C36.235,101.678,36.09,101.756,36.009,101.895 M98.775,102.053
			c-0.542,0.543-0.552,1.438-0.01,2.012c0.543,0.573,1.462,0.586,2.037,0.011c0.574-0.577,0.561-1.496-0.016-2.037
			c-0.285-0.268-0.646-0.399-1.004-0.399C99.414,101.639,99.051,101.777,98.775,102.053 M81.777,99.318
			c-0.49,0.303-0.813,0.775-0.951,1.311c-0.135,0.535-0.084,1.13,0.209,1.66c0.293,0.531,0.774,0.892,1.328,1.033
			c0.553,0.142,1.174,0.062,1.715-0.272c0.541-0.332,0.891-0.853,1.014-1.41c0.121-0.558,0.016-1.15-0.326-1.649
			c-0.343-0.5-0.852-0.814-1.391-0.933c-0.159-0.035-0.321-0.053-0.482-0.053C82.508,99.005,82.123,99.105,81.777,99.318
			 M53.721,97.186c-0.405,0.315-0.711,0.783-0.802,1.341c-0.091,0.558,0.055,1.101,0.384,1.523c0.326,0.422,0.835,0.722,1.429,0.784
			c0.595,0.063,1.155-0.123,1.563-0.467c0.409-0.346,0.665-0.847,0.693-1.41c0.028-0.565-0.173-1.086-0.503-1.479
			c-0.332-0.393-0.792-0.659-1.321-0.715c-0.069-0.008-0.137-0.011-0.205-0.011C54.502,96.752,54.075,96.911,53.721,97.186
			 M62.539,96.468c-0.599,0.065-1.119,0.367-1.494,0.814c-0.375,0.446-0.604,1.039-0.577,1.682c0.028,0.643,0.319,1.214,0.786,1.607
			c0.466,0.394,1.109,0.604,1.789,0.529c0.681-0.071,1.263-0.417,1.633-0.901c0.372-0.484,0.533-1.104,0.423-1.738
			c-0.11-0.635-0.463-1.164-0.924-1.52c-0.401-0.308-0.886-0.486-1.398-0.486C62.697,96.455,62.619,96.46,62.539,96.468
			 M46.537,95.559c-0.399,0.193-0.741,0.533-0.916,0.988c-0.175,0.453-0.148,0.937,0.051,1.351c0.199,0.414,0.569,0.757,1.054,0.917
			c0.485,0.162,0.987,0.108,1.393-0.104c0.407-0.213,0.718-0.586,0.849-1.055c0.13-0.47,0.061-0.945-0.145-1.339
			c-0.207-0.393-0.548-0.703-0.987-0.849c-0.176-0.059-0.354-0.086-0.531-0.086C47.038,95.382,46.776,95.443,46.537,95.559
			 M69.636,94.639c-0.636,0.212-1.13,0.662-1.438,1.237c-0.307,0.575-0.426,1.278-0.25,1.978c0.178,0.7,0.627,1.263,1.233,1.586
			c0.603,0.324,1.362,0.407,2.097,0.164c0.736-0.243,1.297-0.762,1.588-1.383c0.293-0.621,0.318-1.341,0.041-2.007
			c-0.274-0.668-0.789-1.161-1.377-1.439c-0.355-0.168-0.738-0.259-1.125-0.259C70.147,94.516,69.89,94.556,69.636,94.639
			 M88.865,93.378c-0.478,0.461-0.726,1.073-0.75,1.711c-0.023,0.637,0.178,1.301,0.635,1.834c0.459,0.533,1.095,0.828,1.758,0.852
			c0.662,0.027,1.354-0.218,1.89-0.733c0.534-0.516,0.804-1.197,0.804-1.861c-0.002-0.665-0.273-1.311-0.789-1.787
			s-1.172-0.703-1.811-0.703C89.963,92.691,89.342,92.919,88.865,93.378 M38.881,93.117c-0.447,0.683-0.23,1.616,0.508,2.052
			c0.736,0.435,1.659,0.174,2.041-0.548c0.382-0.724,0.133-1.605-0.537-2.002c-0.228-0.135-0.481-0.199-0.734-0.199
			C39.667,92.42,39.177,92.664,38.881,93.117 M105.914,92.472c-0.537,0.839-0.311,1.982,0.539,2.575
			c0.849,0.592,2.037,0.357,2.617-0.548c0.581-0.905,0.301-2.082-0.591-2.608c-0.312-0.183-0.649-0.27-0.983-0.27
			C106.869,91.621,106.266,91.926,105.914,92.472 M76.121,91.382c-0.631,0.374-1.059,0.974-1.258,1.667
			c-0.197,0.692-0.166,1.482,0.186,2.201c0.35,0.719,0.965,1.227,1.699,1.438c0.731,0.211,1.58,0.121,2.324-0.319
			c0.745-0.439,1.232-1.14,1.398-1.883c0.169-0.745,0.021-1.528-0.441-2.183c-0.462-0.654-1.138-1.061-1.84-1.222
			c-0.222-0.05-0.447-0.076-0.67-0.076C77.035,91.005,76.556,91.126,76.121,91.382 M32.978,88.389
			c-0.466,0.468-0.449,1.24,0.055,1.706c0.504,0.465,1.275,0.42,1.705-0.082c0.429-0.503,0.386-1.246-0.081-1.678
			c-0.225-0.207-0.514-0.311-0.804-0.311C33.538,88.024,33.221,88.146,32.978,88.389 M81.718,86.851
			c-0.587,0.545-0.902,1.282-0.956,2.072c-0.051,0.785,0.16,1.625,0.699,2.32c0.537,0.693,1.315,1.1,2.154,1.155
			c0.836,0.061,1.731-0.234,2.432-0.886c0.701-0.649,1.062-1.521,1.063-2.358c0.007-0.842-0.342-1.646-0.993-2.234
			c-0.652-0.589-1.475-0.863-2.263-0.87c-0.007,0-0.013,0-0.021,0C83.052,86.05,82.301,86.311,81.718,86.851 M96.234,84.939
			c-0.709,0.158-1.341,0.558-1.758,1.18c-0.416,0.622-0.544,1.358-0.419,2.073c0.126,0.714,0.506,1.406,1.142,1.893
			c0.633,0.487,1.411,0.666,2.158,0.535c0.747-0.13,1.461-0.571,1.934-1.279c0.474-0.706,0.61-1.535,0.445-2.275
			c-0.164-0.741-0.626-1.39-1.316-1.792c-0.481-0.277-1.006-0.405-1.52-0.405C96.675,84.868,96.451,84.893,96.234,84.939
			 M28.163,82.559c-0.421,0.277-0.53,0.854-0.232,1.279s0.877,0.518,1.281,0.216c0.405-0.302,0.495-0.865,0.215-1.266
			c-0.176-0.249-0.458-0.384-0.748-0.384C28.501,82.404,28.323,82.454,28.163,82.559 M4.365,81.03
			c-0.283,0.096-0.434,0.406-0.332,0.693c0.101,0.286,0.414,0.433,0.695,0.329c0.282-0.104,0.427-0.413,0.328-0.692
			C4.977,81.14,4.768,81,4.542,81C4.483,81,4.424,81.01,4.365,81.03 M112.002,80.421c-0.53,0.25-0.959,0.686-1.174,1.262
			c-0.217,0.575-0.179,1.187,0.056,1.725c0.235,0.533,0.669,0.995,1.259,1.244s1.227,0.232,1.777-0.009
			c0.553-0.24,1.017-0.708,1.252-1.332c0.232-0.624,0.189-1.281-0.066-1.826c-0.258-0.544-0.727-0.975-1.336-1.176
			c-0.246-0.081-0.495-0.119-0.738-0.119C112.668,80.189,112.317,80.272,112.002,80.421 M88.271,79.943
			c-0.84,0.18-1.583,0.628-2.08,1.337c-0.494,0.709-0.66,1.561-0.54,2.411c0.124,0.848,0.537,1.695,1.267,2.316
			c0.728,0.619,1.646,0.88,2.557,0.75c0.904-0.128,1.797-0.649,2.396-1.509c0.602-0.859,0.785-1.875,0.594-2.77
			c-0.19-0.898-0.752-1.673-1.584-2.143c-0.579-0.328-1.208-0.474-1.819-0.474C88.793,79.863,88.527,79.891,88.271,79.943
			 M100.045,76.208c-0.735,0.34-1.33,0.921-1.639,1.692c-0.308,0.774-0.273,1.605,0.027,2.359c0.303,0.751,0.877,1.425,1.686,1.816
			c0.807,0.391,1.701,0.413,2.492,0.094c0.791-0.316,1.479-0.972,1.832-1.866c0.357-0.894,0.311-1.843-0.048-2.616
			c-0.358-0.775-1.022-1.374-1.878-1.644c-0.338-0.107-0.682-0.157-1.018-0.157C100.988,75.887,100.49,76.003,100.045,76.208
			 M24.646,75.864c-0.323,0.128-0.48,0.499-0.342,0.826c0.137,0.327,0.512,0.477,0.829,0.335c0.319-0.142,0.464-0.509,0.333-0.822
			c-0.101-0.239-0.336-0.385-0.584-0.385C24.804,75.818,24.724,75.833,24.646,75.864 M91.502,73.553
			c-0.721,0.323-1.305,0.873-1.614,1.611c-0.312,0.738-0.295,1.54-0.019,2.282c0.276,0.737,0.816,1.414,1.594,1.825
			c0.775,0.41,1.652,0.459,2.439,0.165c0.786-0.29,1.48-0.928,1.85-1.81c0.371-0.881,0.34-1.823-0.002-2.588
			c-0.342-0.769-0.991-1.359-1.827-1.625c-0.339-0.108-0.681-0.158-1.017-0.158C92.412,73.256,91.933,73.364,91.502,73.553
			 M1.565,68.607c-0.541,0.059-0.931,0.555-0.861,1.106c0.072,0.552,0.575,0.932,1.113,0.851c0.54-0.08,0.913-0.573,0.845-1.103
			c-0.064-0.494-0.49-0.86-0.987-0.86C1.64,68.602,1.603,68.604,1.565,68.607 M22.578,68.591c-0.188,0.033-0.315,0.214-0.279,0.404
			c0.035,0.189,0.218,0.312,0.406,0.276c0.187-0.038,0.309-0.218,0.275-0.403c-0.031-0.166-0.177-0.283-0.341-0.283
			C22.619,68.585,22.598,68.587,22.578,68.591 M114.377,68.438c-0.553,0.425-0.938,1.036-1.045,1.755
			c-0.104,0.718,0.091,1.414,0.496,1.98c0.406,0.563,1.023,0.997,1.773,1.145c0.748,0.147,1.487-0.026,2.072-0.447
			c0.585-0.417,1.012-1.083,1.128-1.875s-0.103-1.554-0.542-2.122c-0.439-0.57-1.098-0.949-1.857-1.022
			c-0.093-0.009-0.185-0.014-0.277-0.014C115.471,67.838,114.858,68.066,114.377,68.438 M101.852,66.914
			c-0.714,0.543-1.216,1.308-1.367,2.209c-0.148,0.901,0.082,1.787,0.584,2.531c0.502,0.74,1.277,1.341,2.242,1.581
			c0.963,0.242,1.941,0.062,2.727-0.47c0.787-0.527,1.379-1.407,1.555-2.468c0.176-1.06-0.102-2.083-0.676-2.836
			c-0.574-0.756-1.44-1.242-2.432-1.324c-0.105-0.008-0.209-0.013-0.312-0.013C103.3,66.125,102.49,66.431,101.852,66.914
			 M93.353,66.597c-0.582,0.425-0.999,1.033-1.133,1.755c-0.134,0.725,0.037,1.439,0.427,2.046c0.393,0.604,1.008,1.1,1.78,1.309
			s1.56,0.079,2.2-0.337c0.642-0.412,1.132-1.11,1.291-1.96c0.156-0.851-0.051-1.678-0.502-2.292
			c-0.449-0.617-1.137-1.021-1.934-1.104c-0.104-0.011-0.207-0.016-0.309-0.016C94.492,65.998,93.858,66.229,93.353,66.597
			 M95.488,58.452c-0.718,0.074-1.337,0.428-1.771,0.912c-0.434,0.487-0.686,1.107-0.667,1.776c0.022,0.669,0.313,1.273,0.776,1.731
			c0.465,0.457,1.104,0.771,1.825,0.801c0.722,0.031,1.388-0.241,1.871-0.73c0.483-0.486,0.778-1.19,0.754-1.965
			c-0.024-0.772-0.362-1.458-0.875-1.914c-0.448-0.399-1.028-0.626-1.646-0.626C95.668,58.438,95.578,58.442,95.488,58.452
			 M104.223,56.042c-1.082,0.149-1.999,0.715-2.635,1.459c-0.637,0.75-0.995,1.68-0.945,2.674c0.05,0.995,0.5,1.885,1.208,2.567
			c0.708,0.677,1.676,1.145,2.769,1.188c1.09,0.04,2.099-0.375,2.821-1.128c0.726-0.75,1.159-1.837,1.099-3.022
			c-0.059-1.188-0.6-2.226-1.396-2.898c-0.664-0.565-1.502-0.876-2.39-0.876C104.578,56.005,104.401,56.017,104.223,56.042
			 M0.006,57.175c-0.071,0.81,0.531,1.507,1.319,1.552c0.789,0.045,1.466-0.538,1.532-1.304c0.067-0.764-0.499-1.456-1.284-1.547
			c-0.054-0.007-0.109-0.01-0.163-0.01C0.691,55.866,0.071,56.421,0.006,57.175 M116.229,55.12c-0.879,0.11-1.629,0.562-2.146,1.179
			c-0.516,0.618-0.801,1.402-0.743,2.235s0.448,1.568,1.044,2.109c0.598,0.539,1.4,0.884,2.287,0.874
			c0.886-0.012,1.686-0.386,2.248-1.007c0.562-0.62,0.887-1.485,0.822-2.42c-0.065-0.935-0.506-1.747-1.147-2.284
			c-0.545-0.456-1.234-0.713-1.966-0.713C116.496,55.094,116.363,55.103,116.229,55.12 M93.961,51.046
			c-0.614,0.195-1.092,0.614-1.381,1.119c-0.291,0.507-0.396,1.099-0.252,1.683c0.146,0.585,0.515,1.061,1.008,1.373
			c0.492,0.312,1.109,0.461,1.744,0.347c0.633-0.114,1.16-0.479,1.486-0.995c0.328-0.514,0.451-1.179,0.287-1.843
			c-0.164-0.665-0.583-1.195-1.113-1.498c-0.332-0.191-0.709-0.293-1.095-0.293C94.418,50.938,94.188,50.974,93.961,51.046
			 M101.761,46.247c-1.115,0.417-1.955,1.231-2.458,2.171c-0.502,0.942-0.668,2.008-0.389,3.047
			c0.278,1.038,0.957,1.877,1.865,2.441c0.905,0.559,2.041,0.844,3.213,0.645c1.172-0.197,2.156-0.865,2.758-1.834
			c0.603-0.964,0.817-2.231,0.479-3.488c-0.337-1.258-1.156-2.245-2.163-2.776c-0.579-0.31-1.218-0.469-1.868-0.469
			C102.718,45.983,102.232,46.07,101.761,46.247 M90.955,44.105c-0.491,0.278-0.826,0.726-0.983,1.215
			c-0.155,0.489-0.136,1.021,0.101,1.5c0.234,0.478,0.642,0.819,1.125,0.994C91.68,47.991,92.238,48,92.76,47.78
			c0.52-0.22,0.9-0.634,1.084-1.137c0.184-0.501,0.167-1.091-0.098-1.628c-0.264-0.536-0.719-0.912-1.228-1.073
			c-0.192-0.062-0.394-0.093-0.594-0.093C91.595,43.85,91.262,43.934,90.955,44.105 M2.006,44.683
			c-0.318,1.027,0.267,2.086,1.267,2.355c1,0.269,2.021-0.294,2.315-1.246c0.296-0.951-0.229-1.992-1.207-2.335
			c-0.198-0.071-0.401-0.104-0.601-0.104C2.997,43.353,2.259,43.864,2.006,44.683 M113.256,42.738
			c-0.949,0.343-1.67,1.03-2.094,1.84c-0.422,0.812-0.549,1.747-0.285,2.652c0.264,0.906,0.873,1.626,1.662,2.085
			c0.791,0.456,1.768,0.651,2.752,0.433c0.985-0.218,1.787-0.823,2.268-1.652c0.48-0.824,0.632-1.874,0.331-2.904
			c-0.299-1.03-0.989-1.834-1.837-2.272c-0.494-0.258-1.04-0.394-1.598-0.394C114.057,42.525,113.651,42.596,113.256,42.738
			 M19.046,38.786c-0.122,0.207-0.052,0.473,0.154,0.591c0.206,0.119,0.468,0.049,0.588-0.153c0.118-0.204,0.053-0.466-0.152-0.589
			c-0.068-0.042-0.144-0.061-0.219-0.061C19.271,38.574,19.126,38.648,19.046,38.786 M86.588,37.933
			c-0.366,0.322-0.568,0.758-0.612,1.199c-0.042,0.442,0.072,0.889,0.36,1.253c0.289,0.362,0.697,0.576,1.138,0.634
			c0.44,0.059,0.911-0.04,1.308-0.325c0.396-0.282,0.637-0.701,0.698-1.158c0.06-0.453-0.062-0.944-0.381-1.345
			c-0.315-0.399-0.767-0.631-1.224-0.675c-0.055-0.005-0.11-0.008-0.166-0.008C87.308,37.508,86.91,37.65,86.588,37.933 M97.6,37.82
			c-0.924,0.584-1.527,1.475-1.8,2.415c-0.271,0.944-0.214,1.94,0.241,2.825c0.455,0.887,1.232,1.512,2.158,1.84
			c0.926,0.326,2.002,0.354,3.012-0.058c1.011-0.413,1.758-1.206,2.107-2.191c0.35-0.98,0.297-2.15-0.244-3.206
			c-0.545-1.057-1.466-1.78-2.468-2.064c-0.334-0.097-0.676-0.146-1.017-0.146C98.901,37.235,98.215,37.431,97.6,37.82
			 M81.052,32.782c-0.487,0.656-0.378,1.565,0.225,2.061c0.603,0.493,1.517,0.423,2.064-0.184c0.547-0.607,0.475-1.563-0.187-2.106
			c-0.283-0.232-0.621-0.344-0.951-0.344C81.762,32.209,81.33,32.407,81.052,32.782 M8.074,31.685
			c-0.581,0.153-1.112,0.544-1.44,1.124c-0.326,0.583-0.384,1.238-0.213,1.815c0.17,0.579,0.569,1.076,1.139,1.367
			c0.571,0.291,1.204,0.325,1.763,0.159c0.562-0.165,1.054-0.53,1.355-1.066c0.3-0.536,0.358-1.145,0.209-1.71
			c-0.151-0.566-0.509-1.089-1.053-1.425c-0.369-0.229-0.777-0.34-1.183-0.34C8.456,31.609,8.263,31.635,8.074,31.685
			 M107.662,31.299c-0.955,0.609-1.576,1.537-1.846,2.521c-0.269,0.986-0.189,2.031,0.309,2.956c0.496,0.923,1.326,1.565,2.3,1.885
			c0.969,0.316,2.087,0.309,3.118-0.154c1.033-0.463,1.777-1.311,2.113-2.334c0.336-1.021,0.256-2.213-0.318-3.282
			c-0.575-1.067-1.529-1.791-2.565-2.07c-0.333-0.092-0.675-0.138-1.017-0.138C109.033,30.683,108.31,30.887,107.662,31.299
			 M24.646,30.642c-0.299,0.323-0.273,0.825,0.05,1.111c0.324,0.286,0.815,0.261,1.102-0.05c0.287-0.312,0.272-0.803-0.041-1.102
			c-0.148-0.143-0.34-0.214-0.532-0.214C25.015,30.388,24.803,30.473,24.646,30.642 M91.801,30.424
			c-0.715,0.692-1.084,1.601-1.146,2.493c-0.062,0.895,0.184,1.775,0.764,2.481c0.582,0.705,1.4,1.115,2.291,1.228
			c0.888,0.107,1.851-0.082,2.666-0.65c0.816-0.567,1.322-1.422,1.439-2.363c0.12-0.939-0.152-1.965-0.837-2.792
			c-0.685-0.83-1.637-1.295-2.582-1.357c-0.077-0.005-0.155-0.008-0.231-0.008C93.298,29.455,92.455,29.788,91.801,30.424
			 M74.584,28.863c-0.28,0.599-0.039,1.303,0.527,1.595c0.565,0.29,1.277,0.075,1.602-0.501s0.103-1.315-0.508-1.629
			c-0.181-0.093-0.371-0.137-0.558-0.137C75.203,28.191,74.781,28.44,74.584,28.863 M67.455,26.345
			c-0.117,0.49,0.176,0.98,0.648,1.106s0.971-0.151,1.115-0.636c0.145-0.482-0.143-0.994-0.643-1.129
			c-0.082-0.021-0.164-0.031-0.242-0.031C67.92,25.655,67.552,25.933,67.455,26.345 M52.702,25.497
			c-0.19,0.032-0.318,0.212-0.285,0.4c0.034,0.189,0.213,0.314,0.4,0.283c0.186-0.032,0.313-0.209,0.284-0.397
			c-0.027-0.169-0.174-0.291-0.342-0.291C52.74,25.492,52.721,25.494,52.702,25.497 M59.958,25.342
			c-0.009,0.349,0.259,0.637,0.601,0.654c0.34,0.016,0.636-0.248,0.658-0.595c0.022-0.348-0.245-0.647-0.601-0.664
			c-0.01-0.002-0.021-0.002-0.031-0.002C60.246,24.735,59.968,25.006,59.958,25.342 M31.909,23.824
			c-0.528,0.369-0.645,1.091-0.27,1.592c0.374,0.503,1.074,0.617,1.573,0.267c0.498-0.35,0.631-1.045,0.286-1.568
			c-0.212-0.324-0.567-0.5-0.931-0.5C32.341,23.614,32.11,23.682,31.909,23.824 M86.716,23.044
			c-0.845,0.123-1.607,0.589-2.109,1.332c-0.504,0.744-0.663,1.615-0.548,2.417c0.117,0.803,0.506,1.539,1.16,2.053
			c0.654,0.517,1.459,0.72,2.268,0.645c0.805-0.076,1.615-0.436,2.221-1.1c0.604-0.661,0.879-1.513,0.8-2.363
			c-0.077-0.849-0.513-1.691-1.271-2.287c-0.623-0.49-1.357-0.729-2.068-0.729C87.016,23.012,86.865,23.022,86.716,23.044
			 M15.688,21.148c-0.718,0.031-1.441,0.353-1.972,0.952c-0.531,0.6-0.764,1.354-0.708,2.071c0.056,0.718,0.399,1.396,0.993,1.874
			c0.595,0.477,1.324,0.67,2.018,0.619c0.693-0.056,1.352-0.354,1.834-0.897c0.48-0.544,0.7-1.231,0.67-1.928
			c-0.031-0.695-0.309-1.395-0.856-1.929c-0.517-0.504-1.183-0.765-1.862-0.765C15.767,21.146,15.728,21.146,15.688,21.148
			 M99.689,21.372c-0.883,0.891-1.328,2.045-1.384,3.172c-0.056,1.13,0.276,2.235,1.026,3.11c0.748,0.873,1.791,1.368,2.914,1.488
			c1.123,0.115,2.332-0.147,3.348-0.884c1.014-0.736,1.63-1.825,1.756-3.015c0.126-1.188-0.242-2.473-1.125-3.501
			c-0.882-1.029-2.096-1.589-3.287-1.646c-0.068-0.003-0.138-0.005-0.207-0.005C101.607,20.093,100.521,20.534,99.689,21.372
			 M40.519,18.671c-0.786,0.33-1.132,1.225-0.786,1.97c0.348,0.745,1.209,1.078,1.939,0.773c0.728-0.308,1.093-1.157,0.804-1.926
			c-0.218-0.579-0.772-0.938-1.368-0.938C40.913,18.55,40.712,18.589,40.519,18.671 M77.933,18.368
			c-0.712,0.262-1.294,0.807-1.599,1.545c-0.305,0.741-0.286,1.529-0.039,2.21c0.25,0.681,0.73,1.255,1.402,1.584
			c0.674,0.33,1.42,0.356,2.111,0.139c0.689-0.221,1.326-0.689,1.723-1.384c0.397-0.695,0.471-1.488,0.241-2.211
			c-0.228-0.724-0.76-1.371-1.524-1.745c-0.433-0.212-0.888-0.312-1.33-0.312C78.576,18.193,78.242,18.254,77.933,18.368
			 M50.092,15.43c-0.519,0.097-0.947,0.396-1.211,0.794c-0.264,0.398-0.364,0.895-0.249,1.39c0.114,0.495,0.416,0.897,0.803,1.153
			c0.386,0.256,0.858,0.369,1.338,0.279c0.479-0.09,0.877-0.366,1.146-0.746c0.266-0.38,0.401-0.863,0.328-1.366
			c-0.074-0.503-0.346-0.928-0.736-1.203c-0.301-0.212-0.672-0.335-1.064-0.335C50.33,15.396,50.211,15.407,50.092,15.43
			 M68.418,15.612c-0.562,0.355-0.963,0.928-1.092,1.618c-0.129,0.691,0.028,1.367,0.369,1.906c0.342,0.541,0.864,0.946,1.508,1.104
			c0.643,0.157,1.293,0.043,1.847-0.276c0.552-0.32,1.008-0.844,1.214-1.515s0.119-1.365-0.214-1.941
			c-0.332-0.575-0.907-1.031-1.628-1.208c-0.215-0.053-0.43-0.078-0.641-0.078C69.285,15.223,68.812,15.363,68.418,15.612
			 M58.591,14.898c-0.408,0.399-0.645,0.954-0.633,1.559c0.014,0.604,0.269,1.146,0.654,1.541c0.386,0.394,0.903,0.642,1.479,0.657
			c0.575,0.016,1.106-0.202,1.513-0.576c0.407-0.371,0.689-0.899,0.736-1.503c0.046-0.604-0.161-1.169-0.547-1.591
			c-0.383-0.42-0.947-0.696-1.583-0.713c-0.021,0-0.042-0.001-0.063-0.001C59.538,14.271,58.984,14.512,58.591,14.898
			 M22.984,13.072c-0.757,0.553-1.211,1.357-1.322,2.187c-0.113,0.83,0.115,1.683,0.678,2.367c0.562,0.685,1.343,1.079,2.141,1.188
			c0.798,0.108,1.612-0.067,2.287-0.561c0.674-0.492,1.09-1.215,1.231-2.008c0.138-0.791,0.001-1.656-0.481-2.4
			c-0.48-0.744-1.223-1.222-2.048-1.366c-0.179-0.031-0.362-0.048-0.547-0.048C24.26,12.43,23.577,12.639,22.984,13.072
			 M92.904,11.302c-1.3,0.221-2.447,0.978-3.178,2.141c-0.732,1.167-0.93,2.511-0.727,3.729c0.207,1.222,0.816,2.322,1.816,3.081
			c1.001,0.757,2.225,1.043,3.456,0.912c1.229-0.135,2.466-0.69,3.392-1.711c0.925-1.019,1.34-2.329,1.199-3.64
			c-0.136-1.307-0.836-2.607-2.029-3.511c-0.95-0.72-2.058-1.069-3.123-1.069C93.438,11.233,93.168,11.257,92.904,11.302
			 M34.043,6.179c-0.982,0.435-1.687,1.226-2.008,2.124c-0.326,0.9-0.27,1.905,0.196,2.799c0.467,0.894,1.244,1.515,2.102,1.826
			c0.862,0.311,1.804,0.312,2.667-0.072c0.863-0.381,1.496-1.08,1.845-1.925c0.347-0.845,0.408-1.84,0.059-2.786
			c-0.349-0.946-1.054-1.66-1.94-2.024c-0.428-0.178-0.897-0.271-1.379-0.271C35.074,5.849,34.549,5.955,34.043,6.179 M81.147,4.856
			c-1.335,0.538-2.378,1.615-2.877,3.026c-0.501,1.415-0.394,2.887,0.106,4.134c0.502,1.247,1.396,2.272,2.625,2.846
			c1.229,0.571,2.59,0.596,3.869,0.177c1.274-0.422,2.471-1.288,3.229-2.582c0.758-1.291,0.91-2.782,0.462-4.149
			c-0.443-1.364-1.49-2.598-2.98-3.29c-0.795-0.37-1.627-0.545-2.433-0.545C82.447,4.473,81.767,4.605,81.147,4.856 M46.384,1.74
			c-1.187,0.247-2.151,0.955-2.714,1.869c-0.567,0.915-0.734,2.03-0.425,3.117c0.311,1.088,1.024,1.948,1.89,2.486
			c0.871,0.539,1.897,0.759,2.923,0.546c1.028-0.215,1.879-0.827,2.461-1.669c0.58-0.84,0.889-1.913,0.739-3.035
			c-0.149-1.121-0.75-2.076-1.635-2.687c-0.659-0.458-1.478-0.723-2.345-0.723C46.983,1.646,46.685,1.677,46.384,1.74 M68.771,1.812
			c-1.094,0.736-1.828,1.899-2.012,3.262c-0.186,1.365,0.188,2.67,0.874,3.695c0.694,1.027,1.7,1.778,2.925,2.057
			c1.225,0.276,2.458,0.034,3.527-0.594c1.062-0.629,1.962-1.646,2.384-2.956c0.42-1.31,0.26-2.675-0.41-3.811
			c-0.662-1.134-1.835-2.03-3.296-2.361c-0.398-0.091-0.797-0.134-1.186-0.134C70.541,0.97,69.562,1.276,68.771,1.812 M56.093,1.394
			c-0.83,0.864-1.266,2.036-1.177,3.286c0.09,1.25,0.668,2.345,1.479,3.128c0.816,0.784,1.865,1.261,3.019,1.272
			c1.151,0.009,2.209-0.448,3.038-1.218c0.826-0.77,1.424-1.853,1.537-3.103c0.11-1.247-0.305-2.428-1.119-3.305
			C62.06,0.579,60.849,0.012,59.495,0c-0.016,0-0.031,0-0.046,0C58.11,0,56.909,0.542,56.093,1.394"/>
	</defs>
	<clipPath id="SVGID_2_">
		<use xlink:href="#SVGID_1_"  overflow="visible"/>
	</clipPath>
	
		<linearGradient id="SVGID_3_" gradientUnits="userSpaceOnUse" x1="-516.0571" y1="381.3789" x2="-515.0568" y2="381.3789" gradientTransform="matrix(-84.5335 -84.5335 -84.5335 84.5335 -11281.6348 -75761.6406)">
		<stop  offset="0" style="stop-color:#EC1E3C"/>
		<stop  offset="0.5" style="stop-color:#772674"/>
		<stop  offset="1" style="stop-color:#493391"/>
	</linearGradient>
	<polygon clip-path="url(#SVGID_2_)" fill="url(#SVGID_3_)" points="59.87,176.847 -58.521,58.456 59.87,-59.936 178.261,58.456 	
		"/>
</g>
</svg>
