<?xml version="1.0" encoding="utf-8"?>
<!-- Generator: Adobe Illustrator 16.0.0, SVG Export Plug-In . SVG Version: 6.00 Build 0)  -->
<!DOCTYPE svg PUBLIC "-//W3C//DTD SVG 1.1//EN" "http://www.w3.org/Graphics/SVG/1.1/DTD/svg11.dtd">
<svg version="1.1" id="Layer_1" xmlns="http://www.w3.org/2000/svg" xmlns:xlink="http://www.w3.org/1999/xlink" x="0px" y="0px"
	 width="375.752px" height="71.079px" viewBox="0 0 375.752 71.079" enable-background="new 0 0 375.752 71.079"
	 xml:space="preserve">
<path fill="#FFFFFF" d="M144.252,55.557c0.726-0.266,1.079-1.157,0.787-1.989c-0.294-0.832-1.126-1.285-1.858-1.019
	c-0.729,0.267-1.072,1.148-0.775,1.979C142.706,55.356,143.528,55.82,144.252,55.557 M140.645,55.258
	c0.043-0.016,0.063-0.068,0.045-0.118c-0.018-0.05-0.067-0.077-0.11-0.062c-0.044,0.016-0.064,0.068-0.046,0.118
	C140.552,55.244,140.601,55.271,140.645,55.258 M144.408,59.299c-0.792,0.288-1.168,1.26-0.847,2.183
	c0.324,0.923,1.219,1.447,2.004,1.163c0.788-0.286,1.175-1.27,0.859-2.195C146.107,59.524,145.204,59.014,144.408,59.299
	 M150.12,57.234c-0.782,0.301-1.171,1.265-0.872,2.161c0.301,0.896,1.17,1.383,1.946,1.085c0.779-0.302,1.177-1.276,0.883-2.171
	C151.783,57.412,150.906,56.936,150.12,57.234 M138.852,61.293c-0.749,0.251-1.089,1.166-0.765,2.052
	c0.326,0.886,1.188,1.409,1.932,1.165c0.746-0.249,1.097-1.176,0.777-2.067C140.477,61.554,139.606,61.042,138.852,61.293
	 M150.114,53.689c0.883-0.34,1.332-1.424,0.998-2.419c-0.336-0.994-1.332-1.52-2.225-1.181c-0.887,0.34-1.326,1.415-0.984,2.408
	C148.247,53.49,149.233,54.026,150.114,53.689 M148.29,44.939c-0.687-1.953-2.698-2.981-4.48-2.316
	c-1.3,0.487-2.095,1.748-2.144,3.153c-0.974-1.087-2.45-1.555-3.782-1.075c-1.321,0.479-2.105,1.761-2.109,3.197
	c-0.958-1.039-2.373-1.501-3.634-1.069c-1.363,0.47-2.09,1.843-1.935,3.348c-0.925-1.162-2.395-1.731-3.672-1.322
	c-1.349,0.436-2.015,1.815-1.732,3.314c-0.923-1.302-2.489-1.995-3.821-1.604c-1.358,0.4-1.989,1.784-1.614,3.294
	c-0.912-1.316-2.486-2.053-3.797-1.712c-1.504,0.396-2.049,2.046-1.235,3.732c0.815,1.687,2.653,2.805,4.129,2.453
	c1.279-0.31,1.884-1.631,1.528-3.096c0.925,1.361,2.507,2.15,3.837,1.784c1.298-0.36,1.948-1.71,1.678-3.197
	c0.916,1.3,2.45,2.008,3.767,1.603c1.247-0.386,1.93-1.655,1.806-3.071c0.953,1.242,2.473,1.869,3.808,1.422
	c1.235-0.415,1.974-1.63,1.992-3.009c0.971,1.095,2.413,1.594,3.71,1.131c1.304-0.468,2.108-1.768,2.142-3.222
	c0.938,1.038,2.336,1.485,3.61,1.008C148.09,49.025,148.97,46.894,148.29,44.939 M146.444,53.046
	c-0.024-0.07-0.095-0.109-0.156-0.085c-0.062,0.022-0.094,0.099-0.068,0.169c0.025,0.068,0.094,0.107,0.158,0.085
	C146.437,53.191,146.468,53.115,146.444,53.046 M153.679,42.863c-0.535-1.584-2.165-2.403-3.633-1.844
	c-1.46,0.562-2.183,2.288-1.632,3.872c0.556,1.582,2.159,2.422,3.6,1.865C153.46,46.194,154.212,44.448,153.679,42.863
	 M193.764,36.807c1.398-0.549,2.248-2.012,1.888-3.279c-0.36-1.27-1.799-1.884-3.206-1.362c-1.403,0.521-2.234,1.999-1.867,3.296
	C190.95,36.754,192.37,37.353,193.764,36.807 M122.781,60.649c-0.294-0.679-1.001-1.107-1.578-0.964
	c-0.574,0.144-0.798,0.798-0.497,1.472c0.297,0.672,1.001,1.111,1.569,0.976C122.847,61.993,123.077,61.326,122.781,60.649
	 M138.192,56.436c0.182-0.062,0.265-0.282,0.187-0.49c-0.078-0.209-0.288-0.328-0.468-0.266c-0.181,0.062-0.262,0.28-0.186,0.49
	C137.804,56.377,138.012,56.498,138.192,56.436 M127.664,59.456c-0.294-0.636-0.971-1.054-1.512-0.943
	c-0.537,0.112-0.73,0.705-0.436,1.336c0.298,0.629,0.969,1.061,1.504,0.956C127.756,60.697,127.957,60.092,127.664,59.456
	 M117.571,66.533c-0.828,0.146-1.125,1.062-0.666,2.058c0.455,0.999,1.487,1.713,2.307,1.582c0.823-0.136,1.133-1.077,0.684-2.088
	C119.45,67.073,118.405,66.389,117.571,66.533 M134.859,56.6c-0.395,0.082-0.536,0.517-0.319,0.979
	c0.218,0.464,0.712,0.78,1.104,0.702c0.394-0.078,0.54-0.522,0.325-0.989C135.752,56.825,135.256,56.519,134.859,56.6
	 M130.711,57.817c-0.396,0.082-0.537,0.518-0.321,0.98c0.219,0.462,0.712,0.778,1.104,0.702c0.394-0.078,0.541-0.524,0.326-0.99
	C131.604,58.044,131.108,57.736,130.711,57.817 M128.172,64.825c-0.589,0.157-0.832,0.853-0.543,1.562
	c0.289,0.708,0.994,1.166,1.58,1.017c0.586-0.151,0.835-0.858,0.549-1.572C129.475,65.115,128.764,64.673,128.172,64.825
	 M133.487,63.262c-0.627,0.188-0.898,0.944-0.609,1.692c0.289,0.749,1.025,1.214,1.646,1.028c0.625-0.187,0.901-0.953,0.618-1.706
	C134.857,63.523,134.116,63.072,133.487,63.262 M180.169,44.192c-1.2,0.503-1.889,1.882-1.545,3.083
	c0.344,1.2,1.583,1.753,2.774,1.236c1.196-0.52,1.897-1.899,1.564-3.082C182.626,44.243,181.374,43.69,180.169,44.192 M180.7,41.561
	c1.104-0.453,1.75-1.695,1.438-2.777c-0.314-1.084-1.474-1.606-2.585-1.169c-1.109,0.439-1.742,1.685-1.422,2.78
	C178.452,41.489,179.598,42.011,180.7,41.561 M178.826,33.062c-0.47-1.571-2.158-2.359-3.764-1.757
	c-1.6,0.604-2.494,2.384-2.013,3.975c0.485,1.589,2.146,2.369,3.732,1.747C178.37,36.401,179.291,34.63,178.826,33.062
	 M173.871,46.753c-1.22,0.512-1.9,1.944-1.532,3.204c0.369,1.259,1.64,1.855,2.849,1.332c1.213-0.528,1.911-1.965,1.554-3.21
	C176.379,46.835,175.093,46.24,173.871,46.753 M117.056,63.222c0.536-0.107,0.736-0.713,0.443-1.349
	c-0.294-0.636-0.969-1.054-1.511-0.942c-0.537,0.111-0.731,0.704-0.437,1.335C115.849,62.896,116.522,63.326,117.056,63.222
	 M190.915,28.602c-0.287-0.99-1.396-1.488-2.473-1.109c-1.074,0.382-1.703,1.507-1.412,2.51c0.291,1.001,1.391,1.489,2.459,1.097
	C190.558,30.704,191.202,29.589,190.915,28.602 M186.571,41.61c-1.179,0.487-1.87,1.808-1.55,2.947
	c0.321,1.138,1.526,1.648,2.701,1.145c1.176-0.506,1.882-1.82,1.567-2.94C188.975,41.641,187.755,41.124,186.571,41.61
	 M187.229,39.331c1.339-0.54,2.139-1.996,1.778-3.261c-0.362-1.267-1.753-1.878-3.101-1.36c-1.346,0.519-2.129,1.983-1.758,3.271
	C184.519,39.268,185.893,39.867,187.229,39.331 M184.324,30.996c-0.297-1.011-1.402-1.518-2.466-1.128
	c-1.061,0.393-1.67,1.54-1.367,2.562c0.303,1.021,1.396,1.521,2.451,1.121C183.999,33.147,184.619,32.007,184.324,30.996
	 M168.246,46.995c1.209-0.501,1.885-1.931,1.504-3.193c-0.383-1.266-1.688-1.893-2.906-1.403c-1.215,0.49-1.876,1.916-1.483,3.191
	C165.754,46.861,167.042,47.492,168.246,46.995 M162.163,49.557c1.215-0.497,1.876-1.96,1.47-3.266
	c-0.408-1.308-1.737-1.966-2.964-1.477c-1.223,0.489-1.865,1.944-1.448,3.257C159.641,49.382,160.953,50.05,162.163,49.557
	 M155.89,54.832c-0.86,0.345-1.304,1.4-0.994,2.367c0.312,0.967,1.252,1.474,2.107,1.127c0.858-0.348,1.312-1.415,1.008-2.379
	S156.755,54.487,155.89,54.832 M159.397,40.63c-0.44-1.351-1.836-2.04-3.109-1.547c-1.27,0.493-1.923,1.984-1.472,3.339
	c0.454,1.354,1.829,2.052,3.086,1.558C159.162,43.48,159.834,41.979,159.397,40.63 M161.806,52.368
	c-0.906,0.375-1.386,1.477-1.08,2.47c0.309,0.99,1.282,1.494,2.183,1.118c0.903-0.38,1.395-1.489,1.095-2.479
	C163.702,52.49,162.717,51.995,161.806,52.368 M156.047,51.572c0.993-0.395,1.515-1.604,1.162-2.697
	c-0.354-1.094-1.455-1.656-2.457-1.265c-0.996,0.394-1.506,1.593-1.145,2.688C153.97,51.394,155.059,51.966,156.047,51.572
	 M172.066,35.662c-0.43-1.405-1.916-2.112-3.311-1.576c-1.39,0.535-2.15,2.12-1.708,3.538c0.443,1.417,1.908,2.122,3.286,1.577
	C171.713,38.651,172.494,37.068,172.066,35.662 M165.817,38.106c-0.46-1.461-1.983-2.199-3.396-1.652
	c-1.406,0.548-2.152,2.179-1.679,3.647c0.475,1.467,1.975,2.21,3.365,1.657C165.505,41.2,166.274,39.566,165.817,38.106
	 M174.415,44.283c1.154-0.477,1.813-1.811,1.47-2.979c-0.345-1.17-1.572-1.743-2.734-1.278c-1.158,0.465-1.805,1.799-1.451,2.981
	C172.053,44.187,173.264,44.758,174.415,44.283 M167.76,49.533c-1.094,0.457-1.691,1.768-1.341,2.932s1.507,1.732,2.592,1.269
	c1.087-0.467,1.698-1.784,1.358-2.938C170.026,49.639,168.856,49.076,167.76,49.533 M122.95,66.097
	c-0.577,0.128-0.801,0.79-0.499,1.487c0.299,0.696,1.004,1.168,1.575,1.046c0.575-0.124,0.802-0.798,0.508-1.5
	C124.239,66.428,123.528,65.967,122.95,66.097 M73.526,48.636c-0.469,0.006-0.554,0.336-0.197,0.748
	c0.361,0.408,1.026,0.75,1.492,0.754c0.467,0.001,0.561-0.342,0.203-0.759C74.667,48.961,73.997,48.629,73.526,48.636
	 M75.652,44.653c-0.283-0.337-0.822-0.576-1.206-0.534c-0.382,0.041-0.459,0.342-0.176,0.675c0.285,0.332,0.821,0.574,1.202,0.54
	C75.853,45.297,75.931,44.994,75.652,44.653 M71.646,52.271c-0.706-0.069-0.816,0.349-0.263,0.961
	c0.558,0.612,1.572,1.191,2.27,1.284c0.699,0.091,0.824-0.361,0.273-0.992C73.376,52.892,72.351,52.343,71.646,52.271
	 M112.59,67.376c-0.775,0.099-1.028,0.911-0.58,1.84c0.453,0.927,1.436,1.625,2.202,1.544c0.767-0.085,1.037-0.927,0.594-1.869
	C114.362,67.95,113.368,67.279,112.59,67.376 M71.917,56.209c-0.443-0.098-0.509,0.137-0.153,0.526
	c0.36,0.389,1.002,0.796,1.442,0.9c0.44,0.103,0.51-0.142,0.156-0.54C73.008,56.695,72.358,56.303,71.917,56.209 M76.371,52.485
	c-0.789-0.031-0.935,0.505-0.333,1.221c0.603,0.715,1.716,1.359,2.495,1.418c0.779,0.057,0.935-0.512,0.345-1.256
	C78.286,53.128,77.159,52.518,76.371,52.485 M76.46,56.898c-0.549-0.083-0.646,0.254-0.215,0.759
	c0.429,0.51,1.215,1.002,1.758,1.103c0.544,0.094,0.644-0.257,0.22-0.779C77.798,57.462,77.008,56.979,76.46,56.898 M59.237,47.921
	c-0.258-0.04-0.288,0.077-0.072,0.264c0.215,0.187,0.598,0.374,0.854,0.416c0.256,0.041,0.288-0.077,0.074-0.267
	C59.875,48.146,59.494,47.96,59.237,47.921 M63.837,48.327c-0.399-0.035-0.459,0.183-0.128,0.49
	c0.325,0.312,0.912,0.604,1.311,0.649c0.398,0.046,0.455-0.18,0.132-0.498C64.827,48.65,64.239,48.367,63.837,48.327 M69.382,44.552
	c-0.377,0.021-0.445,0.289-0.155,0.602c0.293,0.311,0.832,0.553,1.207,0.536c0.375-0.018,0.446-0.291,0.157-0.608
	C70.3,44.764,69.759,44.528,69.382,44.552 M62.351,50.988c-0.549-0.119-0.614,0.111-0.155,0.531
	c0.464,0.416,1.273,0.875,1.819,1.008c0.543,0.135,0.618-0.118,0.16-0.551C63.719,51.546,62.9,51.107,62.351,50.988 M59.5,44.721
	c-0.331-0.013-0.377,0.168-0.104,0.407c0.273,0.241,0.763,0.453,1.092,0.472c0.329,0.018,0.376-0.168,0.104-0.415
	C60.323,44.938,59.832,44.733,59.5,44.721 M62.699,53.712c-0.405-0.135-0.449-0.002-0.108,0.309
	c0.346,0.307,0.945,0.683,1.347,0.825c0.4,0.143,0.448-0.002,0.108-0.321C63.703,54.211,63.098,53.848,62.699,53.712 M80.561,65.631
	c-0.096-0.03-0.109,0.017-0.036,0.114c0.075,0.098,0.219,0.199,0.312,0.233c0.096,0.034,0.113-0.018,0.036-0.115
	C80.796,65.769,80.659,65.662,80.561,65.631 M68.58,48.535c-0.486-0.017-0.567,0.285-0.182,0.688s1.089,0.759,1.572,0.787
	c0.483,0.029,0.57-0.29,0.186-0.699C69.773,48.896,69.065,48.556,68.58,48.535 M67.319,55.126c-0.403-0.111-0.459,0.063-0.121,0.397
	c0.335,0.335,0.934,0.705,1.335,0.826c0.402,0.116,0.461-0.067,0.126-0.409C68.326,55.599,67.723,55.236,67.319,55.126
	 M64.384,44.735c-0.373,0.005-0.432,0.24-0.133,0.529c0.3,0.289,0.839,0.531,1.21,0.531c0.371,0.001,0.434-0.241,0.136-0.536
	C65.302,44.962,64.757,44.731,64.384,44.735 M66.803,51.598c-0.742-0.116-0.845,0.262-0.241,0.866
	c0.609,0.602,1.69,1.22,2.425,1.361c0.736,0.139,0.851-0.27,0.254-0.899C68.639,52.301,67.547,51.712,66.803,51.598 M78.617,48.587
	c-0.392,0.023-0.471,0.329-0.186,0.688c0.288,0.359,0.834,0.639,1.224,0.621c0.389-0.02,0.478-0.334,0.189-0.697
	C79.558,48.836,79.008,48.562,78.617,48.587 M103.123,68.574c-0.499,0.004-0.639,0.47-0.317,1.053
	c0.324,0.582,0.981,1.063,1.475,1.07c0.495,0.004,0.639-0.476,0.321-1.066C104.283,69.042,103.622,68.572,103.123,68.574
	 M100.877,62.972c-0.509,0.029-0.653,0.51-0.325,1.087c0.33,0.574,1.004,1.033,1.51,1.01c0.507-0.021,0.655-0.517,0.331-1.101
	C102.067,63.386,101.388,62.942,100.877,62.972 M98.43,68.543c-0.446-0.024-0.56,0.362-0.258,0.875
	c0.302,0.512,0.906,0.959,1.348,0.992c0.444,0.033,0.564-0.367,0.265-0.887C99.487,69.005,98.877,68.569,98.43,68.543
	 M81.067,57.301c-0.648-0.059-0.775,0.394-0.284,1.021c0.487,0.63,1.403,1.209,2.046,1.286c0.644,0.074,0.781-0.401,0.296-1.046
	C82.641,57.916,81.718,57.357,81.067,57.301 M107.374,58.979c0.752-0.121,1.005-0.923,0.559-1.778
	c-0.447-0.854-1.428-1.429-2.188-1.294c-0.757,0.135-0.998,0.912-0.545,1.753C105.653,58.502,106.625,59.097,107.374,58.979
	 M112.06,64.306c0.618-0.093,0.831-0.767,0.477-1.497c-0.358-0.729-1.154-1.234-1.778-1.132c-0.622,0.101-0.833,0.761-0.468,1.479
	C110.649,63.88,111.444,64.396,112.06,64.306 M107.7,67.92c-0.731,0.049-0.953,0.776-0.506,1.643
	c0.451,0.865,1.396,1.553,2.118,1.516c0.725-0.034,0.958-0.791,0.518-1.671C109.388,68.526,108.431,67.87,107.7,67.92
	 M98.187,58.519c-0.609-1.036-1.888-1.787-2.837-1.708c-0.945,0.08-1.195,0.938-0.569,1.945c0.63,1.007,1.886,1.804,2.818,1.753
	C98.535,60.458,98.803,59.554,98.187,58.519 M107.446,63.525c-0.352-0.674-1.109-1.157-1.692-1.095
	c-0.58,0.065-0.76,0.647-0.403,1.312s1.108,1.165,1.685,1.111C107.612,64.799,107.798,64.198,107.446,63.525 M102.254,59.557
	c0.685-0.077,0.898-0.771,0.468-1.539c-0.425-0.769-1.339-1.305-2.031-1.217c-0.688,0.09-0.894,0.764-0.457,1.517
	C100.67,59.072,101.573,59.634,102.254,59.557 M85.633,57.259c-0.836-0.022-1.013,0.618-0.411,1.458
	c0.611,0.837,1.76,1.58,2.586,1.627c0.828,0.049,1.021-0.631,0.426-1.498C87.638,57.982,86.471,57.281,85.633,57.259 M86.984,63.185
	c-0.136-0.018-0.167,0.083-0.064,0.224c0.103,0.143,0.292,0.272,0.427,0.292c0.137,0.019,0.165-0.081,0.066-0.225
	C87.312,63.332,87.121,63.204,86.984,63.185 M96.098,63.238c-0.435,0-0.548,0.386-0.252,0.864c0.293,0.483,0.882,0.883,1.313,0.89
	c0.433,0.008,0.547-0.386,0.258-0.875C97.125,63.632,96.535,63.24,96.098,63.238 M81.257,52.552
	c-0.798,0.012-0.964,0.618-0.378,1.375c0.587,0.759,1.695,1.399,2.484,1.414c0.789,0.013,0.968-0.626,0.391-1.409
	C83.179,53.148,82.057,52.542,81.257,52.552 M84.897,66.769c-0.215-0.057-0.253,0.076-0.09,0.302
	c0.166,0.225,0.473,0.457,0.687,0.516c0.214,0.057,0.251-0.077,0.09-0.306C85.417,67.057,85.112,66.825,84.897,66.769
	 M93.942,68.405c-0.298-0.04-0.365,0.199-0.155,0.534c0.21,0.334,0.621,0.642,0.918,0.681c0.296,0.044,0.366-0.2,0.157-0.537
	C94.656,68.743,94.241,68.445,93.942,68.405 M86.212,52.354c-0.808,0.054-0.996,0.728-0.427,1.525
	c0.569,0.8,1.675,1.438,2.475,1.409c0.802-0.032,1.001-0.736,0.442-1.561C88.143,52.907,87.024,52.302,86.212,52.354 M89.407,67.764
	c-0.245-0.048-0.3,0.129-0.116,0.393c0.179,0.268,0.524,0.525,0.769,0.575c0.245,0.047,0.295-0.128,0.117-0.396
	C89.996,68.066,89.65,67.812,89.407,67.764 M93.451,58.813c-0.709-1.116-2.144-1.966-3.191-1.932
	c-1.044,0.035-1.294,0.91-0.568,1.986c0.729,1.08,2.139,1.986,3.166,1.99C93.889,60.859,94.158,59.933,93.451,58.813 M76.211,64.126
	l0.045,0.032l0.004-0.013l-0.044-0.035L76.211,64.126z M311.643,19.491c-1.152-0.178-1.869-0.162-1.596,0.008
	c0.276,0.162,1.436,0.394,2.593,0.537c1.158,0.143,1.867,0.178,1.592,0.041C313.955,19.944,312.796,19.671,311.643,19.491
	 M314.031,19.438c-0.307-0.181-1.575-0.573-2.843-0.841c-1.265-0.271-2.051-0.283-1.75-0.062c0.299,0.22,1.576,0.555,2.847,0.784
	C313.554,19.549,314.334,19.614,314.031,19.438 M314.185,18.084c-0.348-0.277-1.798-0.92-3.244-1.404
	c-1.441-0.481-2.34-0.575-1.992-0.251c0.341,0.322,1.8,0.897,3.247,1.329C313.647,18.187,314.534,18.351,314.185,18.084
	 M193.054,38.97c-1.198,0.483-1.913,1.779-1.603,2.891c0.312,1.11,1.522,1.599,2.716,1.098c1.194-0.506,1.922-1.791,1.618-2.882
	C195.482,38.984,194.255,38.487,193.054,38.97 M282.799,14.927c-1.423-0.061-2.332,0.351-2.016,0.877
	c0.306,0.524,1.72,0.925,3.146,0.935c1.427,0.011,2.327-0.337,2.014-0.809C285.631,15.449,284.222,14.985,282.799,14.927
	 M320.941,21.04c-0.291-0.113-1.479-0.469-2.657-0.77c-1.177-0.298-1.9-0.403-1.614-0.256c0.286,0.145,1.479,0.452,2.659,0.719
	C320.511,20.999,321.231,21.148,320.941,21.04 M321.257,20.84c-0.665-0.219-1.072-0.321-0.908-0.238
	c0.164,0.081,0.838,0.307,1.505,0.513c0.667,0.208,1.071,0.326,0.907,0.253C322.595,21.298,321.924,21.056,321.257,20.84
	 M307.211,16.867c-0.668-0.158-1.081-0.166-0.925-0.017c0.157,0.143,0.825,0.378,1.496,0.525c0.669,0.149,1.081,0.17,0.925,0.033
	C308.546,17.276,307.879,17.029,307.211,16.867 M321.244,20.584c-0.371-0.207-1.863-0.872-3.349-1.433
	c-1.479-0.561-2.397-0.763-2.031-0.501c0.356,0.264,1.865,0.846,3.353,1.354C320.707,20.511,321.608,20.794,321.244,20.584
	 M289.803,15.25c-1.638-0.145-2.68,0.215-2.31,0.748c0.357,0.527,1.991,0.978,3.637,1.053c1.645,0.075,2.673-0.193,2.308-0.655
	C293.067,15.927,291.444,15.391,289.803,15.25 M290.37,17.693c-0.971-0.021-1.582,0.204-1.368,0.491
	c0.215,0.28,1.179,0.494,2.15,0.492c0.975-0.003,1.581-0.196,1.369-0.457C292.3,17.961,291.341,17.717,290.37,17.693
	 M287.806,13.787c-0.187-0.28-0.999-0.594-1.821-0.685c-0.822-0.09-1.34,0.088-1.16,0.389c0.184,0.296,0.998,0.587,1.821,0.661
	C287.471,14.225,287.982,14.072,287.806,13.787 M294.817,14.699c-0.182-0.231-0.964-0.529-1.753-0.651
	c-0.789-0.12-1.283-0.008-1.107,0.243c0.176,0.248,0.963,0.525,1.754,0.63C294.5,15.027,294.995,14.934,294.817,14.699
	 M296.907,16.042c-1.594-0.207-2.597,0.019-2.235,0.463c0.356,0.436,1.952,0.864,3.552,1.01c1.602,0.142,2.598-0.004,2.232-0.374
	C300.09,16.759,298.501,16.251,296.907,16.042 M297.461,17.971c-1.047-0.071-1.707,0.101-1.468,0.354
	c0.237,0.252,1.28,0.478,2.33,0.517c1.05,0.041,1.706-0.091,1.466-0.316C299.547,18.299,298.507,18.04,297.461,17.971
	 M304.534,18.555c-1.155-0.127-1.876-0.027-1.609,0.201c0.265,0.225,1.424,0.459,2.583,0.553c1.158,0.093,1.877,0.035,1.606-0.153
	C306.842,18.96,305.688,18.681,304.534,18.555 M304.055,17.185c-1.419-0.239-2.309-0.147-1.976,0.171
	c0.325,0.318,1.751,0.697,3.175,0.889c1.425,0.192,2.306,0.165,1.973-0.099C306.891,17.877,305.475,17.429,304.055,17.185
	 M300.156,15.321c-0.702-0.135-1.139-0.091-0.979,0.1c0.163,0.184,0.863,0.43,1.564,0.557c0.703,0.124,1.137,0.096,0.979-0.082
	C301.554,15.722,300.857,15.46,300.156,15.321 M318.777,20.745c-1.074-0.209-1.736-0.278-1.475-0.175
	c0.262,0.101,1.351,0.31,2.431,0.49c1.081,0.18,1.738,0.29,1.474,0.218C320.94,21.207,319.854,20.958,318.777,20.745
	 M354.054,35.425c-1.476-0.798-3.01-1.335-3.419-1.245c-0.405,0.087,0.463,0.81,1.931,1.662c1.479,0.846,3.005,1.463,3.417,1.32
	C356.4,37.02,355.538,36.225,354.054,35.425 M352.775,36.301c-1.51-0.896-3.075-1.55-3.491-1.511
	c-0.413,0.039,0.478,0.799,1.977,1.753c1.51,0.949,3.068,1.683,3.489,1.589C355.172,38.034,354.29,37.199,352.775,36.301
	 M347.1,31.805c-1.479-0.742-3.004-1.293-3.402-1.274c-0.396,0.022,0.479,0.644,1.949,1.44c1.478,0.797,2.995,1.423,3.399,1.35
	C349.453,33.246,348.582,32.552,347.1,31.805 M360.953,39.318c-1.36-0.785-2.78-1.265-3.168-1.12
	c-0.382,0.149,0.407,0.906,1.763,1.733c1.359,0.83,2.778,1.375,3.165,1.182C363.104,40.918,362.317,40.103,360.953,39.318
	 M373.584,49.547c-1.606-1.09-3.286-1.733-3.76-1.472c-0.469,0.256,0.447,1.367,2.039,2.523c1.6,1.157,3.286,1.874,3.76,1.551
	C376.107,51.827,375.19,50.646,373.584,49.547 M366.671,44.899c-1.642-1.073-3.356-1.747-3.83-1.555
	c-0.47,0.186,0.476,1.227,2.106,2.365c1.641,1.138,3.35,1.891,3.83,1.644C369.261,47.094,368.317,45.979,366.671,44.899
	 M359.751,40.48c-1.638-1.021-3.343-1.709-3.806-1.598c-0.457,0.117,0.496,1.047,2.125,2.135c1.631,1.093,3.336,1.868,3.802,1.687
	C362.343,42.521,361.4,41.499,359.751,40.48 M345.909,32.335c-1.596-0.886-3.243-1.59-3.669-1.624
	c-0.428-0.034,0.519,0.667,2.106,1.609c1.592,0.952,3.23,1.74,3.665,1.713C348.448,34.006,347.512,33.216,345.909,32.335
	 M328.209,23.352c0.234,0.087-0.029-0.034-0.625-0.277c0.038,0.021,0.104,0.056,0.2,0.105
	C327.973,23.259,328.124,23.319,328.209,23.352 M326.467,22.62c-0.14-0.062-0.287-0.127-0.443-0.194
	c-0.015-0.004-0.029-0.009-0.045-0.014C326.146,22.483,326.309,22.554,326.467,22.62 M326.79,22.758
	c0.203,0.087,0.396,0.17,0.567,0.243c0.212,0.105,0.389,0.191,0.489,0.239c0.02,0.01,0.031,0.016,0.045,0.021
	c-0.149-0.069-0.576-0.264-1.202-0.543c-0.153-0.061-0.314-0.122-0.486-0.188c-0.203-0.078-0.406-0.155-0.608-0.232
	c-0.101-0.03-0.201-0.061-0.302-0.09c-0.33-0.099-0.624-0.184-0.876-0.256c0.254,0.066,0.544,0.142,0.857,0.223
	c-1.139-0.438-2.142-0.833-2.434-0.982c-0.37-0.194,0.537,0.116,2.012,0.742c0.27,0.113,0.536,0.226,0.799,0.338
	c0.02,0.005,0.038,0.01,0.057,0.015c-0.14-0.061-0.282-0.122-0.433-0.188c-1.899-0.817-3.838-1.675-4.302-1.992
	c-0.475-0.318,0.689,0.103,2.578,1.01c0.93,0.447,1.861,0.91,2.629,1.293c0.087,0.023,0.174,0.047,0.261,0.069
	c1.269,0.339,2.032,0.597,1.714,0.54c-0.219-0.038-0.883-0.227-1.681-0.461c0.263,0.132,0.506,0.253,0.71,0.355
	C327.061,22.864,326.927,22.812,326.79,22.758 M327.56,23.065c0.007,0.003,0.018,0.006,0.024,0.009
	C327.549,23.058,327.542,23.054,327.56,23.065 M327.891,23.262C327.973,23.3,327.969,23.298,327.891,23.262 M323.577,21.727
	c0.131,0.04,0.439,0.122,0.84,0.226C323.705,21.75,323.342,21.657,323.577,21.727 M338.974,28.628
	c-1.555-0.803-3.149-1.507-3.557-1.607c-0.406-0.105,0.523,0.473,2.074,1.331c1.551,0.866,3.137,1.647,3.551,1.693
	C341.456,30.09,340.534,29.437,338.974,28.628 M333.198,25.35c-1.523-0.648-3.082-1.231-3.472-1.356
	c-0.391-0.123,0.531,0.304,2.049,1.007c1.521,0.706,3.068,1.371,3.466,1.439C335.636,26.509,334.725,26,333.198,25.35
	 M332.107,25.203c-1.675-0.792-3.386-1.551-3.808-1.746c-0.013-0.007-0.012-0.006-0.023-0.011c-0.2-0.109-0.368-0.201-0.491-0.267
	c-0.024-0.009-0.043-0.018-0.068-0.028c0.12,0.065,0.292,0.158,0.501,0.27c-0.04-0.017,0.063,0.038,0.271,0.145
	c0.034,0.019,0.07,0.038,0.105,0.058c-0.02-0.013-0.038-0.021-0.057-0.032c0.39,0.199,1.096,0.557,2.013,1.03
	c1.668,0.874,3.366,1.725,3.803,1.849C334.786,26.599,333.784,26.01,332.107,25.203 M330.292,24.553
	c0.19,0.095-0.257-0.162-1.006-0.562c-0.236-0.126-0.472-0.252-0.692-0.368c0.001,0,0.001,0,0.001,0
	C329.344,24.031,330.101,24.457,330.292,24.553 M327.56,23.065c-0.114-0.047-0.239-0.097-0.376-0.151
	c0.063,0.031,0.116,0.059,0.173,0.087c0.132,0.055,0.251,0.105,0.359,0.15c-0.053-0.028-0.099-0.054-0.129-0.069
	C327.573,23.072,327.567,23.069,327.56,23.065 M314.242,18.703c-0.667-0.187-1.076-0.244-0.917-0.129
	c0.158,0.115,0.832,0.346,1.5,0.521c0.668,0.18,1.077,0.246,0.917,0.144C315.581,19.133,314.909,18.895,314.242,18.703
	 M219.362,22.875c-1.707,0.483-2.771,1.967-2.384,3.29c0.391,1.313,2.072,1.926,3.774,1.391c1.703-0.538,2.78-1.972,2.403-3.235
	C222.77,23.053,221.073,22.394,219.362,22.875 M225.502,18.223c-0.324-1.051-1.75-1.653-3.187-1.321
	c-1.437,0.333-2.329,1.5-2.006,2.59c0.325,1.084,1.743,1.647,3.175,1.278C224.917,20.4,225.821,19.271,225.502,18.223
	 M219.976,29.527c-0.932,0.31-1.517,1.143-1.31,1.853c0.21,0.708,1.13,1.014,2.061,0.688c0.931-0.325,1.521-1.145,1.314-1.837
	C221.836,29.536,220.91,29.22,219.976,29.527 M226.821,27.243c-1.015,0.311-1.654,1.159-1.434,1.891
	c0.219,0.728,1.219,1.042,2.232,0.712c1.015-0.329,1.661-1.161,1.44-1.868C228.839,27.269,227.836,26.936,226.821,27.243
	 M233.333,19.664c-1.485,0.336-2.426,1.456-2.103,2.479c0.319,1.019,1.78,1.516,3.265,1.138c1.482-0.381,2.427-1.455,2.111-2.43
	C236.286,19.874,234.819,19.329,233.333,19.664 M232.26,16.751c-0.295-0.917-1.604-1.465-2.931-1.198
	c-1.327,0.265-2.157,1.268-1.867,2.221c0.296,0.949,1.6,1.458,2.924,1.16C231.71,18.634,232.548,17.667,232.26,16.751
	 M226.305,21.117c-1.646,0.42-2.677,1.759-2.314,2.967c0.361,1.199,1.981,1.768,3.625,1.297c1.643-0.473,2.687-1.762,2.33-2.909
	C229.583,21.318,227.953,20.699,226.305,21.117 M219.014,19.826c-0.384-1.284-2.053-1.999-3.723-1.568
	c-1.669,0.434-2.7,1.884-2.311,3.217c0.389,1.327,2.043,1.993,3.706,1.515C218.349,22.51,219.393,21.106,219.014,19.826
	 M233.699,25.066c-1.161,0.318-1.894,1.224-1.649,2.009c0.251,0.782,1.387,1.124,2.547,0.777c1.161-0.347,1.903-1.227,1.657-1.981
	C236.003,25.115,234.86,24.749,233.699,25.066 M205.707,23.647c-0.456-1.569-2.338-2.397-4.2-1.825
	c-1.859,0.574-2.976,2.371-2.511,3.991c0.466,1.613,2.325,2.398,4.171,1.775C205.014,26.963,206.153,25.212,205.707,23.647
	 M199.071,29.689c-1.462,0.519-2.342,1.999-1.975,3.298c0.37,1.295,1.836,1.891,3.291,1.342c1.457-0.55,2.354-2.009,1.995-3.271
	C202.022,29.791,200.538,29.173,199.071,29.689 M198.628,25.936c-0.425-1.466-2.124-2.223-3.79-1.672
	c-1.665,0.552-2.652,2.23-2.219,3.734c0.435,1.501,2.113,2.227,3.767,1.64C198.041,29.049,199.047,27.4,198.628,25.936
	 M283.259,17.706c-0.938,0.019-1.538,0.309-1.329,0.627c0.201,0.319,1.132,0.531,2.071,0.49c0.939-0.042,1.538-0.305,1.329-0.598
	C285.129,17.923,284.198,17.688,283.259,17.706 M205.776,27.315c-1.521,0.508-2.446,1.98-2.08,3.274
	c0.368,1.29,1.884,1.882,3.397,1.339c1.515-0.546,2.461-1.989,2.099-3.241C208.833,27.431,207.299,26.811,205.776,27.315
	 M213.153,31.817c-0.954,0.339-1.547,1.24-1.327,2.008c0.22,0.767,1.166,1.096,2.117,0.741c0.952-0.355,1.551-1.245,1.335-1.994
	C215.063,31.82,214.108,31.48,213.153,31.817 M206.353,34.055c-1.087,0.406-1.755,1.486-1.496,2.408
	c0.26,0.92,1.344,1.313,2.428,0.889c1.084-0.427,1.759-1.494,1.506-2.394C208.535,34.056,207.442,33.647,206.353,34.055
	 M212.522,24.964c-1.651,0.511-2.668,2.028-2.283,3.373c0.388,1.338,2.021,1.953,3.667,1.396c1.645-0.56,2.678-2.038,2.303-3.329
	C215.83,25.108,214.175,24.453,212.522,24.964 M212.533,21.603c-0.445-1.513-2.331-2.332-4.21-1.802
	c-1.875,0.536-3.018,2.261-2.567,3.831c0.454,1.562,2.319,2.33,4.184,1.743C211.806,24.784,212.97,23.11,212.533,21.603
	 M199.629,36.368c-1.216,0.474-1.948,1.736-1.649,2.817c0.303,1.079,1.521,1.545,2.73,1.051c1.212-0.498,1.958-1.748,1.665-2.804
	C202.079,36.376,200.847,35.896,199.629,36.368 M268.821,18.155c-1.469,0.141-2.404,0.81-2.097,1.469
	c0.31,0.649,1.754,0.993,3.227,0.802c1.471-0.192,2.414-0.806,2.099-1.401C271.737,18.42,270.29,18.015,268.821,18.155
	 M268.543,14.789c-1.595,0.065-2.614,0.752-2.274,1.498c0.338,0.739,1.911,1.205,3.511,1.082c1.599-0.125,2.614-0.741,2.275-1.42
	C271.714,15.262,270.14,14.725,268.543,14.789 M261.441,15.174c-1.638,0.13-2.687,0.952-2.336,1.793
	c0.344,0.835,1.954,1.322,3.595,1.13c1.639-0.191,2.686-0.941,2.34-1.713C264.688,15.604,263.079,15.045,261.441,15.174
	 M266.819,12.848c-0.207-0.463-1.156-0.836-2.121-0.821c-0.965,0.019-1.582,0.436-1.372,0.919c0.204,0.481,1.154,0.828,2.12,0.792
	C266.412,13.699,267.025,13.309,266.819,12.848 M280.807,13.179c-0.189-0.338-1.046-0.669-1.913-0.727
	c-0.867-0.059-1.422,0.197-1.228,0.551c0.185,0.354,1.046,0.662,1.914,0.701C280.449,13.741,280.997,13.515,280.807,13.179
	 M261.769,19.072c-1.346,0.184-2.207,0.889-1.924,1.553c0.286,0.656,1.603,0.988,2.95,0.764c1.349-0.227,2.209-0.885,1.928-1.5
	C264.433,19.27,263.116,18.892,261.769,19.072 M278.841,15.798c-0.31-0.547-1.713-1.017-3.137-1.017
	c-1.423,0-2.333,0.514-2.023,1.107c0.302,0.592,1.71,0.999,3.137,0.951C278.246,16.789,279.15,16.338,278.841,15.798
	 M273.785,12.866c-0.196-0.391-1.082-0.736-1.982-0.759c-0.9-0.02-1.47,0.303-1.278,0.715c0.19,0.409,1.081,0.731,1.981,0.734
	C273.408,13.561,273.979,13.256,273.785,12.866 M275.977,17.707c-1.351,0.076-2.214,0.597-1.922,1.132
	c0.289,0.529,1.62,0.84,2.975,0.718c1.354-0.121,2.211-0.587,1.924-1.074C278.658,17.992,277.329,17.632,275.977,17.707
	 M254.434,16.045c-1.461,0.175-2.395,1.003-2.084,1.816c0.308,0.809,1.74,1.258,3.203,1.034c1.46-0.225,2.396-0.996,2.087-1.756
	C257.329,16.375,255.895,15.869,254.434,16.045 M245.871,14.458c-0.234-0.673-1.32-1.111-2.419-0.967
	c-1.101,0.147-1.801,0.845-1.562,1.54c0.238,0.694,1.317,1.104,2.416,0.935C245.405,15.794,246.107,15.127,245.871,14.458
	 M240.617,23.079c-1.329,0.322-2.177,1.279-1.895,2.121c0.282,0.836,1.581,1.206,2.911,0.848c1.329-0.36,2.18-1.28,1.903-2.079
	C243.253,23.167,241.946,22.76,240.617,23.079 M247.728,21.75c-1.1,0.231-1.804,0.952-1.57,1.594
	c0.229,0.638,1.306,0.935,2.405,0.676c1.1-0.26,1.806-0.951,1.575-1.562C249.905,21.844,248.828,21.519,247.728,21.75
	 M241.422,21.423c1.331-0.297,2.183-1.18,1.9-1.996c-0.282-0.821-1.598-1.294-2.93-1.038c-1.332,0.259-2.178,1.181-1.893,2.04
	C238.783,21.282,240.09,21.717,241.422,21.423 M239.052,15.49c-0.26-0.792-1.462-1.282-2.676-1.08
	c-1.215,0.203-1.981,1.049-1.718,1.87c0.263,0.818,1.458,1.278,2.67,1.045C238.542,17.092,239.316,16.277,239.052,15.49
	 M259.799,13.114c-0.214-0.522-1.193-0.911-2.189-0.855c-0.996,0.057-1.631,0.556-1.419,1.101c0.216,0.542,1.191,0.907,2.188,0.827
	C259.375,14.108,260.012,13.634,259.799,13.114 M247.44,17.196c-1.295,0.206-2.123,1.022-1.844,1.797
	c0.271,0.773,1.543,1.185,2.837,0.942c1.294-0.244,2.12-1.016,1.851-1.753C250.002,17.445,248.735,16.991,247.44,17.196
	 M252.807,13.655c-0.217-0.591-1.242-0.999-2.28-0.898c-1.037,0.101-1.697,0.688-1.478,1.301c0.223,0.61,1.241,0.994,2.279,0.871
	C252.367,14.805,253.034,14.24,252.807,13.655 M254.793,20.421c-1.072,0.188-1.759,0.819-1.533,1.395
	c0.219,0.574,1.275,0.85,2.347,0.635c1.071-0.216,1.761-0.817,1.535-1.363C256.917,20.537,255.865,20.233,254.793,20.421
	 M91.335,63.113c-0.414-0.026-0.512,0.31-0.218,0.754c0.292,0.445,0.863,0.836,1.274,0.869c0.412,0.031,0.514-0.313,0.222-0.762
	C92.325,63.521,91.75,63.14,91.335,63.113 M210.057,10.218c0.274,0.918,1.404,1.451,2.531,1.201
	c1.127-0.248,1.823-1.168,1.559-2.069c-0.271-0.903-1.406-1.458-2.539-1.229C210.477,8.353,209.786,9.295,210.057,10.218
	 M210.005,4.979c0.503-0.096,0.811-0.502,0.69-0.911c-0.123-0.411-0.632-0.669-1.137-0.578c-0.503,0.093-0.812,0.504-0.688,0.917
	C208.995,4.82,209.502,5.074,210.005,4.979 M212.731,14.169c-0.91,0.217-1.472,0.997-1.256,1.732
	c0.214,0.736,1.126,1.139,2.035,0.908c0.909-0.231,1.477-0.997,1.262-1.718C214.557,14.367,213.642,13.951,212.731,14.169
	 M217.059,3.919c0.613-0.097,0.994-0.559,0.849-1.037c-0.146-0.48-0.761-0.799-1.374-0.708c-0.615,0.09-0.993,0.56-0.848,1.045
	C215.833,3.704,216.446,4.015,217.059,3.919 M198.965,17.726c-0.959,0.281-1.537,1.195-1.291,2.034
	c0.245,0.838,1.214,1.274,2.17,0.983c0.957-0.293,1.54-1.193,1.298-2.021C200.901,17.896,199.925,17.446,198.965,17.726
	 M203.079,11.867c0.292,0.976,1.452,1.522,2.603,1.234c1.151-0.29,1.86-1.29,1.576-2.247c-0.286-0.96-1.456-1.53-2.612-1.26
	C203.49,9.865,202.793,10.888,203.079,11.867 M203.034,6.416c0.5-0.112,0.803-0.541,0.679-0.965
	c-0.128-0.422-0.637-0.681-1.138-0.571c-0.502,0.106-0.803,0.541-0.678,0.968C202.027,6.272,202.533,6.525,203.034,6.416
	 M196.134,13.708c0.307,1.04,1.513,1.605,2.696,1.277c1.184-0.33,1.901-1.415,1.601-2.439c-0.306-1.024-1.517-1.612-2.707-1.303
	C196.536,11.557,195.825,12.665,196.134,13.708 M205.835,15.91c-0.905,0.242-1.457,1.062-1.233,1.822
	c0.221,0.761,1.131,1.167,2.032,0.914c0.902-0.253,1.456-1.059,1.239-1.808C207.651,16.089,206.741,15.672,205.835,15.91
	 M230.992,6.617c0.263,0.834,1.426,1.383,2.602,1.243c1.174-0.141,1.915-0.894,1.657-1.704c-0.264-0.813-1.43-1.394-2.606-1.279
	C231.465,4.993,230.729,5.778,230.992,6.617 M238.292,1.996c0.791-0.037,1.289-0.488,1.115-1.023
	c-0.176-0.536-0.961-0.957-1.752-0.934c-0.793,0.022-1.291,0.493-1.114,1.039C236.716,1.626,237.5,2.03,238.292,1.996
	 M233.627,10.051c-1.033,0.142-1.682,0.853-1.456,1.575c0.233,0.718,1.248,1.158,2.28,0.997c1.03-0.164,1.684-0.851,1.459-1.551
	C235.682,10.371,234.661,9.908,233.627,10.051 M231.266,2.591c0.897-0.076,1.464-0.647,1.26-1.284
	c-0.198-0.64-1.096-1.116-1.994-1.054c-0.899,0.061-1.463,0.65-1.26,1.305C229.476,2.21,230.37,2.666,231.266,2.591 M217.215,8.749
	c0.242,0.801,1.267,1.284,2.293,1.092c1.026-0.194,1.666-0.977,1.43-1.762c-0.237-0.786-1.267-1.292-2.297-1.115
	C217.612,7.141,216.975,7.944,217.215,8.749 M219.674,12.619c-0.918,0.191-1.485,0.927-1.276,1.636
	c0.212,0.707,1.123,1.105,2.038,0.901c0.915-0.205,1.49-0.925,1.28-1.616C221.505,12.846,220.591,12.43,219.674,12.619
	 M223.963,7.586c0.269,0.874,1.431,1.422,2.603,1.24c1.171-0.183,1.905-1.005,1.644-1.855c-0.269-0.854-1.435-1.432-2.608-1.274
	C224.427,5.856,223.696,6.708,223.963,7.586 M224.212,3.324c0.895-0.11,1.455-0.731,1.25-1.399c-0.208-0.668-1.103-1.14-1.999-1.044
	c-0.899,0.098-1.457,0.737-1.248,1.419C222.422,2.98,223.316,3.433,224.212,3.324 M226.63,11.2
	c-0.986,0.173-1.605,0.909-1.381,1.635c0.219,0.724,1.196,1.147,2.182,0.959c0.984-0.188,1.606-0.905,1.386-1.611
	C228.598,11.474,227.617,11.029,226.63,11.2 M185.423,21.791c-1.042,0.348-1.646,1.426-1.357,2.401
	c0.293,0.976,1.363,1.469,2.399,1.111c1.037-0.36,1.652-1.428,1.367-2.393C187.545,21.947,186.465,21.442,185.423,21.791
	 M165.752,28.719c-1.041,0.391-1.604,1.559-1.266,2.614c0.341,1.054,1.446,1.588,2.479,1.194c1.035-0.395,1.608-1.562,1.278-2.611
	C167.912,28.866,166.794,28.332,165.752,28.719 M162.824,24.664c0.372,1.125,1.571,1.702,2.688,1.293
	c1.118-0.412,1.735-1.651,1.374-2.771c-0.364-1.121-1.577-1.703-2.705-1.297C163.055,22.296,162.452,23.537,162.824,24.664
	 M168.982,16.184c0.479-0.163,0.743-0.67,0.594-1.135c-0.152-0.465-0.663-0.711-1.144-0.55c-0.479,0.162-0.742,0.672-0.59,1.138
	C167.997,16.102,168.504,16.346,168.982,16.184 M169.251,22.339c0.371,1.154,1.613,1.749,2.786,1.332
	c1.174-0.42,1.838-1.685,1.478-2.832c-0.362-1.149-1.618-1.752-2.802-1.344C169.533,19.907,168.881,21.181,169.251,22.339
	 M155.86,20.779c0.437-0.16,0.665-0.646,0.513-1.085c-0.154-0.439-0.633-0.667-1.07-0.508c-0.437,0.161-0.665,0.646-0.51,1.086
	C154.948,20.713,155.424,20.938,155.86,20.779 M162.387,18.481c0.472-0.167,0.729-0.682,0.57-1.149
	c-0.157-0.469-0.669-0.714-1.144-0.546c-0.473,0.167-0.726,0.683-0.567,1.151C161.407,18.406,161.916,18.648,162.387,18.481
	 M172.214,26.336c-1.055,0.385-1.644,1.545-1.316,2.589c0.326,1.045,1.436,1.57,2.483,1.181c1.05-0.394,1.648-1.548,1.329-2.586
	C174.391,26.482,173.271,25.951,172.214,26.336 M59.446,50.805c-0.447-0.384-1.24-0.798-1.765-0.944
	c-0.525-0.143-0.58,0.028-0.13,0.397c0.452,0.369,1.238,0.806,1.76,0.961C59.832,51.379,59.894,51.185,59.446,50.805
	 M159.341,30.991c-1.091,0.415-1.665,1.665-1.289,2.795c0.378,1.131,1.555,1.708,2.638,1.292c1.085-0.42,1.672-1.672,1.307-2.799
	C161.627,31.153,160.437,30.577,159.341,30.991 M153.073,33.378c-1.074,0.411-1.621,1.656-1.229,2.789
	c0.393,1.131,1.568,1.717,2.633,1.308c1.068-0.412,1.628-1.664,1.246-2.795C155.338,33.55,154.15,32.968,153.073,33.378
	 M189.227,9.877c0.493-0.139,0.783-0.606,0.649-1.052c-0.136-0.443-0.646-0.696-1.14-0.562c-0.493,0.135-0.783,0.607-0.647,1.055
	C188.225,9.764,188.734,10.013,189.227,9.877 M196.104,8.056c0.497-0.126,0.796-0.577,0.665-1.01
	c-0.13-0.437-0.641-0.69-1.139-0.568c-0.498,0.123-0.794,0.577-0.663,1.015C195.099,7.93,195.607,8.179,196.104,8.056
	 M192.184,19.783c-0.949,0.3-1.511,1.244-1.259,2.105c0.253,0.861,1.223,1.302,2.168,0.994c0.947-0.312,1.514-1.245,1.266-2.096
	C194.11,19.937,193.135,19.484,192.184,19.783 M237.825,5.925c0.287,0.873,1.566,1.476,2.862,1.371
	c1.296-0.108,2.119-0.857,1.835-1.698c-0.285-0.847-1.567-1.49-2.866-1.417C238.357,4.256,237.541,5.046,237.825,5.925
	 M175.838,20.04c0.355,1.141,1.601,1.732,2.788,1.326c1.188-0.406,1.875-1.646,1.53-2.777c-0.35-1.133-1.605-1.738-2.804-1.345
	C176.158,17.642,175.483,18.895,175.838,20.04 M182.581,17.797c0.332,1.085,1.535,1.654,2.695,1.279
	c1.161-0.377,1.845-1.544,1.522-2.617c-0.325-1.076-1.538-1.66-2.707-1.298C182.923,15.525,182.251,16.707,182.581,17.797
	 M175.66,13.966c0.482-0.156,0.757-0.654,0.612-1.113c-0.146-0.46-0.656-0.708-1.142-0.553c-0.485,0.153-0.758,0.653-0.611,1.115
	C174.667,13.876,175.174,14.121,175.66,13.966 M182.42,11.89c0.508-0.155,0.804-0.659,0.659-1.132
	c-0.146-0.473-0.68-0.732-1.189-0.581c-0.511,0.151-0.805,0.66-0.657,1.135C181.38,11.785,181.912,12.042,182.42,11.89
	 M178.788,24.063c-1.029,0.362-1.614,1.462-1.313,2.454c0.302,0.991,1.371,1.492,2.396,1.123c1.023-0.372,1.619-1.464,1.323-2.447
	C180.897,24.211,179.818,23.702,178.788,24.063 M189.324,15.685c0.321,1.065,1.523,1.633,2.697,1.28
	c1.172-0.356,1.875-1.486,1.563-2.536c-0.314-1.053-1.527-1.639-2.708-1.3C189.698,13.47,189.006,14.616,189.324,15.685
	 M305.27,15.918c1.67,0.418,2.698,0.487,2.307,0.105c-0.396-0.389-2.054-1.142-3.717-1.629c-1.659-0.483-2.699-0.466-2.311-0.008
	C301.93,14.84,303.605,15.499,305.27,15.918 M307.022,14.656c-0.451-0.501-2.357-1.499-4.269-2.163
	c-1.907-0.664-3.104-0.671-2.658-0.082c0.438,0.58,2.363,1.462,4.278,2.034C306.292,15.023,307.477,15.142,307.022,14.656
	 M298.239,14.31c1.673,0.345,2.705,0.295,2.325-0.169c-0.388-0.469-2.044-1.225-3.711-1.638c-1.663-0.411-2.714-0.271-2.329,0.266
	C294.9,13.298,296.568,13.965,298.239,14.31 M294.711,9.368c0.887,0.275,1.438,0.26,1.237-0.053
	c-0.201-0.315-1.085-0.816-1.973-1.112c-0.885-0.293-1.441-0.251-1.239,0.08C292.937,8.614,293.825,9.091,294.711,9.368
	 M289.832,10.921c-1.669-0.338-2.726-0.074-2.35,0.54c0.372,0.606,2.037,1.277,3.71,1.55c1.676,0.271,2.726,0.092,2.344-0.445
	C293.158,12.018,291.501,11.259,289.832,10.921 M240.64,9.131c-1.101,0.109-1.797,0.802-1.557,1.528
	c0.243,0.724,1.323,1.188,2.423,1.055c1.1-0.137,1.803-0.799,1.561-1.497C242.83,9.513,241.742,9.02,240.64,9.131 M301.694,11.711
	c0.916,0.326,1.485,0.375,1.271,0.096c-0.218-0.281-1.127-0.805-2.043-1.151c-0.915-0.344-1.486-0.37-1.272-0.066
	C299.862,10.889,300.778,11.384,301.694,11.711 M313.906,17.191c-0.454-0.401-2.318-1.372-4.183-2.104
	c-1.855-0.729-3.016-0.874-2.573-0.387c0.44,0.479,2.323,1.334,4.189,1.98C313.212,17.326,314.351,17.586,313.906,17.191
	 M286.491,8.909c0.38,0.659,2.069,1.448,3.769,1.811c1.701,0.365,2.764,0.216,2.379-0.376c-0.387-0.603-2.067-1.48-3.764-1.91
	C287.179,8.004,286.107,8.239,286.491,8.909 M299.889,12.351c-0.423-0.568-2.244-1.518-4.076-2.069
	c-1.828-0.551-2.98-0.426-2.56,0.22c0.416,0.633,2.248,1.479,4.082,1.951C299.173,12.921,300.311,12.903,299.889,12.351
	 M338.706,28.352c1.521,0.761,3.074,1.427,3.479,1.418c0.408-0.001-0.494-0.622-2.021-1.328c-1.521-0.71-3.086-1.282-3.484-1.335
	S337.191,27.588,338.706,28.352 M346.522,29.765c0.958,0.397,1.947,0.665,2.207,0.569c0.265-0.091-0.302-0.492-1.264-0.866
	c-0.959-0.375-1.948-0.607-2.208-0.535C344.999,29.001,345.566,29.365,346.522,29.765 M339.411,26.987
	c1.143,0.432,2.312,0.763,2.615,0.699c0.307-0.058-0.374-0.454-1.52-0.854c-1.145-0.4-2.317-0.679-2.618-0.653
	C337.589,26.206,338.274,26.549,339.411,26.987 M332.369,24.461c1.175,0.397,2.372,0.741,2.677,0.737
	c0.305-0.006-0.4-0.325-1.58-0.691c-1.177-0.363-2.378-0.661-2.679-0.688C330.484,23.789,331.196,24.063,332.369,24.461
	 M315.483,17.201c0.721,0.321,1.163,0.461,0.984,0.309c-0.177-0.158-0.899-0.568-1.619-0.902c-0.719-0.333-1.16-0.462-0.984-0.29
	C314.039,16.485,314.762,16.88,315.483,17.201 M314.263,17.333c0.426,0.374,2.229,1.185,4.004,1.878
	c1.784,0.694,2.858,1.073,2.424,0.774c-0.441-0.299-2.224-1.221-3.998-1.993C314.926,17.224,313.828,16.959,314.263,17.333
	 M322.4,20.46c0.75,0.368,1.201,0.575,1.019,0.442c-0.191-0.128-0.945-0.557-1.694-0.938c-0.746-0.384-1.204-0.568-1.019-0.423
	C320.891,19.685,321.651,20.092,322.4,20.46 M328.191,23.252c0.814,0.303,1.643,0.593,1.852,0.64
	c0.207,0.046-0.284-0.16-1.102-0.446c-0.816-0.283-1.646-0.554-1.852-0.616S327.378,22.949,328.191,23.252 M308.627,14.327
	c0.883,0.355,1.426,0.466,1.215,0.236c-0.211-0.234-1.093-0.736-1.974-1.109c-0.882-0.369-1.425-0.462-1.217-0.209
	C306.858,13.496,307.747,13.975,308.627,14.327 M251.798,5.318c0.297,0.828,1.666,1.469,3.053,1.468
	c1.386-0.005,2.267-0.62,1.967-1.408c-0.304-0.792-1.668-1.489-3.055-1.525C252.377,3.816,251.497,4.485,251.798,5.318
	 M287.775,7.459c1.031,0.27,1.671,0.181,1.443-0.226c-0.234-0.407-1.251-0.992-2.281-1.287c-1.026-0.297-1.676-0.168-1.444,0.263
	C285.719,6.639,286.748,7.188,287.775,7.459 M259.517,2.392c0.79,0.064,1.296-0.235,1.119-0.676
	c-0.169-0.447-0.952-0.877-1.743-0.957c-0.79-0.076-1.29,0.236-1.119,0.694C257.95,1.908,258.727,2.323,259.517,2.392
	 M258.497,5.432c0.342,0.888,1.914,1.624,3.505,1.684c1.592,0.058,2.6-0.534,2.258-1.37c-0.349-0.84-1.914-1.649-3.505-1.762
	C259.163,3.868,258.146,4.537,258.497,5.432 M244.807,5.482c0.291,0.854,1.616,1.476,2.958,1.419
	c1.341-0.06,2.191-0.745,1.904-1.562c-0.292-0.823-1.618-1.491-2.962-1.472C245.365,3.891,244.514,4.624,244.807,5.482
	 M252.385,1.791c0.639,0.024,1.045-0.26,0.905-0.646c-0.139-0.386-0.772-0.73-1.411-0.765c-0.64-0.035-1.048,0.263-0.905,0.655
	S251.747,1.763,252.385,1.791 M245.359,1.804c0.77-0.003,1.259-0.396,1.089-0.888c-0.166-0.494-0.932-0.906-1.701-0.916
	c-0.771-0.01-1.26,0.399-1.088,0.903C243.827,1.406,244.589,1.807,245.359,1.804 M259.753,9.312c0.298,0.743,1.663,1.313,3.05,1.305
	c1.387-0.013,2.268-0.561,1.97-1.263c-0.296-0.709-1.665-1.329-3.05-1.364C260.336,7.961,259.455,8.562,259.753,9.312
	 M245.701,9.971c0.288,0.83,1.607,1.389,2.948,1.271c1.342-0.114,2.193-0.832,1.906-1.626c-0.289-0.798-1.611-1.401-2.953-1.322
	C246.261,8.374,245.415,9.134,245.701,9.971 M252.683,9.504c0.296,0.801,1.661,1.374,3.047,1.308
	c1.386-0.065,2.271-0.714,1.972-1.474c-0.296-0.768-1.663-1.39-3.05-1.366C253.266,7.999,252.385,8.695,252.683,9.504
	 M280.789,5.829c1.097,0.239,1.782,0.063,1.544-0.417c-0.246-0.479-1.33-1.099-2.426-1.362c-1.097-0.265-1.79-0.05-1.545,0.457
	C278.604,5.009,279.69,5.595,280.789,5.829 M276.998,11.207c1.506,0.113,2.455-0.267,2.127-0.893
	c-0.331-0.633-1.813-1.312-3.316-1.479c-1.502-0.166-2.459,0.282-2.129,0.967C274.005,10.479,275.494,11.091,276.998,11.207
	 M282.844,9.746c-1.543-0.241-2.521,0.111-2.18,0.746c0.336,0.631,1.871,1.253,3.418,1.44c1.547,0.184,2.518-0.095,2.177-0.667
	C285.916,10.686,284.388,9.986,282.844,9.746 M279.457,7.567c0.374,0.737,2.064,1.527,3.768,1.813
	c1.705,0.287,2.773,0.016,2.396-0.654c-0.379-0.681-2.062-1.559-3.765-1.911C280.159,6.463,279.081,6.82,279.457,7.567
	 M266.593,3.169c0.821,0.104,1.341-0.149,1.162-0.576c-0.177-0.432-0.991-0.88-1.812-1.003c-0.82-0.116-1.337,0.15-1.161,0.597
	C264.958,2.63,265.772,3.063,266.593,3.169 M265.094,5.809c0.396,0.961,2.227,1.812,4.076,1.955c1.851,0.145,3.02-0.411,2.62-1.297
	c-0.412-0.894-2.228-1.848-4.076-2.064C265.869,4.181,264.69,4.838,265.094,5.809 M268.78,8.278
	c-1.418-0.094-2.318,0.429-2.014,1.134c0.305,0.701,1.705,1.283,3.124,1.331c1.419,0.049,2.319-0.415,2.013-1.069
	C271.591,9.015,270.198,8.375,268.78,8.278 M278.838,7.466c-0.411-0.814-2.227-1.771-4.073-2.069
	c-1.843-0.303-3.015,0.222-2.61,1.114c0.4,0.882,2.229,1.731,4.076,1.957C278.08,8.692,279.243,8.27,278.838,7.466 M273.661,4.266
	c0.862,0.15,1.406-0.055,1.218-0.469c-0.193-0.414-1.042-0.896-1.905-1.062c-0.861-0.166-1.406,0.061-1.219,0.493
	C271.944,3.657,272.798,4.116,273.661,4.266 M156.416,27.042c0.388,1.129,1.586,1.711,2.686,1.298
	c1.104-0.414,1.695-1.662,1.318-2.789c-0.379-1.128-1.592-1.71-2.704-1.299C156.606,24.662,156.027,25.911,156.416,27.042
	 M25.742,37.287c-0.263-0.078-0.248-0.048,0.033,0.061c0.281,0.109,0.721,0.263,0.983,0.343c0.261,0.081,0.244,0.061-0.035-0.054
	C26.44,37.525,26.003,37.363,25.742,37.287 M26.466,35.378c-0.562-0.357-1.438-0.753-1.955-0.882
	c-0.518-0.128-0.481,0.05,0.083,0.39c0.564,0.336,1.439,0.721,1.955,0.862C27.065,35.893,27.027,35.73,26.466,35.378 M22.31,34.49
	c-0.482-0.269-1.239-0.564-1.688-0.654c-0.45-0.091-0.42,0.051,0.064,0.306s1.243,0.537,1.69,0.642
	C22.826,34.884,22.794,34.758,22.31,34.49 M30.571,39.107c-0.297-0.098-0.312-0.104-0.039-0.003c0.272,0.104,0.731,0.275,1.025,0.38
	c0.295,0.104,0.312,0.104,0.04-0.004C31.325,39.376,30.865,39.21,30.571,39.107 M30.358,38.804c-0.4-0.142-0.374-0.094,0.059,0.104
	c0.433,0.193,1.106,0.469,1.505,0.621c0.399,0.149,0.37,0.115-0.06-0.093C31.431,39.229,30.758,38.943,30.358,38.804 M31.204,38.296
	c-0.521-0.31-1.327-0.692-1.808-0.848c-0.478-0.154-0.444-0.036,0.076,0.262c0.521,0.292,1.33,0.659,1.806,0.83
	C31.756,38.707,31.72,38.604,31.204,38.296 M27.183,37.092c-0.5-0.263-1.284-0.582-1.75-0.71c-0.467-0.124-0.437-0.025,0.066,0.222
	c0.502,0.246,1.286,0.555,1.751,0.694C27.712,37.443,27.685,37.348,27.183,37.092 M20.868,35.236
	c-0.278-0.062-0.262-0.008,0.035,0.123c0.299,0.127,0.766,0.278,1.041,0.348c0.279,0.063,0.262,0.018-0.034-0.117
	C21.612,35.459,21.145,35.297,20.868,35.236 M17.38,31.706c-0.47-0.271-1.197-0.546-1.628-0.602
	c-0.432-0.055-0.401,0.118,0.068,0.38c0.468,0.264,1.196,0.524,1.628,0.587C17.878,32.14,17.847,31.978,17.38,31.706 M1.987,22.389
	c-0.335-0.214-0.845-0.369-1.139-0.346c-0.296,0.025-0.265,0.215,0.07,0.423c0.333,0.208,0.842,0.359,1.138,0.34
	C2.35,22.79,2.317,22.605,1.987,22.389 M152.764,30.649c1.047-0.396,1.592-1.602,1.213-2.692c-0.381-1.091-1.549-1.652-2.605-1.257
	c-1.055,0.398-1.586,1.602-1.197,2.692C150.564,30.481,151.719,31.045,152.764,30.649 M0.513,18.201
	c-0.129-0.093-0.326-0.159-0.438-0.146c-0.112,0.004-0.098,0.095,0.032,0.186c0.131,0.092,0.327,0.158,0.438,0.146
	C0.658,18.375,0.641,18.296,0.513,18.201 M7.017,28.262c-0.253-0.136-0.648-0.247-0.881-0.25c-0.233-0.001-0.215,0.106,0.037,0.241
	c0.256,0.133,0.65,0.243,0.883,0.247C7.29,28.502,7.269,28.402,7.017,28.262 M36.35,41.1c0.293,0.092,0.313,0.06,0.043-0.065
	c-0.269-0.125-0.725-0.295-1.019-0.384c-0.294-0.088-0.314-0.061-0.043,0.061C35.599,40.834,36.056,41.011,36.35,41.1 M7.209,25.633
	c-0.38-0.24-0.969-0.434-1.313-0.429c-0.344,0.005-0.313,0.201,0.069,0.432c0.381,0.231,0.971,0.42,1.314,0.421
	C7.624,26.061,7.59,25.874,7.209,25.633 M17.056,33.337c-0.316-0.15-0.81-0.312-1.103-0.354c-0.294-0.043-0.276,0.04,0.039,0.19
	c0.316,0.143,0.81,0.303,1.103,0.349C17.388,33.571,17.371,33.488,17.056,33.337 M12.076,30.884
	c-0.29-0.146-0.739-0.287-1.008-0.306c-0.267-0.018-0.25,0.081,0.039,0.227c0.29,0.142,0.739,0.28,1.008,0.301
	C12.381,31.13,12.364,31.031,12.076,30.884 M12.316,28.743c-0.415-0.251-1.054-0.482-1.431-0.499
	c-0.378-0.023-0.349,0.16,0.066,0.404c0.412,0.243,1.055,0.453,1.432,0.489C12.759,29.166,12.729,28.994,12.316,28.743
	 M39.223,42.828c0.285,0.141,0.691,0.34,1.009,0.496c-0.344-0.173-0.781-0.396-1.062-0.528
	C38.848,42.639,38.87,42.658,39.223,42.828 M50.86,44.276c-0.28-0.206-0.777-0.406-1.103-0.451c-0.326-0.046-0.357,0.07-0.075,0.272
	c0.284,0.198,0.775,0.405,1.102,0.457C51.107,44.607,51.142,44.48,50.86,44.276 M35.152,40.948c-0.452-0.183-0.48-0.193-0.064-0.015
	c0.415,0.18,1.117,0.486,1.567,0.683c0.45,0.195,0.479,0.194,0.066,0.004C36.307,41.432,35.604,41.134,35.152,40.948 M54.462,49.272
	c-0.308-0.229-0.841-0.512-1.193-0.629c-0.349-0.119-0.383-0.033-0.075,0.192c0.311,0.225,0.842,0.514,1.191,0.638
	C54.733,49.601,54.768,49.507,54.462,49.272 M55.415,47.481c-0.265-0.209-0.728-0.425-1.034-0.489
	c-0.307-0.063-0.34,0.049-0.074,0.251c0.265,0.204,0.726,0.43,1.031,0.495C55.642,47.808,55.679,47.688,55.415,47.481
	 M59.411,52.822c-0.331-0.274-0.908-0.612-1.287-0.766c-0.382-0.146-0.421-0.058-0.088,0.209c0.332,0.269,0.905,0.621,1.285,0.777
	C59.7,53.199,59.741,53.1,59.411,52.822 M50.158,48.631c-0.31-0.207-0.845-0.508-1.19-0.685c-0.349-0.17-0.375-0.156-0.062,0.04
	c0.312,0.198,0.845,0.508,1.188,0.691C50.438,48.859,50.467,48.836,50.158,48.631 M54.61,44.398
	c-0.328-0.031-0.367,0.121-0.089,0.34c0.28,0.221,0.77,0.43,1.097,0.465c0.326,0.034,0.369-0.124,0.09-0.346
	C55.429,44.634,54.938,44.429,54.61,44.398 M54.782,50.854c-0.316-0.239-0.867-0.558-1.228-0.719
	c-0.36-0.163-0.39-0.113-0.073,0.119c0.322,0.228,0.867,0.559,1.227,0.728C55.065,51.148,55.098,51.092,54.782,50.854
	 M50.667,46.359c-0.27-0.188-0.736-0.399-1.04-0.482c-0.306-0.078-0.335,0.003-0.064,0.186c0.269,0.186,0.732,0.407,1.038,0.489
	C50.905,46.636,50.933,46.549,50.667,46.359 M40.318,43.127c-0.033-0.023-0.089-0.058-0.124-0.068
	c-0.032-0.015-0.028-0.012,0.008,0.011c0.035,0.021,0.089,0.055,0.124,0.068C40.357,43.153,40.354,43.147,40.318,43.127
	 M41.422,43.449c-0.39-0.207-1.054-0.497-1.482-0.653c-0.429-0.152-0.459-0.121-0.067,0.075c0.389,0.203,1.051,0.503,1.479,0.664
	C41.776,43.703,41.81,43.658,41.422,43.449 M40.232,43.324c0.054,0.028,0.112,0.058,0.159,0.081
	c0.352,0.182,0.376,0.189,0.055,0.026C40.384,43.4,40.307,43.362,40.232,43.324 M40.071,42.069c0.293,0.156,0.791,0.354,1.113,0.439
	c0.323,0.084,0.35,0.02,0.058-0.14c-0.293-0.159-0.792-0.353-1.116-0.434C39.802,41.854,39.777,41.914,40.071,42.069 M49.656,47.516
	c-0.243-0.16-0.659-0.379-0.931-0.482c-0.271-0.109-0.294-0.07-0.053,0.09c0.246,0.154,0.661,0.377,0.932,0.489
	C49.875,47.72,49.896,47.68,49.656,47.516 M46.089,45.036c-0.351-0.218-0.954-0.49-1.347-0.609
	c-0.393-0.126-0.424-0.057-0.071,0.152c0.353,0.208,0.952,0.491,1.344,0.619C46.406,45.328,46.436,45.258,46.089,45.036
	 M44.819,45.769c0.168,0.095,0.343,0.194,0.478,0.271c0.233,0.134,0.251,0.142,0.039,0.019C45.2,45.981,45.004,45.873,44.819,45.769
	 M44.526,45.604c0.086,0.047,0.188,0.105,0.293,0.164c-0.123-0.07-0.241-0.137-0.332-0.188
	C44.274,45.463,44.29,45.477,44.526,45.604 M44.949,45.541c-0.229-0.131-0.613-0.328-0.865-0.439c-0.251-0.111-0.27-0.1-0.043,0.031
	c0.227,0.129,0.614,0.329,0.866,0.441C45.156,45.69,45.175,45.673,44.949,45.541 M35.804,40.964
	c-0.428-0.236-1.092-0.562-1.486-0.722c-0.394-0.154-0.364-0.099,0.062,0.129c0.429,0.226,1.095,0.543,1.487,0.71
	S36.231,41.197,35.804,40.964 M123.421,44.391c-0.884,0.29-1.241,1.304-0.812,2.277c0.435,0.973,1.488,1.543,2.363,1.265
	c0.878-0.28,1.249-1.31,0.827-2.295C125.375,44.655,124.309,44.102,123.421,44.391 M130.8,30.177
	c0.407-0.151,0.593-0.623,0.413-1.053c-0.182-0.43-0.662-0.652-1.071-0.499c-0.411,0.153-0.594,0.624-0.411,1.053
	C129.913,30.105,130.391,30.329,130.8,30.177 M112.328,47.798c-0.825,0.226-1.121,1.129-0.67,2.03
	c0.454,0.901,1.477,1.472,2.293,1.26c0.819-0.215,1.128-1.139,0.684-2.054C114.189,48.121,113.156,47.571,112.328,47.798
	 M124.874,32.566c0.493-0.179,0.704-0.745,0.474-1.266s-0.82-0.791-1.314-0.61c-0.494,0.183-0.703,0.746-0.471,1.263
	C123.797,32.471,124.381,32.745,124.874,32.566 M122.683,41.407c0.843-0.283,1.198-1.262,0.788-2.18
	c-0.412-0.918-1.437-1.42-2.289-1.128c-0.848,0.291-1.192,1.257-0.774,2.168C120.827,41.176,121.843,41.688,122.683,41.407
	 M116.978,43.183c0.794-0.25,1.107-1.155,0.7-2.018c-0.408-0.862-1.392-1.344-2.194-1.086c-0.797,0.259-1.104,1.15-0.687,2.004
	C115.215,42.933,116.189,43.429,116.978,43.183 M117.808,46.16c-0.867,0.264-1.199,1.237-0.752,2.189
	c0.453,0.952,1.507,1.532,2.364,1.282c0.861-0.252,1.204-1.245,0.765-2.211C119.745,46.458,118.678,45.897,117.808,46.16
	 M118.956,34.624c0.457-0.16,0.644-0.682,0.418-1.163s-0.784-0.736-1.243-0.574c-0.458,0.163-0.641,0.68-0.413,1.159
	C117.949,34.523,118.5,34.783,118.956,34.624 M128.489,39.469c0.886-0.313,1.277-1.352,0.871-2.314s-1.466-1.479-2.36-1.158
	c-0.893,0.32-1.275,1.349-0.859,2.304C126.556,39.254,127.605,39.779,128.489,39.469 M129.117,42.391
	c-0.937,0.325-1.339,1.414-0.907,2.442c0.436,1.028,1.531,1.612,2.457,1.299c0.93-0.319,1.347-1.423,0.924-2.462
	C131.167,42.634,130.056,42.065,129.117,42.391 M146.553,33.006c1.029-0.393,1.548-1.591,1.152-2.68
	c-0.396-1.09-1.565-1.651-2.604-1.26c-1.035,0.392-1.543,1.588-1.137,2.675C144.371,32.826,145.527,33.393,146.553,33.006
	 M149.446,23.157c0.429-0.161,0.647-0.646,0.487-1.087c-0.16-0.438-0.64-0.666-1.071-0.505c-0.43,0.161-0.646,0.647-0.484,1.086
	C148.54,23.091,149.015,23.316,149.446,23.157 M146.908,35.725c-1.057,0.401-1.574,1.636-1.165,2.765s1.583,1.726,2.629,1.327
	c1.049-0.4,1.581-1.644,1.183-2.774C149.155,35.91,147.967,35.323,146.908,35.725 M143.127,25.533
	c0.423-0.158,0.63-0.643,0.463-1.082c-0.167-0.437-0.645-0.661-1.07-0.502c-0.423,0.16-0.629,0.645-0.462,1.081
	C142.227,25.468,142.706,25.692,143.127,25.533 M134.356,37.297c0.876-0.321,1.283-1.351,0.904-2.295
	c-0.38-0.946-1.407-1.444-2.291-1.119c-0.881,0.327-1.275,1.346-0.89,2.287C132.468,37.108,133.483,37.615,134.356,37.297
	 M139.684,40.756c0.444,1.162,1.655,1.789,2.718,1.394c1.066-0.397,1.588-1.669,1.157-2.837c-0.431-1.166-1.659-1.781-2.735-1.38
	C139.75,38.335,139.244,39.594,139.684,40.756 M133.87,42.866c0.443,1.111,1.614,1.727,2.621,1.365
	c1.011-0.364,1.484-1.571,1.052-2.688c-0.435-1.119-1.618-1.719-2.642-1.35C133.884,40.563,133.424,41.756,133.87,42.866
	 M136.896,27.848c0.397-0.15,0.584-0.608,0.419-1.023c-0.166-0.414-0.624-0.629-1.021-0.478c-0.398,0.149-0.586,0.609-0.417,1.021
	C136.042,27.782,136.5,27.995,136.896,27.848 M140.399,35.182c0.947-0.356,1.406-1.467,1.021-2.481
	c-0.387-1.013-1.48-1.542-2.438-1.183c-0.951,0.359-1.398,1.463-1.005,2.473C138.375,35,139.455,35.534,140.399,35.182
	 M90.763,53.569c0.558,0.836,1.657,1.473,2.469,1.401c0.814-0.073,1.04-0.844,0.496-1.704c-0.543-0.858-1.659-1.461-2.483-1.368
	C90.423,51.994,90.212,52.731,90.763,53.569 M110.689,54.349c-1.029,0.229-1.384,1.33-0.797,2.48
	c0.586,1.155,1.879,1.942,2.896,1.737c1.02-0.207,1.391-1.345,0.819-2.521C113.035,54.869,111.724,54.12,110.689,54.349
	 M96.382,41.479c0.366-0.094,0.481-0.469,0.256-0.838s-0.708-0.587-1.075-0.489c-0.367,0.097-0.479,0.468-0.252,0.833
	C95.539,41.351,96.018,41.571,96.382,41.479 M96.022,52.976c0.463,0.76,1.42,1.305,2.139,1.204s0.936-0.821,0.478-1.595
	c-0.455-0.775-1.423-1.296-2.149-1.182C95.762,51.52,95.558,52.217,96.022,52.976 M95.249,48.546
	c0.664-0.121,0.865-0.785,0.438-1.472c-0.422-0.687-1.314-1.126-1.984-0.992c-0.669,0.134-0.858,0.779-0.429,1.453
	C93.705,48.21,94.586,48.667,95.249,48.546 M80.533,44.668c0.348-0.051,0.43-0.351,0.183-0.673c-0.246-0.32-0.729-0.534-1.079-0.481
	c-0.348,0.053-0.431,0.351-0.18,0.667C79.704,44.496,80.186,44.716,80.533,44.668 M90.97,42.703
	c0.326-0.072,0.419-0.393,0.208-0.716c-0.212-0.319-0.648-0.518-0.978-0.442c-0.327,0.074-0.421,0.394-0.206,0.711
	C90.208,42.573,90.644,42.775,90.97,42.703 M84.871,49.806c0.549-0.052,0.681-0.533,0.3-1.071c-0.387-0.537-1.152-0.914-1.705-0.852
	c-0.554,0.062-0.683,0.532-0.292,1.057C83.561,49.467,84.321,49.857,84.871,49.806 M85.708,43.801
	c0.337-0.062,0.425-0.375,0.195-0.698c-0.229-0.322-0.689-0.529-1.027-0.463c-0.338,0.064-0.424,0.374-0.194,0.692
	C84.913,43.65,85.371,43.86,85.708,43.801 M90.105,49.423c0.676-0.096,0.861-0.734,0.407-1.416c-0.452-0.685-1.379-1.139-2.061-1.03
	c-0.682,0.109-0.858,0.729-0.397,1.396C88.513,49.041,89.43,49.515,90.105,49.423 M100.541,47.527
	c0.701-0.156,0.924-0.887,0.502-1.627c-0.425-0.738-1.347-1.192-2.056-1.025c-0.704,0.167-0.923,0.883-0.489,1.608
	C98.927,47.211,99.841,47.681,100.541,47.527 M111.312,44.657c0.679-0.195,0.931-0.95,0.562-1.681
	c-0.371-0.73-1.226-1.152-1.908-0.949c-0.681,0.204-0.924,0.946-0.55,1.669C109.791,44.419,110.637,44.852,111.312,44.657
	 M105.814,46.084c0.63-0.162,0.851-0.847,0.487-1.521c-0.363-0.675-1.177-1.075-1.814-0.905c-0.634,0.171-0.847,0.844-0.477,1.51
	C104.376,45.833,105.184,46.245,105.814,46.084 M106.926,49.185c-0.809,0.194-1.079,1.051-0.611,1.926
	c0.471,0.876,1.493,1.452,2.293,1.273c0.805-0.181,1.088-1.06,0.627-1.951C108.775,49.544,107.74,48.99,106.926,49.185
	 M101.653,50.402c-0.77,0.156-1.007,0.937-0.538,1.757c0.472,0.822,1.466,1.388,2.227,1.248c0.766-0.143,1.012-0.942,0.553-1.782
	C103.43,50.79,102.427,50.246,101.653,50.402 M101.856,39.994c0.373-0.105,0.498-0.504,0.28-0.886
	c-0.217-0.383-0.699-0.601-1.073-0.491c-0.373,0.109-0.497,0.503-0.276,0.883C101.004,39.879,101.484,40.101,101.856,39.994
	 M44.829,43.196c0.309,0.189,0.837,0.41,1.183,0.481c0.346,0.074,0.378-0.031,0.07-0.224c-0.308-0.195-0.837-0.404-1.185-0.473
	C44.55,42.915,44.52,43.009,44.829,43.196 M107.458,38.375c0.404-0.127,0.552-0.572,0.328-0.994
	c-0.226-0.421-0.739-0.655-1.146-0.526c-0.408,0.131-0.552,0.571-0.324,0.989C106.542,38.263,107.052,38.501,107.458,38.375
	 M111.931,36.028c-0.238-0.466-0.065-0.966,0.383-1.12c0.45-0.151,1.007,0.104,1.242,0.573c0.237,0.47,0.062,0.976-0.385,1.124
	C112.723,36.754,112.169,36.495,111.931,36.028"/>
</svg>
