<?xml version="1.0" encoding="utf-8"?>
<!-- Generator: Adobe Illustrator 16.0.0, SVG Export Plug-In . SVG Version: 6.00 Build 0)  -->
<!DOCTYPE svg PUBLIC "-//W3C//DTD SVG 1.1//EN" "http://www.w3.org/Graphics/SVG/1.1/DTD/svg11.dtd">
<svg version="1.1" id="Layer_1" xmlns="http://www.w3.org/2000/svg" xmlns:xlink="http://www.w3.org/1999/xlink" x="0px" y="0px"
	 width="329.657px" height="73.112px" viewBox="0 0 329.657 73.112" enable-background="new 0 0 329.657 73.112"
	 xml:space="preserve">
<g>
	<defs>
		<path id="SVGID_1_" d="M56.452,72.51c0.195,0.225,0.498,0.418,0.68,0.426c0.184,0.007,0.175-0.172-0.018-0.4
			c-0.191-0.228-0.498-0.415-0.681-0.421c-0.003-0.001-0.005-0.001-0.008-0.001C56.25,72.113,56.263,72.287,56.452,72.51
			 M59.864,72.021c-0.229,0.01-0.229,0.24-0.003,0.523c0.229,0.281,0.598,0.507,0.827,0.504c0.229-0.007,0.232-0.242,0.007-0.529
			c-0.225-0.28-0.591-0.498-0.823-0.498C59.87,72.021,59.867,72.021,59.864,72.021 M53.17,72.251
			c0.176,0.191,0.439,0.367,0.595,0.382c0.153,0.02,0.139-0.126-0.035-0.32c-0.175-0.191-0.441-0.362-0.595-0.378
			c-0.011-0.001-0.019-0.001-0.026-0.001C52.982,71.934,53.006,72.071,53.17,72.251 M50.151,71.782
			c0.08,0.083,0.198,0.162,0.265,0.175c0.065,0.016,0.056-0.044-0.023-0.129c-0.08-0.083-0.198-0.162-0.266-0.173
			c-0.007-0.003-0.013-0.004-0.018-0.004C50.064,71.651,50.082,71.706,50.151,71.782 M63.338,71.537
			c-0.355,0.032-0.373,0.403-0.041,0.836c0.33,0.432,0.882,0.765,1.235,0.737c0.356-0.029,0.381-0.411,0.052-0.848
			c-0.312-0.417-0.836-0.729-1.193-0.729C63.373,71.534,63.356,71.535,63.338,71.537 M47.224,71.08l0.037,0.025l-0.005-0.017
			l-0.037-0.024L47.224,71.08z M67.125,71.002c-0.408,0.057-0.446,0.498-0.092,0.988c0.357,0.49,0.97,0.854,1.376,0.801
			c0.407-0.051,0.454-0.503,0.103-1.001c-0.327-0.459-0.884-0.795-1.289-0.795C67.189,70.995,67.157,70.997,67.125,71.002
			 M70.868,69.933c-0.615,0.116-0.698,0.79-0.197,1.521c0.506,0.729,1.398,1.252,2.008,1.148c0.613-0.104,0.716-0.801,0.22-1.546
			c-0.448-0.671-1.235-1.141-1.84-1.141C70.993,69.916,70.929,69.921,70.868,69.933 M75.04,69.008
			c-0.67,0.149-0.79,0.897-0.276,1.682c0.512,0.786,1.454,1.325,2.115,1.189c0.667-0.136,0.808-0.906,0.304-1.707
			c-0.445-0.706-1.248-1.191-1.895-1.191C75.202,68.98,75.119,68.99,75.04,69.008 M53.552,68.142
			c-0.103,0.002-0.099,0.103,0.012,0.219c0.108,0.119,0.278,0.216,0.38,0.214c0.102-0.003,0.099-0.104-0.011-0.224
			c-0.106-0.114-0.271-0.209-0.372-0.209C53.558,68.142,53.555,68.142,53.552,68.142 M79.384,67.885
			c-0.732,0.188-0.89,1.014-0.366,1.865c0.524,0.851,1.525,1.413,2.251,1.245c0.729-0.172,0.908-1.023,0.394-1.893
			c-0.449-0.749-1.276-1.255-1.97-1.255C79.585,67.848,79.483,67.859,79.384,67.885 M56.756,67.479
			c-0.32,0.03-0.317,0.351,0.002,0.722c0.321,0.368,0.835,0.655,1.154,0.632c0.32-0.026,0.324-0.354,0.006-0.731
			c-0.304-0.357-0.793-0.623-1.116-0.623C56.787,67.478,56.772,67.478,56.756,67.479 M84.251,67.173
			c-0.518,0.144-0.653,0.74-0.307,1.341c0.348,0.601,1.045,0.981,1.562,0.845s0.662-0.744,0.317-1.352
			c-0.294-0.518-0.853-0.864-1.336-0.864C84.407,67.143,84.328,67.152,84.251,67.173 M60.506,67.003
			c-0.349,0.051-0.362,0.411-0.037,0.811c0.326,0.398,0.865,0.691,1.212,0.646s0.366-0.414,0.046-0.82
			c-0.3-0.373-0.789-0.642-1.137-0.642C60.561,66.998,60.533,67,60.506,67.003 M64.363,66.224c-0.419,0.081-0.456,0.526-0.089,1.005
			c0.367,0.479,1,0.813,1.417,0.74c0.418-0.074,0.463-0.532,0.099-1.018c-0.328-0.437-0.878-0.739-1.292-0.739
			C64.451,66.212,64.406,66.216,64.363,66.224 M89,65.818c-0.539,0.159-0.697,0.784-0.358,1.401c0.338,0.618,1.044,1,1.579,0.847
			c0.538-0.151,0.708-0.786,0.373-1.41c-0.283-0.526-0.836-0.874-1.327-0.874C89.175,65.782,89.085,65.794,89,65.818 M68.413,65.249
			c-0.49,0.112-0.553,0.645-0.152,1.201c0.404,0.552,1.119,0.924,1.605,0.82c0.488-0.105,0.565-0.65,0.166-1.215
			c-0.35-0.492-0.951-0.828-1.425-0.828C68.539,65.228,68.474,65.234,68.413,65.249 M93.907,64.283
			c-0.582,0.18-0.773,0.856-0.431,1.518c0.344,0.66,1.087,1.06,1.665,0.886c0.582-0.173,0.784-0.858,0.444-1.526
			c-0.282-0.559-0.854-0.921-1.378-0.921C94.105,64.239,94.003,64.253,93.907,64.283 M72.686,64.134
			c-0.538,0.14-0.633,0.737-0.218,1.341c0.415,0.604,1.18,0.994,1.714,0.862c0.536-0.133,0.645-0.743,0.232-1.357
			c-0.353-0.523-0.972-0.876-1.482-0.876C72.846,64.103,72.764,64.113,72.686,64.134 M44.558,64.468
			c0.457,0.427,1.138,0.788,1.524,0.799c0.389,0.01,0.34-0.343-0.117-0.775c-0.453-0.436-1.146-0.779-1.537-0.78
			C44.039,63.71,44.1,64.043,44.558,64.468 M41.451,64.256c0.377,0.333,0.926,0.632,1.228,0.661c0.302,0.032,0.246-0.225-0.133-0.56
			c-0.376-0.337-0.931-0.626-1.234-0.648c-0.016-0.001-0.029-0.002-0.043-0.002C41.015,63.707,41.09,63.941,41.451,64.256
			 M47.721,63.47c-0.479,0.031-0.429,0.465,0.099,0.988c0.531,0.52,1.337,0.939,1.812,0.923c0.478-0.02,0.444-0.479-0.081-1.013
			c-0.507-0.516-1.289-0.9-1.776-0.9C47.756,63.468,47.738,63.469,47.721,63.47 M38.409,63.8c0.354,0.289,0.85,0.57,1.113,0.62
			c0.265,0.049,0.198-0.154-0.154-0.447c-0.35-0.294-0.853-0.564-1.119-0.606c-0.026-0.006-0.05-0.008-0.069-0.008
			C38,63.358,38.092,63.541,38.409,63.8 M77.292,63.064c-0.478,0.137-0.58,0.674-0.234,1.206c0.344,0.532,1.004,0.86,1.477,0.731
			c0.477-0.131,0.587-0.676,0.247-1.215c-0.289-0.455-0.81-0.753-1.254-0.753C77.446,63.034,77.367,63.044,77.292,63.064
			 M51.068,62.861c-0.635,0.081-0.605,0.689,0.058,1.379c0.662,0.691,1.7,1.22,2.33,1.159c0.635-0.063,0.628-0.706-0.027-1.417
			c-0.607-0.657-1.564-1.129-2.213-1.129C51.164,62.854,51.115,62.855,51.068,62.861 M35.467,63.09
			c0.354,0.276,0.846,0.56,1.098,0.633c0.253,0.07,0.172-0.102-0.184-0.38c-0.354-0.278-0.852-0.553-1.104-0.62
			c-0.038-0.01-0.069-0.015-0.092-0.015C35.056,62.708,35.164,62.858,35.467,63.09 M98.916,62.465
			c-0.708,0.227-0.957,1.047-0.568,1.84c0.392,0.794,1.27,1.267,1.971,1.049c0.706-0.218,0.97-1.049,0.588-1.853
			c-0.319-0.664-0.986-1.094-1.61-1.094C99.166,62.407,99.038,62.426,98.916,62.465 M54.577,61.982
			c-0.82,0.151-0.82,0.962-0.018,1.845c0.801,0.888,2.095,1.533,2.904,1.415c0.818-0.12,0.854-0.986,0.062-1.901
			c-0.711-0.819-1.852-1.381-2.678-1.381C54.752,61.96,54.662,61.968,54.577,61.982 M32.682,62.135
			c0.34,0.25,0.798,0.525,1.026,0.611c0.229,0.09,0.142-0.046-0.199-0.295c-0.339-0.252-0.803-0.517-1.032-0.602
			c-0.048-0.018-0.082-0.025-0.104-0.025C32.297,61.824,32.413,61.942,32.682,62.135 M81.945,61.629
			c-0.518,0.16-0.647,0.748-0.297,1.321c0.351,0.572,1.047,0.917,1.562,0.767c0.518-0.154,0.657-0.752,0.311-1.332
			c-0.289-0.482-0.827-0.795-1.299-0.795C82.125,61.59,82.032,61.603,81.945,61.629 M58.695,61.358
			c-0.766,0.17-0.804,0.957-0.102,1.781c0.704,0.826,1.874,1.396,2.631,1.249c0.764-0.149,0.833-0.978,0.138-1.826
			c-0.604-0.739-1.597-1.236-2.353-1.236C58.898,61.326,58.792,61.337,58.695,61.358 M63.191,60.797
			c-0.574,0.146-0.632,0.758-0.138,1.377s1.349,1.019,1.919,0.886c0.573-0.136,0.647-0.767,0.157-1.398
			c-0.418-0.539-1.114-0.896-1.67-0.896C63.365,60.765,63.275,60.774,63.191,60.797 M30.023,60.928
			c0.324,0.22,0.752,0.486,0.958,0.589c0.205,0.104,0.112,0.004-0.212-0.219c-0.322-0.223-0.756-0.479-0.963-0.579
			c-0.058-0.028-0.091-0.042-0.104-0.042C29.67,60.677,29.787,60.77,30.023,60.928 M104.184,60.702
			c-0.756,0.248-1.044,1.124-0.654,1.963c0.393,0.839,1.311,1.333,2.061,1.096c0.754-0.24,1.059-1.124,0.674-1.975
			c-0.317-0.698-1.005-1.149-1.662-1.149C104.459,60.637,104.319,60.658,104.184,60.702 M86.559,60.201
			c-0.519,0.158-0.648,0.748-0.298,1.319c0.352,0.574,1.048,0.918,1.562,0.768c0.517-0.154,0.656-0.751,0.311-1.332
			c-0.289-0.482-0.827-0.794-1.3-0.795C86.739,60.161,86.647,60.174,86.559,60.201 M39.568,59.982
			c-0.495,0.02-0.403,0.43,0.195,0.934c0.6,0.504,1.475,0.925,1.967,0.919c0.494-0.004,0.421-0.446-0.176-0.962
			c-0.579-0.507-1.444-0.891-1.949-0.891C39.593,59.982,39.58,59.982,39.568,59.982 M36.468,60.806
			c0.643,0.508,1.561,0.962,2.058,0.996c0.5,0.034,0.396-0.381-0.245-0.903c-0.637-0.524-1.575-0.943-2.08-0.962
			c-0.011-0.001-0.021-0.001-0.031-0.001C35.705,59.936,35.836,60.311,36.468,60.806 M33.598,60.48
			c0.484,0.36,1.161,0.702,1.514,0.755c0.356,0.053,0.255-0.21-0.226-0.579c-0.484-0.366-1.168-0.693-1.525-0.735
			c-0.029-0.004-0.055-0.005-0.078-0.005C33.025,59.916,33.153,60.151,33.598,60.48 M42.917,59.632
			c-0.572,0.061-0.499,0.566,0.153,1.152c0.653,0.586,1.634,1.042,2.202,1c0.574-0.046,0.522-0.586-0.127-1.188
			c-0.605-0.563-1.521-0.97-2.111-0.97C42.994,59.626,42.954,59.628,42.917,59.632 M67.443,59.53
			c-0.646,0.185-0.737,0.886-0.218,1.58c0.523,0.693,1.458,1.124,2.1,0.953c0.646-0.174,0.755-0.895,0.24-1.604
			c-0.434-0.589-1.171-0.976-1.782-0.976C67.664,59.483,67.549,59.499,67.443,59.53 M30.669,59.892
			c0.473,0.322,1.11,0.66,1.434,0.74c0.326,0.078,0.215-0.137-0.254-0.469c-0.47-0.333-1.118-0.65-1.445-0.723
			c-0.044-0.01-0.081-0.015-0.109-0.015C30.118,59.426,30.265,59.609,30.669,59.892 M27.47,59.464
			c0.313,0.199,0.722,0.459,0.911,0.577c0.188,0.12,0.091,0.049-0.225-0.152c-0.312-0.201-0.726-0.451-0.914-0.569
			c-0.064-0.038-0.096-0.057-0.096-0.057S27.263,59.333,27.47,59.464 M46.549,59.142c-0.601,0.1-0.559,0.66,0.087,1.274
			c0.643,0.617,1.64,1.064,2.234,0.985c0.603-0.082,0.58-0.678-0.059-1.31c-0.574-0.571-1.458-0.965-2.071-0.965
			C46.672,59.127,46.609,59.132,46.549,59.142 M90.913,58.954c-0.518,0.16-0.648,0.748-0.298,1.32
			c0.351,0.573,1.048,0.917,1.563,0.768c0.516-0.154,0.656-0.752,0.31-1.332c-0.29-0.482-0.828-0.796-1.3-0.796
			C91.093,58.914,91,58.927,90.913,58.954 M109.674,58.957c-0.757,0.251-1.064,1.121-0.698,1.952
			c0.367,0.831,1.264,1.313,2.013,1.073c0.752-0.24,1.077-1.118,0.716-1.96c-0.296-0.688-0.964-1.131-1.612-1.131
			C109.95,58.892,109.81,58.913,109.674,58.957 M28.035,59.106c0.319,0.206,0.744,0.436,0.952,0.507
			c0.209,0.069,0.121-0.046-0.196-0.255s-0.747-0.43-0.955-0.498c-0.043-0.014-0.071-0.02-0.091-0.02
			C27.672,58.841,27.782,58.941,28.035,59.106 M94.749,58.458c-0.314,0.097-0.394,0.454-0.181,0.803
			c0.213,0.348,0.636,0.557,0.949,0.465c0.314-0.093,0.398-0.456,0.188-0.809c-0.176-0.293-0.503-0.483-0.789-0.483
			C94.858,58.434,94.802,58.44,94.749,58.458 M50.358,58.424c-0.63,0.135-0.616,0.748,0.016,1.395
			c0.638,0.644,1.646,1.089,2.271,0.974c0.63-0.118,0.64-0.766,0.011-1.428c-0.545-0.578-1.402-0.966-2.035-0.966
			C50.528,58.398,50.44,58.407,50.358,58.424 M24.953,57.757c0.122,0.091,0.395,0.269,0.609,0.392
			c0.15,0.093,0.227,0.13,0.217,0.112c0.147,0.082,0.284,0.154,0.368,0.193c0.154,0.069,0.079,0.002-0.169-0.152
			c-0.212-0.129-0.476-0.271-0.646-0.354c-0.072-0.047-0.146-0.093-0.214-0.133c-0.128-0.075-0.205-0.114-0.221-0.114
			C24.887,57.701,24.904,57.719,24.953,57.757 M71.642,57.738c-0.9,0.284-1.06,1.271-0.379,2.227
			c0.686,0.955,1.943,1.537,2.834,1.276c0.896-0.264,1.09-1.284,0.419-2.266c-0.553-0.803-1.522-1.313-2.354-1.313
			C71.981,57.662,71.805,57.687,71.642,57.738 M54.348,57.49c-0.66,0.169-0.68,0.836-0.057,1.511
			c0.625,0.675,1.651,1.115,2.305,0.965c0.658-0.152,0.701-0.849,0.084-1.543c-0.523-0.588-1.357-0.971-2.004-0.971
			C54.559,57.452,54.449,57.465,54.348,57.49 M97.5,57.447c-0.171,0.059-0.231,0.255-0.136,0.439
			c0.096,0.186,0.311,0.289,0.48,0.231s0.232-0.254,0.138-0.44c-0.077-0.151-0.233-0.247-0.381-0.247
			C97.567,57.431,97.533,57.436,97.5,57.447 M30.003,57.549c0.229,0.156,0.55,0.295,0.716,0.308c0.167,0.01,0.115-0.106-0.111-0.268
			c-0.231-0.156-0.55-0.293-0.718-0.304c-0.007,0-0.016-0.001-0.022-0.001C29.728,57.284,29.787,57.396,30.003,57.549
			 M32.859,57.188c-0.271,0.009-0.202,0.211,0.147,0.471c0.351,0.255,0.85,0.467,1.118,0.467c0.271-0.002,0.208-0.219-0.141-0.479
			c-0.345-0.258-0.843-0.458-1.116-0.458C32.865,57.188,32.862,57.188,32.859,57.188 M23.554,57.12
			C23.587,57.139,23.586,57.138,23.554,57.12 M23.554,57.12c-0.003-0.002-0.007-0.004-0.009-0.006
			C23.549,57.116,23.552,57.118,23.554,57.12 M23.545,57.114C23.544,57.114,23.544,57.114,23.545,57.114
			C23.544,57.114,23.544,57.114,23.545,57.114 M115.256,56.981c-0.839,0.277-1.201,1.238-0.819,2.153
			c0.383,0.916,1.358,1.444,2.191,1.18c0.835-0.27,1.216-1.237,0.84-2.164c-0.309-0.756-1.029-1.242-1.743-1.242
			C115.566,56.908,115.409,56.932,115.256,56.981 M26.925,57.174c0.278,0.174,0.653,0.35,0.845,0.379
			c0.189,0.034,0.124-0.093-0.155-0.27c-0.274-0.184-0.658-0.347-0.848-0.373c-0.022-0.004-0.039-0.005-0.055-0.005
			C26.594,56.905,26.68,57.014,26.925,57.174 M36.084,56.896c-0.341,0.032-0.273,0.313,0.141,0.643
			c0.418,0.325,1.026,0.577,1.368,0.552c0.341-0.026,0.283-0.324-0.133-0.656c-0.389-0.312-0.958-0.541-1.31-0.541
			C36.127,56.894,36.106,56.895,36.084,56.896 M100.058,56.877c-0.041,0.014-0.059,0.062-0.033,0.106
			c0.022,0.045,0.073,0.069,0.114,0.056c0.041-0.015,0.056-0.062,0.033-0.106c-0.018-0.037-0.056-0.06-0.091-0.06
			C100.074,56.873,100.066,56.874,100.058,56.877 M22.684,56.628c0.137,0.077,0.435,0.242,0.665,0.374
			c0.094,0.053,0.157,0.09,0.195,0.112c-0.006-0.005-0.013-0.008-0.024-0.016c-0.137-0.078-0.435-0.248-0.663-0.378
			c-0.153-0.085-0.239-0.131-0.24-0.131S22.638,56.602,22.684,56.628 M39.643,56.483c-0.341,0.055-0.298,0.358,0.096,0.688
			c0.393,0.329,0.984,0.561,1.324,0.516c0.342-0.047,0.303-0.36-0.086-0.697c-0.354-0.304-0.876-0.513-1.228-0.513
			C39.711,56.477,39.676,56.479,39.643,56.483 M58.67,56.52c-0.6,0.173-0.647,0.8-0.116,1.411c0.53,0.615,1.438,0.99,2.032,0.831
			c0.598-0.16,0.662-0.807,0.137-1.435c-0.438-0.518-1.146-0.852-1.72-0.852C58.886,56.476,58.774,56.49,58.67,56.52 M24.047,56.545
			c0.279,0.165,0.651,0.34,0.832,0.39c0.183,0.048,0.105-0.053-0.175-0.22c-0.278-0.168-0.654-0.336-0.837-0.383
			c-0.03-0.008-0.054-0.011-0.07-0.011C23.72,56.321,23.815,56.408,24.047,56.545 M22.906,56c0,0,0.062,0.04,0.092,0.061
			c0.033,0.016,0.026,0.004,0.026,0.004s-0.059-0.042-0.091-0.061c-0.018-0.01-0.029-0.014-0.034-0.014
			C22.896,55.99,22.898,55.993,22.906,56 M43.465,55.921c-0.296,0.062-0.273,0.338,0.045,0.624c0.319,0.285,0.813,0.474,1.107,0.418
			c0.294-0.06,0.277-0.341-0.04-0.633c-0.274-0.252-0.688-0.421-0.987-0.421C43.545,55.909,43.503,55.913,43.465,55.921
			 M62.989,55.145c-0.653,0.209-0.73,0.904-0.188,1.571c0.548,0.665,1.503,1.059,2.149,0.866c0.651-0.196,0.75-0.914,0.212-1.596
			c-0.437-0.551-1.163-0.899-1.772-0.899C63.248,55.087,63.113,55.105,62.989,55.145 M105.513,54.969
			c-0.06,0.02-0.083,0.089-0.053,0.153c0.03,0.062,0.103,0.099,0.163,0.079c0.06-0.021,0.081-0.09,0.054-0.153
			c-0.025-0.052-0.077-0.085-0.128-0.085C105.536,54.963,105.524,54.965,105.513,54.969 M121.033,55.03
			c-0.89,0.289-1.293,1.302-0.912,2.264s1.397,1.518,2.279,1.239c0.885-0.28,1.307-1.299,0.934-2.271
			c-0.307-0.797-1.056-1.31-1.808-1.31C121.361,54.952,121.195,54.977,121.033,55.03 M20.028,54.979
			c0.184,0.124,0.597,0.364,0.921,0.536c0.251,0.131,0.371,0.183,0.332,0.141c0.353,0.189,0.778,0.402,0.989,0.479
			c0.221,0.086,0.114-0.017-0.249-0.219c-0.362-0.202-0.838-0.424-1.062-0.504c-0.037-0.014-0.051-0.016-0.069-0.021
			c-0.188-0.114-0.407-0.241-0.604-0.341c-0.188-0.099-0.308-0.15-0.338-0.15C19.928,54.901,19.952,54.927,20.028,54.979
			 M47.116,54.812c-0.429,0.11-0.419,0.529,0.019,0.948c0.438,0.416,1.137,0.679,1.563,0.577c0.431-0.104,0.43-0.537-0.005-0.963
			c-0.365-0.356-0.922-0.588-1.349-0.588C47.263,54.786,47.186,54.794,47.116,54.812 M102.399,54.585
			c-0.697,0.243-0.96,1.042-0.592,1.79c0.367,0.748,1.22,1.168,1.912,0.934c0.694-0.234,0.97-1.041,0.608-1.798
			c-0.292-0.61-0.911-0.995-1.507-0.995C102.677,54.516,102.535,54.538,102.399,54.585 M25.31,54.711
			c0.297,0.182,0.706,0.339,0.917,0.343c0.211,0.006,0.144-0.145-0.151-0.331c-0.294-0.187-0.709-0.334-0.921-0.336
			c-0.001,0-0.003,0-0.005,0C24.945,54.387,25.017,54.53,25.31,54.711 M28.375,54.289c-0.223,0.017-0.163,0.182,0.132,0.377
			c0.294,0.194,0.709,0.346,0.931,0.335c0.222-0.015,0.164-0.186-0.127-0.384c-0.278-0.189-0.672-0.329-0.901-0.329
			C28.397,54.288,28.386,54.288,28.375,54.289 M18.56,54.439c0.398,0.201,0.907,0.463,1.14,0.579
			c0.233,0.114,0.102,0.036-0.296-0.168c-0.397-0.205-0.911-0.459-1.145-0.566c-0.076-0.036-0.113-0.055-0.114-0.055
			C18.143,54.229,18.292,54.305,18.56,54.439 M22.269,54.497c0.298,0.172,0.702,0.331,0.903,0.353
			c0.2,0.021,0.122-0.104-0.176-0.276c-0.297-0.175-0.704-0.325-0.906-0.347c-0.014-0.001-0.026-0.002-0.037-0.002
			C21.902,54.225,21.99,54.34,22.269,54.497 M31.698,53.896c-0.261,0.035-0.205,0.245,0.117,0.479
			c0.326,0.228,0.795,0.396,1.053,0.364c0.261-0.031,0.211-0.253-0.111-0.487c-0.293-0.212-0.709-0.361-0.979-0.361
			C31.749,53.891,31.723,53.892,31.698,53.896 M19.349,54.016c0.319,0.169,0.746,0.344,0.948,0.387
			c0.204,0.045,0.111-0.062-0.207-0.236c-0.321-0.172-0.75-0.339-0.954-0.381c-0.029-0.007-0.053-0.009-0.069-0.009
			C18.963,53.776,19.073,53.872,19.349,54.016 M67.509,53.6c-0.701,0.241-0.816,1.004-0.268,1.718
			c0.552,0.715,1.554,1.12,2.248,0.896c0.701-0.229,0.836-1.011,0.292-1.742c-0.434-0.581-1.172-0.943-1.812-0.943
			C67.808,53.527,67.652,53.551,67.509,53.6 M51.015,53.521c-0.546,0.164-0.561,0.714-0.037,1.243
			c0.521,0.529,1.381,0.846,1.923,0.696c0.545-0.151,0.573-0.724,0.055-1.264c-0.422-0.441-1.08-0.72-1.606-0.72
			C51.23,53.477,51.117,53.491,51.015,53.521 M35.251,53.295c-0.272,0.054-0.232,0.295,0.089,0.539
			c0.318,0.246,0.799,0.407,1.069,0.356c0.273-0.051,0.238-0.299-0.082-0.545c-0.274-0.218-0.676-0.36-0.957-0.36
			C35.328,53.285,35.288,53.288,35.251,53.295 M17.518,53.107c0.212,0.176,0.704,0.47,1.098,0.659
			c0.394,0.194,0.539,0.208,0.329,0.029c-0.212-0.181-0.7-0.485-1.094-0.672c-0.203-0.096-0.341-0.144-0.399-0.144
			C17.397,52.98,17.415,53.022,17.518,53.107 M15.697,52.909c0.234,0.142,0.767,0.412,1.188,0.609
			c0.42,0.202,0.568,0.25,0.335,0.104c-0.144-0.091-0.396-0.232-0.666-0.372c0.018,0.009,0.037,0.018,0.059,0.027
			c0.301,0.147,0.694,0.315,0.875,0.375c0.183,0.06,0.088-0.018-0.214-0.17c-0.303-0.145-0.696-0.311-0.88-0.366
			c-0.137-0.041-0.116-0.012,0.026,0.065c-0.13-0.065-0.261-0.129-0.383-0.185c-0.249-0.116-0.405-0.175-0.441-0.175
			C15.569,52.823,15.6,52.851,15.697,52.909 M126.866,52.787c-1.079,0.346-1.589,1.56-1.155,2.717
			c0.436,1.157,1.644,1.827,2.712,1.497c1.073-0.335,1.608-1.554,1.186-2.726c-0.35-0.96-1.243-1.581-2.15-1.581
			C127.259,52.694,127.06,52.725,126.866,52.787 M38.984,52.458c-0.286,0.072-0.259,0.335,0.057,0.596
			c0.317,0.259,0.803,0.419,1.088,0.352c0.286-0.068,0.264-0.34-0.052-0.604c-0.262-0.218-0.645-0.362-0.932-0.362
			C39.085,52.439,39.032,52.446,38.984,52.458 M107.858,52.373c-0.857,0.301-1.201,1.278-0.776,2.19
			c0.425,0.914,1.45,1.425,2.303,1.138c0.854-0.29,1.216-1.276,0.799-2.202c-0.336-0.743-1.077-1.213-1.802-1.213
			C108.204,52.286,108.027,52.313,107.858,52.373 M55.303,52.223c-0.552,0.181-0.592,0.754-0.096,1.288
			c0.496,0.535,1.336,0.838,1.885,0.668c0.55-0.172,0.604-0.761,0.111-1.307c-0.389-0.436-1.011-0.705-1.527-0.705
			C55.542,52.167,55.416,52.185,55.303,52.223 M14.003,52.285c0.277,0.122,0.63,0.279,0.786,0.35
			c0.159,0.066,0.066,0.021-0.211-0.104c-0.275-0.125-0.629-0.278-0.789-0.345c-0.05-0.021-0.074-0.03-0.076-0.03
			C13.71,52.155,13.816,52.201,14.003,52.285 M72.251,51.929c-0.729,0.266-0.878,1.07-0.341,1.812c0.539,0.742,1.555,1.148,2.28,0.9
			c0.729-0.252,0.895-1.075,0.365-1.833c-0.419-0.595-1.149-0.962-1.8-0.962C72.58,51.846,72.409,51.873,72.251,51.929
			 M42.957,51.441c-0.269,0.08-0.257,0.34,0.022,0.587c0.282,0.245,0.724,0.388,0.993,0.312c0.27-0.075,0.263-0.341-0.017-0.593
			c-0.226-0.2-0.561-0.327-0.824-0.327C43.069,51.42,43.01,51.427,42.957,51.441 M13.312,51.304c0.215,0.157,0.718,0.42,1.118,0.597
			c0.401,0.175,0.552,0.19,0.339,0.027c-0.215-0.163-0.711-0.438-1.114-0.61c-0.207-0.087-0.348-0.13-0.408-0.13
			C13.191,51.188,13.208,51.226,13.312,51.304 M11.254,50.962c0.151,0.083,0.502,0.241,0.778,0.354
			c0.277,0.117,0.378,0.143,0.227,0.058c-0.153-0.084-0.498-0.25-0.776-0.362c-0.164-0.065-0.268-0.102-0.292-0.102
			C11.174,50.91,11.193,50.927,11.254,50.962 M15.073,50.976c0.245,0.238,0.833,0.599,1.309,0.812
			c0.477,0.216,0.657,0.199,0.416-0.047c-0.246-0.244-0.826-0.622-1.303-0.829c-0.213-0.093-0.369-0.137-0.454-0.137
			C14.934,50.774,14.937,50.844,15.073,50.976 M59.718,50.662c-0.598,0.213-0.664,0.844-0.16,1.425
			c0.504,0.578,1.387,0.893,1.979,0.693c0.597-0.204,0.681-0.854,0.181-1.443c-0.391-0.462-1.023-0.744-1.568-0.744
			C59.996,50.593,59.85,50.615,59.718,50.662 M132.9,50.66c-1.209,0.377-1.803,1.723-1.345,3.01c0.46,1.286,1.79,2.037,2.985,1.677
			c1.202-0.366,1.825-1.714,1.378-3.015c-0.368-1.072-1.356-1.77-2.373-1.77C133.33,50.562,133.113,50.594,132.9,50.66
			 M47.084,50.182c-0.27,0.091-0.271,0.359-0.01,0.608c0.266,0.246,0.694,0.38,0.963,0.295c0.27-0.087,0.276-0.362,0.015-0.612
			c-0.207-0.198-0.52-0.317-0.775-0.317C47.208,50.155,47.143,50.164,47.084,50.182 M113.54,50.201
			c-0.973,0.338-1.385,1.438-0.932,2.467s1.592,1.602,2.556,1.279c0.968-0.326,1.4-1.436,0.958-2.479
			c-0.357-0.836-1.178-1.365-1.993-1.365C113.93,50.104,113.732,50.135,113.54,50.201 M77.158,50.069
			c-0.783,0.295-0.969,1.164-0.428,1.955c0.545,0.79,1.602,1.216,2.378,0.938c0.781-0.281,0.987-1.168,0.454-1.977
			c-0.417-0.627-1.164-1.013-1.847-1.013C77.521,49.973,77.333,50.004,77.158,50.069 M301.467,50.732
			c0.159,0.864,1.002,1.946,1.868,2.431c0.87,0.478,1.445,0.188,1.269-0.665c-0.161-0.859-0.994-1.967-1.862-2.455
			c-0.278-0.157-0.526-0.232-0.729-0.232C301.583,49.811,301.355,50.145,301.467,50.732 M324.7,50.802
			c0.291,1.434,1.624,3.552,2.98,4.757c1.361,1.206,2.209,1.074,1.92-0.339c-0.289-1.421-1.605-3.596-2.957-4.832
			c-0.6-0.544-1.104-0.808-1.455-0.808C324.747,49.58,324.545,49.997,324.7,50.802 M8.85,49.479c0.139,0.097,0.466,0.25,0.73,0.351
			c0.266,0.098,0.364,0.104,0.229,0.007c-0.14-0.097-0.464-0.258-0.729-0.354c-0.133-0.05-0.226-0.073-0.267-0.073
			S8.782,49.433,8.85,49.479 M10.873,49.376c0.239,0.207,0.812,0.52,1.276,0.706c0.465,0.185,0.645,0.17,0.409-0.046
			c-0.238-0.215-0.805-0.544-1.271-0.724c-0.204-0.079-0.354-0.116-0.438-0.116C10.74,49.196,10.739,49.258,10.873,49.376
			 M64.465,49.088c-0.551,0.207-0.638,0.801-0.2,1.335c0.437,0.533,1.229,0.812,1.775,0.615c0.55-0.199,0.647-0.806,0.214-1.35
			c-0.334-0.418-0.888-0.671-1.377-0.671C64.732,49.018,64.592,49.04,64.465,49.088 M139.174,48.829
			c-1.197,0.358-1.81,1.674-1.383,2.938c0.431,1.267,1.726,2.011,2.912,1.667c1.189-0.348,1.826-1.663,1.409-2.941
			c-0.346-1.061-1.315-1.754-2.322-1.754C139.584,48.739,139.377,48.768,139.174,48.829 M51.403,48.72
			c-0.269,0.096-0.284,0.373-0.038,0.621c0.248,0.247,0.664,0.374,0.933,0.281c0.269-0.095,0.286-0.376,0.04-0.627
			c-0.188-0.192-0.479-0.31-0.727-0.31C51.536,48.686,51.465,48.697,51.403,48.72 M12.79,48.632
			c0.253,0.284,0.879,0.676,1.392,0.888c0.51,0.212,0.716,0.156,0.464-0.137c-0.253-0.294-0.871-0.704-1.384-0.908
			c-0.197-0.078-0.35-0.115-0.448-0.115C12.654,48.359,12.634,48.455,12.79,48.632 M82.283,48.12
			c-0.812,0.312-1.032,1.221-0.505,2.04c0.53,0.818,1.602,1.248,2.408,0.95c0.81-0.3,1.051-1.224,0.531-2.059
			c-0.404-0.644-1.149-1.037-1.845-1.037C82.668,48.015,82.469,48.049,82.283,48.12 M119.299,47.782
			c-1.201,0.41-1.733,1.76-1.209,3.02c0.53,1.26,1.906,1.966,3.096,1.575c1.193-0.396,1.757-1.753,1.244-3.032
			c-0.415-1.028-1.409-1.681-2.411-1.681C119.777,47.664,119.534,47.702,119.299,47.782 M6.492,47.715
			c0.14,0.117,0.482,0.283,0.76,0.378c0.28,0.095,0.391,0.08,0.251-0.038c-0.14-0.119-0.479-0.293-0.758-0.385
			c-0.118-0.039-0.206-0.057-0.259-0.057C6.415,47.613,6.411,47.647,6.492,47.715 M69.258,47.178
			c-0.604,0.236-0.722,0.896-0.271,1.48c0.451,0.585,1.295,0.88,1.894,0.654c0.602-0.229,0.733-0.9,0.287-1.495
			c-0.34-0.451-0.917-0.724-1.44-0.724C69.563,47.094,69.403,47.121,69.258,47.178 M8.667,47.247
			c0.219,0.225,0.762,0.533,1.207,0.693c0.446,0.164,0.627,0.113,0.409-0.118c-0.22-0.233-0.757-0.554-1.203-0.711
			c-0.167-0.057-0.297-0.084-0.384-0.084C8.55,47.027,8.528,47.105,8.667,47.247 M145.574,47.041
			c-1.18,0.338-1.806,1.618-1.408,2.859c0.4,1.242,1.661,1.981,2.831,1.657c1.174-0.328,1.82-1.604,1.435-2.857
			c-0.326-1.049-1.279-1.739-2.276-1.739C145.961,46.961,145.766,46.986,145.574,47.041 M55.85,46.995
			c-0.31,0.12-0.341,0.445-0.074,0.73c0.268,0.286,0.733,0.425,1.04,0.311c0.309-0.116,0.344-0.447,0.078-0.735
			c-0.202-0.217-0.518-0.349-0.793-0.349C56.011,46.952,55.926,46.966,55.85,46.995 M313.733,47.364
			c0.236,1.237,1.409,2.932,2.6,3.815c1.197,0.881,1.965,0.627,1.723-0.595c-0.238-1.228-1.393-2.97-2.585-3.869
			c-0.467-0.349-0.868-0.517-1.173-0.517C313.824,46.199,313.59,46.605,313.733,47.364 M294.737,47.232
			c0.191,1.048,1.202,2.307,2.248,2.833c1.049,0.528,1.734,0.128,1.543-0.908c-0.2-1.038-1.195-2.333-2.242-2.869
			c-0.307-0.156-0.583-0.23-0.815-0.23C294.908,46.058,294.6,46.49,294.737,47.232 M87.56,45.999
			c-0.875,0.343-1.142,1.323-0.605,2.201c0.535,0.878,1.663,1.332,2.53,1.008c0.871-0.329,1.16-1.325,0.632-2.22
			c-0.405-0.688-1.18-1.105-1.916-1.105C87.98,45.883,87.763,45.92,87.56,45.999 M125.401,45.784c-1.203,0.4-1.763,1.74-1.267,2.994
			c0.497,1.257,1.854,1.965,3.045,1.58c1.195-0.386,1.784-1.73,1.301-3.003c-0.394-1.027-1.375-1.685-2.376-1.685
			C125.868,45.671,125.631,45.707,125.401,45.784 M4.217,45.687c0.144,0.139,0.496,0.32,0.791,0.409
			c0.293,0.091,0.414,0.052,0.273-0.089c-0.142-0.142-0.495-0.328-0.789-0.416c-0.103-0.029-0.185-0.043-0.242-0.043
			C4.145,45.548,4.125,45.597,4.217,45.687 M102.099,45.59c-1.253,0.471-1.915,1.631-1.826,2.904
			c-1.071-0.96-2.587-1.342-3.857-0.865c-1.259,0.474-1.896,1.647-1.753,2.934c-1.045-0.893-2.48-1.251-3.668-0.81
			c-1.284,0.48-1.84,1.736-1.52,3.066c-1.019-0.988-2.5-1.426-3.689-0.992c-1.245,0.457-1.723,1.705-1.288,3.005
			c-1.022-1.087-2.592-1.598-3.806-1.166c-1.235,0.439-1.658,1.689-1.128,2.983c-1.007-1.088-2.568-1.614-3.741-1.217
			c-1.339,0.457-1.621,1.936-0.665,3.342c0.96,1.407,2.775,2.248,4.093,1.843c1.148-0.358,1.562-1.555,1.058-2.812
			c1.021,1.131,2.59,1.727,3.8,1.333c1.189-0.39,1.666-1.617,1.237-2.911c1.014,1.1,2.548,1.657,3.769,1.243
			c1.165-0.396,1.696-1.553,1.418-2.806c1.051,1.068,2.581,1.584,3.839,1.148c1.161-0.404,1.771-1.504,1.656-2.731
			c1.058,0.952,2.519,1.369,3.752,0.937c1.242-0.437,1.92-1.618,1.82-2.929c1.026,0.928,2.454,1.327,3.681,0.895
			c1.688-0.598,2.388-2.544,1.524-4.335c-0.677-1.4-2.125-2.264-3.548-2.265C102.863,45.385,102.472,45.451,102.099,45.59
			 M152.069,45.244c-1.202,0.323-1.855,1.606-1.475,2.863c0.383,1.257,1.649,2.02,2.843,1.705c1.194-0.314,1.868-1.592,1.499-2.857
			c-0.316-1.07-1.286-1.784-2.308-1.784C152.442,45.171,152.254,45.193,152.069,45.244 M60.539,45.14
			c-0.32,0.131-0.368,0.478-0.105,0.775c0.262,0.299,0.733,0.438,1.055,0.312c0.322-0.129,0.374-0.479,0.111-0.78
			c-0.193-0.225-0.506-0.357-0.786-0.357C60.715,45.09,60.622,45.105,60.539,45.14 M74.167,45.01
			c-0.721,0.292-0.887,1.086-0.38,1.783c0.507,0.698,1.49,1.044,2.205,0.766c0.719-0.281,0.904-1.09,0.401-1.8
			c-0.377-0.535-1.039-0.856-1.652-0.856C74.542,44.902,74.346,44.938,74.167,45.01 M6.531,44.858
			c0.202,0.24,0.715,0.542,1.144,0.681c0.426,0.139,0.604,0.06,0.402-0.187c-0.199-0.248-0.712-0.557-1.138-0.692
			c-0.135-0.042-0.245-0.062-0.327-0.062C6.435,44.598,6.393,44.691,6.531,44.858 M318.683,45.746
			c0.295,1.5,1.683,3.633,3.096,4.803c1.42,1.168,2.312,0.955,2.027-0.524c-0.292-1.484-1.655-3.691-3.073-4.882
			c-0.589-0.499-1.094-0.737-1.461-0.737C318.761,44.403,318.517,44.869,318.683,45.746 M275.037,45.394
			c0.185,1.007,1.149,2.084,2.166,2.416c1.019,0.334,1.702-0.199,1.516-1.199c-0.178-1.003-1.146-2.103-2.161-2.444
			c-0.203-0.068-0.393-0.101-0.564-0.101C275.304,44.065,274.899,44.584,275.037,45.394 M108.21,44.04
			c-1.419,0.524-1.982,2.116-1.284,3.564c0.699,1.451,2.38,2.235,3.781,1.743c1.408-0.498,2.02-2.107,1.343-3.589
			c-0.535-1.163-1.719-1.885-2.895-1.885C108.835,43.874,108.517,43.927,108.21,44.04 M131.681,43.891
			c-1.154,0.372-1.716,1.644-1.268,2.842c0.45,1.198,1.729,1.879,2.874,1.522c1.146-0.36,1.731-1.631,1.294-2.843
			c-0.356-0.988-1.29-1.622-2.249-1.622C132.115,43.79,131.896,43.823,131.681,43.891 M92.997,43.736
			c-0.966,0.379-1.287,1.461-0.73,2.425c0.556,0.965,1.77,1.46,2.725,1.099c0.96-0.364,1.307-1.46,0.761-2.443
			c-0.418-0.753-1.245-1.211-2.048-1.211C93.461,43.605,93.222,43.647,92.997,43.736 M158.672,43.531
			c-1.221,0.307-1.903,1.588-1.537,2.858c0.367,1.271,1.639,2.054,2.85,1.758c1.215-0.299,1.915-1.57,1.56-2.85
			c-0.306-1.093-1.294-1.832-2.341-1.832C159.028,43.466,158.849,43.486,158.672,43.531 M2.093,43.421
			c0.122,0.14,0.441,0.309,0.708,0.381c0.267,0.071,0.382,0.016,0.256-0.124c-0.124-0.143-0.441-0.314-0.707-0.387
			c-0.076-0.021-0.141-0.029-0.19-0.029C2.037,43.262,2.003,43.319,2.093,43.421 M65.395,43.085
			c-0.358,0.151-0.423,0.539-0.149,0.873c0.274,0.333,0.786,0.486,1.143,0.339c0.357-0.147,0.43-0.543,0.155-0.877
			c-0.198-0.249-0.53-0.395-0.835-0.395C65.598,43.025,65.491,43.045,65.395,43.085 M288.166,44.178
			c0.202,1.092,1.245,2.364,2.337,2.853s1.815,0.024,1.612-1.058c-0.189-1.088-1.236-2.393-2.329-2.891
			c-0.288-0.132-0.551-0.195-0.777-0.195C288.376,42.887,288.022,43.371,288.166,44.178 M79.353,42.818
			c-0.779,0.323-0.984,1.188-0.468,1.941c0.519,0.752,1.555,1.121,2.328,0.814c0.777-0.31,1.002-1.188,0.492-1.955
			c-0.384-0.576-1.072-0.918-1.725-0.918C79.764,42.701,79.55,42.739,79.353,42.818 M165.449,42.197
			c-1.093,0.251-1.721,1.376-1.411,2.51c0.312,1.133,1.438,1.847,2.524,1.602c1.087-0.247,1.729-1.362,1.427-2.501
			c-0.262-0.986-1.153-1.661-2.1-1.661C165.743,42.146,165.596,42.163,165.449,42.197 M114.359,42.251
			c-1.246,0.451-1.773,1.839-1.198,3.109c0.579,1.271,2.029,1.957,3.262,1.529c1.236-0.433,1.799-1.831,1.236-3.124
			c-0.445-1.019-1.464-1.655-2.49-1.655C114.896,42.11,114.622,42.156,114.359,42.251 M4.519,42.23
			c0.169,0.232,0.616,0.501,0.989,0.608c0.371,0.11,0.53,0.012,0.36-0.222c-0.172-0.235-0.612-0.514-0.984-0.618
			c-0.099-0.028-0.182-0.041-0.248-0.041C4.448,41.958,4.39,42.061,4.519,42.23 M138.086,42.02
			c-1.108,0.342-1.671,1.548-1.264,2.696c0.408,1.147,1.619,1.808,2.72,1.478c1.104-0.332,1.686-1.536,1.288-2.694
			c-0.326-0.952-1.217-1.569-2.142-1.569C138.488,41.93,138.285,41.959,138.086,42.02 M268.147,43.369
			c0.203,1.093,1.242,2.217,2.34,2.525c1.1,0.309,1.833-0.309,1.642-1.395c-0.194-1.089-1.236-2.245-2.337-2.56
			c-0.189-0.054-0.367-0.08-0.532-0.08C268.465,41.86,267.988,42.462,268.147,43.369 M307.364,42.961
			c0.26,1.367,1.545,3.17,2.859,4.064c1.321,0.894,2.163,0.551,1.916-0.802c-0.263-1.354-1.524-3.216-2.842-4.128
			c-0.479-0.331-0.899-0.488-1.228-0.488C307.497,41.607,307.203,42.088,307.364,42.961 M98.641,41.443
			c-1.03,0.405-1.4,1.558-0.842,2.584c0.561,1.027,1.827,1.554,2.848,1.169c1.025-0.389,1.423-1.555,0.875-2.601
			c-0.421-0.802-1.284-1.29-2.13-1.29C99.136,41.306,98.881,41.351,98.641,41.443 M172.306,40.99
			c-0.961,0.198-1.525,1.166-1.269,2.157c0.26,0.991,1.24,1.631,2.195,1.437c0.955-0.195,1.531-1.156,1.277-2.15
			c-0.223-0.874-1.014-1.479-1.854-1.479C172.539,40.954,172.422,40.966,172.306,40.99 M70.441,40.871
			c-0.404,0.174-0.494,0.617-0.202,0.993c0.293,0.375,0.852,0.546,1.256,0.375c0.404-0.17,0.498-0.618,0.208-0.998
			c-0.212-0.277-0.571-0.44-0.905-0.44C70.672,40.801,70.55,40.824,70.441,40.871 M0.042,40.896c0.103,0.138,0.38,0.284,0.61,0.342
			c0.231,0.057,0.333-0.01,0.229-0.146c-0.104-0.138-0.379-0.293-0.61-0.345c-0.053-0.014-0.101-0.02-0.14-0.02
			C0.002,40.729-0.041,40.795,0.042,40.896 M84.743,40.533c-0.835,0.348-1.079,1.272-0.56,2.077
			c0.521,0.803,1.602,1.192,2.428,0.861c0.83-0.334,1.095-1.271,0.584-2.092c-0.383-0.611-1.096-0.975-1.781-0.977
			C85.182,40.403,84.954,40.446,84.743,40.533 M261.325,41.681c0.195,1.107,1.253,2.201,2.364,2.462
			c1.108,0.26,1.846-0.404,1.655-1.504c-0.193-1.103-1.249-2.227-2.36-2.496c-0.161-0.039-0.314-0.057-0.457-0.057
			C261.678,40.085,261.158,40.73,261.325,41.681 M281.416,41.396c0.213,1.189,1.353,2.521,2.537,2.992
			c1.187,0.471,1.967-0.084,1.757-1.263c-0.22-1.184-1.34-2.553-2.526-3.036c-0.28-0.113-0.538-0.167-0.767-0.167
			C281.678,39.922,281.251,40.482,281.416,41.396 M120.389,39.858c-1.393,0.492-2.011,2.03-1.404,3.442
			c0.609,1.413,2.198,2.182,3.574,1.716c1.38-0.47,2.038-2.016,1.449-3.453c-0.471-1.139-1.594-1.854-2.736-1.854
			C120.975,39.71,120.677,39.758,120.389,39.858 M179.177,39.713c-0.939,0.172-1.503,1.098-1.263,2.062
			c0.238,0.966,1.188,1.604,2.121,1.437c0.935-0.169,1.509-1.085,1.271-2.052c-0.21-0.863-0.993-1.474-1.827-1.474
			C179.378,39.686,179.278,39.694,179.177,39.713 M312.624,41.051c0.275,1.528,1.694,3.626,3.138,4.72
			c1.443,1.098,2.366,0.802,2.076-0.702c-0.29-1.511-1.669-3.678-3.111-4.798c-0.562-0.441-1.052-0.651-1.422-0.651
			C312.732,39.619,312.446,40.121,312.624,41.051 M144.434,39.666c-1.353,0.396-2.057,1.845-1.587,3.233
			c0.469,1.391,1.92,2.205,3.259,1.824c1.342-0.384,2.073-1.825,1.62-3.229c-0.379-1.165-1.462-1.928-2.595-1.928
			C144.899,39.566,144.665,39.599,144.434,39.666 M104.531,39.229c-1.024,0.398-1.42,1.539-0.897,2.559
			c0.524,1.019,1.761,1.541,2.775,1.162c1.021-0.384,1.44-1.535,0.927-2.571c-0.395-0.797-1.233-1.284-2.069-1.284
			C105.017,39.095,104.768,39.139,104.531,39.229 M2.52,39.338c0.152,0.227,0.553,0.478,0.891,0.565
			c0.34,0.089,0.487-0.023,0.336-0.255c-0.153-0.23-0.552-0.488-0.89-0.573c-0.074-0.02-0.139-0.028-0.194-0.028
			C2.465,39.047,2.401,39.159,2.52,39.338 M254.637,40.316c0.173,1.016,1.146,1.979,2.158,2.176c1.014,0.19,1.688-0.455,1.511-1.464
			c-0.179-1.008-1.143-2.001-2.157-2.198c-0.121-0.024-0.237-0.036-0.347-0.036C254.987,38.794,254.48,39.423,254.637,40.316
			 M75.724,38.583c-0.42,0.184-0.529,0.647-0.241,1.037c0.285,0.391,0.854,0.563,1.271,0.385c0.421-0.179,0.531-0.646,0.248-1.04
			c-0.206-0.288-0.565-0.455-0.907-0.455C75.965,38.51,75.838,38.533,75.724,38.583 M186.062,38.401
			c-1.021,0.16-1.64,1.143-1.396,2.188c0.249,1.045,1.27,1.758,2.285,1.601c1.017-0.158,1.645-1.128,1.405-2.176
			c-0.221-0.949-1.089-1.635-2.01-1.635C186.251,38.38,186.157,38.387,186.062,38.401 M90.375,38.252
			c-0.836,0.346-1.105,1.273-0.616,2.08c0.491,0.805,1.552,1.191,2.38,0.859c0.832-0.335,1.121-1.273,0.64-2.093
			c-0.363-0.612-1.057-0.977-1.735-0.977C90.814,38.122,90.586,38.164,90.375,38.252 M247.846,39.215
			c0.173,0.948,1.072,1.821,2.016,1.963c0.945,0.139,1.575-0.498,1.409-1.442c-0.172-0.944-1.071-1.837-2.02-1.983
			c-0.089-0.014-0.175-0.021-0.258-0.021C248.195,37.73,247.691,38.354,247.846,39.215 M151.017,37.719
			c-1.417,0.39-2.175,1.883-1.713,3.333c0.466,1.449,1.964,2.315,3.365,1.941c1.404-0.377,2.193-1.861,1.743-3.324
			c-0.378-1.229-1.515-2.042-2.709-2.042C151.475,37.627,151.245,37.657,151.017,37.719 M126.691,37.757
			c-1.387,0.472-2.031,1.989-1.463,3.391c0.572,1.402,2.128,2.175,3.499,1.725c1.375-0.454,2.055-1.974,1.503-3.397
			c-0.445-1.138-1.552-1.856-2.691-1.856C127.254,37.618,126.969,37.662,126.691,37.757 M274.883,39.031
			c0.201,1.124,1.27,2.333,2.387,2.725c1.117,0.391,1.869-0.185,1.66-1.297c-0.196-1.119-1.263-2.363-2.38-2.762
			c-0.234-0.083-0.451-0.122-0.646-0.122C275.163,37.575,274.732,38.138,274.883,39.031 M301.082,39.001
			c0.251,1.389,1.557,3.16,2.895,3.985c1.343,0.827,2.21,0.412,1.959-0.96c-0.261-1.377-1.539-3.201-2.878-4.05
			c-0.452-0.285-0.853-0.42-1.176-0.42C301.249,37.557,300.915,38.077,301.082,39.001 M192.973,37.148
			c-1.165,0.151-1.888,1.246-1.616,2.438c0.271,1.188,1.425,2.023,2.587,1.877c1.162-0.152,1.895-1.229,1.629-2.419
			c-0.245-1.102-1.256-1.913-2.33-1.913C193.153,37.132,193.063,37.138,192.973,37.148 M240.937,38.375
			c0.164,0.924,1.047,1.743,1.965,1.844c0.917,0.104,1.531-0.555,1.362-1.474c-0.168-0.921-1.046-1.759-1.965-1.864
			c-0.062-0.007-0.121-0.01-0.181-0.01C241.301,36.871,240.776,37.513,240.937,38.375 M110.554,36.924
			c-1.055,0.4-1.486,1.566-0.98,2.611c0.508,1.045,1.754,1.583,2.798,1.2c1.047-0.387,1.505-1.561,1.008-2.621
			c-0.385-0.82-1.232-1.324-2.087-1.324C111.042,36.79,110.792,36.833,110.554,36.924 M81.17,36.148
			c-0.459,0.201-0.59,0.709-0.296,1.139c0.295,0.429,0.902,0.618,1.361,0.421c0.459-0.198,0.596-0.709,0.304-1.144
			c-0.213-0.312-0.594-0.498-0.965-0.498C81.436,36.066,81.297,36.093,81.17,36.148 M199.92,36.052
			c-1.335,0.135-2.167,1.351-1.875,2.709c0.302,1.356,1.608,2.336,2.936,2.206c1.326-0.134,2.172-1.326,1.885-2.684
			c-0.272-1.277-1.459-2.242-2.71-2.242C200.078,36.041,199.999,36.045,199.92,36.052 M0.583,36.203
			c0.129,0.21,0.471,0.431,0.762,0.496c0.293,0.062,0.424-0.054,0.293-0.265c-0.131-0.213-0.47-0.438-0.761-0.503
			c-0.052-0.012-0.099-0.017-0.14-0.017C0.547,35.915,0.477,36.028,0.583,36.203 M207.054,35.898
			c-1.104,0.075-1.803,1.052-1.566,2.167c0.235,1.116,1.307,1.952,2.404,1.875c1.096-0.074,1.805-1.03,1.571-2.146
			c-0.22-1.072-1.225-1.9-2.276-1.9C207.142,35.895,207.098,35.896,207.054,35.898 M285.192,36.771
			c0.138,0.777,0.873,1.677,1.636,2.019c0.765,0.342,1.279-0.002,1.131-0.773c-0.134-0.774-0.865-1.694-1.633-2.036
			c-0.198-0.09-0.379-0.132-0.535-0.132C285.344,35.848,285.092,36.193,285.192,36.771 M157.705,35.869
			c-1.479,0.377-2.293,1.909-1.835,3.42c0.458,1.508,2.004,2.429,3.468,2.065c1.469-0.364,2.312-1.885,1.868-3.405
			c-0.379-1.294-1.572-2.163-2.834-2.163C158.15,35.786,157.926,35.812,157.705,35.869 M96.106,35.766
			c-0.916,0.378-1.238,1.393-0.732,2.274c0.51,0.882,1.646,1.306,2.554,0.944c0.91-0.364,1.254-1.389,0.756-2.286
			c-0.374-0.671-1.118-1.072-1.854-1.072C96.582,35.626,96.336,35.671,96.106,35.766 M214.117,35.594
			c-1.069,0.042-1.761,0.956-1.537,2.039c0.218,1.082,1.257,1.919,2.322,1.88c1.066-0.038,1.753-0.937,1.542-2.018
			c-0.208-1.062-1.217-1.902-2.265-1.902C214.158,35.593,214.138,35.594,214.117,35.594 M233.198,37.754
			c0.256,1.338,1.525,2.482,2.854,2.579c1.326,0.091,2.206-0.897,1.963-2.23c-0.245-1.337-1.523-2.515-2.856-2.617
			c-0.058-0.004-0.114-0.006-0.17-0.006C233.75,35.479,232.957,36.47,233.198,37.754 M306.665,36.805
			c0.264,1.429,1.583,3.325,2.932,4.276c1.356,0.943,2.235,0.596,1.966-0.814c-0.258-1.418-1.558-3.379-2.914-4.343
			c-0.498-0.353-0.933-0.521-1.271-0.521C306.797,35.402,306.502,35.897,306.665,36.805 M267.975,36.87
			c0.219,1.22,1.378,2.487,2.59,2.853c1.212,0.362,2.019-0.306,1.803-1.518c-0.215-1.215-1.369-2.521-2.583-2.894
			c-0.221-0.067-0.429-0.1-0.619-0.1C268.31,35.212,267.799,35.869,267.975,36.87 M132.968,35.275
			c-1.604,0.525-2.38,2.261-1.757,3.876c0.625,1.616,2.394,2.521,3.979,2.022c1.591-0.503,2.411-2.237,1.808-3.878
			c-0.487-1.325-1.764-2.169-3.086-2.169C133.597,35.127,133.279,35.175,132.968,35.275 M219.131,37.44
			c0.267,1.354,1.559,2.43,2.892,2.428c1.335-0.007,2.209-1.085,1.95-2.434c-0.255-1.351-1.56-2.459-2.899-2.461
			C219.735,34.974,218.867,36.087,219.131,37.44 M225.956,37.466c0.278,1.466,1.68,2.673,3.129,2.722
			c1.451,0.046,2.41-1.079,2.135-2.54c-0.276-1.463-1.679-2.708-3.136-2.765c-0.03-0.001-0.062-0.001-0.094-0.001
			C226.585,34.881,225.68,36.028,225.956,37.466 M116.736,34.61c-1.081,0.399-1.549,1.587-1.059,2.656s1.745,1.627,2.816,1.243
			c1.074-0.386,1.566-1.577,1.086-2.663c-0.375-0.845-1.233-1.366-2.108-1.366C117.224,34.48,116.975,34.522,116.736,34.61
			 M139.89,34.224c-1.068,0.33-1.61,1.473-1.221,2.549c0.392,1.079,1.56,1.691,2.62,1.372c1.062-0.321,1.621-1.46,1.24-2.548
			c-0.312-0.889-1.162-1.462-2.047-1.462C140.285,34.135,140.085,34.163,139.89,34.224 M164.49,34.136
			c-1.541,0.357-2.41,1.927-1.959,3.494c0.454,1.566,2.043,2.545,3.569,2.2c1.527-0.35,2.423-1.897,1.988-3.476
			c-0.38-1.359-1.635-2.291-2.963-2.292C164.915,34.062,164.702,34.087,164.49,34.136 M86.937,33.819
			c-0.388,0.171-0.51,0.6-0.276,0.961s0.734,0.521,1.12,0.355c0.387-0.166,0.514-0.597,0.282-0.963
			c-0.17-0.265-0.484-0.42-0.791-0.42C87.157,33.753,87.042,33.774,86.937,33.819 M294.625,35.312
			c0.261,1.452,1.618,3.235,3.018,4.017c1.399,0.79,2.31,0.286,2.056-1.15c-0.263-1.438-1.6-3.276-3.001-4.082
			c-0.433-0.249-0.822-0.366-1.145-0.366C294.834,33.729,294.445,34.309,294.625,35.312 M3.231,33.485
			c0.052,0.09,0.177,0.187,0.287,0.211c0.108,0.026,0.16-0.027,0.109-0.117c-0.049-0.09-0.177-0.184-0.285-0.211
			c-0.019-0.004-0.035-0.005-0.05-0.005C3.219,33.363,3.191,33.411,3.231,33.485 M278.82,34.14c0.118,0.643,0.72,1.358,1.351,1.609
			c0.635,0.248,1.052-0.061,0.939-0.7c-0.111-0.641-0.718-1.368-1.35-1.622c-0.146-0.059-0.281-0.086-0.4-0.086
			C278.962,33.341,278.735,33.646,278.82,34.14 M102.006,33.216c-1.008,0.41-1.387,1.521-0.861,2.491
			c0.527,0.968,1.752,1.438,2.751,1.047c1.001-0.396,1.405-1.516,0.889-2.501c-0.389-0.741-1.192-1.187-1.998-1.187
			C102.522,33.066,102.258,33.115,102.006,33.216 M260.881,34.997c0.247,1.381,1.559,2.758,2.928,3.108
			c1.373,0.345,2.285-0.462,2.042-1.833c-0.247-1.375-1.554-2.8-2.925-3.158c-0.213-0.056-0.413-0.082-0.602-0.082
			C261.297,33.032,260.677,33.824,260.881,34.997 M171.32,32.405c-1.677,0.349-2.641,2.021-2.174,3.719
			c0.468,1.698,2.176,2.787,3.833,2.449c1.661-0.341,2.656-1.983,2.206-3.692c-0.398-1.498-1.779-2.54-3.244-2.54
			C171.735,32.341,171.527,32.361,171.32,32.405 M123.122,32.437c-1.037,0.37-1.509,1.499-1.065,2.524
			c0.444,1.027,1.63,1.567,2.657,1.213c1.032-0.36,1.525-1.491,1.091-2.53c-0.344-0.814-1.161-1.322-2.001-1.324
			C123.575,32.319,123.345,32.357,123.122,32.437 M146.54,32.233c-1.087,0.315-1.658,1.46-1.279,2.555
			c0.374,1.095,1.546,1.73,2.625,1.425c1.082-0.308,1.665-1.447,1.3-2.551c-0.306-0.912-1.17-1.51-2.077-1.51
			C146.918,32.152,146.728,32.179,146.54,32.233 M92.806,31.316c-0.384,0.165-0.516,0.586-0.297,0.943
			c0.217,0.357,0.699,0.515,1.081,0.354c0.38-0.162,0.515-0.586,0.299-0.944c-0.158-0.262-0.459-0.417-0.761-0.417
			C93.019,31.252,92.909,31.272,92.806,31.316 M253.679,33.438c0.278,1.566,1.77,3.067,3.32,3.393
			c1.554,0.318,2.582-0.649,2.306-2.203c-0.271-1.56-1.76-3.118-3.315-3.455c-0.198-0.042-0.388-0.062-0.567-0.062
			C254.189,31.11,253.428,32.069,253.679,33.438 M300.254,32.634c0.28,1.531,1.687,3.497,3.137,4.423
			c1.457,0.929,2.4,0.484,2.124-1.03c-0.282-1.519-1.664-3.55-3.12-4.496c-0.496-0.323-0.936-0.477-1.287-0.477
			C300.43,31.054,300.074,31.621,300.254,32.634 M178.258,30.965c-1.733,0.318-2.752,2.011-2.293,3.765
			c0.46,1.753,2.21,2.908,3.927,2.603c1.718-0.309,2.764-1.968,2.321-3.73c-0.395-1.571-1.849-2.688-3.39-2.688
			C178.636,30.914,178.447,30.931,178.258,30.965 M272.111,31.708c0.112,0.649,0.726,1.353,1.367,1.568
			c0.639,0.223,1.059-0.119,0.95-0.768c-0.117-0.647-0.728-1.361-1.367-1.581c-0.13-0.046-0.251-0.068-0.362-0.068
			C272.27,30.859,272.015,31.189,272.111,31.708 M108.14,30.757c-1.035,0.41-1.45,1.546-0.941,2.541
			c0.511,0.995,1.745,1.484,2.771,1.089c1.027-0.396,1.467-1.539,0.968-2.549c-0.38-0.766-1.194-1.229-2.019-1.229
			C108.656,30.609,108.392,30.657,108.14,30.757 M288.141,31.981c0.265,1.47,1.634,3.216,3.056,3.928
			c1.422,0.717,2.355,0.143,2.096-1.312c-0.261-1.461-1.618-3.262-3.042-3.994c-0.403-0.206-0.768-0.303-1.078-0.303
			C288.388,30.301,287.955,30.923,288.141,31.981 M129.596,30.181c-1.062,0.362-1.564,1.503-1.138,2.549
			c0.431,1.047,1.619,1.61,2.671,1.262c1.055-0.353,1.576-1.492,1.158-2.551c-0.333-0.841-1.166-1.369-2.026-1.369
			C130.038,30.071,129.814,30.105,129.596,30.181 M185.311,29.92c-1.67,0.261-2.671,1.852-2.251,3.541
			c0.421,1.686,2.092,2.833,3.749,2.582c1.656-0.254,2.677-1.812,2.274-3.506c-0.371-1.538-1.8-2.652-3.312-2.652
			C185.618,29.885,185.465,29.896,185.311,29.92 M246.65,32.234c0.293,1.622,1.839,3.122,3.444,3.388
			c1.607,0.262,2.676-0.803,2.383-2.411c-0.29-1.616-1.832-3.175-3.443-3.45c-0.164-0.028-0.322-0.041-0.473-0.041
			C247.219,29.72,246.381,30.773,246.65,32.234 M192.447,29.247c-1.507,0.19-2.426,1.589-2.065,3.109
			c0.361,1.52,1.857,2.585,3.354,2.401c1.495-0.184,2.43-1.554,2.08-3.077c-0.322-1.411-1.643-2.454-3.031-2.454
			C192.672,29.227,192.559,29.232,192.447,29.247 M152.951,29.28c-1.69,0.46-2.593,2.209-2.038,3.899
			c0.558,1.692,2.34,2.698,4.013,2.26c1.673-0.441,2.611-2.174,2.078-3.884c-0.449-1.433-1.805-2.385-3.229-2.385
			C153.5,29.171,153.224,29.206,152.951,29.28 M240.04,31.378c0.261,1.417,1.614,2.682,3.018,2.855
			c1.401,0.174,2.327-0.81,2.07-2.219c-0.258-1.412-1.608-2.725-3.018-2.903c-0.107-0.013-0.211-0.02-0.312-0.02
			C240.57,29.092,239.795,30.066,240.04,31.378 M199.603,28.768c-1.349,0.127-2.179,1.343-1.875,2.705
			c0.311,1.358,1.64,2.345,2.977,2.22c1.339-0.126,2.19-1.315,1.889-2.676c-0.286-1.286-1.495-2.26-2.765-2.26
			C199.753,28.757,199.678,28.761,199.603,28.768 M265.32,29.585c0.113,0.658,0.739,1.336,1.384,1.529
			c0.648,0.187,1.076-0.181,0.959-0.834c-0.119-0.655-0.731-1.352-1.382-1.54c-0.114-0.034-0.222-0.052-0.321-0.052
			C265.498,28.688,265.219,29.045,265.32,29.585 M98.815,28.713c-0.411,0.174-0.564,0.626-0.344,1.011
			c0.223,0.385,0.73,0.559,1.142,0.388c0.411-0.172,0.566-0.625,0.348-1.014c-0.161-0.285-0.482-0.453-0.805-0.453
			C99.04,28.645,98.924,28.667,98.815,28.713 M233.001,30.744c0.271,1.425,1.636,2.651,3.043,2.771
			c1.41,0.116,2.341-0.92,2.073-2.338c-0.26-1.422-1.627-2.692-3.044-2.815c-0.072-0.006-0.142-0.009-0.211-0.009
			C233.568,28.353,232.747,29.39,233.001,30.744 M206.726,28.293c-1.308,0.081-2.136,1.229-1.841,2.546
			c0.281,1.317,1.566,2.305,2.865,2.225c1.302-0.079,2.129-1.197,1.852-2.515c-0.27-1.271-1.477-2.26-2.732-2.26
			C206.822,28.289,206.774,28.29,206.726,28.293 M114.4,28.231c-1.099,0.424-1.566,1.621-1.054,2.68
			c0.513,1.056,1.8,1.584,2.89,1.178c1.092-0.411,1.583-1.611,1.082-2.686c-0.383-0.819-1.24-1.318-2.115-1.318
			C114.933,28.085,114.661,28.132,114.4,28.231 M136.228,28.059c-1.04,0.337-1.552,1.442-1.156,2.468
			c0.397,1.026,1.546,1.592,2.578,1.266c1.033-0.329,1.562-1.429,1.175-2.466c-0.312-0.833-1.129-1.363-1.979-1.363
			C136.639,27.963,136.431,27.994,136.228,28.059 M213.776,27.68c-1.471,0.04-2.405,1.292-2.095,2.774
			c0.313,1.48,1.744,2.629,3.206,2.591c1.462-0.044,2.415-1.258,2.104-2.736c-0.29-1.461-1.7-2.63-3.15-2.63
			C213.819,27.679,213.797,27.679,213.776,27.68 M225.624,30.375c0.323,1.604,1.855,2.938,3.442,3.011
			c1.587,0.07,2.627-1.147,2.321-2.748c-0.31-1.602-1.852-2.986-3.447-3.062c-0.044-0.002-0.087-0.003-0.129-0.003
			C226.289,27.572,225.32,28.811,225.624,30.375 M218.458,30.293c0.336,1.654,1.929,2.979,3.563,2.993
			c1.633,0.01,2.696-1.294,2.372-2.943c-0.329-1.654-1.927-3.03-3.57-3.046c-0.008,0-0.016,0-0.023,0
			C219.168,27.297,218.124,28.644,218.458,30.293 M293.945,28.913c0.274,1.511,1.664,3.381,3.099,4.215
			c1.441,0.833,2.381,0.324,2.109-1.171c-0.271-1.501-1.642-3.435-3.081-4.285c-0.454-0.267-0.859-0.395-1.194-0.395
			C294.153,27.277,293.764,27.873,293.945,28.913 M281.634,28.998c0.255,1.448,1.607,3.104,3.009,3.731
			c1.404,0.63,2.326,0.001,2.07-1.433c-0.248-1.438-1.59-3.153-2.996-3.792c-0.359-0.165-0.688-0.243-0.975-0.243
			C281.912,27.262,281.441,27.918,281.634,28.998 M159.715,27.172c-1.893,0.472-2.929,2.397-2.341,4.289
			c0.593,1.89,2.564,3.044,4.435,2.594c1.874-0.453,2.952-2.351,2.387-4.262c-0.483-1.626-2.016-2.725-3.631-2.725
			C160.283,27.068,159.998,27.102,159.715,27.172 M258.398,27.758c0.125,0.694,0.784,1.39,1.469,1.559
			c0.685,0.173,1.142-0.25,1.015-0.941c-0.125-0.693-0.781-1.4-1.467-1.572c-0.102-0.026-0.199-0.038-0.29-0.038
			C258.607,26.765,258.292,27.166,258.398,27.758 M105.014,26.122c-0.424,0.174-0.59,0.637-0.376,1.031
			c0.215,0.396,0.728,0.579,1.148,0.407c0.423-0.173,0.593-0.636,0.381-1.034c-0.157-0.296-0.483-0.471-0.813-0.471
			C105.239,26.056,105.124,26.077,105.014,26.122 M142.951,25.95c-1.057,0.321-1.597,1.429-1.217,2.472
			c0.384,1.043,1.536,1.632,2.586,1.319c1.05-0.313,1.608-1.416,1.234-2.469c-0.304-0.857-1.139-1.409-2.012-1.411
			C143.346,25.861,143.147,25.891,142.951,25.95 M120.846,25.799c-1.125,0.417-1.627,1.63-1.134,2.713
			c0.496,1.082,1.79,1.633,2.905,1.231c1.119-0.404,1.644-1.618,1.16-2.717c-0.374-0.846-1.246-1.367-2.144-1.367
			C121.369,25.659,121.103,25.704,120.846,25.799 M166.67,25.527c-1.916,0.431-2.988,2.343-2.424,4.254
			c0.566,1.909,2.538,3.108,4.432,2.697c1.894-0.413,3.009-2.292,2.466-4.22c-0.474-1.668-2.043-2.816-3.701-2.816
			C167.186,25.442,166.928,25.47,166.67,25.527 M251.312,26.223c0.141,0.787,0.891,1.541,1.668,1.701
			c0.776,0.155,1.288-0.347,1.146-1.132c-0.146-0.784-0.889-1.552-1.666-1.715c-0.094-0.02-0.185-0.029-0.271-0.029
			C251.569,25.048,251.19,25.53,251.312,26.223 M274.959,26.296c0.258,1.466,1.628,3.084,3.052,3.641
			c1.421,0.564,2.354-0.133,2.101-1.586c-0.255-1.456-1.615-3.125-3.038-3.7c-0.325-0.13-0.625-0.191-0.892-0.191
			C275.278,24.459,274.759,25.164,274.959,26.296 M173.812,24.458c-1.706,0.338-2.687,2.004-2.21,3.707
			c0.478,1.702,2.22,2.803,3.907,2.479c1.689-0.327,2.697-1.962,2.238-3.675c-0.411-1.511-1.831-2.57-3.33-2.57
			C174.217,24.398,174.014,24.418,173.812,24.458 M149.848,24.133c-0.969,0.275-1.478,1.271-1.149,2.226
			c0.333,0.955,1.374,1.512,2.335,1.244c0.962-0.268,1.485-1.26,1.163-2.222c-0.269-0.796-1.039-1.317-1.847-1.317
			C150.183,24.063,150.014,24.086,149.848,24.133 M244.26,25.017c0.151,0.824,0.94,1.587,1.755,1.718
			c0.815,0.127,1.353-0.429,1.198-1.251c-0.152-0.823-0.937-1.605-1.755-1.734c-0.077-0.013-0.15-0.019-0.223-0.019
			C244.545,23.73,244.115,24.27,244.26,25.017 M181.009,23.614c-1.467,0.25-2.329,1.648-1.94,3.115
			c0.39,1.467,1.876,2.445,3.332,2.206c1.454-0.243,2.334-1.617,1.96-3.09c-0.34-1.323-1.589-2.269-2.904-2.269
			C181.308,23.577,181.159,23.589,181.009,23.614 M287.262,25.368c0.283,1.647,1.813,3.604,3.38,4.427
			c1.573,0.813,2.597,0.195,2.309-1.436c-0.287-1.635-1.786-3.676-3.362-4.507c-0.451-0.239-0.861-0.353-1.207-0.353
			C287.525,23.5,287.053,24.19,287.262,25.368 M111.375,23.537c-0.433,0.174-0.614,0.643-0.407,1.05
			c0.209,0.406,0.725,0.598,1.155,0.427c0.434-0.17,0.619-0.641,0.412-1.051c-0.154-0.306-0.484-0.49-0.824-0.49
			C111.599,23.473,111.484,23.494,111.375,23.537 M127.403,23.343c-1.191,0.423-1.744,1.691-1.25,2.835
			c0.495,1.145,1.839,1.74,3.02,1.336c1.182-0.409,1.759-1.676,1.276-2.835c-0.378-0.907-1.3-1.47-2.255-1.47
			C127.929,23.209,127.662,23.252,127.403,23.343 M188.183,22.735c-1.354,0.188-2.168,1.451-1.825,2.806
			c0.346,1.354,1.704,2.293,3.049,2.108c1.346-0.185,2.168-1.422,1.839-2.78c-0.311-1.244-1.483-2.157-2.72-2.157
			C188.412,22.712,188.297,22.72,188.183,22.735 M237.138,24.109c0.165,0.873,1.002,1.654,1.865,1.754
			c0.864,0.099,1.432-0.521,1.265-1.393c-0.165-0.872-1.001-1.67-1.867-1.769c-0.062-0.009-0.122-0.012-0.18-0.012
			C237.458,22.69,236.981,23.298,237.138,24.109 M156.774,22.256c-0.982,0.256-1.513,1.248-1.197,2.217
			c0.317,0.967,1.36,1.548,2.335,1.299c0.976-0.25,1.52-1.235,1.209-2.209c-0.261-0.82-1.051-1.365-1.88-1.365
			C157.084,22.197,156.929,22.216,156.774,22.256 M195.385,22.073c-1.24,0.134-1.993,1.257-1.696,2.498
			c0.301,1.237,1.533,2.129,2.764,1.996c1.232-0.13,1.998-1.231,1.708-2.474c-0.274-1.162-1.381-2.033-2.536-2.033
			C195.544,22.061,195.465,22.064,195.385,22.073 M268.274,23.938c0.255,1.438,1.604,2.963,3.001,3.445
			c1.4,0.48,2.322-0.261,2.069-1.688c-0.247-1.43-1.591-3.01-2.993-3.501c-0.281-0.098-0.543-0.144-0.781-0.144
			C268.621,22.05,268.061,22.788,268.274,23.938 M229.989,23.5c0.184,0.909,1.057,1.693,1.959,1.76
			c0.9,0.065,1.479-0.608,1.311-1.518c-0.183-0.907-1.055-1.712-1.957-1.777c-0.042-0.003-0.083-0.004-0.124-0.004
			C230.344,21.961,229.819,22.631,229.989,23.5 M202.602,21.642c-1.119,0.083-1.815,1.071-1.558,2.193
			c0.259,1.122,1.367,1.954,2.482,1.874c1.114-0.084,1.813-1.049,1.563-2.173c-0.242-1.072-1.27-1.899-2.337-1.899
			C202.704,21.637,202.653,21.639,202.602,21.642 M222.75,23.175c0.2,0.979,1.149,1.787,2.117,1.824
			c0.97,0.029,1.598-0.725,1.401-1.702c-0.196-0.979-1.146-1.806-2.118-1.842c-0.02,0-0.038-0.001-0.057-0.001
			C223.152,21.454,222.556,22.215,222.75,23.175 M209.801,21.353c-1.055,0.042-1.719,0.943-1.484,2
			c0.235,1.059,1.27,1.871,2.32,1.831c1.05-0.042,1.716-0.923,1.488-1.979c-0.224-1.033-1.222-1.853-2.249-1.853
			C209.852,21.352,209.827,21.353,209.801,21.353 M216.985,21.282c-1.008,0.003-1.65,0.835-1.436,1.85
			c0.214,1.012,1.202,1.822,2.207,1.819c1.004-0.007,1.648-0.818,1.438-1.832c-0.211-1.009-1.194-1.837-2.199-1.838
			C216.993,21.281,216.989,21.281,216.985,21.282 M134.12,21.03c-1.212,0.407-1.798,1.683-1.324,2.851
			c0.479,1.166,1.828,1.792,3.029,1.399c1.205-0.395,1.813-1.666,1.35-2.848c-0.369-0.937-1.311-1.525-2.291-1.525
			C134.628,20.907,134.371,20.947,134.12,21.03 M117.865,20.931c-0.474,0.18-0.682,0.69-0.468,1.135
			c0.216,0.445,0.77,0.66,1.242,0.481c0.473-0.18,0.684-0.688,0.473-1.136c-0.162-0.34-0.521-0.546-0.894-0.546
			C118.1,20.865,117.98,20.886,117.865,20.931 M163.819,20.642c-0.927,0.22-1.442,1.14-1.161,2.056
			c0.287,0.916,1.259,1.48,2.181,1.269c0.924-0.212,1.448-1.127,1.171-2.046c-0.238-0.789-0.996-1.323-1.794-1.323
			C164.083,20.597,163.951,20.611,163.819,20.642 M280.286,22.084c0.332,1.889,2.08,4.056,3.885,4.89
			c1.809,0.838,2.984,0.048,2.662-1.821c-0.336-1.872-2.058-4.124-3.867-4.991c-0.471-0.223-0.9-0.326-1.273-0.326
			C280.631,19.835,280.036,20.682,280.286,22.084 M261.049,21.763c0.301,1.665,1.868,3.37,3.49,3.843
			c1.626,0.474,2.7-0.446,2.4-2.098c-0.296-1.657-1.854-3.423-3.483-3.916c-0.281-0.083-0.547-0.123-0.792-0.123
			C261.494,19.469,260.8,20.382,261.049,21.763 M170.897,19.081c-0.937,0.193-1.468,1.104-1.196,2.029
			c0.273,0.926,1.244,1.517,2.174,1.326c0.933-0.189,1.476-1.092,1.207-2.02c-0.233-0.812-1.011-1.372-1.828-1.372
			C171.135,19.045,171.016,19.057,170.897,19.081 M140.986,18.885c-1.191,0.375-1.787,1.61-1.346,2.758
			c0.443,1.147,1.749,1.78,2.93,1.419c1.182-0.364,1.8-1.593,1.368-2.752c-0.35-0.935-1.279-1.532-2.251-1.532
			C141.453,18.777,141.217,18.812,140.986,18.885 M124.525,18.427c-0.485,0.179-0.707,0.69-0.501,1.146
			c0.208,0.455,0.764,0.683,1.247,0.508c0.48-0.176,0.708-0.688,0.504-1.147c-0.159-0.352-0.528-0.566-0.909-0.567
			C124.75,18.366,124.636,18.386,124.525,18.427 M287.038,19.014c0.128,0.75,0.817,1.655,1.525,2.03
			c0.707,0.375,1.177,0.081,1.042-0.665c-0.129-0.748-0.812-1.668-1.521-2.047c-0.205-0.111-0.39-0.163-0.547-0.163
			C287.156,18.169,286.947,18.479,287.038,19.014 M178.035,17.705c-0.944,0.169-1.492,1.065-1.23,1.998s1.229,1.551,2.167,1.385
			c0.938-0.165,1.497-1.052,1.238-1.987c-0.229-0.835-1.028-1.423-1.867-1.423C178.24,17.678,178.137,17.687,178.035,17.705
			 M254.123,20.026c0.309,1.679,1.897,3.33,3.538,3.733c1.644,0.4,2.718-0.592,2.419-2.26c-0.306-1.67-1.879-3.396-3.527-3.804
			c-0.243-0.062-0.474-0.092-0.689-0.092C254.613,17.604,253.859,18.591,254.123,20.026 M273.816,19.4
			c0.321,1.78,1.971,3.75,3.678,4.452c1.712,0.701,2.836-0.125,2.521-1.888c-0.311-1.769-1.947-3.822-3.662-4.538
			c-0.4-0.168-0.77-0.246-1.095-0.246C274.186,17.181,273.571,18.033,273.816,19.4 M147.928,16.783
			c-1.209,0.354-1.834,1.588-1.41,2.754c0.426,1.166,1.732,1.828,2.932,1.488c1.2-0.342,1.844-1.566,1.43-2.743
			c-0.34-0.967-1.294-1.592-2.294-1.592C148.367,16.69,148.146,16.72,147.928,16.783 M185.184,16.414
			c-1.017,0.151-1.617,1.093-1.35,2.097c0.268,1.006,1.301,1.692,2.31,1.547c1.008-0.148,1.619-1.078,1.355-2.085
			c-0.235-0.917-1.118-1.579-2.04-1.579C185.368,16.394,185.276,16.4,185.184,16.414 M247.128,18.601
			c0.32,1.69,1.925,3.294,3.582,3.623c1.658,0.328,2.745-0.735,2.435-2.417c-0.307-1.684-1.911-3.352-3.576-3.69
			c-0.198-0.04-0.389-0.06-0.569-0.06C247.662,16.057,246.843,17.11,247.128,18.601 M131.313,16
			c-0.493,0.173-0.727,0.688-0.529,1.152c0.201,0.466,0.758,0.705,1.248,0.536c0.492-0.169,0.731-0.683,0.534-1.15
			c-0.154-0.366-0.531-0.594-0.924-0.594C131.532,15.944,131.42,15.963,131.313,16 M192.377,15.381
			c-1.062,0.125-1.697,1.085-1.434,2.139c0.27,1.054,1.336,1.8,2.394,1.683c1.057-0.122,1.706-1.067,1.441-2.123
			c-0.244-0.98-1.188-1.711-2.173-1.711C192.53,15.368,192.454,15.372,192.377,15.381 M240.308,17.517
			c0.305,1.568,1.801,3.004,3.344,3.241c1.542,0.235,2.554-0.812,2.256-2.373c-0.292-1.563-1.793-3.051-3.342-3.296
			c-0.144-0.022-0.282-0.033-0.415-0.033C240.84,15.056,240.035,16.092,240.308,17.517 M280.445,15.773
			c0.137,0.76,0.83,1.643,1.549,1.98c0.719,0.344,1.192,0.011,1.062-0.743c-0.133-0.756-0.824-1.656-1.546-1.997
			c-0.19-0.091-0.363-0.134-0.513-0.134C280.58,14.879,280.347,15.216,280.445,15.773 M154.962,14.819
			c-1.224,0.329-1.872,1.557-1.467,2.74c0.409,1.184,1.715,1.878,2.93,1.563c1.214-0.317,1.883-1.533,1.486-2.728
			c-0.335-0.996-1.312-1.653-2.341-1.653C155.369,14.742,155.165,14.767,154.962,14.819 M199.584,14.544
			c-1.133,0.094-1.82,1.088-1.552,2.214c0.275,1.123,1.402,1.951,2.527,1.86s1.825-1.068,1.557-2.193
			c-0.253-1.071-1.291-1.888-2.364-1.888C199.697,14.537,199.641,14.54,199.584,14.544 M266.877,16.896
			c0.343,1.883,2.099,3.89,3.913,4.538c1.817,0.645,3.018-0.303,2.675-2.167c-0.328-1.873-2.072-3.969-3.896-4.634
			c-0.375-0.137-0.724-0.201-1.039-0.201C267.315,14.431,266.607,15.395,266.877,16.896 M233.28,16.701
			c0.302,1.529,1.776,2.881,3.286,3.048c1.511,0.165,2.494-0.912,2.197-2.438c-0.295-1.527-1.77-2.926-3.289-3.099
			c-0.102-0.011-0.2-0.017-0.296-0.017C233.831,14.196,232.992,15.271,233.28,16.701 M226.287,16.179
			c0.3,1.445,1.701,2.672,3.131,2.775c1.432,0.097,2.361-0.972,2.067-2.414c-0.286-1.445-1.695-2.718-3.133-2.819
			c-0.061-0.005-0.119-0.007-0.177-0.007C226.835,13.714,225.999,14.791,226.287,16.179 M206.723,13.636
			c-1.375,0.068-2.23,1.243-1.909,2.613c0.314,1.37,1.68,2.413,3.049,2.35c1.367-0.062,2.224-1.208,1.917-2.58
			c-0.3-1.333-1.605-2.385-2.943-2.386C206.799,13.633,206.761,13.634,206.723,13.636 M138.207,13.638
			c-0.521,0.171-0.779,0.709-0.58,1.203c0.201,0.493,0.782,0.758,1.303,0.591c0.521-0.168,0.782-0.706,0.586-1.203
			c-0.159-0.395-0.562-0.642-0.982-0.642C138.425,13.587,138.315,13.603,138.207,13.638 M219.162,15.931
			c0.299,1.416,1.686,2.577,3.091,2.616c1.405,0.04,2.306-1.054,2.013-2.468c-0.294-1.414-1.683-2.612-3.097-2.656
			c-0.023-0.001-0.049-0.001-0.072-0.001C219.724,13.422,218.862,14.539,219.162,15.931 M213.947,13.351
			c-1.419,0.015-2.309,1.19-1.993,2.607c0.312,1.416,1.71,2.534,3.12,2.521c1.409-0.015,2.301-1.152,1.998-2.569
			c-0.303-1.408-1.692-2.56-3.101-2.56C213.962,13.351,213.955,13.351,213.947,13.351 M162.105,13.094
			c-1.193,0.289-1.844,1.462-1.469,2.62c0.379,1.155,1.636,1.858,2.82,1.581c1.185-0.28,1.853-1.44,1.486-2.604
			c-0.318-0.989-1.287-1.658-2.305-1.659C162.46,13.031,162.282,13.052,162.105,13.094 M259.925,14.75
			c0.357,1.941,2.182,3.937,4.06,4.511c1.881,0.574,3.114-0.48,2.767-2.407c-0.35-1.933-2.152-4.022-4.046-4.608
			c-0.337-0.105-0.654-0.156-0.945-0.156C260.422,12.089,259.633,13.149,259.925,14.75 M273.806,12.89
			c0.136,0.733,0.806,1.559,1.506,1.849c0.7,0.293,1.157-0.06,1.031-0.79c-0.138-0.731-0.804-1.57-1.505-1.862
			c-0.166-0.07-0.317-0.104-0.451-0.104C273.952,11.982,273.705,12.329,273.806,12.89 M169.307,11.53
			c-1.172,0.247-1.827,1.376-1.476,2.515c0.355,1.135,1.571,1.854,2.733,1.614c1.162-0.242,1.831-1.355,1.489-2.499
			c-0.3-0.994-1.271-1.679-2.287-1.679C169.614,11.481,169.459,11.498,169.307,11.53 M145.238,11.47
			c-0.509,0.154-0.768,0.67-0.584,1.153c0.185,0.48,0.743,0.749,1.25,0.597s0.769-0.665,0.588-1.15
			c-0.149-0.392-0.545-0.643-0.961-0.643C145.433,11.427,145.334,11.44,145.238,11.47 M253.122,12.991
			c0.348,1.867,2.115,3.718,3.934,4.183c1.818,0.462,3.008-0.626,2.668-2.48c-0.342-1.861-2.098-3.796-3.924-4.272
			c-0.275-0.072-0.537-0.106-0.782-0.106C253.643,10.314,252.818,11.4,253.122,12.991 M176.598,10.301
			c-1.066,0.195-1.678,1.201-1.374,2.242c0.306,1.039,1.407,1.722,2.468,1.533c1.058-0.189,1.681-1.183,1.383-2.227
			c-0.265-0.928-1.171-1.58-2.118-1.58C176.837,10.27,176.718,10.28,176.598,10.301 M152.347,9.411
			c-0.515,0.143-0.786,0.655-0.609,1.146c0.179,0.49,0.736,0.772,1.249,0.631c0.512-0.141,0.788-0.651,0.612-1.144
			c-0.146-0.406-0.554-0.67-0.981-0.67C152.528,9.374,152.437,9.386,152.347,9.411 M266.724,10.211
			c0.165,0.902,1.002,1.878,1.869,2.19c0.866,0.312,1.436-0.152,1.272-1.051c-0.164-0.9-0.998-1.896-1.866-2.213
			c-0.18-0.064-0.348-0.096-0.498-0.096C266.925,9.042,266.593,9.494,266.724,10.211 M246.345,11.555
			c0.332,1.736,1.983,3.397,3.683,3.75c1.697,0.351,2.805-0.729,2.48-2.457c-0.322-1.731-1.972-3.463-3.679-3.823
			c-0.212-0.044-0.415-0.065-0.605-0.065C246.868,8.959,246.047,10.032,246.345,11.555 M183.8,8.837
			c-1.218,0.183-1.927,1.305-1.597,2.497c0.334,1.188,1.576,1.999,2.784,1.822c1.209-0.179,1.93-1.28,1.609-2.476
			c-0.298-1.083-1.355-1.869-2.458-1.869C184.026,8.812,183.913,8.819,183.8,8.837 M191.105,7.861
			c-1.222,0.142-1.943,1.239-1.629,2.438c0.317,1.197,1.553,2.046,2.765,1.907c1.212-0.14,1.951-1.215,1.639-2.416
			c-0.286-1.114-1.377-1.945-2.508-1.945C191.283,7.846,191.194,7.851,191.105,7.861 M239.246,10.378
			c0.345,1.744,2.019,3.352,3.731,3.626c1.714,0.273,2.827-0.874,2.492-2.612c-0.338-1.74-2.004-3.415-3.729-3.697
			c-0.168-0.026-0.33-0.041-0.486-0.041C239.812,7.653,238.932,8.8,239.246,10.378 M159.538,7.516
			c-0.52,0.13-0.804,0.641-0.632,1.137c0.17,0.497,0.729,0.794,1.245,0.666c0.519-0.128,0.805-0.636,0.635-1.133
			c-0.143-0.421-0.562-0.7-1.002-0.7C159.702,7.485,159.62,7.496,159.538,7.516 M198.367,6.914
			c-1.346,0.111-2.157,1.288-1.824,2.613c0.339,1.323,1.686,2.302,3.022,2.191c1.336-0.107,2.158-1.256,1.833-2.583
			c-0.312-1.263-1.554-2.229-2.831-2.229C198.5,6.906,198.434,6.909,198.367,6.914 M259.769,7.962
			c0.173,0.941,1.056,1.922,1.968,2.204c0.91,0.282,1.503-0.243,1.333-1.183c-0.175-0.94-1.052-1.945-1.966-2.227
			c-0.164-0.051-0.318-0.076-0.46-0.076C260,6.681,259.619,7.188,259.769,7.962 M231.831,9.488c0.39,1.893,2.22,3.569,4.087,3.787
			c1.871,0.217,3.076-1.097,2.702-2.985c-0.378-1.893-2.207-3.64-4.089-3.869c-0.131-0.015-0.259-0.023-0.383-0.023
			C232.486,6.397,231.465,7.722,231.831,9.488 M205.668,6.368c-1.39,0.063-2.24,1.243-1.91,2.618
			c0.335,1.373,1.714,2.421,3.096,2.361c1.379-0.062,2.243-1.208,1.919-2.584c-0.312-1.338-1.638-2.397-2.988-2.397
			C205.747,6.366,205.708,6.367,205.668,6.368 M212.96,6.098c-1.432,0.009-2.323,1.188-1.992,2.61
			c0.324,1.422,1.742,2.548,3.166,2.539c1.421-0.011,2.312-1.15,1.997-2.572c-0.319-1.416-1.729-2.577-3.153-2.577
			C212.972,6.098,212.967,6.098,212.96,6.098 M217.857,8.696c0.361,1.633,1.972,2.974,3.598,3.028
			c1.626,0.056,2.67-1.201,2.312-2.831c-0.347-1.634-1.967-3.028-3.604-3.084c-0.034-0.001-0.067-0.001-0.101-0.001
			C218.482,5.809,217.506,7.094,217.857,8.696 M166.794,5.809c-0.523,0.115-0.816,0.619-0.652,1.121
			c0.164,0.503,0.719,0.816,1.241,0.703c0.521-0.115,0.818-0.615,0.655-1.119c-0.137-0.435-0.569-0.729-1.022-0.729
			C166.942,5.785,166.868,5.792,166.794,5.809 M224.621,8.938c0.4,1.899,2.258,3.511,4.14,3.654c1.88,0.139,3.087-1.247,2.698-3.141
			c-0.389-1.898-2.248-3.585-4.143-3.731c-0.084-0.007-0.167-0.01-0.248-0.01C225.316,5.711,224.234,7.122,224.621,8.938
			 M252.84,6.078c0.176,0.915,1.039,1.834,1.93,2.062c0.889,0.229,1.473-0.315,1.298-1.228c-0.173-0.914-1.036-1.849-1.928-2.083
			c-0.136-0.034-0.263-0.051-0.381-0.051C253.087,4.778,252.692,5.3,252.84,6.078 M174.044,4.109
			c-0.641,0.122-1.002,0.724-0.813,1.341c0.189,0.615,0.859,1.017,1.497,0.896c0.638-0.12,1.005-0.716,0.816-1.334
			c-0.163-0.545-0.706-0.924-1.271-0.924C174.198,4.088,174.121,4.095,174.044,4.109 M245.517,4.456
			c0.205,1.064,1.225,2.09,2.265,2.306c1.041,0.215,1.714-0.456,1.509-1.517c-0.205-1.062-1.219-2.11-2.263-2.332
			c-0.128-0.027-0.25-0.039-0.366-0.039C245.831,2.874,245.333,3.521,245.517,4.456 M181.246,2.314
			c-0.937,0.147-1.478,1.01-1.212,1.914c0.266,0.905,1.233,1.516,2.165,1.371c0.931-0.145,1.48-0.994,1.22-1.902
			c-0.233-0.817-1.047-1.404-1.891-1.404C181.434,2.293,181.34,2.3,181.246,2.314 M238.251,3.206
			c0.232,1.134,1.326,2.187,2.442,2.365c1.116,0.18,1.836-0.579,1.61-1.712c-0.23-1.133-1.321-2.207-2.44-2.396
			c-0.107-0.016-0.21-0.025-0.309-0.025C238.614,1.438,238.047,2.177,238.251,3.206 M188.631,1.271
			c-0.941,0.112-1.494,0.957-1.238,1.87c0.253,0.912,1.213,1.548,2.147,1.439c0.934-0.118,1.494-0.941,1.244-1.856
			c-0.232-0.843-1.069-1.467-1.932-1.467C188.779,1.257,188.705,1.262,188.631,1.271 M231.485,2.346
			c0.183,0.894,1.057,1.689,1.939,1.791c0.884,0.102,1.448-0.529,1.265-1.42c-0.188-0.892-1.056-1.708-1.942-1.81
			c-0.062-0.008-0.123-0.011-0.181-0.011C231.785,0.896,231.311,1.515,231.485,2.346 M196.079,0.685
			c-0.825,0.076-1.319,0.791-1.108,1.6c0.216,0.807,1.05,1.397,1.875,1.326c0.822-0.068,1.321-0.778,1.111-1.588
			c-0.195-0.767-0.963-1.343-1.747-1.343C196.167,0.68,196.123,0.681,196.079,0.685 M224.302,1.743
			c0.186,0.847,1.022,1.574,1.868,1.638c0.846,0.059,1.386-0.571,1.197-1.419c-0.181-0.849-1.018-1.589-1.866-1.654
			c-0.034-0.002-0.069-0.004-0.104-0.004C224.608,0.304,224.126,0.927,224.302,1.743 M210.916,0.221
			c-0.664,0.01-1.07,0.55-0.919,1.208c0.158,0.658,0.823,1.182,1.486,1.174c0.664-0.011,1.071-0.542,0.92-1.201
			c-0.154-0.653-0.812-1.181-1.473-1.181C210.925,0.221,210.92,0.221,210.916,0.221 M203.481,0.21
			c-0.803,0.04-1.292,0.719-1.093,1.507c0.198,0.789,1.005,1.391,1.806,1.351c0.799-0.04,1.294-0.706,1.096-1.496
			c-0.189-0.765-0.956-1.363-1.732-1.363C203.532,0.208,203.506,0.209,203.481,0.21 M217.055,1.439c0.183,0.816,1,1.486,1.815,1.514
			c0.818,0.021,1.335-0.611,1.148-1.427c-0.186-0.813-0.998-1.496-1.818-1.525c-0.013,0-0.026-0.001-0.04-0.001
			C217.364,0,216.87,0.639,217.055,1.439"/>
	</defs>
	<clipPath id="SVGID_2_">
		<use xlink:href="#SVGID_1_"  overflow="visible"/>
	</clipPath>
	
		<linearGradient id="SVGID_3_" gradientUnits="userSpaceOnUse" x1="-411.0952" y1="361.9521" x2="-410.0942" y2="361.9521" gradientTransform="matrix(329.6561 0 0 -329.6561 135519.875 119356.0156)">
		<stop  offset="0" style="stop-color:#EC1E3C"/>
		<stop  offset="0.5" style="stop-color:#772674"/>
		<stop  offset="1" style="stop-color:#493391"/>
	</linearGradient>
	<rect x="-0.041" clip-path="url(#SVGID_2_)" fill="url(#SVGID_3_)" width="329.93" height="73.138"/>
</g>
</svg>
