<?xml version="1.0" encoding="utf-8"?>
<!-- Generator: Adobe Illustrator 26.2.1, SVG Export Plug-In . SVG Version: 6.00 Build 0)  -->
<svg version="1.1" id="Layer_1" xmlns="http://www.w3.org/2000/svg" xmlns:xlink="http://www.w3.org/1999/xlink" x="0px" y="0px"
	 viewBox="0 0 72 72" style="enable-background:new 0 0 72 72;" xml:space="preserve">
<style type="text/css">
	.st0{fill-rule:evenodd;clip-rule:evenodd;fill:#483092;}
	.st1{fill:#483092;}
</style>
<g>
	<path class="st0" d="M24.9,17.4c-0.4-0.9-1.4-1.3-2.3-1c-0.9,0.3-1.4,1.3-1.1,2.2c0,0,11.1,35.7,11.1,35.8c0.7,1.8,2.7,2.8,4.5,2.1
		c1.8-0.7,2.8-2.7,2.1-4.5C39.3,51.9,24.9,17.4,24.9,17.4z"/>
	<g>
		<path class="st1" d="M22.8,30.5c-1.5,0.9-2.9,2.1-4.2,3.4l-3.4,3.4l3.9,3.9l3.4-3.4c0.6-0.6,1.3-1.2,2-1.7
			C24,34.4,23.5,32.5,22.8,30.5z"/>
		<path class="st1" d="M19.3,19.3c-3.4,1.7-6.5,4-9.3,6.8l-3,3l3.9,3.9l3-3c2.2-2.2,4.5-3.9,7.1-5.3C20.5,23,19.9,21.2,19.3,19.3z"
			/>
		<path class="st1" d="M36,16.3c9.6,0,18.6,3.7,25.3,10.5l2.3,2.3l-2.6,2.6l-2.3-2.3C52.7,23.3,44.6,20,36,20
			c-2.1,0-4.1,0.2-6.2,0.6l-1.1-2.7l-0.3-0.8C30.9,16.6,33.4,16.3,36,16.3 M36,15.3c-3,0-6,0.4-8.9,1.1c0,0,0,0,0,0
			c0.8,1.8,1.5,3.5,2.1,5.2c2.2-0.5,4.5-0.7,6.7-0.7c8,0,16,3,22.1,9.1l3,3l3.9-3.9l-3-3C54.8,18.9,45.4,15.3,36,15.3L36,15.3z"/>
		<path class="st1" d="M36,27.6c6.3,0,12.2,2.5,16.7,6.9l2.8,2.8l-2.6,2.6l-2.8-2.8c-3.8-3.8-8.8-5.8-14.1-5.8c-0.6,0-1.1,0-1.7,0.1
			l-1.5-3.5C33.9,27.7,35,27.6,36,27.6 M36,26.7c-1.5,0-3,0.1-4.5,0.4c0.8,1.9,1.5,3.7,2.2,5.3c0.8-0.1,1.5-0.1,2.3-0.1
			c4.9,0,9.7,1.8,13.4,5.5l3.4,3.4l3.9-3.9l-3.4-3.4C48.6,29.1,42.3,26.7,36,26.7L36,26.7z"/>
		<path class="st1" d="M26.4,42c-0.5,0.4-1,0.8-1.5,1.3l-2,2l3.9,3.9l1.4-1.4C27.7,46.3,27.1,44.4,26.4,42z"/>
		<path class="st1" d="M37.8,39.8c3.2,0.4,6.2,1.9,8.6,4.2l1.4,1.4L45.2,48l-1.4-1.4c-1.2-1.2-2.7-2.1-4.2-2.6L37.8,39.8 M36.4,38.8
			c1,2.4,1.8,4.4,2.5,6c1.6,0.5,3,1.3,4.3,2.5l2,2l3.9-3.9l-2-2C44.1,40.4,40.3,38.9,36.4,38.8L36.4,38.8z"/>
	</g>
</g>
</svg>
