<?xml version="1.0" encoding="utf-8"?>
<!-- Generator: Adobe Illustrator 26.2.1, SVG Export Plug-In . SVG Version: 6.00 Build 0)  -->
<svg version="1.1" id="Layer_1" xmlns="http://www.w3.org/2000/svg" xmlns:xlink="http://www.w3.org/1999/xlink" x="0px" y="0px"
	 viewBox="0 0 72 72" style="enable-background:new 0 0 72 72;" xml:space="preserve">
<style type="text/css">
	.st0{fill-rule:evenodd;clip-rule:evenodd;fill:#483092;}
	.st1{fill:#483092;}
</style>
<g>
	<path class="st0" d="M64.4,30.1c0.7-0.6,0.7-1.7,0.1-2.4c-0.6-0.7-1.7-0.8-2.4-0.2c0,0-28.9,22.7-28.9,22.8
		c-1.4,1.2-1.6,3.4-0.4,4.9c1.2,1.4,3.4,1.6,4.9,0.4C37.8,55.4,64.4,30.1,64.4,30.1z"/>
	<g>
		<path class="st1" d="M47.1,36.4c1.3-1.1,2.8-2.2,4.4-3.5c-9.5-8.4-24-8.1-33.1,1l-3.4,3.4l3.9,3.9l3.4-3.4
			C29.1,31,39.8,30.6,47.1,36.4z"/>
		<path class="st1" d="M56.2,29.2c1.4-1.1,2.8-2.2,4.3-3.4C46.4,12.2,23.9,12.3,10,26.3l-3,3l3.9,3.9l3-3
			C25.5,18.5,44.2,18.2,56.2,29.2z"/>
		<path class="st1" d="M37,44.3c1.3-1.1,3-2.4,5.2-4.1c-5.7-2.8-12.8-1.8-17.6,3l-2,2l3.9,3.9l2-2C30.8,44.8,34,43.9,37,44.3z"/>
	</g>
</g>
</svg>
