<?xml version="1.0" encoding="utf-8"?>
<!-- Generator: Adobe Illustrator 26.2.1, SVG Export Plug-In . SVG Version: 6.00 Build 0)  -->
<svg version="1.1" id="Layer_1" xmlns="http://www.w3.org/2000/svg" xmlns:xlink="http://www.w3.org/1999/xlink" x="0px" y="0px"
	 viewBox="0 0 72 72" style="enable-background:new 0 0 72 72;" xml:space="preserve">
<style type="text/css">
	.st0{fill-rule:evenodd;clip-rule:evenodd;fill:#483092;}
	.st1{fill:#483092;}
</style>
<g>
	<path class="st0" d="M49.9,18.4c0.3-0.9-0.2-1.9-1.1-2.2c-0.9-0.3-1.9,0.1-2.2,1c0,0-13.8,34.7-13.9,34.8c-0.6,1.8,0.3,3.8,2.2,4.5
		s3.8-0.3,4.5-2.2C39.3,54.2,49.9,18.4,49.9,18.4z"/>
	<g>
		<path class="st1" d="M42.3,21.5c0.7-1.6,1.3-3.4,2.1-5.2c0,0,0,0,0,0c-12-2.8-25.1,0.5-34.4,9.8l-3,3l3.9,3.9l3-3
			C21.6,22.3,32.4,19.5,42.3,21.5z"/>
		<path class="st1" d="M38,32.4c0.7-1.6,1.4-3.4,2.1-5.3c-7.6-1.3-15.6,1-21.5,6.8l-3.4,3.4l3.9,3.9l3.4-3.4
			C26.8,33.6,32.5,31.8,38,32.4z"/>
		<path class="st1" d="M49.4,31.8c1.2,0.8,2.3,1.7,3.3,2.7l2.8,2.8l-2.6,2.6l-2.8-2.8c-0.6-0.6-1.2-1.1-1.8-1.6L49.4,31.8
			 M48.9,30.3c-0.6,2-1.1,3.9-1.7,5.6c0.8,0.6,1.5,1.2,2.2,1.9l3.4,3.4l3.9-3.9l-3.4-3.4C52,32.5,50.5,31.3,48.9,30.3L48.9,30.3z"/>
		<path class="st1" d="M35.4,38.8c-3.8,0.1-7.6,1.7-10.5,4.6l-2,2l3.9,3.9l2-2c1.2-1.2,2.6-2,4.2-2.5C33.7,43.2,34.4,41.2,35.4,38.8
			z"/>
		<path class="st1" d="M52.8,20.4c3.1,1.7,6,3.8,8.6,6.3l2.3,2.3l-2.6,2.6l-2.3-2.3c-2.1-2.1-4.5-3.9-7-5.3L52.8,20.4 M52.2,19.1
			c-0.6,1.9-1.1,3.7-1.6,5.4c2.7,1.4,5.2,3.3,7.5,5.5l3,3l3.9-3.9l-3-3C59.1,23.1,55.7,20.8,52.2,19.1L52.2,19.1z"/>
		<path class="st1" d="M45.9,43.6c0.2,0.2,0.3,0.3,0.5,0.5l1.4,1.4L45.2,48l-0.4-0.4L45.9,43.6 M45.4,41.9c-0.7,2.4-1.3,4.3-1.7,5.9
			l1.5,1.5l3.9-3.9l-2-2C46.6,42.8,46,42.4,45.4,41.9L45.4,41.9z"/>
	</g>
</g>
</svg>
