<?xml version="1.0" encoding="utf-8"?>
<!-- Generator: Adobe Illustrator 26.2.1, SVG Export Plug-In . SVG Version: 6.00 Build 0)  -->
<svg version="1.1" id="Layer_1" xmlns="http://www.w3.org/2000/svg" xmlns:xlink="http://www.w3.org/1999/xlink" x="0px" y="0px"
	 viewBox="0 0 72 72" style="enable-background:new 0 0 72 72;" xml:space="preserve">
<style type="text/css">
	.st0{fill-rule:evenodd;clip-rule:evenodd;fill:#483092;}
	.st1{fill:#483092;}
</style>
<g>
	<path class="st0" d="M37.8,16.4c0-1-0.8-1.7-1.8-1.7s-1.7,0.8-1.8,1.7c0,0-1.7,37.3-1.7,37.4c0,1.9,1.6,3.5,3.5,3.5
		s3.5-1.6,3.5-3.5C39.5,53.7,37.8,16.4,37.8,16.4z"/>
	<g>
		<path class="st1" d="M31.9,16.3C31.9,16.3,31.9,16.2,31.9,16.3c-8,0.8-15.8,4.3-21.9,10.4l-3,3l3.9,3.9l3-3c5-5,11.2-7.9,17.7-8.8
			C31.7,20.1,31.8,18.3,31.9,16.3z"/>
		<path class="st1" d="M42.3,41.8c1.5,0.7,2.9,1.7,4.1,2.9l1.4,1.4l-2.6,2.6l-1.4-1.4c-0.4-0.4-0.9-0.8-1.3-1.1L42.3,41.8
			 M41.3,40.3c0.1,2.6,0.2,4.6,0.3,6.3c0.6,0.4,1.1,0.8,1.6,1.3l2,2l3.9-3.9l-2-2C45.4,42.3,43.4,41.1,41.3,40.3L41.3,40.3z"/>
		<path class="st1" d="M31.3,27.8c-4.7,0.9-9.1,3.1-12.7,6.7l-3.4,3.4l3.9,3.9l3.4-3.4c2.4-2.4,5.4-4.1,8.5-4.9
			C31.2,31.8,31.2,29.9,31.3,27.8z"/>
		<path class="st1" d="M41.7,29c4.2,1,8,3.2,11,6.2l2.8,2.8l-2.6,2.6l-2.8-2.8c-2.3-2.3-5.1-4-8.2-4.9v-0.1L41.7,29 M40.7,27.8
			c0.1,2.1,0.2,4,0.3,5.8c3.1,0.8,6,2.5,8.5,4.9l3.4,3.4l3.9-3.9l-3.4-3.4C49.8,30.9,45.3,28.7,40.7,27.8L40.7,27.8z"/>
		<path class="st1" d="M41.1,17.3c3.6,0.5,7,1.5,10.2,3.1c3.7,1.7,7,4.1,10,7l2.3,2.3L61,32.3L58.7,30c-4.8-4.8-10.8-7.9-17.4-9
			v-0.4L41.1,17.3 M40.2,16.2C40.2,16.2,40.2,16.3,40.2,16.2c0.1,2,0.2,3.9,0.3,5.6c6.5,0.9,12.7,3.9,17.6,8.8l3,3l3.9-3.9l-3-3
			C55.9,20.6,48.1,17.1,40.2,16.2L40.2,16.2z"/>
		<path class="st1" d="M30.8,40.3c-2.1,0.8-4.1,2-5.8,3.7l-2,2l3.9,3.9l2-2c0.5-0.5,1-0.9,1.6-1.3C30.5,45,30.6,42.9,30.8,40.3z"/>
	</g>
</g>
</svg>
