<?xml version="1.0" encoding="UTF-8" standalone="no"?>
<svg
   xmlns:dc="http://purl.org/dc/elements/1.1/"
   xmlns:cc="http://creativecommons.org/ns#"
   xmlns:rdf="http://www.w3.org/1999/02/22-rdf-syntax-ns#"
   xmlns:svg="http://www.w3.org/2000/svg"
   xmlns="http://www.w3.org/2000/svg"
   xmlns:sodipodi="http://sodipodi.sourceforge.net/DTD/sodipodi-0.dtd"
   xmlns:inkscape="http://www.inkscape.org/namespaces/inkscape"
   id="Layer_1"
   data-name="Layer 1"
   viewBox="0 0 24 24"
   version="1.1"
   sodipodi:docname="call-white.svg"
   inkscape:version="0.92.3 (2405546, 2018-03-11)">
  <metadata
     id="metadata126">
    <rdf:RDF>
      <cc:Work
         rdf:about="">
        <dc:format>image/svg+xml</dc:format>
        <dc:type
           rdf:resource="http://purl.org/dc/dcmitype/StillImage" />
        <dc:title></dc:title>
      </cc:Work>
    </rdf:RDF>
  </metadata>
  <sodipodi:namedview
     pagecolor="#ffffff"
     bordercolor="#666666"
     borderopacity="1"
     objecttolerance="10"
     gridtolerance="10"
     guidetolerance="10"
     inkscape:pageopacity="0"
     inkscape:pageshadow="2"
     inkscape:window-width="1920"
     inkscape:window-height="1018"
     id="namedview124"
     showgrid="false"
     inkscape:zoom="9.8333333"
     inkscape:cx="12"
     inkscape:cy="12"
     inkscape:window-x="-8"
     inkscape:window-y="-8"
     inkscape:window-maximized="1"
     inkscape:current-layer="Layer_1" />
  <defs
     id="defs119">
    <style
       id="style117">.cls-1{fill:#1d1f20;}</style>
  </defs>
  <path
     class="cls-1"
     d="M15.79,23.12c-3.37,0-6.74-1.66-10-4.91S.8,11.4.89,7.94A10.82,10.82,0,0,1,4.13.63,1.37,1.37,0,0,1,6,.68l5.7,5.7a1.38,1.38,0,0,1,0,1.92c-.1.12-2.66,2.9-.81,4.76s4.73-.78,4.76-.81a1.39,1.39,0,0,1,1.92,0L23.32,18a1.37,1.37,0,0,1,.05,1.89,10.78,10.78,0,0,1-7.31,3.24ZM5.13,3.68A7.92,7.92,0,0,0,3.64,8.05c-.06,2.67,1.32,5.43,4.1,8.21s5.43,4.11,8.06,4.11H16a7.92,7.92,0,0,0,4.37-1.49l-3.78-3.78C14.59,16.41,11.47,17.48,9,15S7.59,9.41,8.91,7.46Z"
     id="path121"
     style="fill:#ffffff" />
</svg>
