<?xml version="1.0" encoding="UTF-8" standalone="no"?>
<!-- Generator: Adobe Illustrator 24.2.1, SVG Export Plug-In . SVG Version: 6.00 Build 0)  -->

<svg
   xmlns:dc="http://purl.org/dc/elements/1.1/"
   xmlns:cc="http://creativecommons.org/ns#"
   xmlns:rdf="http://www.w3.org/1999/02/22-rdf-syntax-ns#"
   xmlns:svg="http://www.w3.org/2000/svg"
   xmlns="http://www.w3.org/2000/svg"
   xmlns:sodipodi="http://sodipodi.sourceforge.net/DTD/sodipodi-0.dtd"
   xmlns:inkscape="http://www.inkscape.org/namespaces/inkscape"
   version="1.1"
   id="Layer_1"
   x="0px"
   y="0px"
   viewBox="0 0 24 24"
   style="enable-background:new 0 0 24 24;"
   xml:space="preserve"
   sodipodi:docname="chat-2-white.svg"
   inkscape:version="0.92.3 (2405546, 2018-03-11)"><metadata
   id="metadata156"><rdf:RDF><cc:Work
       rdf:about=""><dc:format>image/svg+xml</dc:format><dc:type
         rdf:resource="http://purl.org/dc/dcmitype/StillImage" /><dc:title></dc:title></cc:Work></rdf:RDF></metadata><defs
   id="defs154" /><sodipodi:namedview
   pagecolor="#ffffff"
   bordercolor="#666666"
   borderopacity="1"
   objecttolerance="10"
   gridtolerance="10"
   guidetolerance="10"
   inkscape:pageopacity="0"
   inkscape:pageshadow="2"
   inkscape:window-width="1920"
   inkscape:window-height="1018"
   id="namedview152"
   showgrid="false"
   inkscape:zoom="9.8333333"
   inkscape:cx="12"
   inkscape:cy="12"
   inkscape:window-x="-8"
   inkscape:window-y="-8"
   inkscape:window-maximized="1"
   inkscape:current-layer="Layer_1" />
<style
   type="text/css"
   id="style143">
	.st0{fill:#1D1F20;}
</style>
<g
   id="g149"
   style="fill:#ffffff">
	<path
   class="st0"
   d="M22.3,17.9c-0.3,0-0.6-0.1-0.9-0.3l-3.9-3H7.6c-0.8,0-1.5-0.7-1.5-1.5V1.6c0-0.8,0.7-1.5,1.5-1.5h14.6   c0.8,0,1.5,0.7,1.5,1.5v14.8c0,0.6-0.3,1.1-0.8,1.3C22.7,17.9,22.5,17.9,22.3,17.9z M9.1,11.6h8.8c0.3,0,0.7,0.1,0.9,0.3l1.9,1.5   V3.1H9.1V11.6z"
   id="path145"
   style="fill:#ffffff" />
	<path
   class="st0"
   d="M12,15.9v2.3H5.2c-0.3,0-0.7,0.1-0.9,0.3l-1,0.8V12h1.6V9H1.7c-0.8,0-1.5,0.7-1.5,1.5v11.8   c0,0.6,0.3,1.1,0.8,1.3c0.2,0.1,0.4,0.2,0.7,0.2c0.3,0,0.6-0.1,0.9-0.3l3-2.3h7.7c0.8,0,1.5-0.7,1.5-1.5v-3.8H12z"
   id="path147"
   style="fill:#ffffff" />
</g>
</svg>