<?xml version="1.0" encoding="utf-8"?>
<!-- Generator: Adobe Illustrator 16.0.0, SVG Export Plug-In . SVG Version: 6.00 Build 0)  -->
<!DOCTYPE svg PUBLIC "-//W3C//DTD SVG 1.1//EN" "http://www.w3.org/Graphics/SVG/1.1/DTD/svg11.dtd">
<svg version="1.1" id="Layer_1" xmlns="http://www.w3.org/2000/svg" xmlns:xlink="http://www.w3.org/1999/xlink" x="0px" y="0px"
	 width="119.548px" height="117.794px" viewBox="0 0 119.548 117.794" enable-background="new 0 0 119.548 117.794"
	 xml:space="preserve">
<g>
	<defs>
		<path id="SVGID_1_" d="M50.619,112.317c-0.565,0.43-0.988,1.072-1.117,1.843c-0.13,0.768,0.069,1.519,0.516,2.104
			c0.444,0.585,1.136,1.002,1.948,1.099c0.814,0.095,1.583-0.15,2.152-0.616c0.57-0.465,0.937-1.149,0.989-1.927
			c0.053-0.778-0.211-1.502-0.66-2.054c-0.45-0.549-1.085-0.926-1.821-1.012c-0.107-0.013-0.214-0.019-0.319-0.019
			C51.688,111.735,51.102,111.949,50.619,112.317 M64.407,111.58c-0.81,0.079-1.515,0.479-2.023,1.074
			c-0.506,0.595-0.815,1.385-0.778,2.244c0.035,0.859,0.422,1.624,1.041,2.15c0.617,0.528,1.465,0.818,2.367,0.729
			c0.903-0.088,1.68-0.537,2.182-1.176c0.504-0.637,0.734-1.462,0.604-2.311c-0.132-0.851-0.589-1.566-1.2-2.051
			c-0.541-0.427-1.201-0.675-1.901-0.675C64.601,111.566,64.503,111.571,64.407,111.58 M39.13,109.533
			c-0.577,0.271-1.067,0.759-1.322,1.411c-0.255,0.651-0.218,1.347,0.064,1.941c0.281,0.595,0.807,1.088,1.498,1.324
			c0.692,0.235,1.41,0.166,1.996-0.134c0.587-0.3,1.039-0.827,1.235-1.499c0.197-0.672,0.106-1.357-0.184-1.925
			c-0.291-0.569-0.78-1.021-1.413-1.238c-0.259-0.088-0.524-0.129-0.786-0.129C39.842,109.285,39.472,109.371,39.13,109.533
			 M75.82,108.911c-0.842,0.271-1.5,0.861-1.905,1.613c-0.403,0.75-0.554,1.666-0.317,2.576c0.233,0.91,0.82,1.64,1.604,2.062
			c0.782,0.424,1.76,0.536,2.707,0.229c0.948-0.306,1.676-0.968,2.063-1.767c0.391-0.801,0.44-1.736,0.1-2.612
			c-0.342-0.876-0.999-1.531-1.764-1.905c-0.471-0.229-0.98-0.352-1.5-0.352C76.48,108.756,76.146,108.806,75.82,108.911
			 M28.438,104.41c-0.551,0.129-1.065,0.46-1.407,0.977c-0.34,0.518-0.436,1.126-0.304,1.693c0.133,0.566,0.494,1.09,1.045,1.422
			c0.552,0.332,1.184,0.407,1.746,0.258c0.564-0.146,1.057-0.516,1.354-1.059c0.299-0.543,0.351-1.153,0.208-1.7
			c-0.145-0.548-0.484-1.034-0.993-1.34c-0.351-0.211-0.739-0.312-1.126-0.312C28.785,104.349,28.609,104.37,28.438,104.41
			 M86.359,103.91c-0.826,0.478-1.387,1.25-1.646,2.138c-0.257,0.888-0.211,1.895,0.243,2.81c0.452,0.912,1.239,1.557,2.169,1.825
			c0.927,0.273,1.995,0.168,2.934-0.375c0.941-0.545,1.564-1.417,1.791-2.356c0.229-0.94,0.064-1.944-0.502-2.791
			c-0.568-0.851-1.418-1.392-2.314-1.611c-0.297-0.072-0.602-0.108-0.903-0.108C87.519,103.44,86.912,103.591,86.359,103.91
			 M60.953,103.405c-0.754,0.027-1.43,0.36-1.936,0.885c-0.504,0.524-0.839,1.243-0.855,2.045c-0.017,0.802,0.298,1.535,0.845,2.063
			c0.545,0.526,1.323,0.845,2.171,0.811c0.85-0.033,1.6-0.409,2.102-0.978c0.506-0.568,0.762-1.324,0.684-2.122
			c-0.078-0.799-0.468-1.489-1.012-1.973c-0.52-0.46-1.178-0.734-1.889-0.734C61.025,103.402,60.99,103.403,60.953,103.405
			 M48.793,102.982c-0.655,0.438-1.177,1.12-1.382,1.967c-0.205,0.846-0.043,1.698,0.417,2.384c0.457,0.687,1.21,1.204,2.124,1.364
			c0.912,0.16,1.798-0.069,2.461-0.56c0.665-0.487,1.109-1.234,1.204-2.1c0.095-0.865-0.164-1.686-0.63-2.321
			c-0.468-0.635-1.144-1.089-1.946-1.229c-0.173-0.031-0.345-0.045-0.515-0.045C49.907,102.442,49.309,102.637,48.793,102.982
			 M70.88,102.196c-0.672,0.174-1.214,0.604-1.564,1.173c-0.348,0.566-0.504,1.274-0.359,1.994c0.145,0.719,0.57,1.312,1.162,1.676
			c0.589,0.363,1.342,0.495,2.091,0.301c0.749-0.192,1.345-0.674,1.685-1.276c0.34-0.604,0.426-1.33,0.205-2.028
			c-0.224-0.701-0.703-1.243-1.285-1.571c-0.397-0.225-0.844-0.348-1.301-0.348C71.304,102.116,71.091,102.142,70.88,102.196
			 M39.283,99.985c-0.676,0.269-1.277,0.784-1.622,1.509c-0.347,0.723-0.362,1.521-0.082,2.228c0.28,0.706,0.857,1.314,1.644,1.636
			c0.787,0.318,1.626,0.286,2.317-0.024c0.694-0.309,1.241-0.893,1.499-1.652c0.256-0.76,0.186-1.549-0.109-2.213
			c-0.298-0.666-0.821-1.208-1.519-1.493c-0.338-0.138-0.689-0.201-1.038-0.201C40.001,99.773,39.631,99.846,39.283,99.985
			 M80.37,98.881c-0.563,0.286-0.963,0.775-1.163,1.347c-0.198,0.572-0.197,1.23,0.072,1.839c0.271,0.606,0.766,1.047,1.359,1.254
			c0.592,0.207,1.28,0.176,1.904-0.14c0.622-0.312,1.055-0.851,1.24-1.449c0.186-0.6,0.125-1.261-0.204-1.838
			s-0.858-0.97-1.437-1.149c-0.235-0.073-0.48-0.111-0.727-0.111C81.06,98.633,80.704,98.713,80.37,98.881 M57.146,97.683
			c-0.34,0.317-0.572,0.765-0.604,1.272c-0.032,0.509,0.147,0.98,0.475,1.331c0.327,0.351,0.801,0.577,1.332,0.587
			c0.531,0.011,1.014-0.197,1.353-0.535c0.341-0.337,0.538-0.804,0.524-1.312c-0.012-0.509-0.228-0.965-0.554-1.294
			c-0.328-0.33-0.767-0.535-1.254-0.544c-0.011-0.002-0.022-0.002-0.033-0.002C57.913,97.186,57.478,97.374,57.146,97.683
			 M19.022,97.132c-0.492,0.008-0.992,0.197-1.375,0.576s-0.575,0.879-0.567,1.384c0.008,0.506,0.217,1.017,0.623,1.398
			c0.405,0.383,0.926,0.563,1.431,0.543c0.506-0.021,0.994-0.241,1.351-0.646c0.356-0.404,0.515-0.914,0.497-1.405
			c-0.021-0.494-0.22-0.973-0.599-1.329c-0.369-0.351-0.845-0.522-1.327-0.522C19.045,97.131,19.034,97.131,19.022,97.132
			 M67.068,96.639c-0.842,0.167-1.424,0.994-1.291,1.886c0.135,0.892,0.998,1.499,1.924,1.316c0.925-0.182,1.492-1.074,1.279-1.948
			c-0.19-0.771-0.871-1.282-1.606-1.282C67.273,96.61,67.17,96.619,67.068,96.639 M95.948,97.268
			c-0.654,0.595-1.011,1.402-1.069,2.254c-0.059,0.851,0.182,1.747,0.771,2.479c0.59,0.733,1.426,1.154,2.313,1.215
			c0.888,0.064,1.823-0.236,2.562-0.906s1.127-1.571,1.149-2.461c0.025-0.89-0.313-1.763-0.985-2.42s-1.541-0.983-2.395-1.009
			c-0.031-0.001-0.064-0.002-0.096-0.002C97.378,96.418,96.579,96.696,95.948,97.268 M48.389,96.15
			c-0.442,0.265-0.802,0.694-0.96,1.24c-0.156,0.545-0.075,1.104,0.2,1.564c0.273,0.46,0.741,0.818,1.319,0.954
			c0.581,0.136,1.159,0.021,1.607-0.269c0.451-0.29,0.772-0.754,0.875-1.312c0.101-0.558-0.029-1.104-0.309-1.538
			c-0.28-0.435-0.708-0.76-1.234-0.883c-0.15-0.036-0.301-0.053-0.449-0.053C49.066,95.855,48.707,95.961,48.389,96.15
			 M30.577,95.053c-0.657,0.111-1.293,0.458-1.74,1.039c-0.447,0.582-0.614,1.294-0.499,1.978c0.114,0.684,0.51,1.338,1.149,1.774
			c0.638,0.438,1.39,0.57,2.069,0.43c0.679-0.142,1.282-0.554,1.663-1.18c0.38-0.629,0.473-1.348,0.34-2
			c-0.136-0.653-0.499-1.242-1.071-1.635c-0.441-0.301-0.946-0.444-1.456-0.444C30.879,95.015,30.728,95.027,30.577,95.053
			 M75.445,94.247c-0.691,0.301-1.031,1.114-0.748,1.846c0.283,0.732,1.131,1.085,1.879,0.762c0.748-0.326,1.068-1.186,0.729-1.892
			c-0.254-0.524-0.775-0.83-1.308-0.83C75.81,94.133,75.624,94.17,75.445,94.247 M88.996,93.601
			c-0.444,0.359-0.703,0.865-0.77,1.406c-0.066,0.54,0.062,1.117,0.416,1.596c0.354,0.48,0.871,0.771,1.43,0.84
			c0.557,0.067,1.152-0.086,1.638-0.479c0.485-0.389,0.761-0.939,0.813-1.499c0.051-0.56-0.125-1.127-0.52-1.576
			c-0.395-0.445-0.931-0.692-1.472-0.742c-0.068-0.008-0.136-0.011-0.204-0.011C89.853,93.136,89.384,93.288,88.996,93.601
			 M40.205,92.779c-0.539,0.18-1.03,0.556-1.33,1.105c-0.3,0.549-0.346,1.171-0.159,1.732c0.186,0.561,0.605,1.06,1.201,1.344
			c0.597,0.284,1.248,0.297,1.801,0.089c0.553-0.208,1.008-0.636,1.246-1.214c0.238-0.579,0.223-1.197,0.022-1.729
			c-0.2-0.533-0.583-0.981-1.117-1.236c-0.3-0.144-0.617-0.21-0.934-0.21C40.688,92.66,40.441,92.701,40.205,92.779 M55.418,92.634
			c-0.062,0.566,0.362,1.078,0.949,1.121c0.587,0.045,1.084-0.396,1.107-0.964c0.024-0.571-0.402-1.05-0.951-1.092
			c-0.026-0.002-0.051-0.003-0.077-0.003C55.93,91.696,55.478,92.095,55.418,92.634 M64.033,91.649
			c-0.453,0.062-0.779,0.481-0.729,0.948s0.482,0.804,0.959,0.737c0.479-0.066,0.803-0.505,0.727-0.969
			c-0.07-0.425-0.436-0.726-0.844-0.726C64.109,91.641,64.07,91.644,64.033,91.649 M47.712,90.969
			c-0.216,0.633,0.143,1.328,0.81,1.526c0.666,0.199,1.347-0.189,1.512-0.837c0.164-0.649-0.207-1.303-0.823-1.486
			c-0.111-0.033-0.224-0.049-0.335-0.049C48.369,90.123,47.889,90.449,47.712,90.969 M71.398,90.005
			c-0.342,0.125-0.521,0.504-0.402,0.854c0.119,0.352,0.506,0.535,0.861,0.405c0.354-0.13,0.533-0.52,0.397-0.864
			c-0.106-0.271-0.362-0.436-0.631-0.436C71.547,89.965,71.472,89.978,71.398,90.005 M83.163,90.107
			c-0.524,0.377-0.658,1.118-0.287,1.674c0.37,0.555,1.136,0.693,1.697,0.292c0.562-0.403,0.674-1.174,0.267-1.701
			c-0.246-0.32-0.613-0.487-0.982-0.487C83.613,89.885,83.371,89.958,83.163,90.107 M21.332,88.971
			c-0.506,0.433-0.788,1.032-0.817,1.659c-0.031,0.626,0.193,1.279,0.672,1.787c0.479,0.507,1.117,0.771,1.743,0.777
			c0.628,0.008,1.244-0.238,1.704-0.718c0.462-0.479,0.686-1.097,0.695-1.701c0.007-0.607-0.202-1.202-0.636-1.662
			c-0.433-0.46-1.014-0.704-1.621-0.733c-0.037-0.002-0.075-0.003-0.114-0.003C22.39,88.377,21.807,88.567,21.332,88.971
			 M10.058,88.25c-0.773,0.494-0.987,1.541-0.45,2.323c0.536,0.782,1.59,0.961,2.329,0.418c0.739-0.544,0.912-1.565,0.412-2.296
			c-0.317-0.461-0.837-0.713-1.372-0.713C10.663,87.982,10.345,88.068,10.058,88.25 M32.969,87.734
			c-0.617,0.064-1.23,0.352-1.681,0.866c-0.449,0.515-0.647,1.166-0.578,1.812c0.066,0.645,0.401,1.276,0.974,1.721
			c0.573,0.444,1.269,0.609,1.909,0.514c0.641-0.096,1.224-0.447,1.611-1.013c0.386-0.564,0.51-1.229,0.42-1.843
			c-0.092-0.615-0.396-1.181-0.905-1.576c-0.433-0.335-0.95-0.496-1.476-0.496C33.15,87.719,33.06,87.724,32.969,87.734
			 M105.89,87.486c-0.768,0.144-1.467,0.557-1.938,1.218c-0.472,0.662-0.634,1.455-0.521,2.229c0.115,0.773,0.508,1.528,1.18,2.065
			c0.671,0.536,1.502,0.747,2.306,0.627c0.804-0.117,1.579-0.566,2.104-1.305c0.526-0.738,0.701-1.617,0.549-2.414
			c-0.148-0.8-0.618-1.517-1.344-1.977c-0.541-0.342-1.143-0.499-1.732-0.499C106.291,87.431,106.088,87.45,105.89,87.486
			 M40.55,87.666c-0.4,0.656-0.169,1.529,0.536,1.915c0.704,0.388,1.563,0.118,1.903-0.572c0.34-0.689,0.081-1.513-0.561-1.866
			c-0.206-0.112-0.431-0.168-0.655-0.168C41.296,86.975,40.825,87.22,40.55,87.666 M78.277,86.818
			c-0.225,0.143-0.295,0.44-0.153,0.673c0.142,0.229,0.446,0.302,0.678,0.153c0.233-0.146,0.298-0.453,0.15-0.68
			c-0.097-0.145-0.253-0.223-0.413-0.223C78.449,86.742,78.357,86.766,78.277,86.818 M97.597,85.907
			c-0.479,0.058-0.93,0.29-1.248,0.684c-0.317,0.396-0.447,0.884-0.402,1.365c0.046,0.479,0.267,0.955,0.664,1.302
			c0.397,0.348,0.9,0.498,1.396,0.452c0.494-0.046,0.979-0.291,1.323-0.72c0.346-0.427,0.48-0.952,0.421-1.445
			c-0.062-0.493-0.315-0.952-0.739-1.267c-0.354-0.264-0.768-0.387-1.173-0.387C97.757,85.892,97.676,85.897,97.597,85.907
			 M89.87,84.404c-0.36,0.396-0.337,1.02,0.062,1.4c0.397,0.381,1.036,0.358,1.416-0.062c0.381-0.418,0.34-1.059-0.078-1.417
			c-0.192-0.165-0.43-0.246-0.664-0.246C90.333,84.08,90.062,84.19,89.87,84.404 M35.374,82.385c-0.395,0.021-0.793,0.188-1.092,0.5
			c-0.3,0.316-0.441,0.723-0.419,1.13c0.02,0.408,0.206,0.816,0.548,1.113c0.341,0.299,0.771,0.427,1.178,0.394
			c0.406-0.034,0.792-0.231,1.062-0.569c0.271-0.341,0.379-0.755,0.346-1.149c-0.031-0.396-0.208-0.77-0.519-1.044
			c-0.291-0.253-0.651-0.376-1.018-0.376C35.431,82.383,35.401,82.384,35.374,82.385 M84.353,82.213
			c-0.121,0.12-0.125,0.314-0.004,0.438c0.117,0.122,0.316,0.126,0.438,0.003c0.123-0.121,0.124-0.317,0.003-0.438
			c-0.062-0.061-0.143-0.092-0.223-0.092C84.491,82.124,84.413,82.154,84.353,82.213 M25.023,81.801
			c-0.598,0.44-0.959,1.086-1.035,1.787c-0.078,0.699,0.132,1.45,0.64,2.055c0.509,0.605,1.213,0.942,1.915,0.985
			c0.703,0.045,1.402-0.199,1.937-0.712c0.538-0.514,0.818-1.192,0.862-1.862c0.043-0.673-0.15-1.339-0.597-1.871
			c-0.446-0.531-1.071-0.836-1.74-0.908c-0.103-0.013-0.207-0.018-0.312-0.018C26.119,81.257,25.529,81.428,25.023,81.801
			 M15.454,80.458c-0.524,0.285-0.881,0.761-1.023,1.304c-0.143,0.543-0.071,1.155,0.253,1.688c0.323,0.534,0.83,0.882,1.377,1.007
			c0.548,0.126,1.134,0.029,1.63-0.301c0.496-0.332,0.813-0.83,0.935-1.36c0.121-0.531,0.05-1.096-0.244-1.584
			c-0.297-0.487-0.763-0.812-1.29-0.951c-0.185-0.048-0.378-0.072-0.573-0.072C16.16,80.188,15.792,80.273,15.454,80.458
			 M4.579,77.432c-0.708,0.27-1.059,1.075-0.764,1.795c0.294,0.721,1.111,1.05,1.803,0.743c0.692-0.306,1.012-1.1,0.734-1.781
			c-0.214-0.524-0.729-0.847-1.277-0.847C4.911,77.342,4.743,77.371,4.579,77.432 M102.068,78.133
			c-0.393,0.79-0.084,1.776,0.722,2.22c0.806,0.444,1.832,0.122,2.259-0.733c0.428-0.855,0.067-1.867-0.77-2.245
			c-0.232-0.104-0.475-0.154-0.711-0.154C102.945,77.22,102.355,77.56,102.068,78.133 M95.246,77.377
			c-0.211,0.369-0.088,0.846,0.283,1.07s0.859,0.1,1.08-0.285c0.221-0.384,0.084-0.869-0.297-1.077
			c-0.121-0.067-0.254-0.099-0.383-0.099C95.654,76.986,95.39,77.127,95.246,77.377 M111.464,77.119
			c-0.656,0.277-1.197,0.778-1.49,1.459c-0.291,0.681-0.281,1.42-0.029,2.085c0.254,0.663,0.75,1.253,1.451,1.594
			c0.699,0.342,1.476,0.366,2.162,0.104c0.688-0.261,1.285-0.808,1.607-1.559c0.322-0.752,0.307-1.561,0.02-2.236
			c-0.283-0.68-0.836-1.226-1.565-1.496c-0.334-0.124-0.677-0.183-1.011-0.183C112.209,76.888,111.82,76.97,111.464,77.119
			 M29.186,76.868c-0.401,0.271-0.653,0.68-0.727,1.131c-0.072,0.45,0.034,0.941,0.34,1.347c0.303,0.407,0.743,0.649,1.196,0.705
			c0.452,0.059,0.917-0.068,1.291-0.378c0.372-0.309,0.585-0.735,0.641-1.174c0.055-0.437-0.047-0.885-0.322-1.253
			c-0.277-0.367-0.676-0.593-1.111-0.662c-0.097-0.016-0.195-0.024-0.294-0.024C29.853,76.56,29.498,76.658,29.186,76.868
			 M20.545,74.196c-0.623,0.284-1.071,0.797-1.274,1.412c-0.205,0.613-0.161,1.329,0.178,1.969c0.338,0.641,0.904,1.079,1.527,1.256
			s1.3,0.097,1.884-0.258c0.585-0.356,0.972-0.91,1.143-1.506c0.17-0.6,0.127-1.239-0.174-1.809c-0.3-0.568-0.806-0.966-1.396-1.162
			c-0.261-0.086-0.541-0.133-0.825-0.133C21.253,73.966,20.892,74.039,20.545,74.196 M11.457,70.916
			c-0.506,0.151-0.903,0.495-1.127,0.939c-0.224,0.441-0.275,0.982-0.097,1.502c0.178,0.52,0.55,0.916,0.999,1.127
			c0.449,0.212,0.974,0.24,1.466,0.05c0.492-0.191,0.861-0.561,1.068-0.998c0.207-0.437,0.251-0.94,0.086-1.419
			c-0.165-0.481-0.509-0.852-0.94-1.069c-0.271-0.137-0.577-0.214-0.893-0.214C11.833,70.834,11.644,70.86,11.457,70.916
			 M25.519,69.888c-0.497,0.194-0.868,0.575-1.053,1.045c-0.188,0.469-0.185,1.023,0.048,1.536c0.233,0.513,0.652,0.878,1.128,1.045
			c0.474,0.168,1.007,0.138,1.479-0.109c0.474-0.248,0.801-0.66,0.964-1.118c0.16-0.457,0.155-0.961-0.054-1.42
			c-0.208-0.459-0.586-0.792-1.036-0.973c-0.235-0.092-0.49-0.143-0.751-0.143C26.002,69.751,25.757,69.794,25.519,69.888
			 M99.023,69.327c-0.094,0.298,0.068,0.62,0.369,0.721c0.303,0.102,0.629-0.064,0.727-0.372c0.097-0.308-0.073-0.632-0.378-0.723
			c-0.056-0.018-0.113-0.025-0.169-0.025C99.327,68.928,99.099,69.084,99.023,69.327 M105.881,68.599
			c-0.187,0.733,0.251,1.5,1.003,1.72c0.752,0.219,1.543-0.234,1.744-1.018c0.201-0.785-0.279-1.562-1.042-1.729
			c-0.106-0.023-0.212-0.034-0.315-0.034C106.624,67.537,106.043,67.968,105.881,68.599 M17.742,65.829
			c-0.61,0.135-1.11,0.508-1.41,1.019c-0.3,0.509-0.4,1.153-0.222,1.788c0.176,0.637,0.596,1.137,1.117,1.415
			c0.521,0.281,1.141,0.343,1.733,0.143c0.593-0.202,1.049-0.62,1.319-1.121c0.269-0.501,0.355-1.085,0.196-1.655
			c-0.159-0.569-0.535-1.024-1.025-1.312c-0.355-0.208-0.771-0.33-1.206-0.33C18.079,65.774,17.911,65.791,17.742,65.829
			 M1.451,65.718c-0.591,0.091-0.992,0.652-0.886,1.255c0.106,0.601,0.677,0.99,1.262,0.873c0.585-0.116,0.967-0.675,0.866-1.251
			c-0.092-0.518-0.55-0.89-1.073-0.89C1.563,65.705,1.507,65.709,1.451,65.718 M114.777,65.773
			c-0.524,0.363-0.906,0.909-1.036,1.564c-0.128,0.657,0.022,1.307,0.368,1.842c0.348,0.534,0.897,0.956,1.578,1.12
			c0.679,0.165,1.362,0.035,1.914-0.324c0.553-0.356,0.971-0.945,1.111-1.661c0.141-0.718-0.025-1.421-0.4-1.96
			c-0.375-0.541-0.959-0.92-1.651-1.023c-0.13-0.021-0.261-0.029-0.388-0.029C115.722,65.302,115.204,65.478,114.777,65.773
			 M23.458,62.276c-0.576,0.09-1.062,0.408-1.37,0.866c-0.311,0.457-0.439,1.054-0.307,1.658c0.13,0.605,0.495,1.094,0.965,1.383
			c0.471,0.289,1.045,0.379,1.607,0.222c0.563-0.158,1.007-0.524,1.284-0.975c0.279-0.453,0.389-0.987,0.274-1.524
			c-0.116-0.536-0.441-0.979-0.879-1.275c-0.354-0.238-0.785-0.38-1.24-0.38C23.683,62.251,23.571,62.259,23.458,62.276
			 M9.536,60.751C8.619,60.82,7.935,61.65,8.045,62.6c0.11,0.95,0.967,1.602,1.875,1.458c0.909-0.143,1.535-0.965,1.433-1.843
			c-0.097-0.834-0.824-1.469-1.684-1.469C9.625,60.746,9.581,60.747,9.536,60.751 M101.009,60.612
			c-0.018,0.197,0.127,0.376,0.326,0.396c0.199,0.021,0.378-0.125,0.396-0.326c0.021-0.201-0.127-0.38-0.326-0.396
			c-0.012-0.001-0.022-0.002-0.032-0.002C101.187,60.284,101.027,60.426,101.009,60.612 M107.607,58.424
			c-0.024,0.626,0.466,1.169,1.11,1.211c0.644,0.042,1.202-0.461,1.226-1.123c0.025-0.664-0.491-1.207-1.137-1.214
			c-0.005,0-0.009,0-0.013,0C108.154,57.298,107.63,57.799,107.607,58.424 M16.742,57.061c-0.567,0.005-1.079,0.242-1.443,0.636
			c-0.363,0.393-0.575,0.941-0.54,1.536c0.034,0.595,0.307,1.115,0.713,1.464c0.406,0.35,0.942,0.526,1.507,0.465
			c0.564-0.061,1.049-0.341,1.386-0.731c0.338-0.393,0.528-0.896,0.497-1.434c-0.031-0.537-0.278-1.016-0.658-1.367
			c-0.376-0.347-0.884-0.568-1.445-0.568C16.752,57.061,16.747,57.061,16.742,57.061 M21.438,55
			c-0.435,0.413-0.708,1.02-0.708,1.694c0.001,0.673,0.276,1.279,0.712,1.691c0.434,0.415,1.024,0.64,1.656,0.598
			c0.631-0.04,1.187-0.329,1.583-0.744s0.636-0.957,0.635-1.549c0-0.594-0.241-1.134-0.637-1.549
			c-0.397-0.414-0.953-0.702-1.585-0.741c-0.048-0.003-0.096-0.006-0.143-0.006C22.374,54.395,21.839,54.616,21.438,55 M0,54.366
			c-0.018,0.442,0.327,0.811,0.763,0.821c0.436,0.01,0.798-0.329,0.815-0.759C1.597,54,1.262,53.633,0.827,53.609
			c-0.015,0-0.03-0.001-0.046-0.001C0.366,53.608,0.018,53.938,0,54.366 M117.216,53.218c-0.619,0.038-1.162,0.318-1.549,0.733
			c-0.386,0.413-0.616,0.958-0.604,1.553c0.012,0.595,0.264,1.131,0.666,1.528s0.959,0.656,1.578,0.669
			c0.618,0.012,1.185-0.232,1.594-0.646c0.408-0.414,0.658-0.999,0.646-1.643s-0.286-1.218-0.712-1.615
			c-0.395-0.368-0.919-0.584-1.486-0.584C117.306,53.214,117.261,53.215,117.216,53.218 M8.193,51.678
			c-0.08,0.807,0.512,1.5,1.293,1.55c0.781,0.051,1.454-0.521,1.528-1.274c0.072-0.753-0.476-1.443-1.254-1.546
			c-0.06-0.008-0.12-0.013-0.179-0.013C8.878,50.395,8.265,50.936,8.193,51.678 M16.186,48.566c-0.391,0.275-0.679,0.715-0.76,1.24
			c-0.082,0.525,0.059,1.031,0.348,1.412c0.289,0.383,0.725,0.643,1.231,0.698c0.505,0.055,0.986-0.098,1.356-0.377
			c0.371-0.28,0.634-0.688,0.708-1.169c0.074-0.48-0.052-0.948-0.32-1.328c-0.269-0.378-0.681-0.669-1.18-0.769
			c-0.12-0.024-0.24-0.036-0.358-0.036C16.838,48.238,16.482,48.355,16.186,48.566 M107.877,46.994
			c-0.499,0.099-0.825,0.576-0.737,1.066s0.557,0.826,1.061,0.748c0.502-0.077,0.846-0.558,0.755-1.069
			c-0.08-0.451-0.468-0.763-0.899-0.763C107.998,46.977,107.937,46.982,107.877,46.994 M22.73,47.201
			c-0.469,0.288-0.834,0.779-0.964,1.384c-0.129,0.604-0.001,1.2,0.311,1.657c0.309,0.458,0.795,0.774,1.372,0.864
			c0.576,0.089,1.134-0.062,1.573-0.358c0.438-0.296,0.761-0.74,0.876-1.276c0.115-0.536,0.004-1.071-0.275-1.522
			c-0.278-0.451-0.724-0.815-1.286-0.974c-0.184-0.05-0.369-0.074-0.551-0.074C23.412,46.901,23.047,47.005,22.73,47.201
			 M2.12,41.991c-0.069,0.269,0.094,0.543,0.362,0.609c0.267,0.065,0.538-0.097,0.606-0.359c0.068-0.265-0.09-0.536-0.357-0.608
			c-0.043-0.011-0.086-0.017-0.128-0.017C2.381,41.616,2.179,41.765,2.12,41.991 M115.238,41.255
			c-0.521,0.145-0.934,0.482-1.187,0.905c-0.252,0.424-0.347,0.934-0.226,1.439c0.119,0.507,0.436,0.918,0.855,1.182
			c0.416,0.263,0.937,0.377,1.465,0.269c0.527-0.106,0.963-0.42,1.232-0.848c0.27-0.427,0.372-0.969,0.243-1.511
			c-0.13-0.542-0.468-0.979-0.901-1.237c-0.291-0.174-0.625-0.27-0.972-0.27C115.58,41.185,115.408,41.208,115.238,41.255
			 M10.629,41.085c-0.203,0.633,0.15,1.295,0.77,1.474c0.62,0.181,1.266-0.162,1.457-0.761c0.192-0.599-0.135-1.252-0.744-1.465
			c-0.125-0.044-0.252-0.065-0.377-0.065C11.248,40.268,10.79,40.583,10.629,41.085 M25.612,39.866
			c-0.475,0.167-0.894,0.533-1.126,1.046c-0.232,0.513-0.233,1.068-0.046,1.537s0.558,0.849,1.055,1.042
			c0.499,0.193,1.025,0.171,1.476-0.008c0.45-0.181,0.827-0.514,1.036-0.974c0.208-0.46,0.211-0.963,0.049-1.421
			s-0.49-0.869-0.964-1.115c-0.275-0.144-0.571-0.215-0.864-0.215C26.02,39.759,25.811,39.795,25.612,39.866 M18.05,40.772
			c-0.338,0.88,0.111,1.835,0.966,2.119c0.855,0.286,1.77-0.145,2.08-0.946c0.309-0.803-0.081-1.736-0.907-2.098
			c-0.204-0.09-0.417-0.132-0.627-0.132C18.921,39.716,18.306,40.11,18.05,40.772 M104.828,37.109
			c-0.342,0.146-0.501,0.539-0.361,0.878c0.139,0.338,0.529,0.504,0.875,0.367c0.346-0.136,0.514-0.531,0.37-0.881
			c-0.108-0.262-0.358-0.42-0.621-0.42C105.002,37.054,104.914,37.072,104.828,37.109 M29.956,33.321
			c-0.453,0.057-0.892,0.299-1.196,0.707c-0.305,0.406-0.41,0.897-0.337,1.347c0.075,0.451,0.327,0.86,0.729,1.13
			c0.401,0.271,0.874,0.354,1.308,0.283c0.436-0.072,0.834-0.297,1.11-0.665c0.275-0.369,0.375-0.816,0.32-1.253
			c-0.057-0.438-0.27-0.865-0.644-1.173c-0.313-0.26-0.693-0.391-1.075-0.391C30.099,33.307,30.026,33.311,29.956,33.321
			 M22.521,32.543c-0.45,0.681-0.247,1.576,0.424,1.981c0.673,0.404,1.533,0.211,1.947-0.419s0.253-1.496-0.384-1.953
			c-0.242-0.175-0.522-0.258-0.8-0.258C23.252,31.895,22.799,32.119,22.521,32.543 M15.227,31.293
			c-0.26,0.451-0.101,1.02,0.345,1.263c0.447,0.245,1.002,0.089,1.252-0.342c0.248-0.431,0.104-0.99-0.331-1.254
			c-0.146-0.089-0.308-0.131-0.468-0.131C15.708,30.829,15.399,30.994,15.227,31.293 M84.304,30.63
			c-0.119,0.124-0.115,0.317,0.006,0.438s0.315,0.117,0.438-0.003c0.121-0.121,0.118-0.317-0.003-0.439
			c-0.062-0.06-0.14-0.089-0.218-0.089C84.445,30.536,84.365,30.567,84.304,30.63 M110.823,29.962
			c-0.814,0.425-1.14,1.406-0.757,2.206c0.386,0.799,1.356,1.157,2.195,0.787c0.84-0.369,1.211-1.371,0.801-2.226
			c-0.291-0.605-0.885-0.95-1.494-0.951C111.316,29.778,111.06,29.838,110.823,29.962 M99.791,28.072
			c-0.191,0.135-0.238,0.398-0.107,0.591c0.133,0.192,0.396,0.242,0.592,0.11s0.246-0.398,0.111-0.594
			c-0.084-0.121-0.217-0.185-0.353-0.185C99.95,27.995,99.865,28.02,99.791,28.072 M34.362,28.237
			c-0.341,0.297-0.527,0.705-0.547,1.112c-0.02,0.409,0.121,0.814,0.422,1.13c0.299,0.313,0.698,0.479,1.092,0.498
			c0.396,0.021,0.791-0.103,1.104-0.375c0.311-0.274,0.487-0.648,0.518-1.044c0.032-0.395-0.077-0.81-0.348-1.149
			c-0.271-0.338-0.657-0.534-1.065-0.567c-0.041-0.004-0.083-0.006-0.125-0.006C35.045,27.836,34.667,27.968,34.362,28.237
			 M78.072,25.8c-0.141,0.233-0.069,0.53,0.154,0.674c0.226,0.143,0.526,0.077,0.674-0.149c0.148-0.227,0.082-0.533-0.15-0.678
			c-0.082-0.054-0.173-0.078-0.264-0.078C78.323,25.568,78.163,25.651,78.072,25.8 M28.605,25.486
			c-0.494,0.482-0.488,1.262-0.006,1.723c0.483,0.461,1.237,0.456,1.698,0.005c0.46-0.452,0.481-1.205,0.029-1.697
			c-0.231-0.253-0.548-0.381-0.869-0.381C29.152,25.136,28.845,25.251,28.605,25.486 M41.03,23.773
			c-0.704,0.388-0.933,1.261-0.532,1.914c0.404,0.655,1.236,0.876,1.879,0.521c0.642-0.356,0.899-1.179,0.557-1.868
			c-0.234-0.473-0.712-0.748-1.217-0.748C41.487,23.593,41.251,23.651,41.03,23.773 M21.771,22.745
			c-0.255,0.28-0.23,0.709,0.049,0.956c0.279,0.245,0.702,0.222,0.947-0.049c0.248-0.271,0.231-0.694-0.041-0.949
			c-0.128-0.12-0.291-0.18-0.455-0.18C22.087,22.523,21.904,22.598,21.771,22.745 M70.937,22.443
			c-0.117,0.35,0.062,0.729,0.403,0.854s0.724-0.051,0.857-0.396c0.135-0.346-0.044-0.735-0.398-0.865
			c-0.077-0.028-0.155-0.041-0.231-0.041C71.289,21.995,71.031,22.168,70.937,22.443 M48.461,20.847
			c-0.667,0.199-1.025,0.895-0.808,1.526c0.218,0.635,0.886,0.978,1.501,0.795c0.616-0.185,0.987-0.838,0.82-1.488
			c-0.136-0.53-0.619-0.886-1.156-0.886C48.702,20.794,48.582,20.811,48.461,20.847 M63.244,20.718
			c-0.051,0.467,0.277,0.888,0.73,0.948c0.451,0.061,0.879-0.255,0.955-0.718c0.076-0.464-0.248-0.904-0.727-0.968
			c-0.04-0.007-0.08-0.009-0.119-0.009C63.654,19.972,63.29,20.29,63.244,20.718 M36.004,19.901
			c-0.478,0.302-0.611,0.929-0.304,1.386c0.307,0.458,0.917,0.587,1.37,0.301c0.453-0.286,0.598-0.893,0.317-1.366
			c-0.182-0.307-0.508-0.478-0.845-0.478C36.359,19.744,36.173,19.794,36.004,19.901 M56.306,19.572
			c-0.587,0.045-1.01,0.557-0.948,1.123c0.064,0.566,0.558,0.976,1.107,0.934c0.549-0.043,0.974-0.523,0.95-1.094
			c-0.024-0.542-0.476-0.966-1.027-0.966C56.36,19.569,56.333,19.57,56.306,19.572 M104.177,19.819
			c-0.585,0.479-0.681,1.332-0.229,1.913c0.452,0.581,1.301,0.699,1.911,0.251c0.611-0.447,0.731-1.318,0.254-1.934
			c-0.274-0.353-0.68-0.535-1.086-0.535C104.728,19.515,104.426,19.614,104.177,19.819 M44.378,16.023
			c-0.417,0.151-0.625,0.609-0.467,1.015c0.157,0.405,0.607,0.606,1.006,0.463c0.399-0.146,0.611-0.591,0.472-1.001
			c-0.11-0.323-0.412-0.526-0.738-0.526C44.561,15.974,44.469,15.99,44.378,16.023 M29.942,15.82
			c-0.193,0.138-0.236,0.404-0.098,0.595c0.139,0.191,0.404,0.234,0.594,0.098c0.189-0.135,0.235-0.398,0.099-0.593
			c-0.082-0.117-0.213-0.18-0.346-0.18C30.105,15.74,30.019,15.766,29.942,15.82 M53.342,14.026c-0.32,0.043-0.54,0.336-0.493,0.649
			c0.048,0.314,0.337,0.53,0.647,0.488c0.31-0.041,0.53-0.327,0.493-0.643c-0.035-0.288-0.28-0.502-0.567-0.502
			C53.396,14.02,53.37,14.022,53.342,14.026 M62.088,14.316c-0.013,0.2,0.136,0.374,0.334,0.389
			c0.198,0.016,0.374-0.132,0.392-0.332c0.017-0.2-0.133-0.376-0.334-0.392c-0.01-0.001-0.02-0.001-0.028-0.001
			C62.261,13.98,62.101,14.126,62.088,14.316 M95.583,11.266c-0.373,0.467-0.308,1.141,0.142,1.515
			c0.446,0.374,1.121,0.321,1.514-0.128c0.394-0.448,0.341-1.138-0.129-1.529c-0.203-0.172-0.451-0.255-0.696-0.255
			C96.099,10.868,95.791,11.004,95.583,11.266 M85.396,4.688c-0.196,0.39-0.045,0.861,0.336,1.061s0.855,0.054,1.063-0.328
			c0.208-0.384,0.062-0.866-0.331-1.071c-0.119-0.062-0.244-0.091-0.369-0.091C85.808,4.259,85.533,4.416,85.396,4.688
			 M74.066,0.368c-0.071,0.267,0.084,0.54,0.349,0.613c0.263,0.071,0.537-0.081,0.612-0.347c0.076-0.265-0.079-0.542-0.348-0.616
			C74.634,0.006,74.589,0,74.544,0C74.324,0,74.124,0.147,74.066,0.368"/>
	</defs>
	<clipPath id="SVGID_2_">
		<use xlink:href="#SVGID_1_"  overflow="visible"/>
	</clipPath>
	
		<linearGradient id="SVGID_3_" gradientUnits="userSpaceOnUse" x1="-511.9858" y1="385.7129" x2="-510.9858" y2="385.7129" gradientTransform="matrix(119.5485 0 0 -119.5485 61207.1094 46170.3984)">
		<stop  offset="0" style="stop-color:#C8DA33"/>
		<stop  offset="0.3333" style="stop-color:#3DB54A"/>
		<stop  offset="0.6667" style="stop-color:#019C86"/>
		<stop  offset="1" style="stop-color:#493391"/>
	</linearGradient>
	<rect x="-0.018" clip-path="url(#SVGID_2_)" fill="url(#SVGID_3_)" width="119.578" height="117.867"/>
</g>
</svg>
