<?xml version="1.0" encoding="UTF-8" standalone="no"?>
<!-- Generator: Adobe Illustrator 24.2.1, SVG Export Plug-In . SVG Version: 6.00 Build 0)  -->

<svg
   xmlns:dc="http://purl.org/dc/elements/1.1/"
   xmlns:cc="http://creativecommons.org/ns#"
   xmlns:rdf="http://www.w3.org/1999/02/22-rdf-syntax-ns#"
   xmlns:svg="http://www.w3.org/2000/svg"
   xmlns="http://www.w3.org/2000/svg"
   xmlns:sodipodi="http://sodipodi.sourceforge.net/DTD/sodipodi-0.dtd"
   xmlns:inkscape="http://www.inkscape.org/namespaces/inkscape"
   version="1.1"
   id="Layer_1"
   x="0px"
   y="0px"
   viewBox="0 0 24 24"
   style="enable-background:new 0 0 24 24;"
   xml:space="preserve"
   sodipodi:docname="knowledge-center-2-white.svg"
   inkscape:version="0.92.3 (2405546, 2018-03-11)"><metadata
   id="metadata78"><rdf:RDF><cc:Work
       rdf:about=""><dc:format>image/svg+xml</dc:format><dc:type
         rdf:resource="http://purl.org/dc/dcmitype/StillImage" /><dc:title></dc:title></cc:Work></rdf:RDF></metadata><defs
   id="defs76" /><sodipodi:namedview
   pagecolor="#ffffff"
   bordercolor="#666666"
   borderopacity="1"
   objecttolerance="10"
   gridtolerance="10"
   guidetolerance="10"
   inkscape:pageopacity="0"
   inkscape:pageshadow="2"
   inkscape:window-width="1920"
   inkscape:window-height="1018"
   id="namedview74"
   showgrid="false"
   inkscape:zoom="35.375"
   inkscape:cx="12"
   inkscape:cy="12"
   inkscape:window-x="-8"
   inkscape:window-y="-8"
   inkscape:window-maximized="1"
   inkscape:current-layer="Layer_1" />
<style
   type="text/css"
   id="style69">
	.st0{fill:#1D1F20;}
</style>
<path
   class="st0"
   d="M12,0.1c-5.2,0-9.5,4.1-9.5,9.2c0,3,1.5,5.8,4.1,7.5C6.9,17,7,17.3,7,17.6v4.8c0,0.8,0.7,1.5,1.5,1.5h6.9  c0.8,0,1.5-0.7,1.5-1.5v-4.8c0-0.3,0.2-0.7,0.5-0.9c2.5-1.7,4-4.5,4-7.5C21.5,4.2,17.2,0.1,12,0.1z M10,20.9v-1.1H14v1.1H10z   M15.8,14.3c-1,0.7-1.7,1.8-1.8,3.1h-0.7v-4.9h0.5c0.7,0,1.2-0.6,1.2-1.2S14.4,10,13.7,10h-3.4C9.6,10,9,10.5,9,11.2  s0.6,1.2,1.2,1.2h0.5v4.9H10c-0.1-1.2-0.7-2.4-1.8-3.1c-1.7-1.2-2.7-3-2.7-5c0-3.4,2.9-6.2,6.5-6.2c3.6,0,6.5,2.8,6.5,6.2  C18.5,11.2,17.5,13.1,15.8,14.3z"
   id="path71"
   style="fill:#ffffff" />
</svg>