<?xml version="1.0" encoding="UTF-8" standalone="no"?>
<svg
   xmlns:dc="http://purl.org/dc/elements/1.1/"
   xmlns:cc="http://creativecommons.org/ns#"
   xmlns:rdf="http://www.w3.org/1999/02/22-rdf-syntax-ns#"
   xmlns:svg="http://www.w3.org/2000/svg"
   xmlns="http://www.w3.org/2000/svg"
   xmlns:sodipodi="http://sodipodi.sourceforge.net/DTD/sodipodi-0.dtd"
   xmlns:inkscape="http://www.inkscape.org/namespaces/inkscape"
   width="226"
   height="226"
   viewBox="0 0 226 226"
   version="1.1"
   xml:space="preserve"
   style="clip-rule:evenodd;fill-rule:evenodd;stroke-linejoin:round;stroke-miterlimit:2"
   id="svg8"
   sodipodi:docname="linked-in-logo-small.svg"
   inkscape:version="1.0.2 (e86c870879, 2021-01-15)"><metadata
   id="metadata14"><rdf:RDF><cc:Work
       rdf:about=""><dc:format>image/svg+xml</dc:format><dc:type
         rdf:resource="http://purl.org/dc/dcmitype/StillImage" /><dc:title></dc:title></cc:Work></rdf:RDF></metadata><defs
   id="defs12" /><sodipodi:namedview
   pagecolor="#ffffff"
   bordercolor="#666666"
   borderopacity="1"
   objecttolerance="10"
   gridtolerance="10"
   guidetolerance="10"
   inkscape:pageopacity="0"
   inkscape:pageshadow="2"
   inkscape:window-width="1920"
   inkscape:window-height="1017"
   id="namedview10"
   showgrid="false"
   inkscape:zoom="2.3982684"
   inkscape:cx="147.1392"
   inkscape:cy="129.40881"
   inkscape:window-x="-8"
   inkscape:window-y="-8"
   inkscape:window-maximized="1"
   inkscape:current-layer="g6" />
    <g
   transform="translate(-138.462,-287.425)"
   id="g6">
        
        <path
   d="m 331.31914,479.58788 h -33.127 v -51.878 c 0,-12.371 -0.221,-28.296 -17.229,-28.296 -17.254,0 -19.894,13.478 -19.894,27.395 v 52.775 h -33.126 v -106.682 h 31.801 v 14.579 h 0.446 c 6.475,-11.071 18.559,-17.708 31.377,-17.232 33.575,0 39.766,22.084 39.766,50.815 z m -140.754,-121.269 h -0.004 c -10.546,0 -19.224,-8.677 -19.224,-19.223 0,-10.546 8.678,-19.224 19.224,-19.224 10.545,0 19.222,8.676 19.224,19.22 v 0.004 c 0,10.544 -8.676,19.222 -19.22,19.223 m 16.563,121.269 h -33.161 v -106.686 h 33.161 z m 140.705,-190.479 h -190.513 c -8.943,-0.101 -16.388,7.171 -16.497,16.114 v 191.304 c 0.105,8.948 7.549,16.228 16.497,16.132 h 190.513 c 8.97,0.113 16.44,-7.166 16.56,-16.132 v -191.317 c -0.12,-8.962 -7.6,-16.233 -16.56,-16.115"
   style="fill:#000000;fill-rule:nonzero;fill-opacity:1"
   id="path4"
   sodipodi:nodetypes="ccsssccccccccccsssssccccccccccccccc" />
    </g>
</svg>
