<?xml version="1.0" encoding="UTF-8" standalone="no"?>
<svg
   xmlns:dc="http://purl.org/dc/elements/1.1/"
   xmlns:cc="http://creativecommons.org/ns#"
   xmlns:rdf="http://www.w3.org/1999/02/22-rdf-syntax-ns#"
   xmlns:svg="http://www.w3.org/2000/svg"
   xmlns="http://www.w3.org/2000/svg"
   xmlns:sodipodi="http://sodipodi.sourceforge.net/DTD/sodipodi-0.dtd"
   xmlns:inkscape="http://www.inkscape.org/namespaces/inkscape"
   id="Layer_1"
   data-name="Layer 1"
   viewBox="0 0 24 24"
   version="1.1"
   sodipodi:docname="outbound-link-white.svg"
   inkscape:version="0.92.3 (2405546, 2018-03-11)">
  <metadata
     id="metadata178">
    <rdf:RDF>
      <cc:Work
         rdf:about="">
        <dc:format>image/svg+xml</dc:format>
        <dc:type
           rdf:resource="http://purl.org/dc/dcmitype/StillImage" />
        <dc:title></dc:title>
      </cc:Work>
    </rdf:RDF>
  </metadata>
  <defs
     id="defs176" />
  <sodipodi:namedview
     pagecolor="#ffffff"
     bordercolor="#666666"
     borderopacity="1"
     objecttolerance="10"
     gridtolerance="10"
     guidetolerance="10"
     inkscape:pageopacity="0"
     inkscape:pageshadow="2"
     inkscape:window-width="690"
     inkscape:window-height="480"
     id="namedview174"
     showgrid="false"
     inkscape:zoom="9.8333333"
     inkscape:cx="12"
     inkscape:cy="12"
     inkscape:window-x="0"
     inkscape:window-y="0"
     inkscape:window-maximized="0"
     inkscape:current-layer="Layer_1" />
  <path
     d="M18.62,14a1.37,1.37,0,0,0-1.37,1.38v1.91H6.76V6.75h2A1.38,1.38,0,0,0,8.73,4H5.39A1.38,1.38,0,0,0,4,5.38V18.44c0,.06,0,.11,0,.17A1.37,1.37,0,0,0,5.38,20l13.24,0h0a1.38,1.38,0,0,0,1-.41,1.36,1.36,0,0,0,.41-1V15.33A1.38,1.38,0,0,0,18.62,14Z"
     id="path169"
     style="fill:#ffffff" />
  <path
     d="M19.9,4.88v0a1.37,1.37,0,0,0-.3-.45h0a1.37,1.37,0,0,0-.45-.3h0A1.33,1.33,0,0,0,18.63,4h-5.1a1.38,1.38,0,1,0,0,2.75H15.3L9.62,12.44a1.37,1.37,0,0,0,1.94,1.94L17.25,8.7v1.77a1.38,1.38,0,1,0,2.75,0V5.38A1.35,1.35,0,0,0,19.9,4.88Z"
     id="path171"
     style="fill:#ffffff" />
</svg>
