<svg id="Layer_1" data-name="Layer 1" xmlns="http://www.w3.org/2000/svg" viewBox="0 0 24 24"><path d="M18.62,14a1.37,1.37,0,0,0-1.37,1.38v1.91H6.76V6.75h2A1.38,1.38,0,0,0,8.73,4H5.39A1.38,1.38,0,0,0,4,5.38V18.44c0,.06,0,.11,0,.17A1.37,1.37,0,0,0,5.38,20l13.24,0h0a1.38,1.38,0,0,0,1-.41,1.36,1.36,0,0,0,.41-1V15.33A1.38,1.38,0,0,0,18.62,14Z"/><path d="M19.9,4.88v0a1.37,1.37,0,0,0-.3-.45h0a1.37,1.37,0,0,0-.45-.3h0A1.33,1.33,0,0,0,18.63,4h-5.1a1.38,1.38,0,1,0,0,2.75H15.3L9.62,12.44a1.37,1.37,0,0,0,1.94,1.94L17.25,8.7v1.77a1.38,1.38,0,1,0,2.75,0V5.38A1.35,1.35,0,0,0,19.9,4.88Z"/></svg>