<?xml version="1.0" encoding="utf-8"?>
<!-- Generator: Adobe Illustrator 16.0.0, SVG Export Plug-In . SVG Version: 6.00 Build 0)  -->
<!DOCTYPE svg PUBLIC "-//W3C//DTD SVG 1.1//EN" "http://www.w3.org/Graphics/SVG/1.1/DTD/svg11.dtd">
<svg version="1.1" id="Layer_1" xmlns="http://www.w3.org/2000/svg" xmlns:xlink="http://www.w3.org/1999/xlink" x="0px" y="0px"
	 width="378.818px" height="74.227px" viewBox="0 0 378.818 74.227" enable-background="new 0 0 378.818 74.227"
	 xml:space="preserve">
<g>
	<defs>
		<path id="SVGID_1_" d="M231.447,72.941c-0.201,0.688,0.204,1.251,0.903,1.25c0.696-0.003,1.423-0.565,1.624-1.247
			c0.203-0.684-0.197-1.232-0.896-1.237c-0.002,0-0.004,0-0.005,0C232.374,71.707,231.646,72.253,231.447,72.941 M239.295,71.627
			c-0.69,0.022-1.422,0.578-1.626,1.251c-0.204,0.675,0.189,1.202,0.878,1.174c0.688-0.029,1.413-0.599,1.619-1.266
			c0.204-0.652-0.165-1.16-0.826-1.16C239.325,71.626,239.311,71.626,239.295,71.627 M225.096,72.768
			c-0.202,0.733,0.229,1.354,0.965,1.379c0.733,0.024,1.495-0.551,1.699-1.277c0.207-0.727-0.223-1.334-0.959-1.366
			c-0.019-0.001-0.036-0.001-0.055-0.001C226.026,71.502,225.293,72.053,225.096,72.768 M218.491,72.355
			c-0.232,0.875,0.287,1.638,1.157,1.697c0.87,0.059,1.761-0.605,1.998-1.472c0.234-0.867-0.279-1.615-1.151-1.682
			c-0.041-0.003-0.082-0.004-0.123-0.004C219.54,70.896,218.715,71.522,218.491,72.355 M245.613,70.757
			c-1,0.074-2.066,0.896-2.375,1.858c-0.311,0.965,0.252,1.69,1.248,1.604c0.995-0.087,2.051-0.938,2.366-1.887
			c0.299-0.906-0.192-1.58-1.108-1.58C245.701,70.753,245.658,70.754,245.613,70.757 M251.653,70.286
			c-0.941,0.106-1.953,0.902-2.257,1.793c-0.301,0.896,0.215,1.534,1.15,1.411c0.938-0.119,1.938-0.944,2.248-1.822
			c0.284-0.811-0.128-1.394-0.937-1.394C251.792,70.274,251.725,70.278,251.653,70.286 M211.99,71.736
			c-0.234,0.92,0.312,1.745,1.223,1.835c0.909,0.089,1.836-0.584,2.076-1.495c0.235-0.912-0.307-1.721-1.217-1.819
			c-0.06-0.007-0.121-0.01-0.181-0.01C213.038,70.247,212.211,70.879,211.99,71.736 M257.62,69.542
			c-0.895,0.14-1.862,0.915-2.164,1.744c-0.298,0.834,0.181,1.392,1.07,1.236c0.887-0.154,1.845-0.954,2.153-1.771
			c0.27-0.728-0.075-1.231-0.786-1.231C257.808,69.521,257.717,69.527,257.62,69.542 M205.531,70.933
			c-0.224,0.9,0.316,1.729,1.206,1.844c0.889,0.113,1.791-0.525,2.017-1.419c0.227-0.896-0.311-1.709-1.201-1.831
			c-0.073-0.011-0.146-0.016-0.22-0.016C206.518,69.511,205.737,70.106,205.531,70.933 M263.357,68.918
			c-0.612,0.126-1.283,0.673-1.498,1.228c-0.215,0.556,0.105,0.902,0.715,0.771c0.608-0.135,1.278-0.692,1.494-1.241
			c0.186-0.47-0.021-0.782-0.47-0.782C263.524,68.893,263.443,68.901,263.357,68.918 M198.826,69.917
			c-0.238,0.982,0.356,1.907,1.325,2.057c0.968,0.149,1.944-0.526,2.185-1.504c0.239-0.976-0.35-1.885-1.318-2.041
			c-0.096-0.015-0.19-0.022-0.285-0.022C199.862,68.406,199.042,69.033,198.826,69.917 M269.152,67.666
			c-0.551,0.137-1.163,0.642-1.364,1.129c-0.203,0.488,0.08,0.772,0.627,0.624c0.548-0.144,1.158-0.659,1.361-1.14
			c0.171-0.396,0.01-0.649-0.36-0.649C269.337,67.63,269.249,67.641,269.152,67.666 M192.137,68.742
			c-0.242,1.021,0.378,2.001,1.386,2.183c1.006,0.18,2.019-0.506,2.263-1.521c0.244-1.018-0.372-1.985-1.381-2.168
			c-0.113-0.021-0.225-0.031-0.337-0.031C193.179,67.204,192.354,67.835,192.137,68.742 M274.785,66.335
			c-0.368,0.11-0.783,0.458-0.923,0.774c-0.145,0.314,0.042,0.482,0.408,0.367s0.778-0.467,0.921-0.779
			c0.112-0.245,0.023-0.397-0.196-0.397C274.935,66.3,274.864,66.312,274.785,66.335 M238.431,66.899
			c-0.203,0.648,0.183,1.175,0.859,1.169c0.677-0.011,1.39-0.54,1.596-1.183c0.206-0.641-0.177-1.154-0.855-1.155
			C239.352,65.73,238.637,66.251,238.431,66.899 M246.223,65.66c-0.644,0.023-1.327,0.53-1.529,1.134
			c-0.2,0.605,0.159,1.074,0.799,1.044c0.639-0.031,1.323-0.545,1.523-1.143c0.197-0.584-0.135-1.035-0.747-1.035
			C246.253,65.66,246.237,65.66,246.223,65.66 M220.261,65.973c-0.056,0.204,0.067,0.386,0.274,0.406
			c0.207,0.02,0.419-0.132,0.478-0.335c0.054-0.205-0.068-0.385-0.274-0.405c-0.012-0.001-0.025-0.002-0.037-0.002
			C220.506,65.637,220.313,65.781,220.261,65.973 M217.611,65.701c-0.012,0.049,0.017,0.094,0.066,0.099
			c0.05,0.006,0.1-0.029,0.112-0.079c0.014-0.05-0.016-0.094-0.063-0.098c-0.004-0.001-0.007-0.001-0.012-0.001
			C217.669,65.622,217.624,65.655,217.611,65.701 M185.112,67.355c-0.284,1.214,0.459,2.399,1.661,2.641
			c1.2,0.238,2.4-0.556,2.687-1.765c0.285-1.21-0.454-2.379-1.653-2.624c-0.148-0.03-0.297-0.044-0.443-0.044
			C186.32,65.563,185.363,66.292,185.112,67.355 M252.42,65.123c-0.746,0.059-1.552,0.656-1.796,1.346
			c-0.243,0.692,0.168,1.206,0.912,1.14c0.743-0.067,1.543-0.682,1.788-1.363c0.233-0.646-0.117-1.126-0.79-1.126
			C252.497,65.119,252.459,65.12,252.42,65.123 M211.068,64.904c-0.019,0.068,0.024,0.133,0.094,0.143
			c0.07,0.009,0.142-0.04,0.16-0.108c0.018-0.07-0.023-0.135-0.095-0.144c-0.006-0.001-0.013-0.002-0.019-0.002
			C211.146,64.793,211.083,64.839,211.068,64.904 M258.458,64.597c-0.702,0.083-1.463,0.657-1.702,1.291
			c-0.238,0.637,0.137,1.082,0.836,0.991c0.696-0.093,1.455-0.682,1.696-1.308c0.222-0.574-0.073-0.985-0.664-0.985
			C258.571,64.586,258.517,64.59,258.458,64.597 M280.422,64.553c-0.303,0.108-0.647,0.397-0.77,0.649
			c-0.121,0.251,0.025,0.368,0.328,0.259c0.301-0.111,0.642-0.404,0.766-0.653c0.091-0.185,0.034-0.296-0.124-0.296
			C280.567,64.512,280.499,64.525,280.422,64.553 M178.172,65.853c-0.31,1.333,0.512,2.653,1.834,2.943
			c1.32,0.288,2.64-0.564,2.952-1.894c0.31-1.329-0.507-2.637-1.827-2.926c-0.178-0.039-0.355-0.059-0.53-0.059
			C179.47,63.918,178.44,64.7,178.172,65.853 M264.395,63.878c-0.618,0.1-1.3,0.619-1.521,1.166
			c-0.218,0.549,0.106,0.909,0.723,0.802c0.616-0.108,1.292-0.64,1.516-1.179c0.196-0.477-0.031-0.807-0.513-0.807
			C264.534,63.86,264.467,63.866,264.395,63.878 M212.658,65.114c-0.214,0.824,0.282,1.577,1.109,1.677
			c0.826,0.097,1.668-0.491,1.887-1.309c0.218-0.818-0.276-1.561-1.104-1.666c-0.065-0.009-0.129-0.013-0.193-0.013
			C213.595,63.804,212.857,64.354,212.658,65.114 M270.25,62.914c-0.53,0.109-1.123,0.565-1.318,1.021
			c-0.198,0.455,0.074,0.735,0.603,0.619c0.529-0.114,1.119-0.577,1.316-1.03c0.17-0.382,0.002-0.636-0.378-0.636
			C270.404,62.889,270.33,62.897,270.25,62.914 M205.812,64.139c-0.252,0.998,0.353,1.931,1.349,2.075
			c0.993,0.145,2.004-0.549,2.259-1.539c0.254-0.989-0.346-1.905-1.342-2.06c-0.093-0.014-0.187-0.021-0.279-0.021
			C206.896,62.594,206.041,63.235,205.812,64.139 M171.471,64.297c-0.299,1.291,0.502,2.588,1.79,2.892
			c1.288,0.3,2.571-0.509,2.874-1.8c0.299-1.29-0.499-2.574-1.786-2.878c-0.184-0.043-0.367-0.062-0.548-0.062
			C172.713,62.448,171.729,63.191,171.471,64.297 M286.008,62.465c-0.265,0.108-0.57,0.365-0.682,0.578s0.014,0.299,0.277,0.188
			c0.265-0.109,0.57-0.369,0.681-0.581c0.079-0.147,0.042-0.232-0.079-0.232C286.154,62.417,286.087,62.433,286.008,62.465
			 M276.074,61.595c-0.506,0.13-1.079,0.57-1.273,0.993c-0.199,0.421,0.056,0.658,0.562,0.525c0.503-0.133,1.068-0.586,1.271-1.002
			c0.158-0.337,0.025-0.553-0.301-0.553C276.256,61.559,276.17,61.571,276.074,61.595 M199.016,63.004
			c-0.272,1.111,0.402,2.171,1.51,2.359c1.103,0.184,2.219-0.567,2.495-1.671c0.274-1.104-0.397-2.147-1.502-2.343
			c-0.119-0.02-0.239-0.03-0.357-0.03C200.179,61.319,199.26,62.013,199.016,63.004 M164.738,62.651
			c-0.29,1.246,0.488,2.511,1.742,2.821c1.252,0.311,2.501-0.457,2.792-1.703c0.291-1.25-0.487-2.508-1.738-2.816
			c-0.188-0.046-0.377-0.068-0.562-0.068C165.927,60.885,164.986,61.591,164.738,62.651 M281.596,60.477
			c-0.166,0.049-0.356,0.2-0.424,0.334c-0.067,0.133,0.014,0.202,0.178,0.149c0.167-0.051,0.356-0.203,0.424-0.335
			c0.05-0.104,0.017-0.167-0.077-0.167C281.668,60.458,281.635,60.464,281.596,60.477 M291.441,60.268
			c-0.119,0.053-0.258,0.171-0.309,0.262s0.003,0.119,0.12,0.064c0.119-0.055,0.259-0.172,0.31-0.263
			c0.033-0.059,0.021-0.092-0.024-0.092C291.516,60.239,291.482,60.248,291.441,60.268 M191.941,61.669
			c-0.323,1.349,0.501,2.655,1.84,2.91c1.337,0.252,2.68-0.639,3.009-1.979c0.326-1.34-0.491-2.627-1.832-2.889
			c-0.159-0.031-0.319-0.046-0.479-0.046C193.309,59.665,192.227,60.481,191.941,61.669 M256.775,59.238
			c-0.903,0.051-1.882,0.736-2.184,1.542c-0.301,0.807,0.186,1.417,1.084,1.35c0.896-0.067,1.865-0.775,2.174-1.566
			c0.292-0.759-0.133-1.328-0.962-1.328C256.851,59.235,256.813,59.236,256.775,59.238 M157.907,60.912
			c-0.292,1.242,0.488,2.513,1.745,2.837c1.257,0.323,2.512-0.429,2.804-1.672c0.291-1.247-0.488-2.51-1.744-2.832
			c-0.195-0.049-0.392-0.073-0.585-0.073C159.087,59.172,158.155,59.865,157.907,60.912 M250.783,58.983
			c-1.219,0.021-2.525,0.925-2.917,2.034c-0.386,1.116,0.284,2,1.494,1.953c1.208-0.049,2.505-0.986,2.901-2.076
			c0.393-1.073-0.245-1.911-1.432-1.911C250.814,58.983,250.8,58.983,250.783,58.983 M262.834,58.865
			c-0.826,0.082-1.734,0.722-2.022,1.44c-0.289,0.722,0.146,1.238,0.971,1.145c0.821-0.094,1.72-0.754,2.015-1.462
			c0.271-0.656-0.079-1.131-0.795-1.131C262.948,58.857,262.893,58.86,262.834,58.865 M185.282,60.287
			c-0.312,1.326,0.503,2.628,1.82,2.905c1.315,0.271,2.635-0.583,2.951-1.904c0.313-1.32-0.496-2.606-1.812-2.886
			c-0.171-0.036-0.342-0.055-0.511-0.055C186.595,58.348,185.558,59.134,185.282,60.287 M296.845,57.735l-0.044,0.037
			c0,0-0.002,0.015,0.016,0.007l0.044-0.037c0,0-0.001-0.01-0.008-0.01C296.851,57.732,296.848,57.733,296.845,57.735
			 M269.077,57.667c-1.14,0.154-2.408,1.044-2.818,2.013c-0.416,0.97,0.175,1.628,1.305,1.446c1.131-0.183,2.381-1.114,2.805-2.056
			c0.377-0.844-0.044-1.428-0.958-1.428C269.307,57.643,269.194,57.651,269.077,57.667 M151.059,59.123
			c-0.295,1.232,0.484,2.503,1.746,2.837c1.259,0.332,2.518-0.404,2.813-1.642c0.292-1.239-0.487-2.506-1.745-2.835
			c-0.201-0.053-0.403-0.077-0.603-0.077C152.234,57.406,151.308,58.088,151.059,59.123 M178.681,58.818
			c-0.292,1.247,0.479,2.487,1.722,2.767c1.241,0.276,2.482-0.512,2.775-1.756s-0.475-2.474-1.716-2.756
			c-0.171-0.038-0.342-0.056-0.511-0.056C179.894,57.018,178.933,57.742,178.681,58.818 M275.138,56.533
			c-1.266,0.223-2.688,1.224-3.162,2.265c-0.48,1.045,0.159,1.707,1.411,1.448c1.251-0.257,2.651-1.31,3.142-2.32
			c0.419-0.865,0.021-1.438-0.904-1.438C275.476,56.487,275.312,56.502,275.138,56.533 M144.468,57.371
			c-0.264,1.08,0.424,2.196,1.536,2.497c1.116,0.296,2.23-0.338,2.495-1.423c0.261-1.086-0.427-2.202-1.538-2.496
			c-0.183-0.047-0.365-0.07-0.545-0.07C145.506,55.879,144.69,56.471,144.468,57.371 M280.865,55.693
			c-1.014,0.227-2.172,1.046-2.57,1.853c-0.402,0.81,0.096,1.278,1.102,1.027c1.007-0.251,2.148-1.106,2.558-1.892
			c0.337-0.641,0.07-1.048-0.599-1.048C281.21,55.634,281.047,55.653,280.865,55.693 M172.029,57.256
			c-0.273,1.176,0.456,2.357,1.632,2.637c1.174,0.277,2.348-0.454,2.622-1.63c0.274-1.175-0.454-2.348-1.629-2.628
			c-0.17-0.04-0.34-0.059-0.507-0.059C173.157,55.576,172.265,56.251,172.029,57.256 M208.129,57.688
			c-0.504,1.95,0.685,3.789,2.648,4.077c1.435,0.208,2.891-0.466,3.77-1.596c0.225,1.332,1.263,2.377,2.74,2.557
			c1.476,0.176,2.977-0.553,3.877-1.728c0.22,1.243,1.207,2.196,2.62,2.328c1.53,0.14,3.099-0.712,3.95-1.997
			c0.094,1.279,1.057,2.264,2.497,2.355c1.528,0.094,3.101-0.842,3.887-2.164c-0.038,1.359,0.935,2.408,2.452,2.455
			c1.561,0.044,3.186-0.972,3.954-2.337c-0.114,1.338,0.828,2.352,2.337,2.345c1.745-0.012,3.595-1.354,4.149-2.954
			c0.553-1.598-0.415-2.884-2.176-2.924c-1.523-0.032-3.123,0.909-3.881,2.223c0.123-1.375-0.849-2.443-2.424-2.53
			c-1.531-0.082-3.119,0.816-3.909,2.125c0.041-1.363-0.938-2.438-2.483-2.57c-1.457-0.121-2.95,0.655-3.774,1.854
			c-0.07-1.368-1.095-2.453-2.644-2.63c-1.427-0.16-2.884,0.512-3.769,1.625c-0.209-1.304-1.236-2.328-2.726-2.536
			c-1.491-0.206-3.009,0.479-3.91,1.646c-0.233-1.287-1.244-2.312-2.691-2.547c-0.2-0.032-0.402-0.048-0.603-0.048
			C210.254,54.718,208.583,55.94,208.129,57.688 M286.531,54.551c-0.79,0.212-1.699,0.865-2.025,1.467
			c-0.329,0.604,0.048,0.92,0.832,0.688c0.784-0.229,1.683-0.904,2.018-1.49c0.256-0.457,0.093-0.734-0.365-0.734
			C286.86,54.481,286.706,54.504,286.531,54.551 M137.874,55.613c-0.234,0.926,0.361,1.884,1.328,2.146
			c0.968,0.26,1.94-0.281,2.171-1.213c0.232-0.932-0.362-1.894-1.329-2.149c-0.16-0.042-0.32-0.063-0.479-0.063
			C138.776,54.334,138.069,54.842,137.874,55.613 M202.176,56.647c-0.401,1.599,0.575,3.13,2.18,3.404
			c1.601,0.271,3.223-0.806,3.635-2.387c0.406-1.579-0.559-3.076-2.167-3.368c-0.181-0.033-0.363-0.049-0.543-0.049
			C203.86,54.248,202.533,55.23,202.176,56.647 M251.522,55.4c-0.311,0.841,0.205,1.521,1.149,1.51
			c0.942-0.015,1.961-0.703,2.276-1.527s-0.194-1.481-1.142-1.485c-0.003,0-0.005,0-0.008,0
			C252.852,53.897,251.833,54.565,251.522,55.4 M260.014,53.854c-0.912,0.027-1.902,0.68-2.214,1.465s0.174,1.396,1.077,1.352
			c0.904-0.047,1.89-0.719,2.206-1.487c0.308-0.753-0.138-1.33-1.005-1.33C260.058,53.853,260.035,53.854,260.014,53.854
			 M245.229,55.265c-0.3,0.868,0.231,1.598,1.187,1.619c0.953,0.02,1.97-0.666,2.277-1.519c0.305-0.853-0.219-1.56-1.177-1.595
			c-0.024-0.001-0.048-0.003-0.071-0.003C246.504,53.768,245.523,54.421,245.229,55.265 M266.145,53.596
			c-0.863,0.061-1.817,0.686-2.123,1.409c-0.31,0.726,0.141,1.26,1,1.187c0.856-0.076,1.802-0.723,2.114-1.433
			c0.298-0.67-0.085-1.168-0.859-1.168C266.233,53.591,266.189,53.593,266.145,53.596 M164.806,55.487
			c-0.327,1.401,0.55,2.823,1.958,3.173c1.408,0.347,2.813-0.514,3.142-1.919c0.328-1.404-0.548-2.817-1.956-3.166
			c-0.211-0.052-0.422-0.076-0.63-0.076C166.144,53.499,165.085,54.293,164.806,55.487 M195.925,55.443
			c-0.338,1.38,0.509,2.72,1.889,2.983c1.378,0.264,2.769-0.643,3.113-2.011c0.342-1.369-0.498-2.688-1.882-2.963
			c-0.169-0.033-0.338-0.049-0.505-0.049C197.336,53.403,196.223,54.234,195.925,55.443 M238.815,54.919
			c-0.3,0.921,0.263,1.719,1.258,1.773c0.992,0.052,2.041-0.648,2.349-1.554c0.304-0.904-0.252-1.683-1.25-1.752
			c-0.045-0.003-0.091-0.004-0.136-0.004C240.077,53.383,239.103,54.041,238.815,54.919 M292.201,53.008
			c-0.667,0.213-1.442,0.771-1.731,1.256c-0.284,0.49,0.017,0.709,0.68,0.485c0.663-0.222,1.43-0.8,1.727-1.275
			c0.214-0.346,0.108-0.55-0.225-0.55C292.53,52.924,292.378,52.951,292.201,53.008 M272.318,52.863
			c-0.984,0.105-2.081,0.828-2.446,1.628c-0.364,0.802,0.134,1.362,1.11,1.237c0.976-0.131,2.064-0.875,2.437-1.658
			c0.343-0.712-0.041-1.221-0.86-1.221C272.482,52.85,272.402,52.854,272.318,52.863 M232.389,54.378
			c-0.29,0.945,0.288,1.788,1.292,1.874c1.003,0.083,2.053-0.613,2.351-1.545c0.298-0.929-0.275-1.754-1.283-1.852
			c-0.063-0.007-0.129-0.01-0.193-0.01C233.606,52.846,232.665,53.495,232.389,54.378 M131.077,53.809
			c-0.227,0.883,0.341,1.799,1.276,2.051c0.935,0.25,1.876-0.268,2.105-1.155c0.229-0.889-0.344-1.809-1.277-2.053
			c-0.155-0.04-0.311-0.061-0.463-0.061C131.956,52.591,131.272,53.073,131.077,53.809 M278.34,52.096
			c-0.973,0.144-2.07,0.867-2.448,1.631c-0.379,0.765,0.104,1.268,1.068,1.102c0.966-0.167,2.057-0.916,2.438-1.662
			c0.338-0.653,0.016-1.096-0.727-1.096C278.569,52.07,278.458,52.078,278.34,52.096 M225.829,53.645
			c-0.294,1.006,0.322,1.923,1.375,2.042c1.054,0.116,2.146-0.602,2.446-1.594c0.299-0.99-0.311-1.89-1.367-2.022
			c-0.085-0.01-0.171-0.016-0.256-0.016C227.054,52.055,226.103,52.72,225.829,53.645 M188.982,53.995
			c-0.362,1.514,0.57,3.006,2.082,3.321c1.51,0.312,3.03-0.664,3.397-2.168s-0.559-2.975-2.072-3.3
			c-0.199-0.042-0.399-0.062-0.596-0.062C190.491,51.786,189.3,52.679,188.982,53.995 M157.903,53.746
			c-0.338,1.438,0.565,2.905,2.019,3.277c1.454,0.367,2.906-0.504,3.244-1.947c0.337-1.444-0.565-2.907-2.018-3.273
			c-0.224-0.056-0.449-0.083-0.669-0.083C159.272,51.72,158.19,52.528,157.903,53.746 M297.797,51.214
			c-0.537,0.196-1.174,0.653-1.414,1.027c-0.245,0.372-0.004,0.518,0.529,0.311c0.537-0.204,1.167-0.673,1.412-1.04
			c0.17-0.249,0.112-0.391-0.115-0.391C298.105,51.121,297.967,51.151,297.797,51.214 M284.295,51.09
			c-0.961,0.185-2.062,0.908-2.451,1.634c-0.388,0.731,0.074,1.169,1.028,0.965c0.953-0.203,2.041-0.959,2.44-1.665
			c0.333-0.594,0.065-0.976-0.596-0.977C284.59,51.047,284.449,51.062,284.295,51.09 M219.153,52.724
			c-0.304,1.096,0.366,2.117,1.499,2.272c1.132,0.154,2.299-0.606,2.611-1.686c0.313-1.08-0.354-2.082-1.489-2.253
			c-0.108-0.016-0.217-0.023-0.325-0.023C220.419,51.034,219.434,51.734,219.153,52.724 M124.105,51.987
			c-0.256,0.934,0.355,1.905,1.361,2.171c1.007,0.265,2.024-0.281,2.278-1.225c0.245-0.945-0.361-1.92-1.366-2.178
			c-0.164-0.043-0.33-0.062-0.493-0.062C125.062,50.693,124.316,51.207,124.105,51.987 M182.304,52.506
			c-0.351,1.481,0.566,2.956,2.045,3.286c1.478,0.327,2.959-0.609,3.312-2.085c0.354-1.475-0.559-2.933-2.039-3.269
			c-0.205-0.046-0.41-0.069-0.611-0.069C183.751,50.369,182.606,51.23,182.304,52.506 M150.99,51.974
			c-0.349,1.472,0.578,2.977,2.076,3.367c1.499,0.387,2.996-0.498,3.346-1.975c0.35-1.48-0.58-2.985-2.076-3.367
			c-0.234-0.059-0.47-0.088-0.699-0.088C152.397,49.911,151.286,50.734,150.99,51.974 M212.479,51.65
			c-0.311,1.153,0.398,2.252,1.583,2.44c1.181,0.189,2.391-0.594,2.706-1.733c0.314-1.143-0.388-2.219-1.574-2.42
			c-0.128-0.022-0.257-0.033-0.385-0.033C213.754,49.904,212.756,50.621,212.479,51.65 M290.187,49.847
			c-0.952,0.224-2.053,0.945-2.456,1.635c-0.403,0.69,0.044,1.068,0.988,0.823c0.942-0.243,2.034-0.997,2.442-1.666
			c0.326-0.53,0.117-0.857-0.461-0.857C290.553,49.781,290.381,49.803,290.187,49.847 M303.399,49.068
			c-0.491,0.201-1.076,0.622-1.305,0.942c-0.231,0.322-0.021,0.419,0.467,0.209c0.489-0.209,1.066-0.641,1.302-0.955
			c0.146-0.199,0.116-0.307-0.048-0.307C303.72,48.958,303.578,48.994,303.399,49.068 M253.427,49.905
			c-0.244,0.634,0.153,1.167,0.888,1.184c0.732,0.016,1.525-0.482,1.771-1.107c0.247-0.624-0.146-1.144-0.882-1.169
			c-0.017-0.001-0.035-0.001-0.053-0.001C254.429,48.812,253.665,49.287,253.427,49.905 M259.545,50.026
			c-0.283,0.691,0.153,1.251,0.975,1.241c0.818-0.013,1.716-0.577,2.007-1.258c0.287-0.678-0.143-1.221-0.968-1.223
			c-0.002,0-0.004,0-0.006,0C260.73,48.787,259.829,49.334,259.545,50.026 M205.902,50.459c-0.293,1.132,0.404,2.224,1.555,2.432
			c1.15,0.207,2.32-0.542,2.618-1.66c0.296-1.122-0.394-2.198-1.548-2.417c-0.137-0.025-0.273-0.037-0.409-0.037
			C207.106,48.775,206.161,49.462,205.902,50.459 M117.042,50.195c-0.293,1.038,0.388,2.111,1.525,2.406
			c1.14,0.294,2.301-0.317,2.592-1.369c0.29-1.055-0.395-2.139-1.53-2.419c-0.183-0.046-0.366-0.066-0.548-0.066
			C118.144,48.747,117.292,49.323,117.042,50.195 M267.771,48.74c-0.788,0.025-1.659,0.557-1.944,1.197
			c-0.283,0.641,0.123,1.137,0.907,1.099c0.783-0.037,1.65-0.586,1.938-1.215c0.28-0.612-0.096-1.082-0.845-1.082
			C267.809,48.739,267.789,48.739,267.771,48.74 M175.161,50.834c-0.392,1.686,0.653,3.375,2.337,3.771
			c1.682,0.391,3.362-0.658,3.761-2.339c0.395-1.68-0.646-3.354-2.329-3.754c-0.242-0.057-0.486-0.085-0.726-0.085
			C176.784,48.427,175.5,49.393,175.161,50.834 M246.996,49.576c-0.25,0.688,0.184,1.289,0.963,1.333
			c0.779,0.04,1.615-0.482,1.867-1.164c0.253-0.679-0.175-1.266-0.959-1.319c-0.036-0.002-0.072-0.003-0.108-0.003
			C248.008,48.423,247.233,48.917,246.996,49.576 M273.953,48.391c-0.808,0.056-1.708,0.608-2.016,1.24
			c-0.307,0.635,0.103,1.104,0.907,1.035c0.802-0.071,1.696-0.64,2.008-1.261c0.289-0.587-0.049-1.019-0.77-1.019
			C274.041,48.387,273.998,48.388,273.953,48.391 M295.942,48.473c-0.851,0.238-1.851,0.894-2.228,1.481
			c-0.375,0.589,0.01,0.87,0.856,0.616c0.846-0.255,1.838-0.938,2.22-1.508c0.286-0.427,0.146-0.677-0.301-0.677
			C296.34,48.386,296.156,48.414,295.942,48.473 M144.076,50.194c-0.365,1.498,0.586,3.034,2.127,3.438
			c1.541,0.4,3.083-0.494,3.448-2.003c0.362-1.509-0.592-3.051-2.13-3.442c-0.243-0.062-0.485-0.092-0.725-0.092
			C145.526,48.095,144.386,48.932,144.076,50.194 M279.951,48.047c-0.66,0.072-1.408,0.525-1.666,1.024s0.064,0.844,0.721,0.763
			c0.655-0.082,1.398-0.551,1.66-1.039c0.239-0.443-0.003-0.758-0.545-0.758C280.067,48.037,280.011,48.04,279.951,48.047
			 M169.415,49.443c-0.258,1.103,0.431,2.215,1.535,2.483c1.104,0.269,2.207-0.409,2.466-1.512c0.256-1.102-0.429-2.21-1.532-2.479
			c-0.164-0.04-0.328-0.06-0.489-0.06C170.469,47.877,169.634,48.504,169.415,49.443 M240.357,49.032
			c-0.278,0.819,0.236,1.553,1.141,1.628c0.906,0.076,1.863-0.527,2.146-1.335c0.283-0.805-0.225-1.521-1.133-1.611
			c-0.061-0.005-0.12-0.008-0.181-0.008C241.478,47.706,240.617,48.268,240.357,49.032 M285.843,47.513
			c-0.47,0.071-1.003,0.399-1.197,0.736c-0.194,0.338,0.03,0.558,0.496,0.48c0.467-0.075,1.003-0.41,1.195-0.744
			c0.169-0.29,0.024-0.485-0.324-0.486C285.959,47.499,285.903,47.504,285.843,47.513 M199.207,49.13
			c-0.287,1.147,0.42,2.268,1.579,2.498c1.157,0.229,2.328-0.514,2.621-1.65c0.291-1.138-0.412-2.244-1.572-2.483
			c-0.147-0.03-0.296-0.045-0.441-0.045C200.388,47.449,199.459,48.132,199.207,49.13 M233.801,48.311
			c-0.282,0.881,0.266,1.685,1.222,1.792c0.953,0.104,1.952-0.522,2.239-1.39c0.283-0.866-0.258-1.656-1.213-1.773
			c-0.079-0.011-0.159-0.016-0.238-0.016C234.927,46.924,234.059,47.505,233.801,48.311 M109.973,48.474
			c-0.342,1.154,0.419,2.34,1.708,2.66c1.293,0.32,2.616-0.362,2.956-1.534c0.339-1.174-0.432-2.377-1.717-2.679
			c-0.2-0.048-0.402-0.069-0.602-0.069C111.248,46.852,110.269,47.502,109.973,48.474 M301.758,46.686
			c-0.898,0.288-1.965,0.981-2.374,1.568c-0.411,0.587-0.02,0.826,0.872,0.519c0.89-0.312,1.945-1.033,2.362-1.601
			c0.292-0.394,0.194-0.615-0.196-0.615C302.252,46.557,302.028,46.598,301.758,46.686 M308.985,46.628
			c-0.484,0.227-1.071,0.645-1.309,0.942c-0.236,0.301-0.036,0.361,0.446,0.132c0.485-0.23,1.071-0.658,1.307-0.952
			c0.139-0.171,0.13-0.259,0.002-0.26C309.34,46.49,309.188,46.536,308.985,46.628 M291.885,46.373
			c-0.564,0.105-1.221,0.504-1.459,0.893c-0.24,0.392,0.018,0.618,0.578,0.502c0.562-0.114,1.211-0.522,1.455-0.902
			c0.2-0.316,0.062-0.52-0.311-0.52C292.07,46.346,291.982,46.355,291.885,46.373 M162.599,47.757
			c-0.259,1.101,0.431,2.216,1.538,2.493c1.106,0.274,2.212-0.396,2.471-1.498c0.256-1.102-0.432-2.216-1.539-2.491
			c-0.167-0.042-0.335-0.061-0.5-0.061C163.646,46.2,162.816,46.822,162.599,47.757 M137.035,48.393
			c-0.395,1.592,0.618,3.224,2.273,3.655c1.656,0.43,3.315-0.519,3.713-2.125c0.391-1.608-0.627-3.25-2.277-3.666
			c-0.259-0.064-0.519-0.096-0.774-0.096C138.604,46.161,137.373,47.053,137.035,48.393 M192.475,47.694
			c-0.282,1.157,0.433,2.302,1.599,2.551c1.164,0.248,2.337-0.489,2.625-1.64c0.284-1.15-0.427-2.282-1.594-2.539
			c-0.158-0.034-0.316-0.051-0.472-0.051C193.634,46.016,192.721,46.693,192.475,47.694 M227.202,47.417
			c-0.28,0.93,0.297,1.8,1.289,1.936c0.991,0.134,2.023-0.511,2.311-1.429c0.284-0.918-0.287-1.771-1.283-1.918
			c-0.097-0.014-0.194-0.021-0.291-0.021C228.327,45.984,227.456,46.578,227.202,47.417 M103.635,47.013
			c-0.295,0.926,0.324,1.87,1.38,2.117c1.057,0.246,2.147-0.308,2.435-1.247c0.288-0.941-0.336-1.896-1.388-2.132
			c-0.159-0.036-0.319-0.052-0.478-0.052C104.699,45.699,103.879,46.227,103.635,47.013 M297.811,45.1
			c-0.586,0.133-1.273,0.549-1.533,0.932c-0.264,0.384,0,0.583,0.582,0.44c0.582-0.146,1.266-0.569,1.53-0.944
			c0.207-0.293,0.094-0.473-0.244-0.473C298.051,45.055,297.938,45.069,297.811,45.1 M220.657,46.382
			c-0.266,0.922,0.31,1.8,1.279,1.953c0.969,0.153,1.971-0.467,2.241-1.379c0.268-0.911-0.3-1.774-1.272-1.94
			c-0.106-0.018-0.214-0.025-0.321-0.025C221.719,44.99,220.895,45.562,220.657,46.382 M307.274,44.971
			c-0.662,0.242-1.456,0.762-1.773,1.168c-0.314,0.406-0.036,0.534,0.622,0.278c0.657-0.258,1.446-0.791,1.768-1.187
			c0.207-0.252,0.166-0.389-0.065-0.389C307.697,44.842,307.511,44.885,307.274,44.971 M185.842,46.197
			c-0.263,1.095,0.417,2.185,1.516,2.435c1.097,0.246,2.199-0.438,2.464-1.527c0.264-1.091-0.412-2.173-1.511-2.425
			c-0.155-0.037-0.312-0.054-0.464-0.054C186.914,44.626,186.068,45.26,185.842,46.197 M270.355,44.415
			c-0.383,0.002-0.812,0.242-0.952,0.542c-0.142,0.298,0.055,0.539,0.437,0.534c0.383-0.005,0.808-0.249,0.95-0.545
			c0.145-0.294-0.051-0.531-0.433-0.531C270.356,44.415,270.356,44.415,270.355,44.415 M130.143,46.663
			c-0.417,1.606,0.617,3.252,2.31,3.688c1.696,0.434,3.406-0.525,3.815-2.152c0.411-1.629-0.629-3.293-2.318-3.708
			c-0.262-0.063-0.524-0.095-0.783-0.095C131.764,44.396,130.493,45.303,130.143,46.663 M96.98,45.581
			c-0.292,0.873,0.296,1.754,1.312,1.976c1.02,0.221,2.081-0.312,2.365-1.197c0.293-0.887-0.306-1.784-1.32-1.992
			c-0.145-0.03-0.291-0.044-0.436-0.044C98.037,44.323,97.227,44.832,96.98,45.581 M263.047,44.872
			c-0.153,0.343,0.071,0.632,0.496,0.642c0.427,0.008,0.893-0.261,1.043-0.601c0.152-0.34-0.068-0.622-0.494-0.638
			c-0.01,0-0.019,0-0.027,0C263.646,44.275,263.192,44.537,263.047,44.872 M276.593,44.262c-0.399,0.014-0.848,0.267-1.001,0.565
			c-0.152,0.298,0.044,0.528,0.442,0.51c0.396-0.019,0.841-0.278,0.998-0.571c0.149-0.287-0.03-0.506-0.401-0.506
			C276.617,44.26,276.605,44.262,276.593,44.262 M256.693,44.585c-0.145,0.356,0.086,0.668,0.514,0.69
			c0.431,0.021,0.896-0.247,1.044-0.603c0.146-0.353-0.083-0.659-0.514-0.685c-0.019-0.002-0.039-0.002-0.059-0.002
			C257.267,43.986,256.834,44.244,256.693,44.585 M3.689,44.764c-1.206,0.879-2.713,2.034-3.379,2.552
			c-0.665,0.513-0.229,0.227,0.992-0.603c1.218-0.82,2.749-1.91,3.398-2.474c0.244-0.21,0.333-0.312,0.286-0.312
			C4.909,43.928,4.446,44.216,3.689,44.764 M282.767,43.891c-0.413,0.029-0.884,0.295-1.05,0.592
			c-0.167,0.297,0.033,0.512,0.444,0.478c0.412-0.036,0.883-0.303,1.049-0.597c0.156-0.273-0.008-0.477-0.366-0.477
			C282.818,43.887,282.793,43.889,282.767,43.891 M314.503,43.979c-0.456,0.232-1.016,0.627-1.247,0.891
			c-0.231,0.262-0.047,0.289,0.407,0.05c0.454-0.235,1.013-0.638,1.243-0.897c0.126-0.135,0.133-0.202,0.043-0.202
			C314.87,43.819,314.717,43.872,314.503,43.979 M213.9,45.176c-0.276,0.999,0.345,1.963,1.384,2.151
			c1.038,0.183,2.103-0.474,2.381-1.464c0.278-0.987-0.336-1.939-1.378-2.137c-0.125-0.022-0.25-0.033-0.375-0.033
			C215,43.693,214.143,44.297,213.9,45.176 M303.573,43.732c-0.479,0.135-1.053,0.478-1.276,0.773
			c-0.224,0.297-0.015,0.428,0.463,0.291c0.479-0.138,1.049-0.492,1.275-0.781c0.165-0.211,0.101-0.334-0.135-0.334
			C303.813,43.682,303.703,43.698,303.573,43.732 M250.228,44.096c-0.151,0.397,0.101,0.752,0.565,0.789
			c0.461,0.038,0.959-0.25,1.111-0.645c0.15-0.393-0.101-0.74-0.562-0.783c-0.031-0.002-0.062-0.004-0.092-0.004
			C250.812,43.453,250.367,43.725,250.228,44.096 M154.713,45.782c-0.393,1.673,0.657,3.376,2.352,3.806
			c1.695,0.427,3.387-0.588,3.782-2.269c0.394-1.683-0.66-3.386-2.354-3.808c-0.258-0.064-0.517-0.095-0.77-0.095
			C156.315,43.417,155.051,44.363,154.713,45.782 M288.898,43.268c-0.456,0.051-0.98,0.342-1.17,0.654
			c-0.191,0.312,0.021,0.525,0.476,0.469s0.975-0.354,1.168-0.662c0.173-0.276,0.021-0.469-0.341-0.469
			C288.989,43.26,288.945,43.262,288.898,43.268 M179.054,44.602c-0.261,1.101,0.424,2.203,1.525,2.465
			c1.103,0.259,2.205-0.422,2.468-1.52c0.261-1.096-0.42-2.193-1.523-2.458c-0.16-0.038-0.321-0.056-0.479-0.056
			C180.116,43.033,179.276,43.663,179.054,44.602 M123.479,45.04c-0.404,1.512,0.57,3.054,2.186,3.458
			c1.618,0.403,3.255-0.505,3.655-2.038c0.398-1.537-0.584-3.098-2.194-3.479c-0.244-0.059-0.488-0.086-0.729-0.086
			C125.05,42.895,123.825,43.756,123.479,45.04 M243.679,43.417c-0.159,0.444,0.124,0.853,0.632,0.908
			c0.506,0.056,1.047-0.259,1.206-0.7c0.16-0.439-0.122-0.843-0.63-0.902c-0.042-0.006-0.085-0.008-0.127-0.008
			C244.29,42.715,243.823,43.008,243.679,43.417 M89.86,44.186c-0.377,1.056,0.341,2.104,1.606,2.361
			c1.269,0.252,2.6-0.401,2.966-1.482c0.369-1.082-0.358-2.156-1.617-2.389c-0.164-0.029-0.329-0.045-0.492-0.045
			C91.229,42.631,90.189,43.268,89.86,44.186 M312.912,42.783c-0.63,0.259-1.399,0.755-1.71,1.117
			c-0.314,0.359-0.054,0.445,0.57,0.169c0.628-0.272,1.386-0.787,1.707-1.134c0.184-0.205,0.173-0.312,0.005-0.312
			C313.366,42.623,313.172,42.676,312.912,42.783 M294.936,42.477c-0.451,0.068-0.979,0.358-1.175,0.652
			c-0.196,0.295,0.009,0.475,0.459,0.402c0.447-0.075,0.974-0.367,1.17-0.657c0.171-0.247,0.046-0.411-0.275-0.411
			C295.061,42.463,295,42.469,294.936,42.477 M207.078,43.835c-0.287,1.086,0.387,2.147,1.505,2.368
			c1.116,0.217,2.254-0.482,2.545-1.559c0.29-1.074-0.379-2.123-1.499-2.353c-0.145-0.03-0.291-0.044-0.435-0.044
			C208.226,42.248,207.328,42.891,207.078,43.835 M309.217,42.191c-0.31,0.097-0.682,0.32-0.829,0.498
			c-0.153,0.175-0.021,0.242,0.284,0.141c0.309-0.102,0.68-0.328,0.83-0.504c0.102-0.118,0.076-0.182-0.044-0.182
			C309.399,42.145,309.317,42.159,309.217,42.191 M237.145,42.57c-0.154,0.458,0.137,0.887,0.647,0.957
			c0.512,0.068,1.052-0.246,1.206-0.701c0.154-0.454-0.135-0.88-0.647-0.953c-0.05-0.007-0.101-0.01-0.15-0.01
			C237.736,41.863,237.281,42.156,237.145,42.57 M117.01,43.529c-0.37,1.33,0.492,2.678,1.935,3.023
			c1.445,0.344,2.914-0.462,3.281-1.811c0.364-1.354-0.505-2.721-1.942-3.047c-0.211-0.047-0.422-0.07-0.63-0.07
			C118.441,41.625,117.331,42.393,117.01,43.529 M172.322,42.975c-0.248,1.06,0.412,2.129,1.477,2.389
			c1.062,0.258,2.125-0.393,2.376-1.452c0.247-1.06-0.411-2.126-1.476-2.388c-0.158-0.037-0.315-0.055-0.471-0.055
			C173.337,41.469,172.534,42.072,172.322,42.975 M300.91,41.459c-0.445,0.088-0.974,0.373-1.175,0.648
			c-0.204,0.275-0.007,0.429,0.438,0.338c0.443-0.09,0.968-0.387,1.174-0.654c0.164-0.22,0.069-0.355-0.207-0.355
			C301.073,41.436,300.996,41.443,300.91,41.459 M147.568,43.992c-0.441,1.836,0.718,3.704,2.59,4.181
			c1.873,0.476,3.745-0.637,4.184-2.485c0.437-1.85-0.725-3.725-2.594-4.188c-0.283-0.07-0.568-0.104-0.848-0.104
			C149.345,41.396,147.945,42.436,147.568,43.992 M83.058,43.007c-0.421,1.108,0.338,2.188,1.704,2.438
			c1.369,0.245,2.821-0.458,3.23-1.597c0.415-1.142-0.357-2.254-1.718-2.474c-0.159-0.024-0.319-0.038-0.479-0.038
			C84.595,41.336,83.43,42.027,83.058,43.007 M319.979,41.098c-0.428,0.235-0.956,0.609-1.182,0.836s-0.061,0.219,0.366-0.021
			c0.427-0.244,0.954-0.623,1.181-0.844c0.107-0.106,0.127-0.158,0.071-0.158C320.354,40.91,320.203,40.973,319.979,41.098
			 M200.347,42.411c-0.281,1.101,0.403,2.188,1.526,2.427c1.122,0.236,2.261-0.463,2.545-1.554c0.285-1.091-0.395-2.168-1.521-2.415
			c-0.154-0.033-0.308-0.049-0.46-0.049C201.475,40.82,200.59,41.462,200.347,42.411 M230.499,41.555
			c-0.155,0.498,0.159,0.975,0.705,1.061c0.545,0.085,1.116-0.247,1.274-0.743c0.159-0.495-0.154-0.966-0.7-1.058
			c-0.06-0.01-0.121-0.014-0.181-0.014C231.11,40.801,230.641,41.109,230.499,41.555 M76.717,42.064
			c-0.398,0.979,0.279,1.916,1.522,2.109c1.246,0.193,2.579-0.451,2.968-1.457c0.395-1.009-0.298-1.976-1.535-2.143
			c-0.127-0.018-0.254-0.026-0.381-0.026C78.177,40.548,77.073,41.184,76.717,42.064 M19.638,40.631
			c-0.776,0.243-1.707,0.768-2.082,1.161c-0.376,0.39-0.053,0.513,0.729,0.287c0.781-0.224,1.716-0.728,2.09-1.133
			c0.247-0.276,0.182-0.433-0.124-0.433C20.102,40.514,19.895,40.553,19.638,40.631 M110.556,42.102
			c-0.339,1.16,0.42,2.328,1.698,2.617c1.282,0.288,2.595-0.425,2.93-1.604c0.333-1.182-0.432-2.366-1.707-2.637
			c-0.18-0.039-0.359-0.058-0.536-0.058C111.855,40.421,110.851,41.102,110.556,42.102 M318.335,40.531
			c-0.419,0.191-0.936,0.525-1.151,0.747c-0.217,0.22-0.053,0.243,0.365,0.045c0.42-0.198,0.934-0.539,1.15-0.755
			c0.116-0.115,0.124-0.174,0.043-0.174C318.672,40.395,318.531,40.439,318.335,40.531 M8.958,41.088
			c-1.25,0.84-2.791,2.027-3.46,2.614c-0.668,0.582-0.197,0.385,1.067-0.401c1.26-0.783,2.826-1.9,3.479-2.531
			c0.278-0.272,0.349-0.406,0.242-0.406C10.144,40.363,9.676,40.607,8.958,41.088 M70.92,41.352
			c-0.282,0.653,0.173,1.26,1.025,1.367c0.855,0.108,1.78-0.338,2.058-1.008c0.282-0.667-0.183-1.294-1.032-1.386
			c-0.073-0.009-0.146-0.013-0.22-0.013C71.97,40.312,71.184,40.752,70.92,41.352 M306.792,40.262
			c-0.396,0.092-0.87,0.351-1.06,0.576c-0.186,0.231-0.018,0.34,0.376,0.243c0.397-0.097,0.866-0.36,1.059-0.584
			c0.142-0.169,0.082-0.271-0.125-0.271C306.975,40.227,306.891,40.238,306.792,40.262 M315.01,40.174
			c-0.367,0.133-0.817,0.396-1,0.594c-0.188,0.196-0.037,0.246,0.328,0.11c0.366-0.138,0.813-0.407,0.999-0.599
			c0.112-0.119,0.103-0.182-0.007-0.182C315.262,40.098,315.152,40.123,315.01,40.174 M11.808,40.441
			c-1.06,0.584-2.35,1.492-2.9,1.996c-0.548,0.504-0.138,0.443,0.929-0.104c1.065-0.547,2.374-1.404,2.917-1.938
			c0.261-0.267,0.294-0.399,0.138-0.399C12.726,39.996,12.35,40.145,11.808,40.441 M224.045,40.434
			c-0.125,0.416,0.138,0.818,0.586,0.898c0.448,0.079,0.912-0.191,1.038-0.605c0.128-0.414-0.136-0.814-0.586-0.897
			c-0.054-0.01-0.107-0.015-0.161-0.015C224.528,39.814,224.154,40.066,224.045,40.434 M165.506,41.299
			c-0.247,1.061,0.413,2.133,1.479,2.396c1.064,0.263,2.129-0.385,2.377-1.445c0.247-1.061-0.414-2.133-1.479-2.396
			c-0.16-0.039-0.32-0.058-0.478-0.058C166.517,39.796,165.717,40.396,165.506,41.299 M140.753,42.309
			c-0.444,1.816,0.708,3.664,2.577,4.137c1.871,0.469,3.746-0.631,4.189-2.465c0.438-1.838-0.718-3.697-2.584-4.152
			c-0.28-0.068-0.562-0.102-0.836-0.102C142.54,39.727,141.134,40.764,140.753,42.309 M64.45,40.736
			c-0.306,0.643,0.154,1.227,1.028,1.311c0.875,0.082,1.834-0.374,2.129-1.037c0.304-0.662-0.165-1.264-1.035-1.332
			c-0.057-0.004-0.114-0.007-0.172-0.007C65.582,39.671,64.732,40.129,64.45,40.736 M41.712,39.373
			c-0.921,0.066-1.975,0.596-2.355,1.169c-0.382,0.571,0.054,0.981,0.98,0.938c0.929-0.045,1.989-0.549,2.367-1.139
			c0.348-0.557-0.014-0.975-0.812-0.975C41.834,39.366,41.774,39.369,41.712,39.373 M193.509,40.879
			c-0.287,1.155,0.432,2.305,1.602,2.567c1.17,0.26,2.349-0.462,2.639-1.607c0.289-1.146-0.425-2.286-1.597-2.557
			c-0.167-0.038-0.335-0.056-0.499-0.056C194.659,39.227,193.753,39.891,193.509,40.879 M57.984,40.333
			c-0.34,0.659,0.138,1.233,1.071,1.295c0.933,0.06,1.962-0.434,2.297-1.114c0.331-0.683-0.152-1.279-1.08-1.319
			c-0.033-0.001-0.067-0.003-0.101-0.003C59.272,39.191,58.31,39.691,57.984,40.333 M103.938,40.739
			c-0.339,1.096,0.383,2.182,1.614,2.444c1.232,0.256,2.502-0.428,2.835-1.541c0.33-1.119-0.396-2.226-1.622-2.465
			c-0.162-0.031-0.324-0.047-0.484-0.047C105.223,39.13,104.232,39.786,103.938,40.739 M47.876,38.98
			c-0.998,0.033-2.128,0.6-2.523,1.254c-0.398,0.65,0.089,1.158,1.095,1.15c1.007-0.01,2.145-0.547,2.535-1.221
			c0.383-0.657-0.08-1.184-1.026-1.184C47.931,38.98,47.903,38.98,47.876,38.98 M51.543,40.163c-0.385,0.69,0.121,1.26,1.139,1.29
			c1.02,0.031,2.161-0.507,2.537-1.223c0.382-0.715-0.14-1.314-1.15-1.323c-0.005,0-0.01,0-0.014,0
			C53.047,38.907,51.929,39.475,51.543,40.163 M25.495,38.837c-0.935,0.249-2.039,0.878-2.479,1.382
			c-0.433,0.508-0.032,0.713,0.911,0.494c0.942-0.223,2.06-0.816,2.49-1.343c0.317-0.392,0.176-0.629-0.295-0.629
			C25.953,38.741,25.742,38.771,25.495,38.837 M312.657,38.783c-0.394,0.107-0.872,0.361-1.062,0.572
			c-0.194,0.211-0.033,0.293,0.36,0.183c0.392-0.112,0.866-0.372,1.062-0.579c0.135-0.143,0.099-0.223-0.069-0.223
			C312.874,38.736,312.776,38.751,312.657,38.783 M217.397,39.157c-0.116,0.405,0.14,0.804,0.571,0.889
			c0.429,0.084,0.874-0.175,0.99-0.577c0.116-0.406-0.139-0.802-0.569-0.889c-0.057-0.011-0.112-0.016-0.168-0.016
			C217.849,38.564,217.498,38.805,217.397,39.157 M134.353,40.762c-0.396,1.588,0.61,3.19,2.256,3.598
			c1.65,0.404,3.305-0.557,3.7-2.16c0.39-1.605-0.62-3.227-2.265-3.616c-0.241-0.058-0.484-0.084-0.724-0.085
			C135.942,38.498,134.692,39.409,134.353,40.762 M158.873,39.659c-0.224,0.955,0.373,1.921,1.335,2.16
			c0.961,0.237,1.92-0.343,2.146-1.298c0.223-0.957-0.374-1.924-1.335-2.162c-0.146-0.035-0.29-0.053-0.433-0.053
			C159.784,38.307,159.063,38.85,158.873,39.659 M320.703,37.992c-0.367,0.148-0.816,0.41-1.005,0.589
			c-0.19,0.179-0.049,0.204,0.315,0.054c0.362-0.154,0.812-0.42,1.004-0.595c0.105-0.096,0.109-0.144,0.031-0.144
			C320.985,37.896,320.866,37.927,320.703,37.992 M323.815,37.922c-0.322,0.165-0.726,0.422-0.898,0.576
			c-0.174,0.155-0.051,0.148,0.273-0.018c0.323-0.166,0.723-0.425,0.896-0.58c0.081-0.073,0.099-0.109,0.058-0.109
			C324.1,37.792,323.985,37.836,323.815,37.922 M325.429,37.98c-0.41,0.241-0.921,0.598-1.144,0.797
			c-0.221,0.197-0.07,0.162,0.337-0.086c0.41-0.248,0.918-0.611,1.142-0.805c0.095-0.081,0.123-0.121,0.092-0.121
			C325.814,37.765,325.664,37.839,325.429,37.98 M97.018,39.447c-0.396,1.195,0.4,2.369,1.774,2.633
			c1.378,0.266,2.809-0.498,3.194-1.719c0.383-1.227-0.421-2.429-1.79-2.667c-0.165-0.029-0.33-0.043-0.495-0.043
			C98.502,37.651,97.361,38.391,97.018,39.447 M186.719,39.293c-0.282,1.164,0.442,2.331,1.616,2.605
			c1.176,0.272,2.355-0.446,2.64-1.604c0.284-1.157-0.437-2.318-1.614-2.598c-0.172-0.041-0.344-0.061-0.514-0.061
			C187.856,37.635,186.959,38.301,186.719,39.293 M128.009,39.282c-0.348,1.336,0.508,2.681,1.908,3.015
			c1.404,0.333,2.818-0.486,3.162-1.837c0.341-1.353-0.517-2.712-1.915-3.032c-0.201-0.045-0.401-0.067-0.599-0.067
			C129.384,37.361,128.305,38.137,128.009,39.282 M31.318,37.421c-0.974,0.211-2.112,0.854-2.55,1.418
			c-0.438,0.562-0.001,0.853,0.979,0.666c0.983-0.184,2.133-0.792,2.562-1.379c0.345-0.466,0.131-0.768-0.46-0.768
			C31.697,37.358,31.52,37.378,31.318,37.421 M17.312,37.521c-1.16,0.581-2.562,1.562-3.146,2.163
			c-0.581,0.598-0.113,0.621,1.06,0.084c1.171-0.533,2.596-1.455,3.164-2.097c0.313-0.351,0.308-0.535,0.048-0.535
			C18.224,37.136,17.836,37.261,17.312,37.521 M210.637,37.752c-0.118,0.434,0.152,0.862,0.606,0.959
			c0.454,0.096,0.917-0.177,1.037-0.607c0.119-0.433-0.152-0.858-0.606-0.958c-0.062-0.013-0.124-0.02-0.187-0.02
			C211.099,37.126,210.738,37.378,210.637,37.752 M14.245,37.702c-1.265,0.771-2.8,1.959-3.453,2.606
			c-0.654,0.638-0.157,0.543,1.119-0.182c1.274-0.722,2.847-1.826,3.476-2.525c0.309-0.332,0.348-0.5,0.167-0.5
			C15.357,37.102,14.9,37.3,14.245,37.702 M318.474,37.078c-0.391,0.125-0.87,0.376-1.07,0.568
			c-0.198,0.193-0.042,0.248,0.348,0.122c0.389-0.128,0.863-0.387,1.065-0.574c0.127-0.118,0.112-0.181-0.015-0.181
			C318.728,37.013,318.616,37.034,318.474,37.078 M152.057,37.985c-0.227,0.949,0.372,1.91,1.331,2.147
			c0.962,0.237,1.921-0.343,2.146-1.295c0.223-0.953-0.373-1.915-1.333-2.149c-0.144-0.035-0.287-0.052-0.429-0.052
			C152.971,36.636,152.247,37.177,152.057,37.985 M90.137,38.314c-0.455,1.295,0.416,2.539,1.939,2.807
			c1.531,0.262,3.135-0.58,3.573-1.912c0.443-1.334-0.439-2.62-1.959-2.849c-0.161-0.024-0.323-0.036-0.485-0.036
			C91.851,36.324,90.537,37.154,90.137,38.314 M37.25,36.214c-1.06,0.178-2.279,0.871-2.737,1.519
			c-0.454,0.648,0.031,1.029,1.1,0.881c1.067-0.152,2.304-0.8,2.751-1.476c0.378-0.574,0.079-0.965-0.662-0.965
			C37.565,36.173,37.414,36.187,37.25,36.214 M121.47,37.827c-0.323,1.208,0.448,2.413,1.73,2.704
			c1.283,0.289,2.584-0.459,2.904-1.682s-0.459-2.442-1.737-2.72c-0.176-0.038-0.352-0.056-0.525-0.056
			C122.751,36.074,121.751,36.785,121.47,37.827 M179.834,37.635c-0.287,1.212,0.468,2.434,1.688,2.729
			c1.22,0.292,2.44-0.452,2.734-1.66c0.288-1.207-0.466-2.424-1.687-2.722c-0.183-0.044-0.365-0.066-0.545-0.066
			C181.002,35.916,180.08,36.605,179.834,37.635 M203.875,36.257c-0.114,0.44,0.161,0.881,0.616,0.982
			c0.457,0.102,0.919-0.172,1.037-0.609c0.115-0.438-0.159-0.877-0.616-0.981c-0.064-0.015-0.131-0.022-0.195-0.022
			C204.33,35.627,203.976,35.88,203.875,36.257 M83.683,37.415c-0.453,1.218,0.368,2.364,1.84,2.584
			c1.476,0.218,3.035-0.601,3.477-1.853c0.44-1.259-0.394-2.446-1.857-2.631c-0.132-0.017-0.265-0.025-0.396-0.025
			C85.411,35.49,84.096,36.304,83.683,37.415 M43.146,35.434c-1,0.122-2.141,0.763-2.553,1.411
			c-0.408,0.647,0.063,1.071,1.069,0.974c1.007-0.101,2.16-0.704,2.565-1.374c0.359-0.6,0.014-1.031-0.773-1.031
			C43.358,35.414,43.256,35.42,43.146,35.434 M326.456,35.506c-0.465,0.206-1.048,0.539-1.298,0.749
			c-0.249,0.209-0.075,0.208,0.389-0.004c0.464-0.217,1.045-0.556,1.298-0.759c0.122-0.099,0.144-0.147,0.081-0.147
			C326.858,35.345,326.696,35.399,326.456,35.506 M145.365,36.369c-0.213,0.88,0.343,1.768,1.238,1.984
			c0.896,0.217,1.795-0.322,2.006-1.206c0.212-0.885-0.345-1.776-1.241-1.991c-0.131-0.031-0.261-0.046-0.39-0.046
			C146.226,35.111,145.545,35.615,145.365,36.369 M324.269,35.131c-0.413,0.145-0.926,0.413-1.146,0.598
			c-0.219,0.186-0.06,0.217,0.354,0.065c0.413-0.15,0.922-0.425,1.143-0.605c0.124-0.101,0.128-0.154,0.034-0.154
			C324.58,35.035,324.448,35.066,324.269,35.131 M77.506,36.717c-0.416,1.048,0.297,2.003,1.595,2.164
			c1.302,0.156,2.689-0.572,3.096-1.649c0.409-1.079-0.318-2.073-1.61-2.204c-0.095-0.009-0.189-0.014-0.284-0.014
			C79.101,35.014,77.891,35.742,77.506,36.717 M329.328,35.025c-0.297,0.164-0.669,0.398-0.833,0.527
			c-0.163,0.128-0.055,0.101,0.24-0.065c0.295-0.164,0.667-0.401,0.83-0.528c0.069-0.052,0.091-0.077,0.071-0.077
			C329.609,34.882,329.5,34.931,329.328,35.025 M114.965,36.469c-0.299,1.08,0.393,2.145,1.553,2.392
			c1.164,0.244,2.347-0.434,2.646-1.526c0.297-1.095-0.401-2.176-1.561-2.41c-0.15-0.03-0.3-0.044-0.449-0.044
			C116.155,34.881,115.23,35.53,114.965,36.469 M49.229,34.732c-1.087,0.089-2.312,0.774-2.742,1.513
			c-0.431,0.734,0.102,1.263,1.196,1.205c1.097-0.06,2.336-0.707,2.755-1.471c0.396-0.713-0.052-1.256-0.996-1.256
			C49.372,34.723,49.302,34.726,49.229,34.732 M22.795,34.952c-1.174,0.521-2.572,1.501-3.143,2.153
			c-0.565,0.652-0.077,0.762,1.11,0.285c1.185-0.479,2.609-1.396,3.163-2.088c0.34-0.421,0.282-0.651-0.076-0.651
			C23.616,34.651,23.256,34.747,22.795,34.952 M330.732,34.732c-0.273,0.176-0.623,0.413-0.775,0.534
			c-0.152,0.119-0.057,0.073,0.218-0.103c0.273-0.179,0.62-0.418,0.773-0.536c0.058-0.043,0.081-0.064,0.073-0.064
			C331.008,34.563,330.904,34.622,330.732,34.732 M71.107,36.18c-0.427,1.006,0.262,1.896,1.547,2.016
			c1.288,0.116,2.671-0.612,3.094-1.646c0.416-1.041-0.283-1.969-1.562-2.057c-0.065-0.005-0.13-0.007-0.195-0.007
			C72.773,34.486,71.514,35.222,71.107,36.18 M173.016,35.966c-0.287,1.217,0.472,2.444,1.693,2.744
			c1.223,0.3,2.442-0.444,2.731-1.658c0.285-1.214-0.47-2.439-1.692-2.741c-0.184-0.046-0.369-0.067-0.55-0.067
			C174.178,34.244,173.259,34.934,173.016,35.966 M19.502,34.687c-1.181,0.65-2.592,1.743-3.183,2.392
			c-0.584,0.648-0.107,0.65,1.084,0.039c1.187-0.61,2.631-1.631,3.202-2.323c0.305-0.37,0.306-0.562,0.062-0.562
			C20.454,34.233,20.053,34.381,19.502,34.687 M55.422,34.195c-1.23,0.049-2.599,0.822-3.07,1.692
			c-0.466,0.872,0.15,1.537,1.392,1.523c1.244-0.018,2.628-0.739,3.089-1.642c0.441-0.876-0.135-1.576-1.285-1.576
			C55.506,34.192,55.465,34.193,55.422,34.195 M197.086,34.682c-0.112,0.446,0.167,0.895,0.625,1.002
			c0.457,0.107,0.92-0.166,1.035-0.61c0.114-0.446-0.166-0.893-0.624-1.003c-0.066-0.015-0.135-0.023-0.2-0.023
			C197.535,34.048,197.184,34.302,197.086,34.682 M64.432,35.845c-0.507,1.105,0.259,2.048,1.724,2.137
			c1.47,0.09,3.068-0.744,3.567-1.891c0.495-1.154-0.289-2.148-1.746-2.197c-0.037-0.001-0.074-0.002-0.111-0.002
			C66.445,33.892,64.932,34.763,64.432,35.845 M61.7,33.856c-1.397,0.007-2.932,0.872-3.448,1.9c-0.511,1.025,0.21,1.859,1.62,1.896
			c1.414,0.036,2.974-0.772,3.47-1.839c0.496-1.07-0.237-1.957-1.634-1.957C61.705,33.856,61.703,33.856,61.7,33.856 M108.5,35.225
			c-0.278,0.952,0.337,1.883,1.378,2.084c1.044,0.204,2.113-0.408,2.389-1.373c0.272-0.967-0.345-1.911-1.386-2.102
			c-0.123-0.023-0.248-0.034-0.372-0.034C109.601,33.8,108.747,34.385,108.5,35.225 M35.735,33.66
			c-0.675,0.165-1.456,0.645-1.752,1.069c-0.287,0.427,0.017,0.636,0.696,0.488c0.678-0.149,1.471-0.612,1.756-1.049
			c0.228-0.343,0.083-0.559-0.317-0.559C36.01,33.609,35.881,33.626,35.735,33.66 M138.579,34.776
			c-0.214,0.873,0.336,1.746,1.229,1.958c0.895,0.208,1.793-0.33,2.005-1.206c0.213-0.877-0.339-1.756-1.232-1.962
			c-0.127-0.03-0.255-0.044-0.38-0.044C139.447,33.522,138.762,34.028,138.579,34.776 M329.976,33.004
			c-0.386,0.152-0.868,0.399-1.078,0.553c-0.209,0.156-0.068,0.156,0.314,0c0.386-0.155,0.864-0.407,1.076-0.558
			c0.104-0.074,0.123-0.111,0.069-0.111C330.303,32.888,330.17,32.927,329.976,33.004 M101.992,34.097
			c-0.27,0.873,0.299,1.714,1.271,1.884c0.974,0.169,1.976-0.406,2.246-1.291c0.264-0.89-0.309-1.742-1.278-1.902
			c-0.104-0.017-0.209-0.025-0.313-0.025C103.057,32.763,102.233,33.315,101.992,34.097 M332.123,32.863
			c-0.507,0.244-1.146,0.604-1.427,0.808c-0.281,0.203-0.098,0.168,0.406-0.084c0.505-0.255,1.141-0.625,1.425-0.821
			c0.119-0.082,0.156-0.122,0.121-0.122C332.6,32.644,332.415,32.719,332.123,32.863 M166.267,34.304
			c-0.274,1.176,0.459,2.364,1.64,2.655c1.181,0.29,2.361-0.426,2.636-1.602c0.276-1.175-0.458-2.363-1.639-2.655
			c-0.177-0.044-0.354-0.065-0.529-0.065C167.388,32.637,166.5,33.305,166.267,34.304 M41.48,32.562
			c-0.559,0.104-1.194,0.5-1.43,0.868c-0.23,0.37,0.03,0.583,0.593,0.487c0.559-0.1,1.201-0.479,1.432-0.855
			c0.192-0.315,0.039-0.527-0.339-0.527C41.659,32.535,41.574,32.544,41.48,32.562 M28.374,32.615
			c-1.224,0.473-2.665,1.478-3.232,2.206c-0.565,0.725-0.04,0.929,1.195,0.498c1.234-0.432,2.701-1.371,3.255-2.138
			c0.367-0.511,0.251-0.802-0.226-0.802C29.123,32.379,28.787,32.455,28.374,32.615 M190.22,33.034
			c-0.119,0.481,0.183,0.968,0.673,1.087c0.491,0.116,0.983-0.177,1.104-0.656c0.119-0.48-0.181-0.966-0.673-1.085
			c-0.074-0.018-0.147-0.027-0.221-0.027C190.692,32.353,190.321,32.626,190.22,33.034 M131.82,33.257
			c-0.217,0.862,0.327,1.718,1.217,1.919c0.892,0.199,1.787-0.338,2.002-1.205c0.215-0.867-0.33-1.73-1.219-1.926
			c-0.122-0.026-0.244-0.039-0.364-0.039C132.699,32.006,132.006,32.513,131.82,33.257 M95.501,33.115
			c-0.262,0.817,0.269,1.585,1.192,1.724c0.925,0.139,1.891-0.409,2.15-1.237c0.263-0.829-0.275-1.612-1.197-1.741
			c-0.088-0.012-0.176-0.018-0.263-0.018C96.551,31.843,95.745,32.378,95.501,33.115 M334.958,31.812
			c-0.413,0.241-0.939,0.563-1.173,0.728c-0.233,0.159-0.088,0.093,0.323-0.153c0.412-0.248,0.935-0.578,1.17-0.735
			c0.085-0.055,0.121-0.081,0.113-0.081C335.378,31.571,335.225,31.656,334.958,31.812 M47.398,31.582
			c-0.565,0.079-1.2,0.473-1.431,0.864c-0.226,0.392,0.05,0.646,0.616,0.573c0.569-0.073,1.213-0.452,1.437-0.852
			c0.191-0.354,0.004-0.6-0.427-0.6C47.533,31.567,47.469,31.572,47.398,31.582 M24.967,31.773
			c-1.259,0.629-2.755,1.771-3.358,2.514c-0.599,0.741-0.074,0.832,1.199,0.255c1.268-0.582,2.791-1.654,3.381-2.439
			c0.345-0.464,0.298-0.712-0.054-0.712C25.886,31.391,25.486,31.514,24.967,31.773 M335.786,31.402
			c-0.022,0.016-0.008,0.008,0.031-0.022c0.024-0.013,0.048-0.03,0.07-0.046C335.849,31.359,335.806,31.386,335.786,31.402
			 M335.937,31.298c-0.011,0.008-0.029,0.021-0.049,0.036c0.006-0.004,0.012-0.008,0.017-0.011c0.029-0.02,0.044-0.033,0.043-0.033
			S335.943,31.293,335.937,31.298 M89.053,32.3c-0.269,0.764,0.238,1.468,1.124,1.581c0.887,0.111,1.818-0.42,2.077-1.197
			c0.261-0.779-0.246-1.497-1.129-1.597c-0.07-0.008-0.142-0.012-0.212-0.012C90.099,31.075,89.294,31.595,89.053,32.3
			 M159.445,32.633c-0.273,1.174,0.46,2.358,1.639,2.648c1.182,0.288,2.36-0.428,2.636-1.603c0.274-1.175-0.46-2.362-1.64-2.651
			c-0.176-0.043-0.351-0.063-0.522-0.063C160.569,30.963,159.682,31.634,159.445,32.633 M53.396,30.861
			c-0.573,0.056-1.211,0.445-1.433,0.86c-0.22,0.414,0.068,0.705,0.643,0.657c0.576-0.049,1.221-0.426,1.437-0.848
			c0.202-0.388-0.028-0.676-0.514-0.676C53.486,30.854,53.441,30.856,53.396,30.861 M183.393,31.359
			c-0.116,0.486,0.187,0.976,0.677,1.097c0.493,0.121,0.985-0.174,1.104-0.658c0.117-0.484-0.187-0.975-0.679-1.097
			c-0.075-0.018-0.148-0.027-0.223-0.027C183.862,30.674,183.492,30.947,183.393,31.359 M82.721,31.676
			c-0.254,0.689,0.203,1.306,1.02,1.386c0.818,0.08,1.691-0.414,1.937-1.117c0.25-0.703-0.212-1.335-1.026-1.403
			c-0.05-0.005-0.099-0.007-0.149-0.007C83.734,30.535,82.96,31.027,82.721,31.676 M335.637,30.663
			c-0.349,0.151-0.792,0.371-0.986,0.496c-0.195,0.123-0.071,0.101,0.275-0.055c0.347-0.155,0.787-0.379,0.983-0.5
			c0.082-0.051,0.109-0.075,0.086-0.075C335.965,30.529,335.838,30.576,335.637,30.663 M124.982,31.809
			c-0.237,0.906,0.339,1.801,1.286,2.002c0.946,0.201,1.906-0.375,2.14-1.29c0.235-0.915-0.344-1.818-1.29-2.012
			c-0.122-0.025-0.244-0.037-0.365-0.037C125.939,30.472,125.188,31.017,124.982,31.809 M33.994,30.587
			c-1.238,0.414-2.681,1.412-3.232,2.194c-0.555,0.776,0,1.073,1.251,0.703c1.251-0.375,2.722-1.305,3.257-2.128
			c0.389-0.589,0.202-0.943-0.392-0.943C34.645,30.413,34.346,30.469,33.994,30.587 M59.489,30.353
			c-0.608,0.035-1.285,0.438-1.503,0.897c-0.226,0.457,0.089,0.802,0.7,0.776c0.61-0.029,1.284-0.423,1.507-0.887
			c0.208-0.445-0.067-0.789-0.621-0.789C59.545,30.35,59.518,30.351,59.489,30.353 M76.402,31.243
			c-0.248,0.641,0.176,1.195,0.954,1.248c0.781,0.053,1.615-0.428,1.864-1.08c0.248-0.653-0.184-1.221-0.96-1.264
			c-0.028-0.001-0.057-0.002-0.085-0.002C77.426,30.145,76.645,30.624,76.402,31.243 M65.69,30.017
			c-0.692,0.012-1.446,0.468-1.692,1.005c-0.238,0.54,0.122,0.968,0.817,0.964c0.695-0.003,1.459-0.441,1.695-0.992
			c0.238-0.539-0.117-0.977-0.792-0.977C65.709,30.017,65.699,30.017,65.69,30.017 M70.172,31.022
			c-0.244,0.585,0.147,1.073,0.88,1.096c0.732,0.022,1.527-0.432,1.767-1.028c0.245-0.596-0.153-1.097-0.882-1.112
			c-0.008,0-0.017,0-0.023,0C71.19,29.978,70.415,30.442,70.172,31.022 M337.746,30.026c-0.529,0.279-1.207,0.651-1.51,0.837
			c-0.303,0.19-0.119,0.113,0.41-0.171c0.527-0.289,1.201-0.671,1.506-0.85c0.108-0.065,0.155-0.095,0.146-0.095
			C338.283,29.747,338.087,29.847,337.746,30.026 M152.637,30.993c-0.275,1.169,0.456,2.343,1.634,2.628
			c1.179,0.284,2.354-0.433,2.632-1.604c0.273-1.173-0.459-2.353-1.636-2.635c-0.172-0.04-0.343-0.06-0.513-0.06
			C153.766,29.322,152.873,29.994,152.637,30.993 M118.224,30.482c-0.251,0.93,0.34,1.834,1.321,2.028
			c0.983,0.192,1.981-0.407,2.231-1.346c0.246-0.941-0.347-1.855-1.327-2.041c-0.116-0.021-0.232-0.032-0.348-0.032
			C119.244,29.091,118.445,29.661,118.224,30.482 M176.56,29.664c-0.115,0.488,0.188,0.979,0.68,1.103
			c0.493,0.12,0.985-0.173,1.101-0.661c0.117-0.487-0.188-0.98-0.681-1.103c-0.075-0.019-0.149-0.028-0.224-0.028
			C177.025,28.975,176.656,29.251,176.56,29.664 M30.412,29.24c-1.242,0.547-2.697,1.654-3.269,2.435
			c-0.569,0.775-0.031,0.962,1.223,0.458c1.251-0.506,2.733-1.544,3.291-2.363c0.357-0.527,0.255-0.82-0.189-0.82
			C31.218,28.95,30.859,29.043,30.412,29.24 M39.662,28.874c-1.22,0.345-2.623,1.309-3.146,2.12
			c-0.521,0.808,0.042,1.186,1.273,0.881c1.231-0.307,2.656-1.212,3.166-2.057c0.394-0.653,0.14-1.061-0.551-1.062
			C40.195,28.756,39.946,28.794,39.662,28.874 M341.304,28.088c-0.344,0.163-0.778,0.376-0.981,0.483
			c0.074-0.045,0.149-0.091,0.22-0.136c0.496-0.306,0.66-0.433,0.369-0.27c-0.29,0.162-0.924,0.556-1.419,0.873
			c-0.493,0.316-0.66,0.433-0.372,0.26c0.232-0.137,0.688-0.41,1.115-0.673c0.035-0.012,0.147-0.063,0.34-0.157
			c0.347-0.168,0.788-0.391,0.99-0.493c0.07-0.036,0.101-0.052,0.099-0.052C341.659,27.923,341.531,27.982,341.304,28.088
			 M111.476,29.284c-0.274,0.967,0.344,1.895,1.381,2.08c1.037,0.184,2.099-0.452,2.368-1.431c0.268-0.981-0.354-1.923-1.388-2.097
			c-0.111-0.019-0.224-0.028-0.336-0.028C112.584,27.808,111.719,28.42,111.476,29.284 M145.919,29.422
			c-0.265,1.12,0.437,2.238,1.568,2.506c1.134,0.265,2.269-0.428,2.535-1.553c0.265-1.124-0.438-2.252-1.57-2.514
			c-0.16-0.036-0.318-0.054-0.476-0.054C147.019,27.807,146.149,28.46,145.919,29.422 M45.434,27.39
			c-1.236,0.287-2.645,1.244-3.148,2.108c-0.508,0.858,0.082,1.323,1.329,1.077c1.249-0.25,2.674-1.15,3.17-2.047
			c0.406-0.734,0.076-1.216-0.729-1.216C45.871,27.312,45.663,27.337,45.434,27.39 M169.686,27.959
			c-0.12,0.511,0.199,1.026,0.712,1.152c0.512,0.127,1.024-0.183,1.145-0.692c0.12-0.51-0.198-1.026-0.711-1.153
			c-0.078-0.019-0.155-0.028-0.232-0.028C170.172,27.238,169.787,27.527,169.686,27.959 M343.665,26.764
			c-0.298,0.146-0.942,0.504-1.441,0.795c-0.502,0.289-0.671,0.395-0.375,0.242c0.296-0.152,0.941-0.505,1.445-0.786
			c0.354-0.198,0.541-0.314,0.517-0.314C343.801,26.701,343.753,26.721,343.665,26.764 M36.03,26.827
			c-1.352,0.522-2.913,1.711-3.514,2.604c-0.595,0.889,0.009,1.186,1.375,0.715c1.362-0.473,2.96-1.581,3.539-2.521
			c0.405-0.653,0.226-1.035-0.37-1.035C36.794,26.59,36.446,26.666,36.03,26.827 M104.492,28.2
			c-0.338,1.148,0.395,2.226,1.645,2.424c1.251,0.198,2.543-0.575,2.874-1.742c0.339-1.167-0.407-2.273-1.653-2.452
			c-0.117-0.016-0.234-0.025-0.352-0.025C105.881,26.405,104.803,27.158,104.492,28.2 M139.21,27.916
			c-0.259,1.08,0.415,2.151,1.513,2.397c1.099,0.246,2.199-0.428,2.462-1.513c0.259-1.087-0.419-2.166-1.517-2.407
			c-0.148-0.033-0.298-0.049-0.443-0.049C140.289,26.344,139.438,26.983,139.21,27.916 M51.26,26.224
			c-1.219,0.222-2.584,1.148-3.063,2.033c-0.479,0.882,0.119,1.42,1.347,1.232c1.229-0.19,2.611-1.06,3.082-1.976
			c0.399-0.791,0.006-1.336-0.88-1.336C51.597,26.177,51.435,26.192,51.26,26.224 M162.896,26.296
			c-0.113,0.49,0.191,0.98,0.682,1.102c0.492,0.119,0.981-0.18,1.097-0.67c0.112-0.489-0.19-0.981-0.683-1.102
			c-0.072-0.018-0.145-0.026-0.216-0.026C163.364,25.6,162.994,25.878,162.896,26.296 M97.899,27.342
			c-0.361,1.154,0.38,2.211,1.658,2.387c1.28,0.171,2.608-0.628,2.964-1.803c0.355-1.178-0.397-2.267-1.671-2.42
			c-0.101-0.012-0.201-0.018-0.301-0.018C99.377,25.488,98.234,26.277,97.899,27.342 M347.17,25.16
			c-0.195,0.08-0.619,0.287-0.946,0.459c-0.327,0.171-0.436,0.235-0.239,0.154c0.195-0.085,0.618-0.289,0.947-0.454
			c0.233-0.122,0.355-0.193,0.334-0.193C347.258,25.126,347.227,25.137,347.17,25.16 M132.662,26.529
			c-0.236,0.966,0.367,1.915,1.356,2.124c0.99,0.211,1.985-0.403,2.225-1.376c0.238-0.974-0.371-1.932-1.359-2.136
			c-0.125-0.026-0.251-0.039-0.375-0.039C133.656,25.102,132.873,25.685,132.662,26.529 M57.312,25.017
			c-1.415,0.197-2.98,1.257-3.521,2.325c-0.532,1.064,0.18,1.773,1.607,1.62c1.432-0.152,3.028-1.143,3.546-2.254
			c0.467-0.997-0.073-1.722-1.206-1.722C57.604,24.986,57.461,24.996,57.312,25.017 M91.442,26.679
			c-0.37,1.119,0.352,2.121,1.618,2.26c1.269,0.136,2.599-0.665,2.959-1.808c0.365-1.148-0.369-2.185-1.632-2.298
			c-0.077-0.007-0.154-0.011-0.231-0.011C92.972,24.822,91.789,25.622,91.442,26.679 M346.564,24.448
			c-0.361,0.163-1.128,0.635-1.721,1.036c-0.594,0.405-0.787,0.581-0.434,0.405c0.355-0.177,1.129-0.629,1.726-1.021
			c0.451-0.296,0.67-0.478,0.595-0.478C346.706,24.39,346.651,24.409,346.564,24.448 M41.783,24.563
			c-1.551,0.52-3.32,1.862-3.982,2.935c-0.662,1.065,0.059,1.514,1.627,1.057c1.567-0.46,3.376-1.7,4.016-2.83
			c0.476-0.844,0.186-1.36-0.626-1.36C42.533,24.365,42.185,24.428,41.783,24.563 M85.001,26.21
			c-0.389,1.11,0.328,2.074,1.611,2.175c1.285,0.101,2.641-0.723,3.022-1.858c0.385-1.139-0.349-2.143-1.625-2.217
			c-0.053-0.003-0.104-0.005-0.156-0.005C86.627,24.305,85.375,25.141,85.001,26.21 M63.319,24.314
			c-1.434,0.136-3.005,1.188-3.528,2.309c-0.517,1.117,0.225,1.917,1.67,1.825c1.451-0.095,3.051-1.078,3.554-2.241
			c0.473-1.084-0.158-1.908-1.403-1.908C63.518,24.299,63.42,24.304,63.319,24.314 M156.081,24.665
			c-0.112,0.487,0.191,0.976,0.681,1.092c0.49,0.116,0.98-0.184,1.094-0.672c0.114-0.489-0.19-0.979-0.68-1.095
			c-0.07-0.017-0.142-0.025-0.209-0.025C156.554,23.965,156.181,24.247,156.081,24.665 M78.545,25.954
			c-0.419,1.139,0.314,2.087,1.66,2.152c1.349,0.063,2.785-0.812,3.202-1.98c0.417-1.172-0.338-2.167-1.678-2.2
			c-0.022,0-0.045,0-0.068,0C80.347,23.926,78.972,24.836,78.545,25.954 M69.407,23.863c-1.454,0.078-3.032,1.12-3.535,2.295
			c-0.505,1.167,0.268,2.057,1.731,2.023c1.469-0.037,3.068-1.017,3.559-2.229c0.476-1.17-0.242-2.094-1.593-2.094
			C69.517,23.858,69.462,23.86,69.407,23.863 M75.506,23.831c-1.357,0.019-2.821,0.97-3.269,2.102
			c-0.453,1.123,0.285,2.026,1.653,2.044c1.372,0.015,2.85-0.886,3.288-2.047c0.438-1.153-0.298-2.099-1.637-2.099
			C75.53,23.831,75.519,23.831,75.506,23.831 M125.727,25.165c-0.275,1.081,0.402,2.129,1.519,2.349
			c1.119,0.221,2.247-0.479,2.523-1.57c0.271-1.092-0.41-2.153-1.526-2.365c-0.131-0.025-0.263-0.037-0.393-0.037
			C126.876,23.542,125.974,24.211,125.727,25.165 M38.343,23.65c-0.604,0.25-1.298,0.808-1.558,1.235
			c-0.261,0.424,0.019,0.567,0.623,0.324c0.604-0.24,1.304-0.784,1.562-1.218c0.174-0.294,0.101-0.461-0.149-0.461
			C38.699,23.53,38.538,23.569,38.343,23.65 M349.352,23.38c-0.352,0.138-1.098,0.548-1.676,0.901
			c-0.573,0.357-0.764,0.515-0.416,0.367c0.347-0.15,1.1-0.545,1.679-0.887c0.442-0.266,0.653-0.43,0.573-0.43
			C349.486,23.331,349.434,23.347,349.352,23.38 M47.398,22.942c-1.467,0.413-3.124,1.651-3.722,2.715
			c-0.6,1.056,0.104,1.583,1.585,1.224c1.482-0.361,3.173-1.515,3.752-2.627c0.458-0.878,0.104-1.442-0.781-1.442
			C47.991,22.812,47.711,22.854,47.398,22.942 M149.289,23.095c-0.111,0.487,0.189,0.969,0.678,1.081
			c0.486,0.112,0.977-0.192,1.091-0.679c0.114-0.486-0.189-0.971-0.677-1.082c-0.067-0.015-0.135-0.022-0.2-0.022
			C149.765,22.393,149.389,22.676,149.289,23.095 M119.078,23.981c-0.277,1.063,0.389,2.076,1.496,2.277
			c1.112,0.198,2.24-0.503,2.519-1.578c0.278-1.076-0.396-2.106-1.503-2.295c-0.118-0.02-0.236-0.03-0.354-0.03
			C120.254,22.355,119.333,23.031,119.078,23.981 M352.824,22.119c-0.212,0.066-0.663,0.278-1.005,0.473
			c-0.344,0.19-0.451,0.287-0.243,0.215c0.21-0.07,0.659-0.283,1.006-0.469c0.269-0.148,0.395-0.241,0.335-0.241
			C352.9,22.097,352.869,22.104,352.824,22.119 M43.915,21.474c-0.609,0.222-1.307,0.774-1.559,1.225
			c-0.254,0.449,0.037,0.634,0.651,0.425c0.611-0.214,1.313-0.75,1.563-1.209c0.18-0.333,0.076-0.531-0.227-0.531
			C44.229,21.384,44.084,21.413,43.915,21.474 M53.219,21.357c-1.557,0.365-3.295,1.651-3.906,2.825
			c-0.605,1.17,0.159,1.827,1.731,1.522c1.575-0.306,3.35-1.504,3.939-2.731c0.489-1.02,0.026-1.707-1.033-1.708
			C53.73,21.265,53.486,21.295,53.219,21.357 M112.284,22.917c-0.319,1.146,0.405,2.224,1.617,2.414
			c1.213,0.195,2.451-0.584,2.765-1.746c0.309-1.166-0.418-2.262-1.627-2.439c-0.11-0.017-0.224-0.024-0.335-0.024
			C113.612,21.121,112.57,21.874,112.284,22.917 M142.526,21.609c-0.116,0.483,0.186,0.959,0.672,1.063s0.972-0.201,1.088-0.684
			c0.114-0.484-0.187-0.959-0.672-1.065c-0.062-0.013-0.127-0.02-0.189-0.02C143.008,20.903,142.626,21.19,142.526,21.609
			 M352.107,20.609c-0.393,0.143-1.227,0.634-1.858,1.09c-0.636,0.453-0.835,0.688-0.446,0.529c0.39-0.157,1.223-0.635,1.861-1.073
			c0.516-0.356,0.744-0.586,0.605-0.586C352.236,20.569,352.183,20.582,352.107,20.609 M105.678,22.043
			c-0.332,1.16,0.396,2.224,1.637,2.39c1.243,0.168,2.521-0.638,2.85-1.815c0.329-1.18-0.41-2.268-1.647-2.42
			c-0.097-0.012-0.192-0.017-0.288-0.017C107.09,20.181,105.987,20.972,105.678,22.043 M59.095,20.086
			c-1.614,0.301-3.394,1.608-4.005,2.868c-0.602,1.255,0.214,2.035,1.844,1.797c1.635-0.239,3.451-1.455,4.037-2.77
			c0.511-1.146-0.061-1.953-1.276-1.953C59.509,20.028,59.309,20.047,59.095,20.086 M354.847,19.919
			c-0.343,0.106-1.065,0.486-1.614,0.845c-0.552,0.355-0.722,0.549-0.383,0.434c0.339-0.115,1.064-0.484,1.617-0.832
			c0.457-0.285,0.651-0.474,0.515-0.474C354.951,19.892,354.907,19.901,354.847,19.919 M49.547,19.613
			c-0.592,0.183-1.26,0.708-1.494,1.164c-0.236,0.453,0.054,0.673,0.649,0.501c0.597-0.175,1.271-0.684,1.501-1.149
			c0.183-0.356,0.047-0.578-0.296-0.578C49.806,19.551,49.685,19.571,49.547,19.613 M99.135,21.355
			c-0.354,1.168,0.385,2.209,1.651,2.349c1.272,0.138,2.59-0.696,2.936-1.885c0.349-1.191-0.4-2.264-1.664-2.384
			c-0.077-0.007-0.153-0.01-0.23-0.01C100.641,19.425,99.47,20.258,99.135,21.355 M135.614,20.191
			c-0.138,0.578,0.22,1.14,0.808,1.259c0.584,0.117,1.175-0.255,1.313-0.835c0.138-0.583-0.22-1.15-0.806-1.265
			c-0.071-0.014-0.143-0.021-0.213-0.021C136.207,19.329,135.737,19.681,135.614,20.191 M64.98,19.242
			c-1.563,0.215-3.272,1.45-3.834,2.714c-0.557,1.258,0.252,2.108,1.831,1.945c1.582-0.162,3.317-1.319,3.864-2.629
			c0.489-1.188-0.145-2.061-1.426-2.061C65.278,19.211,65.134,19.221,64.98,19.242 M358.471,18.89
			c-0.226,0.055-0.701,0.271-1.062,0.485s-0.47,0.338-0.245,0.279c0.226-0.057,0.699-0.272,1.062-0.479
			c0.306-0.178,0.432-0.297,0.326-0.297C358.532,18.878,358.506,18.882,358.471,18.89 M70.925,18.738
			c-1.466,0.135-3.049,1.264-3.554,2.483c-0.502,1.215,0.277,2.094,1.755,2.004c1.479-0.093,3.089-1.155,3.577-2.412
			c0.459-1.184-0.215-2.088-1.507-2.088C71.108,18.725,71.018,18.729,70.925,18.738 M92.398,20.855
			c-0.417,1.302,0.407,2.428,1.848,2.548c1.445,0.112,2.956-0.848,3.362-2.18c0.411-1.334-0.429-2.509-1.867-2.596
			c-0.057-0.003-0.114-0.005-0.172-0.005C94.191,18.622,92.797,19.601,92.398,20.855 M77.024,18.31
			c-1.484,0.073-3.072,1.191-3.563,2.46c-0.484,1.265,0.32,2.231,1.816,2.2c1.5-0.033,3.113-1.088,3.587-2.394
			c0.462-1.264-0.298-2.27-1.69-2.27C77.124,18.306,77.075,18.307,77.024,18.31 M85.653,20.587c-0.501,1.464,0.431,2.69,2.09,2.774
			c1.664,0.085,3.417-1.039,3.903-2.548c0.489-1.512-0.464-2.802-2.115-2.845c-0.027-0.001-0.054-0.001-0.081-0.001
			C87.829,17.967,86.147,19.14,85.653,20.587 M83.274,17.924c-1.627,0.021-3.35,1.221-3.867,2.642
			c-0.512,1.416,0.39,2.55,2.028,2.581c1.645,0.026,3.398-1.103,3.893-2.568c0.5-1.456-0.411-2.655-2.02-2.655
			C83.297,17.924,83.285,17.924,83.274,17.924 M55.37,17.8c-0.733,0.188-1.552,0.825-1.829,1.409
			c-0.278,0.581,0.09,0.897,0.827,0.723c0.737-0.178,1.563-0.792,1.836-1.387c0.225-0.483,0.02-0.797-0.459-0.797
			C55.635,17.748,55.509,17.765,55.37,17.8 M128.452,18.848c-0.208,0.832,0.312,1.63,1.158,1.785
			c0.848,0.158,1.706-0.389,1.911-1.227c0.206-0.838-0.314-1.644-1.162-1.796c-0.093-0.016-0.186-0.024-0.278-0.024
			C129.334,17.586,128.637,18.108,128.452,18.848 M121.823,17.744c-0.209,0.819,0.3,1.591,1.142,1.728
			c0.842,0.137,1.694-0.414,1.903-1.24c0.21-0.825-0.303-1.606-1.144-1.739c-0.082-0.013-0.165-0.02-0.247-0.02
			C122.726,16.473,122.016,17.003,121.823,17.744 M61.2,16.405c-0.77,0.161-1.621,0.814-1.899,1.447
			c-0.282,0.63,0.116,1.014,0.891,0.865c0.775-0.149,1.631-0.779,1.908-1.423c0.233-0.551-0.023-0.925-0.578-0.925
			C61.424,16.369,61.316,16.381,61.2,16.405 M360.347,16.285c-0.335,0.069-1.027,0.43-1.555,0.785
			c-0.525,0.359-0.685,0.576-0.354,0.494c0.331-0.084,1.029-0.429,1.558-0.776c0.458-0.305,0.636-0.518,0.457-0.518
			C360.426,16.27,360.39,16.274,360.347,16.285 M115.434,16.822c-0.192,0.707,0.252,1.358,0.984,1.465
			c0.734,0.1,1.482-0.387,1.67-1.101c0.187-0.714-0.256-1.377-0.988-1.475c-0.062-0.008-0.124-0.012-0.187-0.012
			C116.245,15.699,115.604,16.173,115.434,16.822 M364.025,15.54c-0.209,0.033-0.643,0.224-0.969,0.427
			c-0.325,0.203-0.422,0.338-0.215,0.301c0.209-0.034,0.642-0.223,0.968-0.423c0.296-0.182,0.405-0.309,0.267-0.309
			C364.062,15.536,364.045,15.538,364.025,15.54 M67.078,15.363c-0.754,0.12-1.576,0.743-1.838,1.381
			c-0.265,0.635,0.135,1.053,0.893,0.945c0.759-0.108,1.592-0.711,1.847-1.361c0.23-0.575-0.062-0.985-0.659-0.985
			C67.244,15.343,67.164,15.349,67.078,15.363 M108.957,16.052c-0.187,0.676,0.233,1.283,0.939,1.366
			c0.708,0.079,1.432-0.402,1.618-1.083c0.182-0.682-0.237-1.3-0.942-1.374c-0.048-0.005-0.097-0.008-0.145-0.008
			C109.771,14.953,109.131,15.423,108.957,16.052 M102.726,15.485c-0.163,0.549,0.182,1.033,0.763,1.081
			c0.581,0.05,1.181-0.356,1.339-0.91c0.155-0.554-0.185-1.043-0.766-1.087c-0.029-0.002-0.059-0.003-0.087-0.003
			C103.424,14.566,102.876,14.963,102.726,15.485 M73.131,14.355c-0.886,0.102-1.837,0.817-2.134,1.581
			c-0.295,0.764,0.182,1.302,1.069,1.215c0.891-0.088,1.849-0.779,2.144-1.556c0.268-0.719-0.122-1.252-0.876-1.252
			C73.27,14.343,73.201,14.347,73.131,14.355 M96.103,15.091c-0.201,0.663,0.21,1.223,0.92,1.263
			c0.712,0.037,1.452-0.467,1.651-1.136c0.199-0.67-0.215-1.245-0.926-1.275c-0.021-0.001-0.042-0.002-0.062-0.002
			C96.997,13.941,96.297,14.448,96.103,15.091 M89.75,14.935c-0.215,0.669,0.202,1.215,0.934,1.233
			c0.731,0.013,1.503-0.517,1.713-1.196c0.214-0.679-0.209-1.239-0.938-1.247c-0.003,0-0.007,0-0.01,0
			C90.723,13.725,89.965,14.266,89.75,14.935 M85.252,13.725c-0.758,0.025-1.557,0.604-1.791,1.288
			c-0.237,0.682,0.192,1.22,0.952,1.208c0.763-0.015,1.566-0.579,1.798-1.272c0.228-0.68-0.184-1.225-0.914-1.225
			C85.282,13.724,85.268,13.725,85.252,13.725 M79.225,13.698c-0.953,0.069-1.972,0.82-2.275,1.664
			c-0.301,0.843,0.218,1.466,1.176,1.414c0.958-0.055,1.983-0.778,2.284-1.634c0.284-0.819-0.182-1.449-1.05-1.449
			C79.315,13.693,79.271,13.695,79.225,13.698 M365.778,12.539c-0.296,0.041-0.908,0.342-1.367,0.668
			c-0.457,0.323-0.593,0.544-0.299,0.495c0.295-0.048,0.91-0.338,1.368-0.658c0.427-0.292,0.572-0.51,0.359-0.51
			C365.821,12.534,365.802,12.536,365.778,12.539 M369.574,12.037c-0.185,0.011-0.563,0.177-0.849,0.36
			c-0.284,0.184-0.366,0.32-0.184,0.302c0.187-0.012,0.564-0.176,0.85-0.355c0.271-0.172,0.357-0.309,0.209-0.309
			C369.593,12.035,369.583,12.036,369.574,12.037 M371.277,8.609c-0.273,0.02-0.834,0.284-1.253,0.589
			c-0.419,0.306-0.538,0.53-0.265,0.509c0.272-0.021,0.833-0.279,1.253-0.58c0.405-0.293,0.529-0.518,0.29-0.518
			C371.294,8.609,371.286,8.609,371.277,8.609 M375.686,5.049c-0.359,0.271-0.46,0.49-0.223,0.487s0.723-0.218,1.086-0.482
			c0.359-0.268,0.461-0.489,0.222-0.491c-0.001,0-0.003,0-0.004,0C376.526,4.563,376.042,4.778,375.686,5.049 M378.356,0.201
			c-0.14,0.11-0.175,0.199-0.084,0.208c0.091-0.001,0.276-0.086,0.412-0.2c0.138-0.112,0.176-0.207,0.084-0.209
			c-0.002,0-0.005,0-0.008,0C378.667,0,378.487,0.089,378.356,0.201"/>
	</defs>
	<clipPath id="SVGID_2_">
		<use xlink:href="#SVGID_1_"  overflow="visible"/>
	</clipPath>
	
		<linearGradient id="SVGID_3_" gradientUnits="userSpaceOnUse" x1="-387.334" y1="362.0156" x2="-386.3344" y2="362.0156" gradientTransform="matrix(275.4159 12.9883 12.9883 -275.4159 102004.0547 104765.3203)">
		<stop  offset="0" style="stop-color:#C8DA33"/>
		<stop  offset="0.3333" style="stop-color:#3DB54A"/>
		<stop  offset="0.6667" style="stop-color:#019C86"/>
		<stop  offset="1" style="stop-color:#493391"/>
	</linearGradient>
	<polygon clip-path="url(#SVGID_2_)" fill="url(#SVGID_3_)" points="0.486,-17.844 382.356,0.165 378.019,92.149 -3.852,74.142 	"/>
</g>
</svg>
