<svg id="Layer_1" data-name="Layer 1" xmlns="http://www.w3.org/2000/svg" viewBox="0 0 24 24"><path d="M7.55,21.75a13.92,13.92,0,0,0,14-14c0-.21,0-.42,0-.64A9.9,9.9,0,0,0,24,4.56a10.24,10.24,0,0,1-2.83.77,5,5,0,0,0,2.17-2.72A10.08,10.08,0,0,1,20.21,3.8a4.93,4.93,0,0,0-8.52,3.38,4.61,4.61,0,0,0,.13,1.11A14,14,0,0,1,1.67,3.15,5,5,0,0,0,3.19,9.72,4.73,4.73,0,0,1,1,9.1v.07a4.93,4.93,0,0,0,4,4.82,4.9,4.9,0,0,1-2.22.09,4.94,4.94,0,0,0,4.6,3.42,9.92,9.92,0,0,1-6.12,2.11A9.18,9.18,0,0,1,0,19.54a14,14,0,0,0,7.55,2.21"/></svg>