<?xml version="1.0" encoding="utf-8"?>
<!-- Generator: Adobe Illustrator 16.0.0, SVG Export Plug-In . SVG Version: 6.00 Build 0)  -->
<!DOCTYPE svg PUBLIC "-//W3C//DTD SVG 1.1//EN" "http://www.w3.org/Graphics/SVG/1.1/DTD/svg11.dtd">
<svg version="1.1" id="Layer_1" xmlns="http://www.w3.org/2000/svg" xmlns:xlink="http://www.w3.org/1999/xlink" x="0px" y="0px"
	 width="538.248px" height="8.003px" viewBox="0 0 538.248 8.003" enable-background="new 0 0 538.248 8.003" xml:space="preserve">
<g>
	<defs>
		<path id="SVGID_1_" d="M0,4.002c0,0.774,0.628,1.401,1.402,1.401s1.402-0.627,1.402-1.401c0-0.775-0.628-1.402-1.402-1.402
			S0,3.227,0,4.002 M7.426,4.002c0,0.774,0.627,1.401,1.402,1.401s1.403-0.627,1.403-1.401c0-0.775-0.628-1.402-1.403-1.402
			S7.426,3.227,7.426,4.002 M14.852,4.002c0,0.774,0.628,1.401,1.402,1.401s1.403-0.627,1.403-1.401
			c0-0.775-0.629-1.402-1.403-1.402S14.852,3.227,14.852,4.002 M22.277,4.002c0,0.774,0.628,1.401,1.402,1.401
			s1.402-0.627,1.402-1.401c0-0.775-0.628-1.402-1.402-1.402S22.277,3.227,22.277,4.002 M29.703,4.002
			c0,0.774,0.628,1.401,1.403,1.401c0.773,0,1.401-0.627,1.401-1.401c0-0.775-0.628-1.402-1.401-1.402
			C30.331,2.6,29.703,3.227,29.703,4.002 M37.129,4.002c0,0.774,0.628,1.401,1.403,1.401c0.773,0,1.401-0.627,1.401-1.401
			c0-0.775-0.628-1.402-1.401-1.402C37.757,2.6,37.129,3.227,37.129,4.002 M44.555,4.002c0,0.774,0.628,1.401,1.403,1.401
			c0.774,0,1.402-0.627,1.402-1.401c0-0.775-0.628-1.402-1.402-1.402C45.183,2.6,44.555,3.227,44.555,4.002 M51.981,4.002
			c0,0.774,0.628,1.401,1.401,1.401c0.775,0,1.403-0.627,1.403-1.401c0-0.775-0.628-1.402-1.403-1.402
			C52.609,2.6,51.981,3.227,51.981,4.002 M59.407,4.002c0,0.774,0.628,1.401,1.401,1.401c0.775,0,1.402-0.627,1.402-1.401
			c0-0.775-0.627-1.402-1.402-1.402C60.035,2.6,59.407,3.227,59.407,4.002 M66.832,4.002c0,0.774,0.629,1.401,1.403,1.401
			s1.401-0.627,1.401-1.401c0-0.775-0.627-1.402-1.401-1.402S66.832,3.227,66.832,4.002 M74.258,4.002
			c0,0.774,0.629,1.401,1.403,1.401s1.402-0.627,1.402-1.401c0-0.775-0.628-1.402-1.402-1.402S74.258,3.227,74.258,4.002
			 M81.684,4.002c0,0.774,0.629,1.401,1.403,1.401c0.773,0,1.402-0.627,1.402-1.401c0-0.775-0.629-1.402-1.402-1.402
			C82.312,2.6,81.684,3.227,81.684,4.002 M89.11,4.002c0,0.774,0.628,1.401,1.401,1.401c0.774,0,1.403-0.627,1.403-1.401
			c0-0.775-0.629-1.402-1.403-1.402C89.738,2.6,89.11,3.227,89.11,4.002 M96.535,4.002c0,0.774,0.628,1.401,1.403,1.401
			c0.773,0,1.401-0.627,1.401-1.401c0-0.775-0.628-1.402-1.401-1.402C97.163,2.6,96.535,3.227,96.535,4.002 M103.961,4.002
			c0,0.774,0.628,1.401,1.403,1.401c0.773,0,1.401-0.627,1.401-1.401c0-0.775-0.628-1.402-1.401-1.402
			C104.589,2.6,103.961,3.227,103.961,4.002 M111.387,4.002c0,0.774,0.628,1.401,1.403,1.401c0.774,0,1.401-0.627,1.401-1.401
			c0-0.775-0.627-1.402-1.401-1.402C112.015,2.6,111.387,3.227,111.387,4.002 M118.813,4.002c0,0.774,0.628,1.401,1.401,1.401
			c0.775,0,1.402-0.627,1.402-1.401c0-0.775-0.627-1.402-1.402-1.402C119.441,2.6,118.813,3.227,118.813,4.002 M126.239,4.002
			c0,0.774,0.628,1.401,1.401,1.401c0.775,0,1.402-0.627,1.402-1.401c0-0.775-0.627-1.402-1.402-1.402
			C126.867,2.6,126.239,3.227,126.239,4.002 M133.665,4.002c0,0.774,0.627,1.401,1.402,1.401c0.774,0,1.401-0.627,1.401-1.401
			c0-0.775-0.627-1.402-1.401-1.402C134.292,2.6,133.665,3.227,133.665,4.002 M141.091,4.002c0,0.774,0.627,1.401,1.402,1.401
			c0.774,0,1.401-0.627,1.401-1.401c0-0.775-0.627-1.402-1.401-1.402C141.718,2.6,141.091,3.227,141.091,4.002 M148.516,4.002
			c0,0.774,0.629,1.401,1.403,1.401s1.402-0.627,1.402-1.401c0-0.775-0.628-1.402-1.402-1.402S148.516,3.227,148.516,4.002
			 M155.941,4.002c0,0.774,0.629,1.401,1.403,1.401s1.402-0.627,1.402-1.401c0-0.775-0.628-1.402-1.402-1.402
			S155.941,3.227,155.941,4.002 M163.367,4.002c0,0.774,0.629,1.401,1.402,1.401c0.775,0,1.403-0.627,1.403-1.401
			c0-0.775-0.628-1.402-1.403-1.402C163.996,2.6,163.367,3.227,163.367,4.002 M170.793,4.002c0,0.774,0.628,1.401,1.403,1.401
			c0.773,0,1.402-0.627,1.402-1.401c0-0.775-0.629-1.402-1.402-1.402C171.421,2.6,170.793,3.227,170.793,4.002 M178.219,4.002
			c0,0.774,0.628,1.401,1.402,1.401c0.775,0,1.403-0.627,1.403-1.401c0-0.775-0.628-1.402-1.403-1.402
			C178.847,2.6,178.219,3.227,178.219,4.002 M185.645,4.002c0,0.774,0.629,1.401,1.402,1.401c0.775,0,1.402-0.627,1.402-1.401
			c0-0.775-0.627-1.402-1.402-1.402C186.273,2.6,185.645,3.227,185.645,4.002 M193.071,4.002c0,0.774,0.627,1.401,1.401,1.401
			c0.775,0,1.402-0.627,1.402-1.401c0-0.775-0.627-1.402-1.402-1.402C193.698,2.6,193.071,3.227,193.071,4.002 M200.497,4.002
			c0,0.774,0.627,1.401,1.402,1.401c0.773,0,1.401-0.627,1.401-1.401c0-0.775-0.628-1.402-1.401-1.402
			C201.124,2.6,200.497,3.227,200.497,4.002 M207.922,4.002c0,0.774,0.628,1.401,1.403,1.401c0.773,0,1.401-0.627,1.401-1.401
			c0-0.775-0.628-1.402-1.401-1.402C208.55,2.6,207.922,3.227,207.922,4.002 M215.349,4.002c0,0.774,0.628,1.401,1.402,1.401
			s1.402-0.627,1.402-1.401c0-0.775-0.628-1.402-1.402-1.402S215.349,3.227,215.349,4.002 M222.774,4.002
			c0,0.774,0.628,1.401,1.402,1.401s1.402-0.627,1.402-1.401c0-0.775-0.628-1.402-1.402-1.402S222.774,3.227,222.774,4.002
			 M230.2,4.002c0,0.774,0.628,1.401,1.401,1.401c0.775,0,1.403-0.627,1.403-1.401c0-0.775-0.628-1.402-1.403-1.402
			C230.828,2.6,230.2,3.227,230.2,4.002 M237.626,4.002c0,0.774,0.628,1.401,1.403,1.401c0.773,0,1.401-0.627,1.401-1.401
			c0-0.775-0.628-1.402-1.401-1.402C238.254,2.6,237.626,3.227,237.626,4.002 M245.051,4.002c0,0.774,0.629,1.401,1.403,1.401
			s1.402-0.627,1.402-1.401c0-0.775-0.628-1.402-1.402-1.402S245.051,3.227,245.051,4.002 M252.477,4.002
			c0,0.774,0.629,1.401,1.402,1.401c0.775,0,1.403-0.627,1.403-1.401c0-0.775-0.628-1.402-1.403-1.402
			C253.105,2.6,252.477,3.227,252.477,4.002 M259.903,4.002c0,0.774,0.627,1.401,1.401,1.401s1.403-0.627,1.403-1.401
			c0-0.775-0.629-1.402-1.403-1.402S259.903,3.227,259.903,4.002 M267.329,4.002c0,0.774,0.627,1.401,1.402,1.401
			c0.773,0,1.401-0.627,1.401-1.401c0-0.775-0.628-1.402-1.401-1.402C267.956,2.6,267.329,3.227,267.329,4.002 M274.755,4.002
			c0,0.774,0.627,1.401,1.402,1.401c0.773,0,1.401-0.627,1.401-1.401c0-0.775-0.628-1.402-1.401-1.402
			C275.382,2.6,274.755,3.227,274.755,4.002 M282.18,4.002c0,0.774,0.628,1.401,1.403,1.401c0.774,0,1.402-0.627,1.402-1.401
			c0-0.775-0.628-1.402-1.402-1.402C282.808,2.6,282.18,3.227,282.18,4.002 M289.606,4.002c0,0.774,0.628,1.401,1.402,1.401
			s1.402-0.627,1.402-1.401c0-0.775-0.628-1.402-1.402-1.402S289.606,3.227,289.606,4.002 M297.032,4.002
			c0,0.774,0.628,1.401,1.403,1.401c0.773,0,1.401-0.627,1.401-1.401c0-0.775-0.628-1.402-1.401-1.402
			C297.66,2.6,297.032,3.227,297.032,4.002 M304.458,4.002c0,0.774,0.628,1.401,1.402,1.401s1.402-0.627,1.402-1.401
			c0-0.775-0.628-1.402-1.402-1.402S304.458,3.227,304.458,4.002 M311.884,4.002c0,0.774,0.628,1.401,1.402,1.401
			s1.402-0.627,1.402-1.401c0-0.775-0.628-1.402-1.402-1.402S311.884,3.227,311.884,4.002 M319.309,4.002
			c0,0.774,0.629,1.401,1.403,1.401c0.775,0,1.402-0.627,1.402-1.401c0-0.775-0.627-1.402-1.402-1.402
			C319.938,2.6,319.309,3.227,319.309,4.002 M326.735,4.002c0,0.774,0.628,1.401,1.402,1.401s1.402-0.627,1.402-1.401
			c0-0.775-0.628-1.402-1.402-1.402S326.735,3.227,326.735,4.002 M334.16,4.002c0,0.774,0.629,1.401,1.403,1.401
			c0.773,0,1.402-0.627,1.402-1.401c0-0.775-0.629-1.402-1.402-1.402C334.789,2.6,334.16,3.227,334.16,4.002 M341.586,4.002
			c0,0.774,0.628,1.401,1.403,1.401c0.773,0,1.402-0.627,1.402-1.401c0-0.775-0.629-1.402-1.402-1.402
			C342.214,2.6,341.586,3.227,341.586,4.002 M349.012,4.002c0,0.774,0.628,1.401,1.403,1.401c0.774,0,1.403-0.627,1.403-1.401
			c0-0.775-0.629-1.402-1.403-1.402C349.64,2.6,349.012,3.227,349.012,4.002 M356.438,4.002c0,0.774,0.628,1.401,1.402,1.401
			s1.402-0.627,1.402-1.401c0-0.775-0.628-1.402-1.402-1.402S356.438,3.227,356.438,4.002 M363.864,4.002
			c0,0.774,0.628,1.401,1.401,1.401c0.775,0,1.403-0.627,1.403-1.401c0-0.775-0.628-1.402-1.403-1.402
			C364.492,2.6,363.864,3.227,363.864,4.002 M371.29,4.002c0,0.774,0.628,1.401,1.402,1.401s1.401-0.627,1.401-1.401
			c0-0.775-0.627-1.402-1.401-1.402S371.29,3.227,371.29,4.002 M378.633,4.002c0,0.774,0.628,1.401,1.403,1.401
			c0.774,0,1.402-0.627,1.402-1.401c0-0.775-0.628-1.402-1.402-1.402C379.261,2.6,378.633,3.227,378.633,4.002 M385.837,4.002
			c0,0.852,0.69,1.542,1.542,1.542c0.853,0,1.543-0.69,1.543-1.542c0-0.852-0.69-1.543-1.543-1.543
			C386.527,2.459,385.837,3.15,385.837,4.002 M393.18,4.002c0,0.852,0.691,1.542,1.542,1.542c0.854,0,1.543-0.69,1.543-1.542
			c0-0.852-0.689-1.543-1.543-1.543C393.871,2.459,393.18,3.15,393.18,4.002 M400.369,4.002c0,0.937,0.759,1.696,1.696,1.696
			s1.697-0.76,1.697-1.696c0-0.938-0.76-1.697-1.697-1.697S400.369,3.065,400.369,4.002 M407.712,4.002
			c0,0.937,0.76,1.696,1.697,1.696c0.937,0,1.697-0.76,1.697-1.696c0-0.938-0.761-1.697-1.697-1.697
			C408.472,2.305,407.712,3.065,407.712,4.002 M414.886,4.002c0,1.03,0.836,1.866,1.867,1.866c1.03,0,1.866-0.836,1.866-1.866
			c0-1.031-0.836-1.867-1.866-1.867C415.722,2.135,414.886,2.971,414.886,4.002 M422.229,4.002c0,1.03,0.836,1.866,1.866,1.866
			c1.031,0,1.866-0.836,1.866-1.866c0-1.031-0.835-1.867-1.866-1.867C423.065,2.135,422.229,2.971,422.229,4.002 M429.386,4.002
			c0,1.134,0.92,2.053,2.055,2.053c1.134,0,2.053-0.919,2.053-2.053c0-1.134-0.919-2.053-2.053-2.053
			C430.306,1.949,429.386,2.868,429.386,4.002 M436.73,4.002c0,1.134,0.919,2.053,2.053,2.053s2.054-0.919,2.054-2.053
			c0-1.134-0.92-2.053-2.054-2.053S436.73,2.868,436.73,4.002 M443.868,4.002c0,1.247,1.01,2.258,2.258,2.258
			c1.247,0,2.259-1.011,2.259-2.258c0-1.248-1.012-2.259-2.259-2.259C444.878,1.743,443.868,2.754,443.868,4.002 M451.211,4.002
			c0,1.247,1.011,2.258,2.259,2.258c1.247,0,2.259-1.011,2.259-2.258c0-1.248-1.012-2.259-2.259-2.259
			C452.222,1.743,451.211,2.754,451.211,4.002 M458.328,4.002c0,1.372,1.112,2.483,2.484,2.483c1.373,0,2.484-1.111,2.484-2.483
			c0-1.373-1.111-2.485-2.484-2.485C459.44,1.517,458.328,2.629,458.328,4.002 M465.672,4.002c0,1.372,1.112,2.483,2.484,2.483
			c1.373,0,2.484-1.111,2.484-2.483c0-1.373-1.111-2.485-2.484-2.485C466.784,1.517,465.672,2.629,465.672,4.002 M472.768,4.002
			c0,1.509,1.224,2.731,2.732,2.731s2.732-1.223,2.732-2.731c0-1.51-1.224-2.734-2.732-2.734S472.768,2.492,472.768,4.002
			 M480.11,4.002c0,1.509,1.224,2.731,2.732,2.731s2.733-1.223,2.733-2.731c0-1.51-1.225-2.734-2.733-2.734
			S480.11,2.492,480.11,4.002 M487.18,4.002c0,1.659,1.347,3.006,3.006,3.006c1.661,0,3.008-1.347,3.008-3.006
			c0-1.661-1.347-3.006-3.008-3.006C488.526,0.996,487.18,2.341,487.18,4.002 M494.523,4.002c0,1.659,1.347,3.006,3.006,3.006
			c1.661,0,3.007-1.347,3.007-3.006c0-1.661-1.346-3.006-3.007-3.006C495.87,0.996,494.523,2.341,494.523,4.002 M501.567,4.002
			c0,1.825,1.479,3.306,3.306,3.306s3.307-1.48,3.307-3.306c0-1.826-1.48-3.307-3.307-3.307S501.567,2.176,501.567,4.002
			 M508.91,4.002c0,1.825,1.479,3.306,3.306,3.306s3.308-1.48,3.308-3.306c0-1.826-1.481-3.307-3.308-3.307
			S508.91,2.176,508.91,4.002 M515.923,4.002c0,2.009,1.629,3.638,3.638,3.638s3.637-1.629,3.637-3.638
			c0-2.009-1.628-3.638-3.637-3.638S515.923,1.993,515.923,4.002 M530.387,2.96c-0.447-1.501-1.837-2.596-3.482-2.596
			c-2.01,0-3.639,1.629-3.639,3.638c0,2.009,1.629,3.638,3.639,3.638c1.646,0,3.035-1.096,3.482-2.596
			c0.459,1.703,2.012,2.959,3.86,2.959c2.21,0,4.001-1.792,4.001-4.001c0-2.21-1.791-4.002-4.001-4.002
			C532.398,0,530.846,1.256,530.387,2.96"/>
	</defs>
	<use xlink:href="#SVGID_1_"  overflow="visible" fill="#FFFFFF"/>
	<clipPath id="SVGID_2_">
		<use xlink:href="#SVGID_1_"  overflow="visible"/>
	</clipPath>
	<rect clip-path="url(#SVGID_2_)" fill="#FFFFFF" width="538.248" height="8.003"/>
</g>
</svg>
